<?xml version="1.0" encoding="utf-8" standalone="no"?>
<!DOCTYPE svg PUBLIC "-//W3C//DTD SVG 1.1//EN"
  "http://www.w3.org/Graphics/SVG/1.1/DTD/svg11.dtd">
<!-- Created with matplotlib (http://matplotlib.org/) -->
<svg height="432pt" version="1.1" viewBox="0 0 720 432" width="720pt" xmlns="http://www.w3.org/2000/svg" xmlns:xlink="http://www.w3.org/1999/xlink">
 <defs>
  <style type="text/css">
*{stroke-linecap:butt;stroke-linejoin:round;}
  </style>
 </defs>
 <g id="figure_1">
  <g id="patch_1">
   <path d="
M0 432
L720 432
L720 0
L0 0
z
" style="fill:#ffffff;"/>
  </g>
  <g id="axes_1">
   <g id="patch_2">
    <path d="
M36.1459 185.62
L347.775 185.62
L347.775 27.86
L36.1459 27.86
z
" style="fill:#eaeaf2;"/>
   </g>
   <g id="matplotlib.axis_1">
    <g id="xtick_1">
     <g id="line2d_1">
      <path clip-path="url(#pc15d7528cb)" d="
M36.1459 185.62
L36.1459 27.86" style="fill:none;stroke:#ffffff;stroke-linecap:round;"/>
     </g>
     <g id="line2d_2">
      <defs>
       <path d="
M0 0
L0 0" id="m219da94a98" style="stroke:#262626;"/>
      </defs>
      <g>
       <use style="fill:#262626;stroke:#262626;" x="36.1459375" xlink:href="#m219da94a98" y="185.62"/>
      </g>
     </g>
     <g id="line2d_3">
      <g>
       <use style="fill:#262626;stroke:#262626;" x="36.1459375" xlink:href="#m219da94a98" y="27.86"/>
      </g>
     </g>
     <g id="text_1">
      <!-- 0.0 -->
      <defs>
       <path d="
M9.125 0
L9.125 10.6875
L18.6562 10.6875
L18.6562 0
z
" id="LiberationSans-2e"/>
       <path d="
M51.7031 34.4219
Q51.7031 24.5156 49.8281 17.75
Q47.9531 10.9844 44.7031 6.8125
Q41.4531 2.64062 37.0625 0.828125
Q32.6719 -0.984375 27.6875 -0.984375
Q22.6562 -0.984375 18.3125 0.828125
Q13.9688 2.64062 10.7656 6.78125
Q7.5625 10.9375 5.73438 17.7031
Q3.90625 24.4688 3.90625 34.4219
Q3.90625 44.8281 5.73438 51.6406
Q7.5625 58.4531 10.7812 62.5
Q14.0156 66.5469 18.4062 68.1875
Q22.7969 69.8281 27.9844 69.8281
Q32.9062 69.8281 37.2188 68.1875
Q41.5469 66.5469 44.7656 62.5
Q48 58.4531 49.8438 51.6406
Q51.7031 44.8281 51.7031 34.4219
M42.7812 34.4219
Q42.7812 42.625 41.7969 48.0625
Q40.8281 53.5156 38.9219 56.7656
Q37.0156 60.0156 34.25 61.3594
Q31.5 62.7031 27.9844 62.7031
Q24.2656 62.7031 21.4375 61.3281
Q18.6094 59.9688 16.6719 56.7188
Q14.75 53.4688 13.7656 48.0156
Q12.7969 42.5781 12.7969 34.4219
Q12.7969 26.5156 13.7969 21.0938
Q14.7969 15.6719 16.7188 12.375
Q18.6562 9.07812 21.4375 7.64062
Q24.2188 6.20312 27.7812 6.20312
Q31.25 6.20312 34.0312 7.64062
Q36.8125 9.07812 38.7344 12.375
Q40.6719 15.6719 41.7188 21.0938
Q42.7812 26.5156 42.7812 34.4219" id="LiberationSans-30"/>
      </defs>
      <g style="fill:#262626;" transform="translate(29.5865625 199.866875)scale(0.1 -0.1)">
       <use xlink:href="#LiberationSans-30"/>
       <use x="55.615234375" xlink:href="#LiberationSans-2e"/>
       <use x="83.3984375" xlink:href="#LiberationSans-30"/>
      </g>
     </g>
    </g>
    <g id="xtick_2">
     <g id="line2d_4">
      <path clip-path="url(#pc15d7528cb)" d="
M114.053 185.62
L114.053 27.86" style="fill:none;stroke:#ffffff;stroke-linecap:round;"/>
     </g>
     <g id="line2d_5">
      <g>
       <use style="fill:#262626;stroke:#262626;" x="114.053320313" xlink:href="#m219da94a98" y="185.62"/>
      </g>
     </g>
     <g id="line2d_6">
      <g>
       <use style="fill:#262626;stroke:#262626;" x="114.053320313" xlink:href="#m219da94a98" y="27.86"/>
      </g>
     </g>
     <g id="text_2">
      <!-- 0.5 -->
      <defs>
       <path d="
M51.4219 22.4062
Q51.4219 17.2344 49.8594 12.9375
Q48.2969 8.64062 45.2188 5.53125
Q42.1406 2.4375 37.5781 0.71875
Q33.0156 -0.984375 27 -0.984375
Q21.5781 -0.984375 17.5469 0.28125
Q13.5312 1.5625 10.7344 3.78125
Q7.95312 6 6.3125 8.98438
Q4.6875 11.9688 4 15.375
L12.8906 16.4062
Q13.4219 14.4531 14.3906 12.625
Q15.375 10.7969 17.0625 9.34375
Q18.75 7.90625 21.2188 7.04688
Q23.6875 6.20312 27.2031 6.20312
Q30.6094 6.20312 33.3906 7.25
Q36.1875 8.29688 38.1562 10.3438
Q40.1406 12.4062 41.2031 15.375
Q42.2812 18.3594 42.2812 22.2188
Q42.2812 25.3906 41.25 28.0469
Q40.2344 30.7188 38.3281 32.6406
Q36.4219 34.5781 33.6562 35.6406
Q30.9062 36.7188 27.3906 36.7188
Q25.2031 36.7188 23.3438 36.3281
Q21.4844 35.9375 19.8906 35.25
Q18.3125 34.5781 17.0156 33.6719
Q15.7188 32.7656 14.5938 31.7812
L6 31.7812
L8.29688 68.7969
L47.4062 68.7969
L47.4062 61.3281
L16.3125 61.3281
L14.9844 39.5
Q17.3281 41.3125 20.8438 42.5938
Q24.3594 43.8906 29.2031 43.8906
Q34.3281 43.8906 38.4219 42.3281
Q42.5312 40.7656 45.4062 37.9062
Q48.2969 35.0625 49.8594 31.1094
Q51.4219 27.1562 51.4219 22.4062" id="LiberationSans-35"/>
      </defs>
      <g style="fill:#262626;" transform="translate(107.508007813 199.866875)scale(0.1 -0.1)">
       <use xlink:href="#LiberationSans-30"/>
       <use x="55.615234375" xlink:href="#LiberationSans-2e"/>
       <use x="83.3984375" xlink:href="#LiberationSans-35"/>
      </g>
     </g>
    </g>
    <g id="xtick_3">
     <g id="line2d_7">
      <path clip-path="url(#pc15d7528cb)" d="
M191.961 185.62
L191.961 27.86" style="fill:none;stroke:#ffffff;stroke-linecap:round;"/>
     </g>
     <g id="line2d_8">
      <g>
       <use style="fill:#262626;stroke:#262626;" x="191.960703125" xlink:href="#m219da94a98" y="185.62"/>
      </g>
     </g>
     <g id="line2d_9">
      <g>
       <use style="fill:#262626;stroke:#262626;" x="191.960703125" xlink:href="#m219da94a98" y="27.86"/>
      </g>
     </g>
     <g id="text_3">
      <!-- 1.0 -->
      <defs>
       <path d="
M7.625 0
L7.625 7.46875
L25.1406 7.46875
L25.1406 60.4062
L9.625 49.3125
L9.625 57.625
L25.875 68.7969
L33.9844 68.7969
L33.9844 7.46875
L50.7344 7.46875
L50.7344 0
z
" id="LiberationSans-31"/>
      </defs>
      <g style="fill:#262626;" transform="translate(185.587265625 199.866875)scale(0.1 -0.1)">
       <use xlink:href="#LiberationSans-31"/>
       <use x="55.615234375" xlink:href="#LiberationSans-2e"/>
       <use x="83.3984375" xlink:href="#LiberationSans-30"/>
      </g>
     </g>
    </g>
    <g id="xtick_4">
     <g id="line2d_10">
      <path clip-path="url(#pc15d7528cb)" d="
M269.868 185.62
L269.868 27.86" style="fill:none;stroke:#ffffff;stroke-linecap:round;"/>
     </g>
     <g id="line2d_11">
      <g>
       <use style="fill:#262626;stroke:#262626;" x="269.868085937" xlink:href="#m219da94a98" y="185.62"/>
      </g>
     </g>
     <g id="line2d_12">
      <g>
       <use style="fill:#262626;stroke:#262626;" x="269.868085937" xlink:href="#m219da94a98" y="27.86"/>
      </g>
     </g>
     <g id="text_4">
      <!-- 1.5 -->
      <g style="fill:#262626;" transform="translate(263.508710937 199.866875)scale(0.1 -0.1)">
       <use xlink:href="#LiberationSans-31"/>
       <use x="55.615234375" xlink:href="#LiberationSans-2e"/>
       <use x="83.3984375" xlink:href="#LiberationSans-35"/>
      </g>
     </g>
    </g>
    <g id="xtick_5">
     <g id="line2d_13">
      <path clip-path="url(#pc15d7528cb)" d="
M347.775 185.62
L347.775 27.86" style="fill:none;stroke:#ffffff;stroke-linecap:round;"/>
     </g>
     <g id="line2d_14">
      <g>
       <use style="fill:#262626;stroke:#262626;" x="347.77546875" xlink:href="#m219da94a98" y="185.62"/>
      </g>
     </g>
     <g id="line2d_15">
      <g>
       <use style="fill:#262626;stroke:#262626;" x="347.77546875" xlink:href="#m219da94a98" y="27.86"/>
      </g>
     </g>
     <g id="text_5">
      <!-- 2.0 -->
      <defs>
       <path d="
M5.03125 0
L5.03125 6.20312
Q7.51562 11.9219 11.1094 16.2812
Q14.7031 20.6562 18.6562 24.1875
Q22.6094 27.7344 26.4844 30.7656
Q30.375 33.7969 33.5 36.8125
Q36.625 39.8438 38.5469 43.1562
Q40.4844 46.4844 40.4844 50.6875
Q40.4844 53.6094 39.5938 55.8281
Q38.7188 58.0625 37.0625 59.5625
Q35.4062 61.0781 33.0781 61.8281
Q30.7656 62.5938 27.9375 62.5938
Q25.2969 62.5938 22.9688 61.8594
Q20.6562 61.1406 18.8438 59.6719
Q17.0469 58.2031 15.8906 56.0312
Q14.75 53.8594 14.4062 50.9844
L5.42188 51.8125
Q5.85938 55.5156 7.46875 58.7812
Q9.07812 62.0625 11.9062 64.5312
Q14.75 67 18.7188 68.4062
Q22.7031 69.8281 27.9375 69.8281
Q33.0625 69.8281 37.0625 68.6094
Q41.0625 67.3906 43.8125 64.9844
Q46.5781 62.5938 48.0469 59.0781
Q49.5156 55.5625 49.5156 50.9844
Q49.5156 47.5156 48.2656 44.3906
Q47.0156 41.2656 44.9375 38.4219
Q42.875 35.5938 40.1406 32.9531
Q37.4062 30.3281 34.4219 27.8125
Q31.4531 25.2969 28.4219 22.8281
Q25.3906 20.3594 22.7188 17.8594
Q20.0625 15.375 17.9688 12.8125
Q15.875 10.25 14.7031 7.46875
L50.5938 7.46875
L50.5938 0
z
" id="LiberationSans-32"/>
      </defs>
      <g style="fill:#262626;" transform="translate(341.27234375 199.866875)scale(0.1 -0.1)">
       <use xlink:href="#LiberationSans-32"/>
       <use x="55.615234375" xlink:href="#LiberationSans-2e"/>
       <use x="83.3984375" xlink:href="#LiberationSans-30"/>
      </g>
     </g>
    </g>
   </g>
   <g id="matplotlib.axis_2">
    <g id="ytick_1">
     <g id="line2d_16">
      <path clip-path="url(#pc15d7528cb)" d="
M36.1459 185.62
L347.775 185.62" style="fill:none;stroke:#ffffff;stroke-linecap:round;"/>
     </g>
     <g id="line2d_17">
      <g>
       <use style="fill:#262626;stroke:#262626;" x="36.1459375" xlink:href="#m219da94a98" y="185.62"/>
      </g>
     </g>
     <g id="line2d_18">
      <g>
       <use style="fill:#262626;stroke:#262626;" x="347.77546875" xlink:href="#m219da94a98" y="185.62"/>
      </g>
     </g>
     <g id="text_6">
      <!-- −14 -->
      <defs>
       <path d="
M4.9375 29.6875
L4.9375 36.8125
L53.5156 36.8125
L53.5156 29.6875
z
" id="LiberationSans-2212"/>
       <path d="
M43.0156 15.5781
L43.0156 0
L34.7188 0
L34.7188 15.5781
L2.29688 15.5781
L2.29688 22.4062
L33.7969 68.7969
L43.0156 68.7969
L43.0156 22.5156
L52.6875 22.5156
L52.6875 15.5781
z

M34.7188 58.8906
Q34.625 58.6406 34.2344 57.9375
Q33.8438 57.2344 33.3438 56.3438
Q32.8594 55.4688 32.3438 54.5625
Q31.8438 53.6562 31.4531 53.0781
L13.8125 27.0938
Q13.5781 26.7031 13.1094 26.0625
Q12.6406 25.4375 12.1562 24.7812
Q11.6719 24.125 11.1719 23.4844
Q10.6875 22.8594 10.4062 22.5156
L34.7188 22.5156
z
" id="LiberationSans-34"/>
      </defs>
      <g style="fill:#262626;" transform="translate(12.969375 188.2059375)scale(0.1 -0.1)">
       <use xlink:href="#LiberationSans-2212"/>
       <use x="58.3984375" xlink:href="#LiberationSans-31"/>
       <use x="114.013671875" xlink:href="#LiberationSans-34"/>
      </g>
     </g>
    </g>
    <g id="ytick_2">
     <g id="line2d_19">
      <path clip-path="url(#pc15d7528cb)" d="
M36.1459 159.327
L347.775 159.327" style="fill:none;stroke:#ffffff;stroke-linecap:round;"/>
     </g>
     <g id="line2d_20">
      <g>
       <use style="fill:#262626;stroke:#262626;" x="36.1459375" xlink:href="#m219da94a98" y="159.326666667"/>
      </g>
     </g>
     <g id="line2d_21">
      <g>
       <use style="fill:#262626;stroke:#262626;" x="347.77546875" xlink:href="#m219da94a98" y="159.326666667"/>
      </g>
     </g>
     <g id="text_7">
      <!-- −12 -->
      <g style="fill:#262626;" transform="translate(13.17875 161.912604167)scale(0.1 -0.1)">
       <use xlink:href="#LiberationSans-2212"/>
       <use x="58.3984375" xlink:href="#LiberationSans-31"/>
       <use x="114.013671875" xlink:href="#LiberationSans-32"/>
      </g>
     </g>
    </g>
    <g id="ytick_3">
     <g id="line2d_22">
      <path clip-path="url(#pc15d7528cb)" d="
M36.1459 133.033
L347.775 133.033" style="fill:none;stroke:#ffffff;stroke-linecap:round;"/>
     </g>
     <g id="line2d_23">
      <g>
       <use style="fill:#262626;stroke:#262626;" x="36.1459375" xlink:href="#m219da94a98" y="133.033333333"/>
      </g>
     </g>
     <g id="line2d_24">
      <g>
       <use style="fill:#262626;stroke:#262626;" x="347.77546875" xlink:href="#m219da94a98" y="133.033333333"/>
      </g>
     </g>
     <g id="text_8">
      <!-- −10 -->
      <g style="fill:#262626;" transform="translate(13.0678125 135.619270833)scale(0.1 -0.1)">
       <use xlink:href="#LiberationSans-2212"/>
       <use x="58.3984375" xlink:href="#LiberationSans-31"/>
       <use x="114.013671875" xlink:href="#LiberationSans-30"/>
      </g>
     </g>
    </g>
    <g id="ytick_4">
     <g id="line2d_25">
      <path clip-path="url(#pc15d7528cb)" d="
M36.1459 106.74
L347.775 106.74" style="fill:none;stroke:#ffffff;stroke-linecap:round;"/>
     </g>
     <g id="line2d_26">
      <g>
       <use style="fill:#262626;stroke:#262626;" x="36.1459375" xlink:href="#m219da94a98" y="106.74"/>
      </g>
     </g>
     <g id="line2d_27">
      <g>
       <use style="fill:#262626;stroke:#262626;" x="347.77546875" xlink:href="#m219da94a98" y="106.74"/>
      </g>
     </g>
     <g id="text_9">
      <!-- −8 -->
      <defs>
       <path d="
M51.2656 19.1875
Q51.2656 14.7969 49.875 11.1094
Q48.4844 7.42188 45.625 4.73438
Q42.7812 2.04688 38.3281 0.53125
Q33.8906 -0.984375 27.8281 -0.984375
Q21.7812 -0.984375 17.3594 0.53125
Q12.9375 2.04688 10.0312 4.70312
Q7.125 7.375 5.73438 11.0625
Q4.34375 14.75 4.34375 19.0938
Q4.34375 22.8594 5.48438 25.7812
Q6.64062 28.7188 8.5625 30.8281
Q10.5 32.9531 12.9688 34.25
Q15.4375 35.5469 18.0625 35.9844
L18.0625 36.1875
Q15.1875 36.8594 12.9062 38.375
Q10.6406 39.8906 9.09375 42.0156
Q7.5625 44.1406 6.75 46.7188
Q5.95312 49.3125 5.95312 52.2031
Q5.95312 55.8125 7.34375 59
Q8.73438 62.2031 11.4688 64.625
Q14.2031 67.0469 18.25 68.4375
Q22.3125 69.8281 27.6406 69.8281
Q33.25 69.8281 37.375 68.4062
Q41.5 67 44.2031 64.5781
Q46.9219 62.1562 48.2344 58.9375
Q49.5625 55.7188 49.5625 52.0938
Q49.5625 49.2656 48.75 46.6719
Q47.9531 44.0938 46.4062 41.9688
Q44.875 39.8438 42.5938 38.3438
Q40.3281 36.8594 37.3594 36.2812
L37.3594 36.0781
Q40.3281 35.5938 42.8594 34.2969
Q45.4062 33.0156 47.2656 30.8906
Q49.125 28.7656 50.1875 25.8281
Q51.2656 22.9062 51.2656 19.1875
M40.4375 51.6094
Q40.4375 54.2031 39.7656 56.3438
Q39.1094 58.5 37.5938 60.0312
Q36.0781 61.5781 33.6406 62.4219
Q31.2031 63.2812 27.6406 63.2812
Q24.1719 63.2812 21.7812 62.4219
Q19.3906 61.5781 17.8438 60.0312
Q16.3125 58.5 15.625 56.3438
Q14.9375 54.2031 14.9375 51.6094
Q14.9375 49.5625 15.4688 47.4062
Q16.0156 45.2656 17.4219 43.5
Q18.8438 41.75 21.3281 40.625
Q23.8281 39.5 27.7344 39.5
Q31.8906 39.5 34.4062 40.625
Q36.9219 41.75 38.25 43.5
Q39.5938 45.2656 40.0156 47.4062
Q40.4375 49.5625 40.4375 51.6094
M42.1406 20.0156
Q42.1406 22.5156 41.4531 24.8281
Q40.7656 27.1562 39.1094 28.9375
Q37.4531 30.7188 34.6406 31.8125
Q31.8438 32.9062 27.6406 32.9062
Q23.7812 32.9062 21.0625 31.8125
Q18.3594 30.7188 16.6719 28.9062
Q14.9844 27.0938 14.2031 24.7188
Q13.4219 22.3594 13.4219 19.8281
Q13.4219 16.6562 14.2031 14.0312
Q14.9844 11.4219 16.6875 9.54688
Q18.4062 7.67188 21.1875 6.64062
Q23.9688 5.60938 27.9375 5.60938
Q31.9375 5.60938 34.6719 6.64062
Q37.4062 7.67188 39.0625 9.54688
Q40.7188 11.4219 41.4219 14.0781
Q42.1406 16.75 42.1406 20.0156" id="LiberationSans-38"/>
      </defs>
      <g style="fill:#262626;" transform="translate(18.6725 109.3259375)scale(0.1 -0.1)">
       <use xlink:href="#LiberationSans-2212"/>
       <use x="58.3984375" xlink:href="#LiberationSans-38"/>
      </g>
     </g>
    </g>
    <g id="ytick_5">
     <g id="line2d_28">
      <path clip-path="url(#pc15d7528cb)" d="
M36.1459 80.4467
L347.775 80.4467" style="fill:none;stroke:#ffffff;stroke-linecap:round;"/>
     </g>
     <g id="line2d_29">
      <g>
       <use style="fill:#262626;stroke:#262626;" x="36.1459375" xlink:href="#m219da94a98" y="80.4466666667"/>
      </g>
     </g>
     <g id="line2d_30">
      <g>
       <use style="fill:#262626;stroke:#262626;" x="347.77546875" xlink:href="#m219da94a98" y="80.4466666667"/>
      </g>
     </g>
     <g id="text_10">
      <!-- −6 -->
      <defs>
       <path d="
M51.2188 22.5156
Q51.2188 17.3281 49.7812 13
Q48.3438 8.6875 45.5312 5.57812
Q42.7188 2.48438 38.5625 0.75
Q34.4219 -0.984375 29 -0.984375
Q23 -0.984375 18.5 1.3125
Q14.0156 3.60938 11.0312 7.92188
Q8.0625 12.25 6.5625 18.5312
Q5.07812 24.8125 5.07812 32.8125
Q5.07812 42 6.76562 48.9219
Q8.45312 55.8594 11.625 60.5
Q14.7969 65.1406 19.3594 67.4844
Q23.9219 69.8281 29.6875 69.8281
Q33.2031 69.8281 36.2812 69.0938
Q39.3594 68.3594 41.875 66.7188
Q44.3906 65.0938 46.2812 62.4062
Q48.1875 59.7188 49.3125 55.8125
L40.9219 54.2969
Q39.5469 58.7344 36.5469 60.7188
Q33.5469 62.7031 29.5938 62.7031
Q25.9844 62.7031 23.0469 60.9844
Q20.125 59.2812 18.0625 55.875
Q16.0156 52.4844 14.9062 47.3594
Q13.8125 42.2344 13.8125 35.4062
Q16.2188 39.8438 20.5625 42.1562
Q24.9062 44.4844 30.5156 44.4844
Q35.2031 44.4844 39.0156 42.9688
Q42.8281 41.4531 45.5312 38.5938
Q48.25 35.75 49.7344 31.6719
Q51.2188 27.5938 51.2188 22.5156
M42.2812 22.125
Q42.2812 25.6875 41.4062 28.5625
Q40.5312 31.4531 38.7656 33.4688
Q37.0156 35.5 34.4219 36.5938
Q31.8438 37.7031 28.4219 37.7031
Q26.0312 37.7031 23.5781 36.9844
Q21.1406 36.2812 19.1562 34.6875
Q17.1875 33.1094 15.9375 30.5156
Q14.7031 27.9375 14.7031 24.2188
Q14.7031 20.4062 15.6719 17.1094
Q16.6562 13.8125 18.4844 11.375
Q20.3125 8.9375 22.8906 7.51562
Q25.4844 6.10938 28.7188 6.10938
Q31.8906 6.10938 34.4062 7.20312
Q36.9219 8.29688 38.6719 10.375
Q40.4375 12.4531 41.3594 15.4219
Q42.2812 18.4062 42.2812 22.125" id="LiberationSans-36"/>
      </defs>
      <g style="fill:#262626;" transform="translate(18.6771875 83.0326041667)scale(0.1 -0.1)">
       <use xlink:href="#LiberationSans-2212"/>
       <use x="58.3984375" xlink:href="#LiberationSans-36"/>
      </g>
     </g>
    </g>
    <g id="ytick_6">
     <g id="line2d_31">
      <path clip-path="url(#pc15d7528cb)" d="
M36.1459 54.1533
L347.775 54.1533" style="fill:none;stroke:#ffffff;stroke-linecap:round;"/>
     </g>
     <g id="line2d_32">
      <g>
       <use style="fill:#262626;stroke:#262626;" x="36.1459375" xlink:href="#m219da94a98" y="54.1533333333"/>
      </g>
     </g>
     <g id="line2d_33">
      <g>
       <use style="fill:#262626;stroke:#262626;" x="347.77546875" xlink:href="#m219da94a98" y="54.1533333333"/>
      </g>
     </g>
     <g id="text_11">
      <!-- −4 -->
      <g style="fill:#262626;" transform="translate(18.5303125 56.7392708333)scale(0.1 -0.1)">
       <use xlink:href="#LiberationSans-2212"/>
       <use x="58.3984375" xlink:href="#LiberationSans-34"/>
      </g>
     </g>
    </g>
    <g id="ytick_7">
     <g id="line2d_34">
      <path clip-path="url(#pc15d7528cb)" d="
M36.1459 27.86
L347.775 27.86" style="fill:none;stroke:#ffffff;stroke-linecap:round;"/>
     </g>
     <g id="line2d_35">
      <g>
       <use style="fill:#262626;stroke:#262626;" x="36.1459375" xlink:href="#m219da94a98" y="27.86"/>
      </g>
     </g>
     <g id="line2d_36">
      <g>
       <use style="fill:#262626;stroke:#262626;" x="347.77546875" xlink:href="#m219da94a98" y="27.86"/>
      </g>
     </g>
     <g id="text_12">
      <!-- −2 -->
      <g style="fill:#262626;" transform="translate(18.7396875 30.4459375)scale(0.1 -0.1)">
       <use xlink:href="#LiberationSans-2212"/>
       <use x="58.3984375" xlink:href="#LiberationSans-32"/>
      </g>
     </g>
    </g>
   </g>
   <g id="line2d_37">
    <path clip-path="url(#pc15d7528cb)" d="
M36.1459 28.3504
L43.9367 28.283
L51.7274 28.4188
L59.5182 29.0161
L67.3089 30.3359
L75.0996 34.3385
L82.8904 39.0815
L90.6811 36.3991
L98.4718 32.7813
L106.263 34.8888
L114.053 34.9397
L121.844 35.273
L129.635 36.1509
L137.426 35.6375
L145.216 39.8387
L153.007 41.5951
L160.798 40.4609
L168.588 45.3029
L176.379 46.607
L184.17 48.9821
L191.961 50.0214
L199.751 51.3355
L207.542 54.8761
L215.333 55.8536
L223.124 57.514
L230.914 60.2724
L238.705 61.6976
L246.496 64.6074
L254.287 65.7985
L262.077 67.318
L269.868 70.341
L277.659 71.7726
L285.45 72.5423
L293.24 76.0555
L301.031 77.2723
L308.822 80.1312
L316.613 81.5151
L324.403 83.2115
L332.194 85.8689
L339.985 87.3659
L347.775 88.5527" style="fill:none;stroke:#4c72b0;stroke-linecap:round;stroke-width:1.75;"/>
   </g>
   <g id="line2d_38">
    <path clip-path="url(#pc15d7528cb)" d="
M36.1459 28.3504
L43.9367 28.362
L51.7274 29.9831
L59.5182 35.2901
L67.3089 42.4049
L75.0996 53.7154
L82.8904 54.8628
L90.6811 45.5601
L98.4718 42.066
L106.263 44.3797
L114.053 44.0471
L121.844 44.7172
L129.635 46.3627
L137.426 45.848
L145.216 51.9692
L153.007 54.3821
L160.798 54.2862
L168.588 60.7863
L176.379 62.8541
L184.17 66.846
L191.961 69.3111
L199.751 72.4076
L207.542 76.7674
L215.333 78.8219
L223.124 81.3621
L230.914 85.8438
L238.705 88.1118
L246.496 92.4765
L254.287 94.8696
L262.077 97.2894
L269.868 101.779
L277.659 103.955
L285.45 105.939
L293.24 110.51
L301.031 112.742
L308.822 116.871
L316.613 119.231
L324.403 121.477
L332.194 125.403
L339.985 128.255
L347.775 130.591" style="fill:none;stroke:#55a868;stroke-linecap:round;stroke-width:1.75;"/>
   </g>
   <g id="line2d_39">
    <path clip-path="url(#pc15d7528cb)" d="
M36.1459 28.3504
L43.9367 28.8585
L51.7274 34.8461
L59.5182 45.9013
L67.3089 58.0974
L75.0996 73.1305
L82.8904 66.4929
L90.6811 53.0582
L98.4718 47.3765
L106.263 50.7317
L114.053 49.5596
L121.844 50.4073
L129.635 52.333
L137.426 52.287
L145.216 59.6158
L153.007 62.1931
L160.798 62.8489
L168.588 70.1041
L176.379 72.5757
L184.17 79.0564
L191.961 80.6438
L199.751 83.1473
L207.542 88.1933
L215.333 92.642
L223.124 93.583
L230.914 98.4595
L238.705 101.422
L246.496 106.46
L254.287 109.201
L262.077 113.635
L269.868 119.018
L277.659 121.785
L285.45 124.222
L293.24 129.463
L301.031 132.377
L308.822 135.717
L316.613 140.399
L324.403 143.257
L332.194 150.232
L339.985 151.063
L347.775 153.832" style="fill:none;stroke:#c44e52;stroke-linecap:round;stroke-width:1.75;"/>
   </g>
   <g id="line2d_40">
    <path clip-path="url(#pc15d7528cb)" d="
M36.1459 28.3504
L43.9367 29.8683
L51.7274 40.7601
L59.5182 55.2066
L67.3089 73.3816
L75.0996 89.5301
L82.8904 74.086
L90.6811 58.2515
L98.4718 57.5176
L106.263 55.1817
L114.053 54.4521
L121.844 55.0879
L129.635 57.033
L137.426 56.514
L145.216 64.4067
L153.007 67.48
L160.798 68.0389
L168.588 76.0364
L176.379 78.5907
L184.17 84.1217
L191.961 87.1473
L199.751 91.661
L207.542 97.3541
L215.333 100.311
L223.124 103.612
L230.914 109.124
L238.705 112.327
L246.496 117.992
L254.287 120.954
L262.077 123.871
L269.868 129.883
L277.659 133.005
L285.45 135.339
L293.24 141.567
L301.031 144.457
L308.822 147.363
L316.613 153.144
L324.403 156.31
L332.194 161.354
L339.985 164.719
L347.775 167.473" style="fill:none;stroke:#8172b2;stroke-linecap:round;stroke-width:1.75;"/>
   </g>
   <g id="line2d_41">
    <path clip-path="url(#pc15d7528cb)" d="
M36.1459 28.3504
L43.9367 31.1346
L51.7274 47.4803
L59.5182 67.5836
L67.3089 88.5667
L75.0996 104.092
L82.8904 80.7757
L90.6811 62.9691
L98.4718 61.8256
L106.263 58.546
L114.053 57.5134
L121.844 58.3148
L129.635 60.604
L137.426 59.7
L145.216 68.0382
L153.007 71.0731
L160.798 73.1554
L168.588 81.8052
L176.379 84.8411
L184.17 90.8239
L191.961 94.37
L199.751 97.7308
L207.542 103.363
L215.333 106.837
L223.124 110.135
L230.914 116.463
L238.705 119.219
L246.496 125.142
L254.287 128.413
L262.077 131.759
L269.868 137.61
L277.659 141.236
L285.45 143.588
L293.24 150.328
L301.031 153.201
L308.822 159.342
L316.613 165.467
L324.403 169.064
L332.194 175.053
L339.985 178.646
L347.775 181.548" style="fill:none;stroke:#ccb974;stroke-linecap:round;stroke-width:1.75;"/>
   </g>
   <g id="patch_3">
    <path d="
M36.1459 27.86
L347.775 27.86" style="fill:none;"/>
   </g>
   <g id="patch_4">
    <path d="
M347.775 185.62
L347.775 27.86" style="fill:none;"/>
   </g>
   <g id="patch_5">
    <path d="
M36.1459 185.62
L347.775 185.62" style="fill:none;"/>
   </g>
   <g id="patch_6">
    <path d="
M36.1459 185.62
L36.1459 27.86" style="fill:none;"/>
   </g>
   <g id="text_13">
    <!-- [jerk] SPARC vs. $\Delta T$ -->
    <defs>
     <path d="
M46.3906 14.5938
Q46.3906 10.8906 44.9375 7.98438
Q43.5 5.07812 40.7656 3.09375
Q38.0312 1.125 34.0469 0.0625
Q30.0781 -0.984375 24.9531 -0.984375
Q20.3594 -0.984375 16.6719 -0.265625
Q12.9844 0.4375 10.2031 2
Q7.42188 3.5625 5.53125 6.125
Q3.65625 8.6875 2.78125 12.4062
L10.5469 13.9219
Q11.6719 9.67188 15.1875 7.6875
Q18.7031 5.71875 24.9531 5.71875
Q27.7812 5.71875 30.1406 6.10938
Q32.5156 6.5 34.2188 7.45312
Q35.9375 8.40625 36.8906 9.98438
Q37.8438 11.5781 37.8438 13.9219
Q37.8438 16.3125 36.7188 17.8438
Q35.5938 19.3906 33.5938 20.4062
Q31.5938 21.4375 28.7344 22.1875
Q25.875 22.9531 22.4688 23.875
Q19.2812 24.7031 16.1562 25.7344
Q13.0312 26.7656 10.5156 28.4375
Q8.01562 30.125 6.45312 32.6094
Q4.89062 35.1094 4.89062 38.875
Q4.89062 46.0938 10.0312 49.875
Q15.1875 53.6562 25.0469 53.6562
Q33.7969 53.6562 38.9375 50.5781
Q44.0938 47.5156 45.4531 40.7188
L37.5469 39.75
Q37.1094 41.7969 35.9375 43.1875
Q34.7656 44.5781 33.1094 45.4375
Q31.4531 46.2969 29.375 46.6562
Q27.2969 47.0156 25.0469 47.0156
Q19.0938 47.0156 16.25 45.2031
Q13.4219 43.4062 13.4219 39.75
Q13.4219 37.5938 14.4688 36.2031
Q15.5312 34.8125 17.4062 33.8594
Q19.2812 32.9062 21.9219 32.2031
Q24.5625 31.5 27.7344 30.7188
Q29.8281 30.1719 32.0312 29.5625
Q34.2344 28.9531 36.2969 28.0938
Q38.375 27.25 40.2031 26.0938
Q42.0469 24.9531 43.4062 23.3438
Q44.7812 21.7344 45.5781 19.5781
Q46.3906 17.4375 46.3906 14.5938" id="LiberationSans-73"/>
     <path d="
M13.4844 24.5625
Q13.4844 20.4062 14.3281 16.9062
Q15.1875 13.4219 16.9688 10.9062
Q18.75 8.40625 21.5312 7
Q24.3125 5.60938 28.2188 5.60938
Q33.9375 5.60938 37.375 7.90625
Q40.8281 10.2031 42.0469 13.7188
L49.75 11.5312
Q48.9219 9.32812 47.4375 7.10938
Q45.9531 4.89062 43.4531 3.09375
Q40.9688 1.3125 37.2344 0.15625
Q33.5 -0.984375 28.2188 -0.984375
Q16.5 -0.984375 10.375 6
Q4.25 12.9844 4.25 26.7656
Q4.25 34.1875 6.09375 39.3281
Q7.95312 44.4844 11.1719 47.7031
Q14.4062 50.9219 18.7031 52.3594
Q23 53.8125 27.875 53.8125
Q34.5156 53.8125 38.9844 51.6562
Q43.4531 49.5156 46.1562 45.7188
Q48.875 41.9375 50.0156 36.8125
Q51.1719 31.6875 51.1719 25.7344
L51.1719 24.5625
z

M42.0938 31.2969
Q41.3594 39.6562 37.8438 43.4844
Q34.3281 47.3125 27.7344 47.3125
Q25.5312 47.3125 23.1094 46.6094
Q20.7031 45.9062 18.6562 44.0938
Q16.6094 42.2812 15.1875 39.1719
Q13.7656 36.0781 13.5781 31.2969
z
" id="LiberationSans-65"/>
     <path d="
M38.6719 62.2031
Q32.8125 62.2031 28.2969 60.25
Q23.7812 58.2969 20.7188 54.6875
Q17.6719 51.0781 16.1094 46
Q14.5469 40.9219 14.5469 34.7188
Q14.5469 28.5156 16.2344 23.3594
Q17.9219 18.2188 21.0625 14.5
Q24.2188 10.7969 28.7812 8.73438
Q33.3438 6.6875 39.0625 6.6875
Q43.0625 6.6875 46.3594 7.73438
Q49.6562 8.79688 52.3125 10.6875
Q54.9844 12.5938 57.0781 15.2031
Q59.1875 17.8281 60.7969 21
L68.4062 17.1875
Q66.5469 13.3281 63.8125 10
Q61.0781 6.6875 57.3906 4.25
Q53.7188 1.8125 49.0469 0.40625
Q44.3906 -0.984375 38.625 -0.984375
Q30.2812 -0.984375 24 1.67188
Q17.7188 4.34375 13.5 9.10938
Q9.28125 13.875 7.17188 20.4062
Q5.07812 26.9531 5.07812 34.7188
Q5.07812 42.7812 7.29688 49.2656
Q9.51562 55.7656 13.7812 60.3281
Q18.0625 64.8906 24.3125 67.3594
Q30.5625 69.8281 38.5781 69.8281
Q49.5625 69.8281 56.9375 65.5312
Q64.3125 61.2344 67.7812 52.7812
L58.9375 49.8594
Q57.9531 52.2969 56.2969 54.5156
Q54.6406 56.7344 52.1406 58.4375
Q49.6562 60.1562 46.3125 61.1719
Q42.9688 62.2031 38.6719 62.2031" id="LiberationSans-43"/>
     <path d="
M6.9375 0
L6.9375 40.5312
Q6.9375 42.1875 6.90625 43.9219
Q6.89062 45.6562 6.82812 47.2656
Q6.78125 48.875 6.73438 50.2812
Q6.6875 51.7031 6.64062 52.8281
L14.9375 52.8281
Q14.9844 51.7031 15.0625 50.2656
Q15.1406 48.8281 15.2031 47.3125
Q15.2812 45.7969 15.2969 44.4062
Q15.3281 43.0156 15.3281 42.0469
L15.5312 42.0469
Q16.4531 45.0625 17.5 47.2812
Q18.5625 49.5156 19.9688 50.9531
Q21.3906 52.3906 23.3438 53.0938
Q25.2969 53.8125 28.0781 53.8125
Q29.1562 53.8125 30.125 53.6406
Q31.1094 53.4688 31.6406 53.3281
L31.6406 45.2656
Q30.7656 45.5156 29.5938 45.625
Q28.4219 45.75 26.9531 45.75
Q23.9219 45.75 21.7969 44.375
Q19.6719 43.0156 18.3281 40.5938
Q17 38.1875 16.3594 34.8438
Q15.7188 31.5 15.7188 27.5469
L15.7188 0
z
" id="LiberationSans-72"/>
     <path d="
M0.78125 -20.75
L0.78125 -14.4531
L12.1562 -14.4531
L12.1562 66.1562
L0.78125 66.1562
L0.78125 72.4688
L20.6562 72.4688
L20.6562 -20.75
z
" id="LiberationSans-5d"/>
     <path d="
M5.42188 0
Q4.59375 0 4.59375 0.78125
Q4.64062 0.875 4.65625 0.921875
Q4.6875 0.984375 4.6875 1.125
L39.1094 70.5156
Q39.5469 71.5781 40.9219 71.5781
L42.2812 71.5781
Q43.6562 71.5781 44.0938 70.5156
L78.5156 1.125
Q78.5625 1.03125 78.5781 0.953125
Q78.6094 0.875 78.6094 0.78125
Q78.6094 0 77.7812 0
z

M12.0156 8.01562
L64.7031 8.01562
L38.375 61.0781
z
" id="Cmr10-a2"/>
     <path d="
M4.59375 1.3125
Q4.64062 1.5625 4.8125 2.1875
Q4.98438 2.82812 5.25 3.17188
Q5.51562 3.51562 6 3.51562
Q14.5938 3.51562 17.3906 4
Q20.0625 4.6875 20.6094 6.89062
L34.2812 61.8125
Q34.7188 63.0312 34.7188 64.0156
Q34.7188 64.7969 31.2031 64.7969
L25.3906 64.7969
Q18.7031 64.7969 15.0625 62.7344
Q11.4219 60.6875 9.71875 57.3125
Q8.01562 53.9531 5.32812 46.2969
Q4.98438 45.4062 4.29688 45.4062
L3.42188 45.4062
Q2.39062 45.4062 2.39062 46.6875
L9.51562 67.3906
Q9.71875 68.3125 10.5 68.3125
L69.5781 68.3125
Q70.6094 68.3125 70.6094 67
L67.2812 46.2969
Q67.2812 46 66.9375 45.7031
Q66.6094 45.4062 66.3125 45.4062
L65.375 45.4062
Q64.4062 45.4062 64.4062 46.6875
Q65.4844 53.7656 65.4844 56.6875
Q65.4844 60.2031 64.0156 62
Q62.5469 63.8125 60.2031 64.2969
Q57.8594 64.7969 54.1094 64.7969
L48.1875 64.7969
Q45.5156 64.7969 44.5781 64.2969
Q43.6562 63.8125 43.0156 61.375
L29.2969 6.5
Q29.25 6.29688 29.2188 6.09375
Q29.2031 5.90625 29.1094 5.60938
Q29.1094 4.34375 30.6094 4
Q33.2031 3.51562 41.7031 3.51562
Q42.6719 3.51562 42.6719 2.20312
Q42.3281 0.78125 42.125 0.390625
Q41.9375 0 41.0156 0
L5.60938 0
Q4.59375 0 4.59375 1.3125" id="Cmmi10-54"/>
     <path d="
M7.125 -20.75
L7.125 72.4688
L27 72.4688
L27 66.1562
L15.625 66.1562
L15.625 -14.4531
L27 -14.4531
L27 -20.75
z
" id="LiberationSans-5b"/>
     <path d="
M29.9375 0
L19.5312 0
L0.34375 52.8281
L9.71875 52.8281
L21.3438 18.4531
Q21.6875 17.3906 22.1406 15.8438
Q22.6094 14.3125 23.0938 12.6406
Q23.5781 10.9844 24 9.4375
Q24.4219 7.90625 24.7031 6.89062
Q25 7.90625 25.4531 9.4375
Q25.9219 10.9844 26.4062 12.5938
Q26.9062 14.2031 27.4219 15.7344
Q27.9375 17.2812 28.3281 18.3594
L40.3281 52.8281
L49.6562 52.8281
z
" id="LiberationSans-76"/>
     <path d="
M6.6875 64.0625
L6.6875 72.4688
L15.4844 72.4688
L15.4844 64.0625
z

M15.4844 -6.54688
Q15.4844 -9.57812 14.9688 -12.1562
Q14.4531 -14.75 13.125 -16.6562
Q11.8125 -18.5625 9.54688 -19.6562
Q7.28125 -20.75 3.76562 -20.75
Q2.09375 -20.75 0.5 -20.6562
Q-1.07812 -20.5625 -2.4375 -20.3125
L-2.4375 -13.5312
Q-1.8125 -13.625 -0.921875 -13.7188
Q-0.046875 -13.8125 0.59375 -13.8125
Q2.4375 -13.8125 3.625 -13.3281
Q4.82812 -12.8438 5.51562 -11.7969
Q6.20312 -10.75 6.4375 -9.10938
Q6.6875 -7.46875 6.6875 -5.21875
L6.6875 52.8281
L15.4844 52.8281
z
" id="LiberationSans-6a"/>
     <path d="
M39.8438 0
L21.9688 24.125
L15.5312 18.7969
L15.5312 0
L6.73438 0
L6.73438 72.4688
L15.5312 72.4688
L15.5312 27.2031
L38.7188 52.8281
L49.0312 52.8281
L27.5938 30.125
L50.1406 0
z
" id="LiberationSans-6b"/>
     <path id="LiberationSans-20"/>
     <path d="
M56.8438 0
L38.9688 28.5625
L17.5312 28.5625
L17.5312 0
L8.20312 0
L8.20312 68.7969
L40.5781 68.7969
Q46.4375 68.7969 50.9531 67.4531
Q55.4688 66.1094 58.5469 63.5625
Q61.625 61.0312 63.2344 57.375
Q64.8438 53.7188 64.8438 49.125
Q64.8438 45.8438 63.8906 42.6719
Q62.9375 39.5 60.8906 36.8594
Q58.8438 34.2344 55.6562 32.3281
Q52.4844 30.4219 48.0469 29.6406
L67.5781 0
z

M55.4688 49.0312
Q55.4688 52.1562 54.3906 54.4375
Q53.3281 56.7344 51.2656 58.2656
Q49.2188 59.8125 46.2812 60.5625
Q43.3594 61.3281 39.6562 61.3281
L17.5312 61.3281
L17.5312 35.9375
L40.0469 35.9375
Q44.0469 35.9375 46.9688 36.9375
Q49.9062 37.9375 51.7812 39.6875
Q53.6562 41.4531 54.5625 43.8438
Q55.4688 46.2344 55.4688 49.0312" id="LiberationSans-52"/>
     <path d="
M61.4219 48.0938
Q61.4219 43.6094 59.9375 39.7188
Q58.4531 35.8438 55.5 32.9844
Q52.5469 30.125 48.0938 28.4688
Q43.6562 26.8125 37.75 26.8125
L17.5312 26.8125
L17.5312 0
L8.20312 0
L8.20312 68.7969
L37.1562 68.7969
Q43.2656 68.7969 47.7969 67.3125
Q52.3438 65.8281 55.375 63.1094
Q58.4062 60.4062 59.9062 56.5625
Q61.4219 52.7344 61.4219 48.0938
M52.0469 48
Q52.0469 54.5469 48.0469 57.9375
Q44.0469 61.3281 36.0312 61.3281
L17.5312 61.3281
L17.5312 34.1875
L36.4219 34.1875
Q44.4844 34.1875 48.2656 37.75
Q52.0469 41.3125 52.0469 48" id="LiberationSans-50"/>
     <path d="
M62.1094 19
Q62.1094 14.6562 60.4219 10.9844
Q58.7344 7.32812 55.2188 4.65625
Q51.7031 2 46.3594 0.5
Q41.0156 -0.984375 33.6875 -0.984375
Q20.8438 -0.984375 13.6719 3.51562
Q6.5 8.01562 4.54688 16.5
L13.5781 18.3125
Q14.2656 15.625 15.6719 13.4219
Q17.0938 11.2344 19.5 9.64062
Q21.9219 8.0625 25.4844 7.17188
Q29.0469 6.29688 34.0312 6.29688
Q38.1875 6.29688 41.6562 7
Q45.125 7.71875 47.6094 9.17188
Q50.0938 10.6406 51.4844 12.9531
Q52.875 15.2812 52.875 18.5
Q52.875 21.875 51.3438 23.9688
Q49.8125 26.0781 47.0156 27.4375
Q44.2344 28.8125 40.375 29.7344
Q36.5312 30.6719 31.8438 31.7344
Q28.9531 32.375 26.0469 33.125
Q23.1406 33.8906 20.4844 34.9375
Q17.8281 35.9844 15.4844 37.3906
Q13.1406 38.8125 11.4219 40.7969
Q9.71875 42.7812 8.73438 45.3906
Q7.76562 48 7.76562 51.4219
Q7.76562 56.2969 9.73438 59.7812
Q11.7188 63.2812 15.2344 65.5312
Q18.75 67.7812 23.5312 68.7969
Q28.3281 69.8281 33.8906 69.8281
Q40.2812 69.8281 44.8125 68.8281
Q49.3594 67.8281 52.4844 65.8125
Q55.6094 63.8125 57.4844 60.8594
Q59.375 57.9062 60.5 54
L51.3125 52.3906
Q50.6406 54.8906 49.3438 56.8438
Q48.0469 58.7969 45.9375 60.1094
Q43.8438 61.4219 40.8438 62.1094
Q37.8438 62.7969 33.7969 62.7969
Q29 62.7969 25.75 61.9375
Q22.5156 61.0781 20.5312 59.6094
Q18.5625 58.1562 17.7031 56.1719
Q16.8438 54.2031 16.8438 51.9062
Q16.8438 48.8281 18.375 46.8438
Q19.9219 44.875 22.5625 43.5469
Q25.2031 42.2344 28.6562 41.3594
Q32.125 40.4844 36.0312 39.5938
Q39.2031 38.875 42.3594 38.1094
Q45.5156 37.3594 48.3906 36.2969
Q51.2656 35.25 53.7812 33.8281
Q56.2969 32.4219 58.1562 30.375
Q60.0156 28.3281 61.0625 25.5312
Q62.1094 22.75 62.1094 19" id="LiberationSans-53"/>
     <path d="
M56.9844 0
L49.125 20.125
L17.7812 20.125
L9.85938 0
L0.203125 0
L28.2656 68.7969
L38.875 68.7969
L66.5 0
z

M37.5 50.0938
Q36.7188 52.0469 36 54.0469
Q35.2969 56.0625 34.7656 57.6875
Q34.2344 59.3281 33.8594 60.4219
Q33.5 61.5312 33.4531 61.7656
Q33.3438 61.5312 33 60.4062
Q32.6719 59.2812 32.1094 57.6094
Q31.5469 55.9531 30.8281 53.9531
Q30.125 51.9531 29.3906 50
L20.6094 27.3906
L46.3438 27.3906
z
" id="LiberationSans-41"/>
    </defs>
    <g style="fill:#262626;" transform="translate(137.060703125 22.86)scale(0.12 -0.12)">
     <use transform="translate(0.0 0.53125)" xlink:href="#LiberationSans-5b"/>
     <use transform="translate(27.783203125 0.53125)" xlink:href="#LiberationSans-6a"/>
     <use transform="translate(50.0 0.53125)" xlink:href="#LiberationSans-65"/>
     <use transform="translate(105.615234375 0.53125)" xlink:href="#LiberationSans-72"/>
     <use transform="translate(138.916015625 0.53125)" xlink:href="#LiberationSans-6b"/>
     <use transform="translate(188.916015625 0.53125)" xlink:href="#LiberationSans-5d"/>
     <use transform="translate(216.69921875 0.53125)" xlink:href="#LiberationSans-20"/>
     <use transform="translate(244.482421875 0.53125)" xlink:href="#LiberationSans-53"/>
     <use transform="translate(311.181640625 0.53125)" xlink:href="#LiberationSans-50"/>
     <use transform="translate(377.880859375 0.53125)" xlink:href="#LiberationSans-41"/>
     <use transform="translate(444.580078125 0.53125)" xlink:href="#LiberationSans-52"/>
     <use transform="translate(516.796875 0.53125)" xlink:href="#LiberationSans-43"/>
     <use transform="translate(589.013671875 0.53125)" xlink:href="#LiberationSans-20"/>
     <use transform="translate(616.796875 0.53125)" xlink:href="#LiberationSans-76"/>
     <use transform="translate(666.796875 0.53125)" xlink:href="#LiberationSans-73"/>
     <use transform="translate(716.796875 0.53125)" xlink:href="#LiberationSans-2e"/>
     <use transform="translate(744.580078125 0.53125)" xlink:href="#LiberationSans-20"/>
     <use transform="translate(772.36328125 0.53125)" xlink:href="#Cmr10-a2"/>
     <use transform="translate(855.6640625 0.53125)" xlink:href="#Cmmi10-54"/>
    </g>
   </g>
  </g>
  <g id="axes_2">
   <g id="patch_7">
    <path d="
M390.418 185.62
L702.048 185.62
L702.048 27.86
L390.418 27.86
z
" style="fill:#eaeaf2;"/>
   </g>
   <g id="matplotlib.axis_3">
    <g id="xtick_6">
     <g id="line2d_42">
      <path clip-path="url(#p7f556acf0d)" d="
M390.418 185.62
L390.418 27.86" style="fill:none;stroke:#ffffff;stroke-linecap:round;"/>
     </g>
     <g id="line2d_43">
      <g>
       <use style="fill:#262626;stroke:#262626;" x="390.41828125" xlink:href="#m219da94a98" y="185.62"/>
      </g>
     </g>
     <g id="line2d_44">
      <g>
       <use style="fill:#262626;stroke:#262626;" x="390.41828125" xlink:href="#m219da94a98" y="27.86"/>
      </g>
     </g>
     <g id="text_14">
      <!-- 2 -->
      <g style="fill:#262626;" transform="translate(388.14015625 199.866875)scale(0.1 -0.1)">
       <use xlink:href="#LiberationSans-32"/>
      </g>
     </g>
    </g>
    <g id="xtick_7">
     <g id="line2d_45">
      <path clip-path="url(#p7f556acf0d)" d="
M429.372 185.62
L429.372 27.86" style="fill:none;stroke:#ffffff;stroke-linecap:round;"/>
     </g>
     <g id="line2d_46">
      <g>
       <use style="fill:#262626;stroke:#262626;" x="429.371972656" xlink:href="#m219da94a98" y="185.62"/>
      </g>
     </g>
     <g id="line2d_47">
      <g>
       <use style="fill:#262626;stroke:#262626;" x="429.371972656" xlink:href="#m219da94a98" y="27.86"/>
      </g>
     </g>
     <g id="text_15">
      <!-- 3 -->
      <defs>
       <path d="
M51.2188 19
Q51.2188 14.2656 49.6719 10.5469
Q48.1406 6.84375 45.1875 4.26562
Q42.2344 1.70312 37.8594 0.359375
Q33.5 -0.984375 27.875 -0.984375
Q21.4844 -0.984375 17.1094 0.609375
Q12.75 2.20312 9.90625 4.8125
Q7.07812 7.42188 5.65625 10.7656
Q4.25 14.1094 3.8125 17.6719
L12.8906 18.5
Q13.2812 15.7656 14.3281 13.5156
Q15.375 11.2812 17.1875 9.67188
Q19 8.0625 21.625 7.17188
Q24.2656 6.29688 27.875 6.29688
Q34.5156 6.29688 38.2969 9.5625
Q42.0938 12.8438 42.0938 19.2812
Q42.0938 23.0938 40.4062 25.4062
Q38.7188 27.7344 36.2031 29.0312
Q33.6875 30.3281 30.7344 30.7656
Q27.7812 31.2031 25.2969 31.2031
L20.3125 31.2031
L20.3125 38.8125
L25.0938 38.8125
Q27.5938 38.8125 30.2656 39.3281
Q32.9531 39.8438 35.1719 41.1875
Q37.4062 42.5312 38.8438 44.8281
Q40.2812 47.125 40.2812 50.6875
Q40.2812 56.2031 37.0312 59.3906
Q33.7969 62.5938 27.3906 62.5938
Q21.5781 62.5938 17.9844 59.6094
Q14.4062 56.6406 13.8125 51.2188
L4.98438 51.9062
Q5.51562 56.4531 7.46875 59.8125
Q9.42188 63.1875 12.4219 65.4062
Q15.4375 67.625 19.2812 68.7188
Q23.1406 69.8281 27.4844 69.8281
Q33.25 69.8281 37.3906 68.375
Q41.5469 66.9375 44.1875 64.4688
Q46.8281 62.0156 48.0625 58.6875
Q49.3125 55.375 49.3125 51.6094
Q49.3125 48.5781 48.4844 45.9375
Q47.6562 43.3125 45.8906 41.2031
Q44.1406 39.1094 41.4219 37.5938
Q38.7188 36.0781 34.9062 35.2969
L34.9062 35.1094
Q39.0625 34.6719 42.1406 33.2188
Q45.2188 31.7812 47.2188 29.625
Q49.2188 27.4844 50.2188 24.75
Q51.2188 22.0156 51.2188 19" id="LiberationSans-33"/>
      </defs>
      <g style="fill:#262626;" transform="translate(427.001660156 199.866875)scale(0.1 -0.1)">
       <use xlink:href="#LiberationSans-33"/>
      </g>
     </g>
    </g>
    <g id="xtick_8">
     <g id="line2d_48">
      <path clip-path="url(#p7f556acf0d)" d="
M468.326 185.62
L468.326 27.86" style="fill:none;stroke:#ffffff;stroke-linecap:round;"/>
     </g>
     <g id="line2d_49">
      <g>
       <use style="fill:#262626;stroke:#262626;" x="468.325664063" xlink:href="#m219da94a98" y="185.62"/>
      </g>
     </g>
     <g id="line2d_50">
      <g>
       <use style="fill:#262626;stroke:#262626;" x="468.325664063" xlink:href="#m219da94a98" y="27.86"/>
      </g>
     </g>
     <g id="text_16">
      <!-- 4 -->
      <g style="fill:#262626;" transform="translate(465.806132813 199.866875)scale(0.1 -0.1)">
       <use xlink:href="#LiberationSans-34"/>
      </g>
     </g>
    </g>
    <g id="xtick_9">
     <g id="line2d_51">
      <path clip-path="url(#p7f556acf0d)" d="
M507.279 185.62
L507.279 27.86" style="fill:none;stroke:#ffffff;stroke-linecap:round;"/>
     </g>
     <g id="line2d_52">
      <g>
       <use style="fill:#262626;stroke:#262626;" x="507.279355469" xlink:href="#m219da94a98" y="185.62"/>
      </g>
     </g>
     <g id="line2d_53">
      <g>
       <use style="fill:#262626;stroke:#262626;" x="507.279355469" xlink:href="#m219da94a98" y="27.86"/>
      </g>
     </g>
     <g id="text_17">
      <!-- 5 -->
      <g style="fill:#262626;" transform="translate(504.908261719 199.866875)scale(0.1 -0.1)">
       <use xlink:href="#LiberationSans-35"/>
      </g>
     </g>
    </g>
    <g id="xtick_10">
     <g id="line2d_54">
      <path clip-path="url(#p7f556acf0d)" d="
M546.233 185.62
L546.233 27.86" style="fill:none;stroke:#ffffff;stroke-linecap:round;"/>
     </g>
     <g id="line2d_55">
      <g>
       <use style="fill:#262626;stroke:#262626;" x="546.233046875" xlink:href="#m219da94a98" y="185.62"/>
      </g>
     </g>
     <g id="line2d_56">
      <g>
       <use style="fill:#262626;stroke:#262626;" x="546.233046875" xlink:href="#m219da94a98" y="27.86"/>
      </g>
     </g>
     <g id="text_18">
      <!-- 6 -->
      <g style="fill:#262626;" transform="translate(543.926015625 199.866875)scale(0.1 -0.1)">
       <use xlink:href="#LiberationSans-36"/>
      </g>
     </g>
    </g>
    <g id="xtick_11">
     <g id="line2d_57">
      <path clip-path="url(#p7f556acf0d)" d="
M585.187 185.62
L585.187 27.86" style="fill:none;stroke:#ffffff;stroke-linecap:round;"/>
     </g>
     <g id="line2d_58">
      <g>
       <use style="fill:#262626;stroke:#262626;" x="585.186738281" xlink:href="#m219da94a98" y="185.62"/>
      </g>
     </g>
     <g id="line2d_59">
      <g>
       <use style="fill:#262626;stroke:#262626;" x="585.186738281" xlink:href="#m219da94a98" y="27.86"/>
      </g>
     </g>
     <g id="text_19">
      <!-- 7 -->
      <defs>
       <path d="
M50.5938 61.6719
Q45.4062 53.7656 41.0625 46.4531
Q36.7188 39.1562 33.5938 31.75
Q30.4688 24.3594 28.7344 16.5781
Q27 8.79688 27 0
L17.8281 0
Q17.8281 8.25 19.7812 16.1875
Q21.7344 24.125 25.0469 31.7656
Q28.375 39.4062 32.7656 46.7812
Q37.1562 54.1562 42.0938 61.3281
L5.125 61.3281
L5.125 68.7969
L50.5938 68.7969
z
" id="LiberationSans-37"/>
      </defs>
      <g style="fill:#262626;" transform="translate(582.913300781 199.866875)scale(0.1 -0.1)">
       <use xlink:href="#LiberationSans-37"/>
      </g>
     </g>
    </g>
    <g id="xtick_12">
     <g id="line2d_60">
      <path clip-path="url(#p7f556acf0d)" d="
M624.14 185.62
L624.14 27.86" style="fill:none;stroke:#ffffff;stroke-linecap:round;"/>
     </g>
     <g id="line2d_61">
      <g>
       <use style="fill:#262626;stroke:#262626;" x="624.140429688" xlink:href="#m219da94a98" y="185.62"/>
      </g>
     </g>
     <g id="line2d_62">
      <g>
       <use style="fill:#262626;stroke:#262626;" x="624.140429688" xlink:href="#m219da94a98" y="27.86"/>
      </g>
     </g>
     <g id="text_20">
      <!-- 8 -->
      <g style="fill:#262626;" transform="translate(621.794335938 199.866875)scale(0.1 -0.1)">
       <use xlink:href="#LiberationSans-38"/>
      </g>
     </g>
    </g>
    <g id="xtick_13">
     <g id="line2d_63">
      <path clip-path="url(#p7f556acf0d)" d="
M663.094 185.62
L663.094 27.86" style="fill:none;stroke:#ffffff;stroke-linecap:round;"/>
     </g>
     <g id="line2d_64">
      <g>
       <use style="fill:#262626;stroke:#262626;" x="663.094121094" xlink:href="#m219da94a98" y="185.62"/>
      </g>
     </g>
     <g id="line2d_65">
      <g>
       <use style="fill:#262626;stroke:#262626;" x="663.094121094" xlink:href="#m219da94a98" y="27.86"/>
      </g>
     </g>
     <g id="text_21">
      <!-- 9 -->
      <defs>
       <path d="
M50.875 35.7969
Q50.875 26.6094 49.1406 19.7031
Q47.4062 12.7969 44.1875 8.20312
Q40.9688 3.60938 36.3438 1.3125
Q31.7344 -0.984375 25.9844 -0.984375
Q22.0156 -0.984375 18.8438 -0.171875
Q15.6719 0.640625 13.1719 2.34375
Q10.6875 4.04688 8.92188 6.78125
Q7.17188 9.51562 6.10938 13.375
L14.5 14.7031
Q15.875 10.25 18.7812 8.17188
Q21.6875 6.10938 26.125 6.10938
Q29.6875 6.10938 32.6406 7.78125
Q35.5938 9.46875 37.6719 12.8438
Q39.75 16.2188 40.9219 21.2969
Q42.0938 26.375 42.1875 33.2031
Q41.1562 30.9062 39.375 29.0938
Q37.5938 27.2969 35.3281 26.0469
Q33.0625 24.8125 30.4219 24.1406
Q27.7812 23.4844 25.0938 23.4844
Q20.4062 23.4844 16.625 25.1719
Q12.8438 26.8594 10.2031 29.875
Q7.5625 32.9062 6.125 37.1719
Q4.6875 41.4531 4.6875 46.6875
Q4.6875 52 6.21875 56.2969
Q7.76562 60.5938 10.6875 63.5938
Q13.625 66.6094 17.8906 68.2188
Q22.1719 69.8281 27.5938 69.8281
Q39.0625 69.8281 44.9688 61.3281
Q50.875 52.8281 50.875 35.7969
M41.3125 44.2812
Q41.3125 48.0938 40.4062 51.4531
Q39.5 54.8281 37.7188 57.3125
Q35.9375 59.8125 33.3281 61.25
Q30.7188 62.7031 27.2969 62.7031
Q24.125 62.7031 21.5781 61.5781
Q19.0469 60.4531 17.2812 58.375
Q15.5312 56.2969 14.5781 53.3125
Q13.625 50.3438 13.625 46.6875
Q13.625 43.2188 14.4688 40.2344
Q15.3281 37.25 17.0312 35.0781
Q18.75 32.9062 21.2812 31.6562
Q23.8281 30.4219 27.2031 30.4219
Q29.6406 30.4219 32.1562 31.25
Q34.6719 32.0781 36.6875 33.7812
Q38.7188 35.5 40.0156 38.1094
Q41.3125 40.7188 41.3125 44.2812" id="LiberationSans-39"/>
      </defs>
      <g style="fill:#262626;" transform="translate(660.784746094 199.866875)scale(0.1 -0.1)">
       <use xlink:href="#LiberationSans-39"/>
      </g>
     </g>
    </g>
    <g id="xtick_14">
     <g id="line2d_66">
      <path clip-path="url(#p7f556acf0d)" d="
M702.048 185.62
L702.048 27.86" style="fill:none;stroke:#ffffff;stroke-linecap:round;"/>
     </g>
     <g id="line2d_67">
      <g>
       <use style="fill:#262626;stroke:#262626;" x="702.0478125" xlink:href="#m219da94a98" y="185.62"/>
      </g>
     </g>
     <g id="line2d_68">
      <g>
       <use style="fill:#262626;stroke:#262626;" x="702.0478125" xlink:href="#m219da94a98" y="27.86"/>
      </g>
     </g>
     <g id="text_22">
      <!-- 10 -->
      <g style="fill:#262626;" transform="translate(697.0634375 199.866875)scale(0.1 -0.1)">
       <use xlink:href="#LiberationSans-31"/>
       <use x="55.615234375" xlink:href="#LiberationSans-30"/>
      </g>
     </g>
    </g>
   </g>
   <g id="matplotlib.axis_4">
    <g id="ytick_8">
     <g id="line2d_69">
      <path clip-path="url(#p7f556acf0d)" d="
M390.418 185.62
L702.048 185.62" style="fill:none;stroke:#ffffff;stroke-linecap:round;"/>
     </g>
     <g id="line2d_70">
      <g>
       <use style="fill:#262626;stroke:#262626;" x="390.41828125" xlink:href="#m219da94a98" y="185.62"/>
      </g>
     </g>
     <g id="line2d_71">
      <g>
       <use style="fill:#262626;stroke:#262626;" x="702.0478125" xlink:href="#m219da94a98" y="185.62"/>
      </g>
     </g>
     <g id="text_23">
      <!-- −14 -->
      <g style="fill:#262626;" transform="translate(367.24171875 188.2059375)scale(0.1 -0.1)">
       <use xlink:href="#LiberationSans-2212"/>
       <use x="58.3984375" xlink:href="#LiberationSans-31"/>
       <use x="114.013671875" xlink:href="#LiberationSans-34"/>
      </g>
     </g>
    </g>
    <g id="ytick_9">
     <g id="line2d_72">
      <path clip-path="url(#p7f556acf0d)" d="
M390.418 159.327
L702.048 159.327" style="fill:none;stroke:#ffffff;stroke-linecap:round;"/>
     </g>
     <g id="line2d_73">
      <g>
       <use style="fill:#262626;stroke:#262626;" x="390.41828125" xlink:href="#m219da94a98" y="159.326666667"/>
      </g>
     </g>
     <g id="line2d_74">
      <g>
       <use style="fill:#262626;stroke:#262626;" x="702.0478125" xlink:href="#m219da94a98" y="159.326666667"/>
      </g>
     </g>
     <g id="text_24">
      <!-- −12 -->
      <g style="fill:#262626;" transform="translate(367.45109375 161.912604167)scale(0.1 -0.1)">
       <use xlink:href="#LiberationSans-2212"/>
       <use x="58.3984375" xlink:href="#LiberationSans-31"/>
       <use x="114.013671875" xlink:href="#LiberationSans-32"/>
      </g>
     </g>
    </g>
    <g id="ytick_10">
     <g id="line2d_75">
      <path clip-path="url(#p7f556acf0d)" d="
M390.418 133.033
L702.048 133.033" style="fill:none;stroke:#ffffff;stroke-linecap:round;"/>
     </g>
     <g id="line2d_76">
      <g>
       <use style="fill:#262626;stroke:#262626;" x="390.41828125" xlink:href="#m219da94a98" y="133.033333333"/>
      </g>
     </g>
     <g id="line2d_77">
      <g>
       <use style="fill:#262626;stroke:#262626;" x="702.0478125" xlink:href="#m219da94a98" y="133.033333333"/>
      </g>
     </g>
     <g id="text_25">
      <!-- −10 -->
      <g style="fill:#262626;" transform="translate(367.34015625 135.619270833)scale(0.1 -0.1)">
       <use xlink:href="#LiberationSans-2212"/>
       <use x="58.3984375" xlink:href="#LiberationSans-31"/>
       <use x="114.013671875" xlink:href="#LiberationSans-30"/>
      </g>
     </g>
    </g>
    <g id="ytick_11">
     <g id="line2d_78">
      <path clip-path="url(#p7f556acf0d)" d="
M390.418 106.74
L702.048 106.74" style="fill:none;stroke:#ffffff;stroke-linecap:round;"/>
     </g>
     <g id="line2d_79">
      <g>
       <use style="fill:#262626;stroke:#262626;" x="390.41828125" xlink:href="#m219da94a98" y="106.74"/>
      </g>
     </g>
     <g id="line2d_80">
      <g>
       <use style="fill:#262626;stroke:#262626;" x="702.0478125" xlink:href="#m219da94a98" y="106.74"/>
      </g>
     </g>
     <g id="text_26">
      <!-- −8 -->
      <g style="fill:#262626;" transform="translate(372.94484375 109.3259375)scale(0.1 -0.1)">
       <use xlink:href="#LiberationSans-2212"/>
       <use x="58.3984375" xlink:href="#LiberationSans-38"/>
      </g>
     </g>
    </g>
    <g id="ytick_12">
     <g id="line2d_81">
      <path clip-path="url(#p7f556acf0d)" d="
M390.418 80.4467
L702.048 80.4467" style="fill:none;stroke:#ffffff;stroke-linecap:round;"/>
     </g>
     <g id="line2d_82">
      <g>
       <use style="fill:#262626;stroke:#262626;" x="390.41828125" xlink:href="#m219da94a98" y="80.4466666667"/>
      </g>
     </g>
     <g id="line2d_83">
      <g>
       <use style="fill:#262626;stroke:#262626;" x="702.0478125" xlink:href="#m219da94a98" y="80.4466666667"/>
      </g>
     </g>
     <g id="text_27">
      <!-- −6 -->
      <g style="fill:#262626;" transform="translate(372.94953125 83.0326041667)scale(0.1 -0.1)">
       <use xlink:href="#LiberationSans-2212"/>
       <use x="58.3984375" xlink:href="#LiberationSans-36"/>
      </g>
     </g>
    </g>
    <g id="ytick_13">
     <g id="line2d_84">
      <path clip-path="url(#p7f556acf0d)" d="
M390.418 54.1533
L702.048 54.1533" style="fill:none;stroke:#ffffff;stroke-linecap:round;"/>
     </g>
     <g id="line2d_85">
      <g>
       <use style="fill:#262626;stroke:#262626;" x="390.41828125" xlink:href="#m219da94a98" y="54.1533333333"/>
      </g>
     </g>
     <g id="line2d_86">
      <g>
       <use style="fill:#262626;stroke:#262626;" x="702.0478125" xlink:href="#m219da94a98" y="54.1533333333"/>
      </g>
     </g>
     <g id="text_28">
      <!-- −4 -->
      <g style="fill:#262626;" transform="translate(372.80265625 56.7392708333)scale(0.1 -0.1)">
       <use xlink:href="#LiberationSans-2212"/>
       <use x="58.3984375" xlink:href="#LiberationSans-34"/>
      </g>
     </g>
    </g>
    <g id="ytick_14">
     <g id="line2d_87">
      <path clip-path="url(#p7f556acf0d)" d="
M390.418 27.86
L702.048 27.86" style="fill:none;stroke:#ffffff;stroke-linecap:round;"/>
     </g>
     <g id="line2d_88">
      <g>
       <use style="fill:#262626;stroke:#262626;" x="390.41828125" xlink:href="#m219da94a98" y="27.86"/>
      </g>
     </g>
     <g id="line2d_89">
      <g>
       <use style="fill:#262626;stroke:#262626;" x="702.0478125" xlink:href="#m219da94a98" y="27.86"/>
      </g>
     </g>
     <g id="text_29">
      <!-- −2 -->
      <g style="fill:#262626;" transform="translate(373.01203125 30.4459375)scale(0.1 -0.1)">
       <use xlink:href="#LiberationSans-2212"/>
       <use x="58.3984375" xlink:href="#LiberationSans-32"/>
      </g>
     </g>
    </g>
   </g>
   <g id="line2d_90">
    <path clip-path="url(#p7f556acf0d)" d="
M390.418 28.3504
L468.326 28.3504
L546.233 28.3504
L624.14 28.3504
L702.048 28.3504" style="fill:none;stroke:#4c72b0;stroke-linecap:round;stroke-width:1.75;"/>
   </g>
   <g id="line2d_91">
    <path clip-path="url(#p7f556acf0d)" d="
M390.418 34.9397
L468.326 44.0471
L546.233 49.5596
L624.14 54.4521
L702.048 57.5134" style="fill:none;stroke:#55a868;stroke-linecap:round;stroke-width:1.75;"/>
   </g>
   <g id="line2d_92">
    <path clip-path="url(#p7f556acf0d)" d="
M390.418 50.0214
L468.326 69.3111
L546.233 80.6438
L624.14 87.1473
L702.048 94.37" style="fill:none;stroke:#c44e52;stroke-linecap:round;stroke-width:1.75;"/>
   </g>
   <g id="line2d_93">
    <path clip-path="url(#p7f556acf0d)" d="
M390.418 70.341
L468.326 101.779
L546.233 119.018
L624.14 129.883
L702.048 137.61" style="fill:none;stroke:#8172b2;stroke-linecap:round;stroke-width:1.75;"/>
   </g>
   <g id="line2d_94">
    <path clip-path="url(#p7f556acf0d)" d="
M390.418 88.5527
L468.326 130.591
L546.233 153.832
L624.14 167.473
L702.048 181.548" style="fill:none;stroke:#ccb974;stroke-linecap:round;stroke-width:1.75;"/>
   </g>
   <g id="patch_8">
    <path d="
M390.418 27.86
L702.048 27.86" style="fill:none;"/>
   </g>
   <g id="patch_9">
    <path d="
M702.048 185.62
L702.048 27.86" style="fill:none;"/>
   </g>
   <g id="patch_10">
    <path d="
M390.418 185.62
L702.048 185.62" style="fill:none;"/>
   </g>
   <g id="patch_11">
    <path d="
M390.418 185.62
L390.418 27.86" style="fill:none;"/>
   </g>
   <g id="text_30">
    <!-- [jerk] SPARC vs. Ns -->
    <defs>
     <path d="
M52.8281 0
L16.0156 58.5938
Q16.1094 56.2031 16.2656 53.8594
Q16.3594 51.8594 16.4219 49.625
Q16.5 47.4062 16.5 45.7031
L16.5 0
L8.20312 0
L8.20312 68.7969
L19.0469 68.7969
L56.25 9.8125
Q56.1094 12.2031 55.9531 14.5938
Q55.8594 16.6562 55.7656 19.0625
Q55.6719 21.4844 55.6719 23.6875
L55.6719 68.7969
L64.0625 68.7969
L64.0625 0
z
" id="LiberationSans-4e"/>
    </defs>
    <g style="fill:#262626;" transform="translate(493.217421875 22.86)scale(0.12 -0.12)">
     <use xlink:href="#LiberationSans-5b"/>
     <use x="27.783203125" xlink:href="#LiberationSans-6a"/>
     <use x="50.0" xlink:href="#LiberationSans-65"/>
     <use x="105.615234375" xlink:href="#LiberationSans-72"/>
     <use x="138.916015625" xlink:href="#LiberationSans-6b"/>
     <use x="188.916015625" xlink:href="#LiberationSans-5d"/>
     <use x="216.69921875" xlink:href="#LiberationSans-20"/>
     <use x="244.482421875" xlink:href="#LiberationSans-53"/>
     <use x="311.181640625" xlink:href="#LiberationSans-50"/>
     <use x="370.505859375" xlink:href="#LiberationSans-41"/>
     <use x="437.205078125" xlink:href="#LiberationSans-52"/>
     <use x="509.421875" xlink:href="#LiberationSans-43"/>
     <use x="581.638671875" xlink:href="#LiberationSans-20"/>
     <use x="609.421875" xlink:href="#LiberationSans-76"/>
     <use x="659.421875" xlink:href="#LiberationSans-73"/>
     <use x="709.421875" xlink:href="#LiberationSans-2e"/>
     <use x="737.205078125" xlink:href="#LiberationSans-20"/>
     <use x="764.98828125" xlink:href="#LiberationSans-4e"/>
     <use x="837.205078125" xlink:href="#LiberationSans-73"/>
    </g>
   </g>
  </g>
  <g id="axes_3">
   <g id="patch_12">
    <path d="
M36.1459 387.24
L347.775 387.24
L347.775 229.48
L36.1459 229.48
z
" style="fill:#eaeaf2;"/>
   </g>
   <g id="matplotlib.axis_5">
    <g id="xtick_15">
     <g id="line2d_95">
      <path clip-path="url(#p8f8b51c094)" d="
M36.1459 387.24
L36.1459 229.48" style="fill:none;stroke:#ffffff;stroke-linecap:round;"/>
     </g>
     <g id="line2d_96">
      <g>
       <use style="fill:#262626;stroke:#262626;" x="36.1459375" xlink:href="#m219da94a98" y="387.24"/>
      </g>
     </g>
     <g id="line2d_97">
      <g>
       <use style="fill:#262626;stroke:#262626;" x="36.1459375" xlink:href="#m219da94a98" y="229.48"/>
      </g>
     </g>
     <g id="text_31">
      <!-- 0.0 -->
      <g style="fill:#262626;" transform="translate(29.5865625 401.486875)scale(0.1 -0.1)">
       <use xlink:href="#LiberationSans-30"/>
       <use x="55.615234375" xlink:href="#LiberationSans-2e"/>
       <use x="83.3984375" xlink:href="#LiberationSans-30"/>
      </g>
     </g>
    </g>
    <g id="xtick_16">
     <g id="line2d_98">
      <path clip-path="url(#p8f8b51c094)" d="
M114.053 387.24
L114.053 229.48" style="fill:none;stroke:#ffffff;stroke-linecap:round;"/>
     </g>
     <g id="line2d_99">
      <g>
       <use style="fill:#262626;stroke:#262626;" x="114.053320313" xlink:href="#m219da94a98" y="387.24"/>
      </g>
     </g>
     <g id="line2d_100">
      <g>
       <use style="fill:#262626;stroke:#262626;" x="114.053320313" xlink:href="#m219da94a98" y="229.48"/>
      </g>
     </g>
     <g id="text_32">
      <!-- 0.5 -->
      <g style="fill:#262626;" transform="translate(107.508007813 401.486875)scale(0.1 -0.1)">
       <use xlink:href="#LiberationSans-30"/>
       <use x="55.615234375" xlink:href="#LiberationSans-2e"/>
       <use x="83.3984375" xlink:href="#LiberationSans-35"/>
      </g>
     </g>
    </g>
    <g id="xtick_17">
     <g id="line2d_101">
      <path clip-path="url(#p8f8b51c094)" d="
M191.961 387.24
L191.961 229.48" style="fill:none;stroke:#ffffff;stroke-linecap:round;"/>
     </g>
     <g id="line2d_102">
      <g>
       <use style="fill:#262626;stroke:#262626;" x="191.960703125" xlink:href="#m219da94a98" y="387.24"/>
      </g>
     </g>
     <g id="line2d_103">
      <g>
       <use style="fill:#262626;stroke:#262626;" x="191.960703125" xlink:href="#m219da94a98" y="229.48"/>
      </g>
     </g>
     <g id="text_33">
      <!-- 1.0 -->
      <g style="fill:#262626;" transform="translate(185.587265625 401.486875)scale(0.1 -0.1)">
       <use xlink:href="#LiberationSans-31"/>
       <use x="55.615234375" xlink:href="#LiberationSans-2e"/>
       <use x="83.3984375" xlink:href="#LiberationSans-30"/>
      </g>
     </g>
    </g>
    <g id="xtick_18">
     <g id="line2d_104">
      <path clip-path="url(#p8f8b51c094)" d="
M269.868 387.24
L269.868 229.48" style="fill:none;stroke:#ffffff;stroke-linecap:round;"/>
     </g>
     <g id="line2d_105">
      <g>
       <use style="fill:#262626;stroke:#262626;" x="269.868085937" xlink:href="#m219da94a98" y="387.24"/>
      </g>
     </g>
     <g id="line2d_106">
      <g>
       <use style="fill:#262626;stroke:#262626;" x="269.868085937" xlink:href="#m219da94a98" y="229.48"/>
      </g>
     </g>
     <g id="text_34">
      <!-- 1.5 -->
      <g style="fill:#262626;" transform="translate(263.508710937 401.486875)scale(0.1 -0.1)">
       <use xlink:href="#LiberationSans-31"/>
       <use x="55.615234375" xlink:href="#LiberationSans-2e"/>
       <use x="83.3984375" xlink:href="#LiberationSans-35"/>
      </g>
     </g>
    </g>
    <g id="xtick_19">
     <g id="line2d_107">
      <path clip-path="url(#p8f8b51c094)" d="
M347.775 387.24
L347.775 229.48" style="fill:none;stroke:#ffffff;stroke-linecap:round;"/>
     </g>
     <g id="line2d_108">
      <g>
       <use style="fill:#262626;stroke:#262626;" x="347.77546875" xlink:href="#m219da94a98" y="387.24"/>
      </g>
     </g>
     <g id="line2d_109">
      <g>
       <use style="fill:#262626;stroke:#262626;" x="347.77546875" xlink:href="#m219da94a98" y="229.48"/>
      </g>
     </g>
     <g id="text_35">
      <!-- 2.0 -->
      <g style="fill:#262626;" transform="translate(341.27234375 401.486875)scale(0.1 -0.1)">
       <use xlink:href="#LiberationSans-32"/>
       <use x="55.615234375" xlink:href="#LiberationSans-2e"/>
       <use x="83.3984375" xlink:href="#LiberationSans-30"/>
      </g>
     </g>
    </g>
    <g id="text_36">
     <!-- Time (sec) -->
     <defs>
      <path d="
M6.20312 25.9844
Q6.20312 32.7656 7.21875 38.9688
Q8.25 45.1719 10.4375 50.875
Q12.6406 56.5938 16.0625 61.9531
Q19.4844 67.3281 24.2188 72.4688
L32.7188 72.4688
Q28.125 67.3281 24.7812 61.9375
Q21.4375 56.5469 19.2812 50.7969
Q17.1406 45.0625 16.0938 38.8594
Q15.0469 32.6719 15.0469 25.875
Q15.0469 19.0938 16.0938 12.8906
Q17.1406 6.6875 19.2812 0.921875
Q21.4375 -4.82812 24.7812 -10.2031
Q28.125 -15.5781 32.7188 -20.7031
L24.2188 -20.7031
Q19.4844 -15.5781 16.0625 -10.2031
Q12.6406 -4.82812 10.4375 0.875
Q8.25 6.59375 7.21875 12.7656
Q6.20312 18.9531 6.20312 25.7812
z
" id="LiberationSans-28"/>
      <path d="
M13.4219 26.6562
Q13.4219 22.125 14.0781 18.3125
Q14.75 14.5 16.3125 11.7344
Q17.875 8.98438 20.4375 7.46875
Q23 5.95312 26.7656 5.95312
Q31.4531 5.95312 34.5938 8.48438
Q37.75 11.0312 38.4844 16.3125
L47.3594 15.7188
Q46.9219 12.4531 45.4531 9.42188
Q44 6.39062 41.4844 4.09375
Q38.9688 1.8125 35.3438 0.40625
Q31.7344 -0.984375 27 -0.984375
Q20.7969 -0.984375 16.4531 1.10938
Q12.1094 3.21875 9.39062 6.90625
Q6.6875 10.5938 5.46875 15.5938
Q4.25 20.6094 4.25 26.4688
Q4.25 31.7812 5.125 35.8594
Q6 39.9375 7.59375 42.9844
Q9.1875 46.0469 11.3281 48.125
Q13.4844 50.2031 15.9844 51.4375
Q18.5 52.6875 21.2812 53.25
Q24.0781 53.8125 26.9062 53.8125
Q31.3438 53.8125 34.8125 52.5938
Q38.2812 51.375 40.7969 49.25
Q43.3125 47.125 44.875 44.2344
Q46.4375 41.3594 47.0781 38.0312
L38.0312 37.3594
Q37.3594 41.75 34.5625 44.3281
Q31.7812 46.9219 26.6562 46.9219
Q22.9062 46.9219 20.3906 45.6719
Q17.875 44.4375 16.3125 41.9219
Q14.75 39.4062 14.0781 35.5938
Q13.4219 31.7812 13.4219 26.6562" id="LiberationSans-63"/>
      <path d="
M6.6875 64.0625
L6.6875 72.4688
L15.4844 72.4688
L15.4844 64.0625
z

M6.6875 0
L6.6875 52.8281
L15.4844 52.8281
L15.4844 0
z
" id="LiberationSans-69"/>
      <path d="
M37.5 0
L37.5 33.5
Q37.5 37.3594 37.0156 39.9375
Q36.5312 42.5312 35.375 44.1094
Q34.2344 45.7031 32.375 46.3594
Q30.5156 47.0156 27.8281 47.0156
Q25.0469 47.0156 22.7969 45.9219
Q20.5625 44.8281 18.9688 42.75
Q17.3906 40.6719 16.5312 37.625
Q15.6719 34.5781 15.6719 30.6094
L15.6719 0
L6.9375 0
L6.9375 41.5469
Q6.9375 43.2188 6.90625 45.0469
Q6.89062 46.875 6.82812 48.5
Q6.78125 50.1406 6.73438 51.3125
Q6.6875 52.4844 6.64062 52.8281
L14.9375 52.8281
Q14.9844 52.5938 15.0312 51.5156
Q15.0938 50.4375 15.1562 49.0469
Q15.2344 47.6562 15.2812 46.2188
Q15.3281 44.7812 15.3281 43.7969
L15.4844 43.7969
Q16.6562 46.0938 18.0156 47.9531
Q19.3906 49.8125 21.2188 51.0938
Q23.0469 52.3906 25.4062 53.0938
Q27.7812 53.8125 30.9062 53.8125
Q36.9219 53.8125 40.4062 51.4219
Q43.8906 49.0312 45.2656 43.7969
L45.4062 43.7969
Q46.5781 46.0938 48.0469 47.9531
Q49.5156 49.8125 51.4688 51.0938
Q53.4219 52.3906 55.8594 53.0938
Q58.2969 53.8125 61.4219 53.8125
Q65.4375 53.8125 68.3281 52.7344
Q71.2344 51.6562 73.0938 49.4062
Q74.9531 47.1719 75.8281 43.625
Q76.7031 40.0938 76.7031 35.2031
L76.7031 0
L68.0156 0
L68.0156 33.5
Q68.0156 37.3594 67.5312 39.9375
Q67.0469 42.5312 65.8906 44.1094
Q64.75 45.7031 62.8906 46.3594
Q61.0312 47.0156 58.3438 47.0156
Q55.5625 47.0156 53.3125 45.9688
Q51.0781 44.9219 49.4844 42.875
Q47.9062 40.8281 47.0469 37.75
Q46.1875 34.6719 46.1875 30.6094
L46.1875 0
z
" id="LiberationSans-6d"/>
      <path d="
M27.0938 25.7812
Q27.0938 18.9531 26.0625 12.7656
Q25.0469 6.59375 22.8438 0.875
Q20.6562 -4.82812 17.2344 -10.2031
Q13.8125 -15.5781 9.07812 -20.7031
L0.59375 -20.7031
Q5.17188 -15.5781 8.51562 -10.2031
Q11.8594 -4.82812 14 0.921875
Q16.1562 6.6875 17.2031 12.8906
Q18.2656 19.0938 18.2656 25.875
Q18.2656 32.6719 17.2031 38.8594
Q16.1562 45.0625 14 50.7969
Q11.8594 56.5469 8.51562 61.9375
Q5.17188 67.3281 0.59375 72.4688
L9.07812 72.4688
Q13.8125 67.3281 17.2344 61.9531
Q20.6562 56.5938 22.8438 50.875
Q25.0469 45.1719 26.0625 38.9688
Q27.0938 32.7656 27.0938 25.9844
z
" id="LiberationSans-29"/>
      <path d="
M35.1562 61.1875
L35.1562 0
L25.875 0
L25.875 61.1875
L2.25 61.1875
L2.25 68.7969
L58.7969 68.7969
L58.7969 61.1875
z
" id="LiberationSans-54"/>
     </defs>
     <g style="fill:#262626;" transform="translate(166.5378125 416.5334375)scale(0.11 -0.11)">
      <use xlink:href="#LiberationSans-54"/>
      <use x="57.333984375" xlink:href="#LiberationSans-69"/>
      <use x="79.55078125" xlink:href="#LiberationSans-6d"/>
      <use x="162.8515625" xlink:href="#LiberationSans-65"/>
      <use x="218.466796875" xlink:href="#LiberationSans-20"/>
      <use x="246.25" xlink:href="#LiberationSans-28"/>
      <use x="279.55078125" xlink:href="#LiberationSans-73"/>
      <use x="329.55078125" xlink:href="#LiberationSans-65"/>
      <use x="385.166015625" xlink:href="#LiberationSans-63"/>
      <use x="435.166015625" xlink:href="#LiberationSans-29"/>
     </g>
    </g>
   </g>
   <g id="matplotlib.axis_6">
    <g id="ytick_15">
     <g id="line2d_110">
      <path clip-path="url(#p8f8b51c094)" d="
M36.1459 352.182
L347.775 352.182" style="fill:none;stroke:#ffffff;stroke-linecap:round;"/>
     </g>
     <g id="line2d_111">
      <g>
       <use style="fill:#262626;stroke:#262626;" x="36.1459375" xlink:href="#m219da94a98" y="352.182222222"/>
      </g>
     </g>
     <g id="line2d_112">
      <g>
       <use style="fill:#262626;stroke:#262626;" x="347.77546875" xlink:href="#m219da94a98" y="352.182222222"/>
      </g>
     </g>
     <g id="text_37">
      <!-- 1.0 -->
      <g style="fill:#262626;" transform="translate(16.3990625 354.768159722)scale(0.1 -0.1)">
       <use xlink:href="#LiberationSans-31"/>
       <use x="55.615234375" xlink:href="#LiberationSans-2e"/>
       <use x="83.3984375" xlink:href="#LiberationSans-30"/>
      </g>
     </g>
    </g>
    <g id="ytick_16">
     <g id="line2d_113">
      <path clip-path="url(#p8f8b51c094)" d="
M36.1459 308.36
L347.775 308.36" style="fill:none;stroke:#ffffff;stroke-linecap:round;"/>
     </g>
     <g id="line2d_114">
      <g>
       <use style="fill:#262626;stroke:#262626;" x="36.1459375" xlink:href="#m219da94a98" y="308.36"/>
      </g>
     </g>
     <g id="line2d_115">
      <g>
       <use style="fill:#262626;stroke:#262626;" x="347.77546875" xlink:href="#m219da94a98" y="308.36"/>
      </g>
     </g>
     <g id="text_38">
      <!-- 1.5 -->
      <g style="fill:#262626;" transform="translate(16.4271875 310.9459375)scale(0.1 -0.1)">
       <use xlink:href="#LiberationSans-31"/>
       <use x="55.615234375" xlink:href="#LiberationSans-2e"/>
       <use x="83.3984375" xlink:href="#LiberationSans-35"/>
      </g>
     </g>
    </g>
    <g id="ytick_17">
     <g id="line2d_116">
      <path clip-path="url(#p8f8b51c094)" d="
M36.1459 264.538
L347.775 264.538" style="fill:none;stroke:#ffffff;stroke-linecap:round;"/>
     </g>
     <g id="line2d_117">
      <g>
       <use style="fill:#262626;stroke:#262626;" x="36.1459375" xlink:href="#m219da94a98" y="264.537777778"/>
      </g>
     </g>
     <g id="line2d_118">
      <g>
       <use style="fill:#262626;stroke:#262626;" x="347.77546875" xlink:href="#m219da94a98" y="264.537777778"/>
      </g>
     </g>
     <g id="text_39">
      <!-- 2.0 -->
      <g style="fill:#262626;" transform="translate(16.1396875 267.123715278)scale(0.1 -0.1)">
       <use xlink:href="#LiberationSans-32"/>
       <use x="55.615234375" xlink:href="#LiberationSans-2e"/>
       <use x="83.3984375" xlink:href="#LiberationSans-30"/>
      </g>
     </g>
    </g>
   </g>
   <g id="line2d_119">
    <path clip-path="url(#p8f8b51c094)" d="
M36.1459 293.509
L43.9367 290.67
L51.7274 291.903
L59.5182 301.727
L67.3089 336.664
L75.0996 357.44
L82.8904 328.349
L90.6811 321.677
L98.4718 324.363
L106.263 327.334
L114.053 328.155
L121.844 326.416
L129.635 322.607
L137.426 317.692
L145.216 312.597
L153.007 308.101
L160.798 304.254
L168.588 301.035
L176.379 298.267
L184.17 295.742
L191.961 293.479
L199.751 291.278
L207.542 289.152
L215.333 287.043
L223.124 285.066
L230.914 283.094
L238.705 281.166
L246.496 279.279
L254.287 277.396
L262.077 275.624
L269.868 273.852
L277.659 272.115
L285.45 270.412
L293.24 268.708
L301.031 267.101
L308.822 265.492
L316.613 263.912
L324.403 262.359
L332.194 260.804
L339.985 259.335
L347.775 257.861" style="fill:none;stroke:#4c72b0;stroke-linecap:round;stroke-width:1.75;"/>
   </g>
   <g id="line2d_120">
    <path clip-path="url(#p8f8b51c094)" d="
M36.1459 293.509
L43.9367 289.166
L51.7274 319.927
L59.5182 371.804
L67.3089 355.902
L75.0996 326.744
L82.8904 305.293
L90.6811 317.203
L98.4718 334.045
L106.263 343.934
L114.053 346.84
L121.844 344.416
L129.635 338.542
L137.426 330.905
L145.216 323.071
L153.007 315.993
L160.798 309.976
L168.588 305.001
L176.379 300.732
L184.17 296.945
L191.961 293.463
L199.751 290.184
L207.542 287.032
L215.333 284.04
L223.124 281.131
L230.914 278.317
L238.705 275.591
L246.496 272.93
L254.287 270.381
L262.077 267.887
L269.868 265.463
L277.659 263.104
L285.45 260.791
L293.24 258.568
L301.031 256.385
L308.822 254.255
L316.613 252.176
L324.403 250.131
L332.194 248.16
L339.985 246.219
L347.775 244.319" style="fill:none;stroke:#55a868;stroke-linecap:round;stroke-width:1.75;"/>
   </g>
   <g id="line2d_121">
    <path clip-path="url(#p8f8b51c094)" d="
M36.1459 293.509
L43.9367 295.605
L51.7274 371.468
L59.5182 352.744
L67.3089 336.208
L75.0996 305.358
L82.8904 290.781
L90.6811 314.931
L98.4718 338.219
L106.263 350.429
L114.053 353.766
L121.844 350.935
L129.635 344.18
L137.426 335.539
L145.216 326.705
L153.007 318.729
L160.798 311.981
L168.588 306.356
L176.379 301.567
L184.17 297.334
L191.961 293.458
L199.751 289.823
L207.542 286.364
L215.333 283.035
L223.124 279.845
L230.914 276.781
L238.705 273.809
L246.496 270.934
L254.287 268.151
L262.077 265.453
L269.868 262.836
L277.659 260.295
L285.45 257.825
L293.24 255.423
L301.031 253.086
L308.822 250.808
L316.613 248.589
L324.403 246.424
L332.194 244.312
L339.985 242.249
L347.775 240.234" style="fill:none;stroke:#c44e52;stroke-linecap:round;stroke-width:1.75;"/>
   </g>
   <g id="line2d_122">
    <path clip-path="url(#p8f8b51c094)" d="
M36.1459 293.509
L43.9367 315.578
L51.7274 358.203
L59.5182 338.834
L67.3089 320.215
L75.0996 288.413
L82.8904 280.507
L90.6811 313.553
L98.4718 340.546
L106.263 353.903
L114.053 357.388
L121.844 354.284
L129.635 347.055
L137.426 337.905
L145.216 328.554
L153.007 320.118
L160.798 312.983
L168.588 307.04
L176.379 301.976
L184.17 297.529
L191.961 293.456
L199.751 289.643
L207.542 286.022
L215.333 282.557
L223.124 279.219
L230.914 276.023
L238.705 272.931
L246.496 269.945
L254.287 267.057
L262.077 264.253
L269.868 261.552
L277.659 258.916
L285.45 256.372
L293.24 253.892
L301.031 251.481
L308.822 249.135
L316.613 246.843
L324.403 244.622
L332.194 242.45
L339.985 240.33
L347.775 238.261" style="fill:none;stroke:#8172b2;stroke-linecap:round;stroke-width:1.75;"/>
   </g>
   <g id="line2d_123">
    <path clip-path="url(#p8f8b51c094)" d="
M36.1459 293.509
L43.9367 356.977
L51.7274 348.138
L59.5182 326.853
L67.3089 306.696
L75.0996 274.415
L82.8904 272.867
L90.6811 312.628
L98.4718 342.031
L106.263 356.067
L114.053 359.617
L121.844 356.331
L129.635 348.831
L137.426 339.342
L145.216 329.663
L153.007 320.958
L160.798 313.588
L168.588 307.453
L176.379 302.241
L184.17 297.647
L191.961 293.454
L199.751 289.535
L207.542 285.817
L215.333 282.255
L223.124 278.853
L230.914 275.571
L238.705 272.409
L246.496 269.356
L254.287 266.4
L262.077 263.553
L269.868 260.79
L277.659 258.111
L285.45 255.511
L293.24 252.981
L301.031 250.533
L308.822 248.146
L316.613 245.822
L324.403 243.558
L332.194 241.351
L339.985 239.199
L347.775 237.098" style="fill:none;stroke:#ccb974;stroke-linecap:round;stroke-width:1.75;"/>
   </g>
   <g id="patch_13">
    <path d="
M36.1459 229.48
L347.775 229.48" style="fill:none;"/>
   </g>
   <g id="patch_14">
    <path d="
M347.775 387.24
L347.775 229.48" style="fill:none;"/>
   </g>
   <g id="patch_15">
    <path d="
M36.1459 387.24
L347.775 387.24" style="fill:none;"/>
   </g>
   <g id="patch_16">
    <path d="
M36.1459 387.24
L36.1459 229.48" style="fill:none;"/>
   </g>
   <g id="text_40">
    <!-- [jerk] LDLJ vs. $\Delta T$ -->
    <defs>
     <path d="
M67.4375 35.1094
Q67.4375 26.5156 64.8438 19.9375
Q62.25 13.375 57.75 8.95312
Q53.2656 4.54688 47.1406 2.26562
Q41.0156 0 33.9375 0
L8.20312 0
L8.20312 68.7969
L30.9531 68.7969
Q38.9219 68.7969 45.625 66.8125
Q52.3438 64.8438 57.1719 60.7188
Q62.0156 56.5938 64.7188 50.2344
Q67.4375 43.8906 67.4375 35.1094
M58.0625 35.1094
Q58.0625 42.0938 56.0469 47.0469
Q54.0469 52 50.4375 55.1719
Q46.8281 58.3438 41.7969 59.8281
Q36.7656 61.3281 30.7656 61.3281
L17.5312 61.3281
L17.5312 7.46875
L32.8594 7.46875
Q38.2812 7.46875 42.8906 9.21875
Q47.5156 10.9844 50.875 14.4531
Q54.25 17.9219 56.1562 23.0938
Q58.0625 28.2656 58.0625 35.1094" id="LiberationSans-44"/>
     <path d="
M8.20312 0
L8.20312 68.7969
L17.5312 68.7969
L17.5312 7.625
L52.2969 7.625
L52.2969 0
z
" id="LiberationSans-4c"/>
     <path d="
M22.3125 -0.984375
Q13.9688 -0.984375 8.60938 3.35938
Q3.26562 7.71875 1.5625 17.0938
L10.6875 18.6094
Q11.1875 15.4375 12.2969 13.1562
Q13.4219 10.8906 14.9844 9.42188
Q16.5469 7.95312 18.4531 7.26562
Q20.3594 6.59375 22.3594 6.59375
Q27.4375 6.59375 30.3594 10.0781
Q33.2969 13.5781 33.2969 20.3125
L33.2969 61.1875
L20.0625 61.1875
L20.0625 68.7969
L42.5781 68.7969
L42.5781 20.5156
Q42.5781 15.5781 41.2031 11.625
Q39.8438 7.67188 37.2344 4.85938
Q34.625 2.04688 30.8594 0.53125
Q27.0938 -0.984375 22.3125 -0.984375" id="LiberationSans-4a"/>
    </defs>
    <g style="fill:#262626;" transform="translate(143.780703125 224.48)scale(0.12 -0.12)">
     <use transform="translate(0.0 0.53125)" xlink:href="#LiberationSans-5b"/>
     <use transform="translate(27.783203125 0.53125)" xlink:href="#LiberationSans-6a"/>
     <use transform="translate(50.0 0.53125)" xlink:href="#LiberationSans-65"/>
     <use transform="translate(105.615234375 0.53125)" xlink:href="#LiberationSans-72"/>
     <use transform="translate(138.916015625 0.53125)" xlink:href="#LiberationSans-6b"/>
     <use transform="translate(188.916015625 0.53125)" xlink:href="#LiberationSans-5d"/>
     <use transform="translate(216.69921875 0.53125)" xlink:href="#LiberationSans-20"/>
     <use transform="translate(244.482421875 0.53125)" xlink:href="#LiberationSans-4c"/>
     <use transform="translate(300.09765625 0.53125)" xlink:href="#LiberationSans-44"/>
     <use transform="translate(372.314453125 0.53125)" xlink:href="#LiberationSans-4c"/>
     <use transform="translate(427.9296875 0.53125)" xlink:href="#LiberationSans-4a"/>
     <use transform="translate(477.9296875 0.53125)" xlink:href="#LiberationSans-20"/>
     <use transform="translate(505.712890625 0.53125)" xlink:href="#LiberationSans-76"/>
     <use transform="translate(555.712890625 0.53125)" xlink:href="#LiberationSans-73"/>
     <use transform="translate(605.712890625 0.53125)" xlink:href="#LiberationSans-2e"/>
     <use transform="translate(633.49609375 0.53125)" xlink:href="#LiberationSans-20"/>
     <use transform="translate(661.279296875 0.53125)" xlink:href="#Cmr10-a2"/>
     <use transform="translate(744.580078125 0.53125)" xlink:href="#Cmmi10-54"/>
    </g>
   </g>
  </g>
  <g id="axes_4">
   <g id="patch_17">
    <path d="
M390.418 387.24
L702.048 387.24
L702.048 229.48
L390.418 229.48
z
" style="fill:#eaeaf2;"/>
   </g>
   <g id="matplotlib.axis_7">
    <g id="xtick_20">
     <g id="line2d_124">
      <path clip-path="url(#p310337745d)" d="
M390.418 387.24
L390.418 229.48" style="fill:none;stroke:#ffffff;stroke-linecap:round;"/>
     </g>
     <g id="line2d_125">
      <g>
       <use style="fill:#262626;stroke:#262626;" x="390.41828125" xlink:href="#m219da94a98" y="387.24"/>
      </g>
     </g>
     <g id="line2d_126">
      <g>
       <use style="fill:#262626;stroke:#262626;" x="390.41828125" xlink:href="#m219da94a98" y="229.48"/>
      </g>
     </g>
     <g id="text_41">
      <!-- 2 -->
      <g style="fill:#262626;" transform="translate(388.14015625 401.486875)scale(0.1 -0.1)">
       <use xlink:href="#LiberationSans-32"/>
      </g>
     </g>
    </g>
    <g id="xtick_21">
     <g id="line2d_127">
      <path clip-path="url(#p310337745d)" d="
M429.372 387.24
L429.372 229.48" style="fill:none;stroke:#ffffff;stroke-linecap:round;"/>
     </g>
     <g id="line2d_128">
      <g>
       <use style="fill:#262626;stroke:#262626;" x="429.371972656" xlink:href="#m219da94a98" y="387.24"/>
      </g>
     </g>
     <g id="line2d_129">
      <g>
       <use style="fill:#262626;stroke:#262626;" x="429.371972656" xlink:href="#m219da94a98" y="229.48"/>
      </g>
     </g>
     <g id="text_42">
      <!-- 3 -->
      <g style="fill:#262626;" transform="translate(427.001660156 401.486875)scale(0.1 -0.1)">
       <use xlink:href="#LiberationSans-33"/>
      </g>
     </g>
    </g>
    <g id="xtick_22">
     <g id="line2d_130">
      <path clip-path="url(#p310337745d)" d="
M468.326 387.24
L468.326 229.48" style="fill:none;stroke:#ffffff;stroke-linecap:round;"/>
     </g>
     <g id="line2d_131">
      <g>
       <use style="fill:#262626;stroke:#262626;" x="468.325664063" xlink:href="#m219da94a98" y="387.24"/>
      </g>
     </g>
     <g id="line2d_132">
      <g>
       <use style="fill:#262626;stroke:#262626;" x="468.325664063" xlink:href="#m219da94a98" y="229.48"/>
      </g>
     </g>
     <g id="text_43">
      <!-- 4 -->
      <g style="fill:#262626;" transform="translate(465.806132813 401.486875)scale(0.1 -0.1)">
       <use xlink:href="#LiberationSans-34"/>
      </g>
     </g>
    </g>
    <g id="xtick_23">
     <g id="line2d_133">
      <path clip-path="url(#p310337745d)" d="
M507.279 387.24
L507.279 229.48" style="fill:none;stroke:#ffffff;stroke-linecap:round;"/>
     </g>
     <g id="line2d_134">
      <g>
       <use style="fill:#262626;stroke:#262626;" x="507.279355469" xlink:href="#m219da94a98" y="387.24"/>
      </g>
     </g>
     <g id="line2d_135">
      <g>
       <use style="fill:#262626;stroke:#262626;" x="507.279355469" xlink:href="#m219da94a98" y="229.48"/>
      </g>
     </g>
     <g id="text_44">
      <!-- 5 -->
      <g style="fill:#262626;" transform="translate(504.908261719 401.486875)scale(0.1 -0.1)">
       <use xlink:href="#LiberationSans-35"/>
      </g>
     </g>
    </g>
    <g id="xtick_24">
     <g id="line2d_136">
      <path clip-path="url(#p310337745d)" d="
M546.233 387.24
L546.233 229.48" style="fill:none;stroke:#ffffff;stroke-linecap:round;"/>
     </g>
     <g id="line2d_137">
      <g>
       <use style="fill:#262626;stroke:#262626;" x="546.233046875" xlink:href="#m219da94a98" y="387.24"/>
      </g>
     </g>
     <g id="line2d_138">
      <g>
       <use style="fill:#262626;stroke:#262626;" x="546.233046875" xlink:href="#m219da94a98" y="229.48"/>
      </g>
     </g>
     <g id="text_45">
      <!-- 6 -->
      <g style="fill:#262626;" transform="translate(543.926015625 401.486875)scale(0.1 -0.1)">
       <use xlink:href="#LiberationSans-36"/>
      </g>
     </g>
    </g>
    <g id="xtick_25">
     <g id="line2d_139">
      <path clip-path="url(#p310337745d)" d="
M585.187 387.24
L585.187 229.48" style="fill:none;stroke:#ffffff;stroke-linecap:round;"/>
     </g>
     <g id="line2d_140">
      <g>
       <use style="fill:#262626;stroke:#262626;" x="585.186738281" xlink:href="#m219da94a98" y="387.24"/>
      </g>
     </g>
     <g id="line2d_141">
      <g>
       <use style="fill:#262626;stroke:#262626;" x="585.186738281" xlink:href="#m219da94a98" y="229.48"/>
      </g>
     </g>
     <g id="text_46">
      <!-- 7 -->
      <g style="fill:#262626;" transform="translate(582.913300781 401.486875)scale(0.1 -0.1)">
       <use xlink:href="#LiberationSans-37"/>
      </g>
     </g>
    </g>
    <g id="xtick_26">
     <g id="line2d_142">
      <path clip-path="url(#p310337745d)" d="
M624.14 387.24
L624.14 229.48" style="fill:none;stroke:#ffffff;stroke-linecap:round;"/>
     </g>
     <g id="line2d_143">
      <g>
       <use style="fill:#262626;stroke:#262626;" x="624.140429688" xlink:href="#m219da94a98" y="387.24"/>
      </g>
     </g>
     <g id="line2d_144">
      <g>
       <use style="fill:#262626;stroke:#262626;" x="624.140429688" xlink:href="#m219da94a98" y="229.48"/>
      </g>
     </g>
     <g id="text_47">
      <!-- 8 -->
      <g style="fill:#262626;" transform="translate(621.794335938 401.486875)scale(0.1 -0.1)">
       <use xlink:href="#LiberationSans-38"/>
      </g>
     </g>
    </g>
    <g id="xtick_27">
     <g id="line2d_145">
      <path clip-path="url(#p310337745d)" d="
M663.094 387.24
L663.094 229.48" style="fill:none;stroke:#ffffff;stroke-linecap:round;"/>
     </g>
     <g id="line2d_146">
      <g>
       <use style="fill:#262626;stroke:#262626;" x="663.094121094" xlink:href="#m219da94a98" y="387.24"/>
      </g>
     </g>
     <g id="line2d_147">
      <g>
       <use style="fill:#262626;stroke:#262626;" x="663.094121094" xlink:href="#m219da94a98" y="229.48"/>
      </g>
     </g>
     <g id="text_48">
      <!-- 9 -->
      <g style="fill:#262626;" transform="translate(660.784746094 401.486875)scale(0.1 -0.1)">
       <use xlink:href="#LiberationSans-39"/>
      </g>
     </g>
    </g>
    <g id="xtick_28">
     <g id="line2d_148">
      <path clip-path="url(#p310337745d)" d="
M702.048 387.24
L702.048 229.48" style="fill:none;stroke:#ffffff;stroke-linecap:round;"/>
     </g>
     <g id="line2d_149">
      <g>
       <use style="fill:#262626;stroke:#262626;" x="702.0478125" xlink:href="#m219da94a98" y="387.24"/>
      </g>
     </g>
     <g id="line2d_150">
      <g>
       <use style="fill:#262626;stroke:#262626;" x="702.0478125" xlink:href="#m219da94a98" y="229.48"/>
      </g>
     </g>
     <g id="text_49">
      <!-- 10 -->
      <g style="fill:#262626;" transform="translate(697.0634375 401.486875)scale(0.1 -0.1)">
       <use xlink:href="#LiberationSans-31"/>
       <use x="55.615234375" xlink:href="#LiberationSans-30"/>
      </g>
     </g>
    </g>
    <g id="text_50">
     <!-- No. of submovements -->
     <defs>
      <path d="
M17.625 46.4375
L17.625 0
L8.84375 0
L8.84375 46.4375
L1.42188 46.4375
L1.42188 52.8281
L8.84375 52.8281
L8.84375 58.7969
Q8.84375 61.6719 9.375 64.1406
Q9.90625 66.6094 11.3438 68.4375
Q12.7969 70.2656 15.2812 71.3125
Q17.7812 72.3594 21.7344 72.3594
Q23.2969 72.3594 24.9688 72.2188
Q26.6562 72.0781 27.9375 71.7812
L27.9375 65.0938
Q27.0938 65.2344 26 65.3594
Q24.9062 65.4844 24.0312 65.4844
Q22.0781 65.4844 20.8281 64.9375
Q19.5781 64.4062 18.875 63.4062
Q18.1719 62.4062 17.8906 60.9375
Q17.625 59.4688 17.625 57.5625
L17.625 52.8281
L27.9375 52.8281
L27.9375 46.4375
z
" id="LiberationSans-66"/>
      <path d="
M15.3281 52.8281
L15.3281 19.3438
Q15.3281 15.4844 15.8906 12.8906
Q16.4531 10.2969 17.7188 8.70312
Q19 7.125 21.0625 6.46875
Q23.1406 5.8125 26.2188 5.8125
Q29.3438 5.8125 31.8594 6.90625
Q34.375 8.01562 36.1562 10.0781
Q37.9375 12.1562 38.9062 15.2031
Q39.8906 18.2656 39.8906 22.2188
L39.8906 52.8281
L48.6875 52.8281
L48.6875 11.2812
Q48.6875 9.625 48.7031 7.78125
Q48.7344 5.95312 48.7812 4.3125
Q48.8281 2.6875 48.875 1.51562
Q48.9219 0.34375 48.9688 0
L40.6719 0
Q40.625 0.25 40.5781 1.3125
Q40.5312 2.39062 40.4531 3.78125
Q40.375 5.17188 40.3281 6.60938
Q40.2812 8.0625 40.2812 9.03125
L40.1406 9.03125
Q38.875 6.73438 37.3594 4.875
Q35.8438 3.03125 33.8438 1.73438
Q31.8438 0.4375 29.25 -0.265625
Q26.6562 -0.984375 23.25 -0.984375
Q18.8438 -0.984375 15.6719 0.09375
Q12.5 1.17188 10.4531 3.42188
Q8.40625 5.67188 7.45312 9.1875
Q6.5 12.7031 6.5 17.625
L6.5 52.8281
z
" id="LiberationSans-75"/>
      <path d="
M51.4219 26.6562
Q51.4219 -0.984375 31.9844 -0.984375
Q25.9844 -0.984375 22 1.1875
Q18.0156 3.375 15.5312 8.20312
L15.4375 8.20312
Q15.4375 6.9375 15.3594 5.5625
Q15.2812 4.20312 15.2031 3.03125
Q15.1406 1.85938 15.0625 1.03125
Q14.9844 0.203125 14.9375 0
L6.45312 0
Q6.5 0.4375 6.54688 1.48438
Q6.59375 2.54688 6.64062 4
Q6.6875 5.46875 6.70312 7.21875
Q6.73438 8.98438 6.73438 10.8906
L6.73438 72.4688
L15.5312 72.4688
L15.5312 51.8125
Q15.5312 50.3438 15.5 49
Q15.4844 47.6562 15.4375 46.625
Q15.375 45.4062 15.3281 44.3438
L15.5312 44.3438
Q17.9688 49.4219 22 51.6094
Q26.0312 53.8125 31.9844 53.8125
Q42 53.8125 46.7031 47.0625
Q51.4219 40.3281 51.4219 26.6562
M42.1875 26.375
Q42.1875 31.8438 41.5 35.75
Q40.8281 39.6562 39.3125 42.1562
Q37.7969 44.6719 35.4531 45.8438
Q33.1094 47.0156 29.7344 47.0156
Q26.2656 47.0156 23.6094 45.8906
Q20.9531 44.7812 19.1719 42.2812
Q17.3906 39.7969 16.4531 35.7344
Q15.5312 31.6875 15.5312 25.8281
Q15.5312 20.1719 16.4531 16.3125
Q17.3906 12.4531 19.1719 10.0312
Q20.9531 7.625 23.5781 6.5625
Q26.2188 5.51562 29.6406 5.51562
Q32.8594 5.51562 35.2031 6.64062
Q37.5469 7.76562 39.1094 10.25
Q40.6719 12.75 41.4219 16.7188
Q42.1875 20.7031 42.1875 26.375" id="LiberationSans-62"/>
      <path d="
M27.0469 0.390625
Q25.0469 -0.140625 22.9688 -0.453125
Q20.9062 -0.78125 18.1719 -0.78125
Q7.625 -0.78125 7.625 11.1875
L7.625 46.4375
L1.51562 46.4375
L1.51562 52.8281
L7.95312 52.8281
L10.5469 64.6562
L16.4062 64.6562
L16.4062 52.8281
L26.1719 52.8281
L26.1719 46.4375
L16.4062 46.4375
L16.4062 13.0938
Q16.4062 9.28125 17.6406 7.73438
Q18.8906 6.20312 21.9688 6.20312
Q23.25 6.20312 24.4375 6.39062
Q25.6406 6.59375 27.0469 6.89062
z
" id="LiberationSans-74"/>
      <path d="
M40.2812 0
L40.2812 33.5
Q40.2812 37.3594 39.7188 39.9375
Q39.1562 42.5312 37.8906 44.1094
Q36.625 45.7031 34.5469 46.3594
Q32.4688 47.0156 29.3906 47.0156
Q26.2656 47.0156 23.75 45.9219
Q21.2344 44.8281 19.4531 42.75
Q17.6719 40.6719 16.6875 37.625
Q15.7188 34.5781 15.7188 30.6094
L15.7188 0
L6.9375 0
L6.9375 41.5469
Q6.9375 43.2188 6.90625 45.0469
Q6.89062 46.875 6.82812 48.5
Q6.78125 50.1406 6.73438 51.3125
Q6.6875 52.4844 6.64062 52.8281
L14.9375 52.8281
Q14.9844 52.5938 15.0312 51.5156
Q15.0938 50.4375 15.1562 49.0469
Q15.2344 47.6562 15.2812 46.2188
Q15.3281 44.7812 15.3281 43.7969
L15.4844 43.7969
Q16.75 46.0938 18.2656 47.9531
Q19.7812 49.8125 21.7812 51.0938
Q23.7812 52.3906 26.3594 53.0938
Q28.9531 53.8125 32.375 53.8125
Q36.7656 53.8125 39.9375 52.7344
Q43.1094 51.6562 45.1562 49.4062
Q47.2188 47.1719 48.1719 43.625
Q49.125 40.0938 49.125 35.2031
L49.125 0
z
" id="LiberationSans-6e"/>
      <path d="
M51.4219 26.4688
Q51.4219 12.5938 45.3125 5.79688
Q39.2031 -0.984375 27.5938 -0.984375
Q22.0781 -0.984375 17.7188 0.671875
Q13.375 2.34375 10.375 5.76562
Q7.375 9.1875 5.78125 14.3281
Q4.20312 19.4844 4.20312 26.4688
Q4.20312 53.8125 27.875 53.8125
Q34.0312 53.8125 38.5 52.0938
Q42.9688 50.3906 45.8281 46.9688
Q48.6875 43.5625 50.0469 38.4219
Q51.4219 33.2969 51.4219 26.4688
M42.1875 26.4688
Q42.1875 32.625 41.2344 36.625
Q40.2812 40.625 38.4531 43.0156
Q36.625 45.4062 33.9844 46.3594
Q31.3438 47.3125 28.0312 47.3125
Q24.6562 47.3125 21.9375 46.3125
Q19.2344 45.3125 17.3281 42.8906
Q15.4375 40.4844 14.4219 36.4688
Q13.4219 32.4688 13.4219 26.4688
Q13.4219 20.3125 14.5 16.2812
Q15.5781 12.25 17.4531 9.85938
Q19.3438 7.46875 21.9062 6.48438
Q24.4688 5.51562 27.4844 5.51562
Q30.8594 5.51562 33.5938 6.46875
Q36.3281 7.42188 38.2344 9.8125
Q40.1406 12.2031 41.1562 16.25
Q42.1875 20.3125 42.1875 26.4688" id="LiberationSans-6f"/>
     </defs>
     <g style="fill:#262626;" transform="translate(492.93890625 416.5334375)scale(0.11 -0.11)">
      <use xlink:href="#LiberationSans-4e"/>
      <use x="72.216796875" xlink:href="#LiberationSans-6f"/>
      <use x="127.83203125" xlink:href="#LiberationSans-2e"/>
      <use x="155.615234375" xlink:href="#LiberationSans-20"/>
      <use x="183.3984375" xlink:href="#LiberationSans-6f"/>
      <use x="239.013671875" xlink:href="#LiberationSans-66"/>
      <use x="266.796875" xlink:href="#LiberationSans-20"/>
      <use x="294.580078125" xlink:href="#LiberationSans-73"/>
      <use x="344.580078125" xlink:href="#LiberationSans-75"/>
      <use x="400.1953125" xlink:href="#LiberationSans-62"/>
      <use x="455.810546875" xlink:href="#LiberationSans-6d"/>
      <use x="539.111328125" xlink:href="#LiberationSans-6f"/>
      <use x="594.7265625" xlink:href="#LiberationSans-76"/>
      <use x="644.7265625" xlink:href="#LiberationSans-65"/>
      <use x="700.341796875" xlink:href="#LiberationSans-6d"/>
      <use x="783.642578125" xlink:href="#LiberationSans-65"/>
      <use x="839.2578125" xlink:href="#LiberationSans-6e"/>
      <use x="894.873046875" xlink:href="#LiberationSans-74"/>
      <use x="922.65625" xlink:href="#LiberationSans-73"/>
     </g>
    </g>
   </g>
   <g id="matplotlib.axis_8">
    <g id="ytick_18">
     <g id="line2d_151">
      <path clip-path="url(#p310337745d)" d="
M390.418 387.24
L702.048 387.24" style="fill:none;stroke:#ffffff;stroke-linecap:round;"/>
     </g>
     <g id="line2d_152">
      <g>
       <use style="fill:#262626;stroke:#262626;" x="390.41828125" xlink:href="#m219da94a98" y="387.24"/>
      </g>
     </g>
     <g id="line2d_153">
      <g>
       <use style="fill:#262626;stroke:#262626;" x="702.0478125" xlink:href="#m219da94a98" y="387.24"/>
      </g>
     </g>
     <g id="text_51">
      <!-- 0.8 -->
      <g style="fill:#262626;" transform="translate(370.34328125 389.8259375)scale(0.1 -0.1)">
       <use xlink:href="#LiberationSans-30"/>
       <use x="55.615234375" xlink:href="#LiberationSans-2e"/>
       <use x="83.3984375" xlink:href="#LiberationSans-38"/>
      </g>
     </g>
    </g>
    <g id="ytick_19">
     <g id="line2d_154">
      <path clip-path="url(#p310337745d)" d="
M390.418 367.52
L702.048 367.52" style="fill:none;stroke:#ffffff;stroke-linecap:round;"/>
     </g>
     <g id="line2d_155">
      <g>
       <use style="fill:#262626;stroke:#262626;" x="390.41828125" xlink:href="#m219da94a98" y="367.52"/>
      </g>
     </g>
     <g id="line2d_156">
      <g>
       <use style="fill:#262626;stroke:#262626;" x="702.0478125" xlink:href="#m219da94a98" y="367.52"/>
      </g>
     </g>
     <g id="text_52">
      <!-- 1.0 -->
      <g style="fill:#262626;" transform="translate(370.67140625 370.1059375)scale(0.1 -0.1)">
       <use xlink:href="#LiberationSans-31"/>
       <use x="55.615234375" xlink:href="#LiberationSans-2e"/>
       <use x="83.3984375" xlink:href="#LiberationSans-30"/>
      </g>
     </g>
    </g>
    <g id="ytick_20">
     <g id="line2d_157">
      <path clip-path="url(#p310337745d)" d="
M390.418 347.8
L702.048 347.8" style="fill:none;stroke:#ffffff;stroke-linecap:round;"/>
     </g>
     <g id="line2d_158">
      <g>
       <use style="fill:#262626;stroke:#262626;" x="390.41828125" xlink:href="#m219da94a98" y="347.8"/>
      </g>
     </g>
     <g id="line2d_159">
      <g>
       <use style="fill:#262626;stroke:#262626;" x="702.0478125" xlink:href="#m219da94a98" y="347.8"/>
      </g>
     </g>
     <g id="text_53">
      <!-- 1.2 -->
      <g style="fill:#262626;" transform="translate(370.78234375 350.3859375)scale(0.1 -0.1)">
       <use xlink:href="#LiberationSans-31"/>
       <use x="55.615234375" xlink:href="#LiberationSans-2e"/>
       <use x="83.3984375" xlink:href="#LiberationSans-32"/>
      </g>
     </g>
    </g>
    <g id="ytick_21">
     <g id="line2d_160">
      <path clip-path="url(#p310337745d)" d="
M390.418 328.08
L702.048 328.08" style="fill:none;stroke:#ffffff;stroke-linecap:round;"/>
     </g>
     <g id="line2d_161">
      <g>
       <use style="fill:#262626;stroke:#262626;" x="390.41828125" xlink:href="#m219da94a98" y="328.08"/>
      </g>
     </g>
     <g id="line2d_162">
      <g>
       <use style="fill:#262626;stroke:#262626;" x="702.0478125" xlink:href="#m219da94a98" y="328.08"/>
      </g>
     </g>
     <g id="text_54">
      <!-- 1.4 -->
      <g style="fill:#262626;" transform="translate(370.57296875 330.6659375)scale(0.1 -0.1)">
       <use xlink:href="#LiberationSans-31"/>
       <use x="55.615234375" xlink:href="#LiberationSans-2e"/>
       <use x="83.3984375" xlink:href="#LiberationSans-34"/>
      </g>
     </g>
    </g>
    <g id="ytick_22">
     <g id="line2d_163">
      <path clip-path="url(#p310337745d)" d="
M390.418 308.36
L702.048 308.36" style="fill:none;stroke:#ffffff;stroke-linecap:round;"/>
     </g>
     <g id="line2d_164">
      <g>
       <use style="fill:#262626;stroke:#262626;" x="390.41828125" xlink:href="#m219da94a98" y="308.36"/>
      </g>
     </g>
     <g id="line2d_165">
      <g>
       <use style="fill:#262626;stroke:#262626;" x="702.0478125" xlink:href="#m219da94a98" y="308.36"/>
      </g>
     </g>
     <g id="text_55">
      <!-- 1.6 -->
      <g style="fill:#262626;" transform="translate(370.71984375 310.9459375)scale(0.1 -0.1)">
       <use xlink:href="#LiberationSans-31"/>
       <use x="55.615234375" xlink:href="#LiberationSans-2e"/>
       <use x="83.3984375" xlink:href="#LiberationSans-36"/>
      </g>
     </g>
    </g>
    <g id="ytick_23">
     <g id="line2d_166">
      <path clip-path="url(#p310337745d)" d="
M390.418 288.64
L702.048 288.64" style="fill:none;stroke:#ffffff;stroke-linecap:round;"/>
     </g>
     <g id="line2d_167">
      <g>
       <use style="fill:#262626;stroke:#262626;" x="390.41828125" xlink:href="#m219da94a98" y="288.64"/>
      </g>
     </g>
     <g id="line2d_168">
      <g>
       <use style="fill:#262626;stroke:#262626;" x="702.0478125" xlink:href="#m219da94a98" y="288.64"/>
      </g>
     </g>
     <g id="text_56">
      <!-- 1.8 -->
      <g style="fill:#262626;" transform="translate(370.71515625 291.2259375)scale(0.1 -0.1)">
       <use xlink:href="#LiberationSans-31"/>
       <use x="55.615234375" xlink:href="#LiberationSans-2e"/>
       <use x="83.3984375" xlink:href="#LiberationSans-38"/>
      </g>
     </g>
    </g>
    <g id="ytick_24">
     <g id="line2d_169">
      <path clip-path="url(#p310337745d)" d="
M390.418 268.92
L702.048 268.92" style="fill:none;stroke:#ffffff;stroke-linecap:round;"/>
     </g>
     <g id="line2d_170">
      <g>
       <use style="fill:#262626;stroke:#262626;" x="390.41828125" xlink:href="#m219da94a98" y="268.92"/>
      </g>
     </g>
     <g id="line2d_171">
      <g>
       <use style="fill:#262626;stroke:#262626;" x="702.0478125" xlink:href="#m219da94a98" y="268.92"/>
      </g>
     </g>
     <g id="text_57">
      <!-- 2.0 -->
      <g style="fill:#262626;" transform="translate(370.41203125 271.5059375)scale(0.1 -0.1)">
       <use xlink:href="#LiberationSans-32"/>
       <use x="55.615234375" xlink:href="#LiberationSans-2e"/>
       <use x="83.3984375" xlink:href="#LiberationSans-30"/>
      </g>
     </g>
    </g>
    <g id="ytick_25">
     <g id="line2d_172">
      <path clip-path="url(#p310337745d)" d="
M390.418 249.2
L702.048 249.2" style="fill:none;stroke:#ffffff;stroke-linecap:round;"/>
     </g>
     <g id="line2d_173">
      <g>
       <use style="fill:#262626;stroke:#262626;" x="390.41828125" xlink:href="#m219da94a98" y="249.2"/>
      </g>
     </g>
     <g id="line2d_174">
      <g>
       <use style="fill:#262626;stroke:#262626;" x="702.0478125" xlink:href="#m219da94a98" y="249.2"/>
      </g>
     </g>
     <g id="text_58">
      <!-- 2.2 -->
      <g style="fill:#262626;" transform="translate(370.52296875 251.7859375)scale(0.1 -0.1)">
       <use xlink:href="#LiberationSans-32"/>
       <use x="55.615234375" xlink:href="#LiberationSans-2e"/>
       <use x="83.3984375" xlink:href="#LiberationSans-32"/>
      </g>
     </g>
    </g>
    <g id="ytick_26">
     <g id="line2d_175">
      <path clip-path="url(#p310337745d)" d="
M390.418 229.48
L702.048 229.48" style="fill:none;stroke:#ffffff;stroke-linecap:round;"/>
     </g>
     <g id="line2d_176">
      <g>
       <use style="fill:#262626;stroke:#262626;" x="390.41828125" xlink:href="#m219da94a98" y="229.48"/>
      </g>
     </g>
     <g id="line2d_177">
      <g>
       <use style="fill:#262626;stroke:#262626;" x="702.0478125" xlink:href="#m219da94a98" y="229.48"/>
      </g>
     </g>
     <g id="text_59">
      <!-- 2.4 -->
      <g style="fill:#262626;" transform="translate(370.31359375 232.0659375)scale(0.1 -0.1)">
       <use xlink:href="#LiberationSans-32"/>
       <use x="55.615234375" xlink:href="#LiberationSans-2e"/>
       <use x="83.3984375" xlink:href="#LiberationSans-34"/>
      </g>
     </g>
    </g>
   </g>
   <g id="line2d_178">
    <path clip-path="url(#p310337745d)" d="
M390.418 301.512
L468.326 301.512
L546.233 301.512
L624.14 301.512
L702.048 301.512" style="fill:none;stroke:#4c72b0;stroke-linecap:round;stroke-width:1.75;"/>
   </g>
   <g id="line2d_179">
    <path clip-path="url(#p310337745d)" d="
M390.418 340.49
L468.326 361.51
L546.233 369.301
L624.14 373.376
L702.048 375.884" style="fill:none;stroke:#55a868;stroke-linecap:round;stroke-width:1.75;"/>
   </g>
   <g id="line2d_180">
    <path clip-path="url(#p310337745d)" d="
M390.418 301.478
L468.326 301.461
L546.233 301.456
L624.14 301.453
L702.048 301.451" style="fill:none;stroke:#c44e52;stroke-linecap:round;stroke-width:1.75;"/>
   </g>
   <g id="line2d_181">
    <path clip-path="url(#p310337745d)" d="
M390.418 279.398
L468.326 269.961
L546.233 267.006
L624.14 265.561
L702.048 264.704" style="fill:none;stroke:#8172b2;stroke-linecap:round;stroke-width:1.75;"/>
   </g>
   <g id="line2d_182">
    <path clip-path="url(#p310337745d)" d="
M390.418 261.408
L468.326 246.174
L546.233 241.578
L624.14 239.358
L702.048 238.05" style="fill:none;stroke:#ccb974;stroke-linecap:round;stroke-width:1.75;"/>
   </g>
   <g id="patch_18">
    <path d="
M390.418 229.48
L702.048 229.48" style="fill:none;"/>
   </g>
   <g id="patch_19">
    <path d="
M702.048 387.24
L702.048 229.48" style="fill:none;"/>
   </g>
   <g id="patch_20">
    <path d="
M390.418 387.24
L702.048 387.24" style="fill:none;"/>
   </g>
   <g id="patch_21">
    <path d="
M390.418 387.24
L390.418 229.48" style="fill:none;"/>
   </g>
   <g id="text_60">
    <!-- [jerk] LDLJ vs. Ns -->
    <g style="fill:#262626;" transform="translate(499.441484375 224.48)scale(0.12 -0.12)">
     <use xlink:href="#LiberationSans-5b"/>
     <use x="27.783203125" xlink:href="#LiberationSans-6a"/>
     <use x="50.0" xlink:href="#LiberationSans-65"/>
     <use x="105.615234375" xlink:href="#LiberationSans-72"/>
     <use x="138.916015625" xlink:href="#LiberationSans-6b"/>
     <use x="188.916015625" xlink:href="#LiberationSans-5d"/>
     <use x="216.69921875" xlink:href="#LiberationSans-20"/>
     <use x="244.482421875" xlink:href="#LiberationSans-4c"/>
     <use x="300.09765625" xlink:href="#LiberationSans-44"/>
     <use x="372.314453125" xlink:href="#LiberationSans-4c"/>
     <use x="427.9296875" xlink:href="#LiberationSans-4a"/>
     <use x="477.9296875" xlink:href="#LiberationSans-20"/>
     <use x="505.712890625" xlink:href="#LiberationSans-76"/>
     <use x="555.712890625" xlink:href="#LiberationSans-73"/>
     <use x="605.712890625" xlink:href="#LiberationSans-2e"/>
     <use x="633.49609375" xlink:href="#LiberationSans-20"/>
     <use x="661.279296875" xlink:href="#LiberationSans-4e"/>
     <use x="733.49609375" xlink:href="#LiberationSans-73"/>
    </g>
   </g>
  </g>
 </g>
 <defs>
  <clipPath id="pc15d7528cb">
   <rect height="157.76" width="311.62953125" x="36.1459375" y="27.86"/>
  </clipPath>
  <clipPath id="p310337745d">
   <rect height="157.76" width="311.62953125" x="390.41828125" y="229.48"/>
  </clipPath>
  <clipPath id="p8f8b51c094">
   <rect height="157.76" width="311.62953125" x="36.1459375" y="229.48"/>
  </clipPath>
  <clipPath id="p7f556acf0d">
   <rect height="157.76" width="311.62953125" x="390.41828125" y="27.86"/>
  </clipPath>
 </defs>
</svg>
