<?xml version="1.0" encoding="utf-8" standalone="no"?>
<!DOCTYPE svg PUBLIC "-//W3C//DTD SVG 1.1//EN"
  "http://www.w3.org/Graphics/SVG/1.1/DTD/svg11.dtd">
<!-- Created with matplotlib (http://matplotlib.org/) -->
<svg height="288pt" version="1.1" viewBox="0 0 576 288" width="576pt" xmlns="http://www.w3.org/2000/svg" xmlns:xlink="http://www.w3.org/1999/xlink">
 <defs>
  <style type="text/css">
*{stroke-linecap:butt;stroke-linejoin:round;}
  </style>
 </defs>
 <g id="figure_1">
  <g id="patch_1">
   <path d="
M0 288
L576 288
L576 0
L0 0
z
" style="fill:#ffffff;"/>
  </g>
  <g id="axes_1">
   <g id="patch_2">
    <path d="
M62.7375 231
L565.2 231
L565.2 10.8
L62.7375 10.8
z
" style="fill:#eaeaf2;"/>
   </g>
   <g id="matplotlib.axis_1">
    <g id="xtick_1">
     <g id="line2d_1">
      <path clip-path="url(#p8d879c370d)" d="
M80.2755 231
L80.2755 10.8" style="fill:none;stroke:#ffffff;stroke-linecap:round;"/>
     </g>
     <g id="line2d_2">
      <defs>
       <path d="
M0 0
L0 0" id="m219da94a98" style="stroke:#262626;"/>
      </defs>
      <g>
       <use style="fill:#262626;stroke:#262626;" x="80.2754581152" xlink:href="#m219da94a98" y="231.0"/>
      </g>
     </g>
     <g id="line2d_3">
      <g>
       <use style="fill:#262626;stroke:#262626;" x="80.2754581152" xlink:href="#m219da94a98" y="10.8"/>
      </g>
     </g>
     <g id="text_1">
      <text style="fill:#262626;font-family:Liberation Sans;font-size:16.0px;font-style:normal;text-anchor:middle;" transform="rotate(-0.000000, 80.275458, 249.595000)" x="80.2754581152" y="249.595">0.0</text>
     </g>
    </g>
    <g id="xtick_2">
     <g id="line2d_4">
      <path clip-path="url(#p8d879c370d)" d="
M167.965 231
L167.965 10.8" style="fill:none;stroke:#ffffff;stroke-linecap:round;"/>
     </g>
     <g id="line2d_5">
      <g>
       <use style="fill:#262626;stroke:#262626;" x="167.965248691" xlink:href="#m219da94a98" y="231.0"/>
      </g>
     </g>
     <g id="line2d_6">
      <g>
       <use style="fill:#262626;stroke:#262626;" x="167.965248691" xlink:href="#m219da94a98" y="10.8"/>
      </g>
     </g>
     <g id="text_2">
      <text style="fill:#262626;font-family:Liberation Sans;font-size:16.0px;font-style:normal;text-anchor:middle;" transform="rotate(-0.000000, 167.965249, 249.595000)" x="167.965248691" y="249.595">0.5</text>
     </g>
    </g>
    <g id="xtick_3">
     <g id="line2d_7">
      <path clip-path="url(#p8d879c370d)" d="
M255.655 231
L255.655 10.8" style="fill:none;stroke:#ffffff;stroke-linecap:round;"/>
     </g>
     <g id="line2d_8">
      <g>
       <use style="fill:#262626;stroke:#262626;" x="255.655039267" xlink:href="#m219da94a98" y="231.0"/>
      </g>
     </g>
     <g id="line2d_9">
      <g>
       <use style="fill:#262626;stroke:#262626;" x="255.655039267" xlink:href="#m219da94a98" y="10.8"/>
      </g>
     </g>
     <g id="text_3">
      <text style="fill:#262626;font-family:Liberation Sans;font-size:16.0px;font-style:normal;text-anchor:middle;" transform="rotate(-0.000000, 255.655039, 249.595000)" x="255.655039267" y="249.595">1.0</text>
     </g>
    </g>
    <g id="xtick_4">
     <g id="line2d_10">
      <path clip-path="url(#p8d879c370d)" d="
M343.345 231
L343.345 10.8" style="fill:none;stroke:#ffffff;stroke-linecap:round;"/>
     </g>
     <g id="line2d_11">
      <g>
       <use style="fill:#262626;stroke:#262626;" x="343.344829843" xlink:href="#m219da94a98" y="231.0"/>
      </g>
     </g>
     <g id="line2d_12">
      <g>
       <use style="fill:#262626;stroke:#262626;" x="343.344829843" xlink:href="#m219da94a98" y="10.8"/>
      </g>
     </g>
     <g id="text_4">
      <text style="fill:#262626;font-family:Liberation Sans;font-size:16.0px;font-style:normal;text-anchor:middle;" transform="rotate(-0.000000, 343.344830, 249.595000)" x="343.344829843" y="249.595">1.5</text>
     </g>
    </g>
    <g id="xtick_5">
     <g id="line2d_13">
      <path clip-path="url(#p8d879c370d)" d="
M431.035 231
L431.035 10.8" style="fill:none;stroke:#ffffff;stroke-linecap:round;"/>
     </g>
     <g id="line2d_14">
      <g>
       <use style="fill:#262626;stroke:#262626;" x="431.034620419" xlink:href="#m219da94a98" y="231.0"/>
      </g>
     </g>
     <g id="line2d_15">
      <g>
       <use style="fill:#262626;stroke:#262626;" x="431.034620419" xlink:href="#m219da94a98" y="10.8"/>
      </g>
     </g>
     <g id="text_5">
      <text style="fill:#262626;font-family:Liberation Sans;font-size:16.0px;font-style:normal;text-anchor:middle;" transform="rotate(-0.000000, 431.034620, 249.595000)" x="431.034620419" y="249.595">2.0</text>
     </g>
    </g>
    <g id="xtick_6">
     <g id="line2d_16">
      <path clip-path="url(#p8d879c370d)" d="
M518.724 231
L518.724 10.8" style="fill:none;stroke:#ffffff;stroke-linecap:round;"/>
     </g>
     <g id="line2d_17">
      <g>
       <use style="fill:#262626;stroke:#262626;" x="518.724410995" xlink:href="#m219da94a98" y="231.0"/>
      </g>
     </g>
     <g id="line2d_18">
      <g>
       <use style="fill:#262626;stroke:#262626;" x="518.724410995" xlink:href="#m219da94a98" y="10.8"/>
      </g>
     </g>
     <g id="text_6">
      <text style="fill:#262626;font-family:Liberation Sans;font-size:16.0px;font-style:normal;text-anchor:middle;" transform="rotate(-0.000000, 518.724411, 249.595000)" x="518.724410995" y="249.595">2.5</text>
     </g>
    </g>
    <g id="text_7">
     <text style="fill:#262626;font-family:Liberation Sans;font-size:20.0px;font-style:normal;text-anchor:middle;" transform="rotate(-0.000000, 313.968750, 272.408750)" x="313.96875" y="272.40875">Time (s)</text>
    </g>
   </g>
   <g id="matplotlib.axis_2">
    <g id="ytick_1">
     <g id="line2d_19">
      <path clip-path="url(#p8d879c370d)" d="
M62.7375 212.65
L565.2 212.65" style="fill:none;stroke:#ffffff;stroke-linecap:round;"/>
     </g>
     <g id="line2d_20">
      <g>
       <use style="fill:#262626;stroke:#262626;" x="62.7375" xlink:href="#m219da94a98" y="212.65"/>
      </g>
     </g>
     <g id="line2d_21">
      <g>
       <use style="fill:#262626;stroke:#262626;" x="565.2" xlink:href="#m219da94a98" y="212.65"/>
      </g>
     </g>
     <g id="text_8">
      <text style="fill:#262626;font-family:Liberation Sans;font-size:16.0px;font-style:normal;text-anchor:end;" transform="rotate(-0.000000, 55.737500, 216.787500)" x="55.7375" y="216.7875">0.0</text>
     </g>
    </g>
    <g id="ytick_2">
     <g id="line2d_22">
      <path clip-path="url(#p8d879c370d)" d="
M62.7375 175.95
L565.2 175.95" style="fill:none;stroke:#ffffff;stroke-linecap:round;"/>
     </g>
     <g id="line2d_23">
      <g>
       <use style="fill:#262626;stroke:#262626;" x="62.7375" xlink:href="#m219da94a98" y="175.95"/>
      </g>
     </g>
     <g id="line2d_24">
      <g>
       <use style="fill:#262626;stroke:#262626;" x="565.2" xlink:href="#m219da94a98" y="175.95"/>
      </g>
     </g>
     <g id="text_9">
      <text style="fill:#262626;font-family:Liberation Sans;font-size:16.0px;font-style:normal;text-anchor:end;" transform="rotate(-0.000000, 55.737500, 180.087500)" x="55.7375" y="180.0875">0.2</text>
     </g>
    </g>
    <g id="ytick_3">
     <g id="line2d_25">
      <path clip-path="url(#p8d879c370d)" d="
M62.7375 139.25
L565.2 139.25" style="fill:none;stroke:#ffffff;stroke-linecap:round;"/>
     </g>
     <g id="line2d_26">
      <g>
       <use style="fill:#262626;stroke:#262626;" x="62.7375" xlink:href="#m219da94a98" y="139.25"/>
      </g>
     </g>
     <g id="line2d_27">
      <g>
       <use style="fill:#262626;stroke:#262626;" x="565.2" xlink:href="#m219da94a98" y="139.25"/>
      </g>
     </g>
     <g id="text_10">
      <text style="fill:#262626;font-family:Liberation Sans;font-size:16.0px;font-style:normal;text-anchor:end;" transform="rotate(-0.000000, 55.737500, 143.387500)" x="55.7375" y="143.3875">0.4</text>
     </g>
    </g>
    <g id="ytick_4">
     <g id="line2d_28">
      <path clip-path="url(#p8d879c370d)" d="
M62.7375 102.55
L565.2 102.55" style="fill:none;stroke:#ffffff;stroke-linecap:round;"/>
     </g>
     <g id="line2d_29">
      <g>
       <use style="fill:#262626;stroke:#262626;" x="62.7375" xlink:href="#m219da94a98" y="102.55"/>
      </g>
     </g>
     <g id="line2d_30">
      <g>
       <use style="fill:#262626;stroke:#262626;" x="565.2" xlink:href="#m219da94a98" y="102.55"/>
      </g>
     </g>
     <g id="text_11">
      <text style="fill:#262626;font-family:Liberation Sans;font-size:16.0px;font-style:normal;text-anchor:end;" transform="rotate(-0.000000, 55.737500, 106.687500)" x="55.7375" y="106.6875">0.6</text>
     </g>
    </g>
    <g id="ytick_5">
     <g id="line2d_31">
      <path clip-path="url(#p8d879c370d)" d="
M62.7375 65.85
L565.2 65.85" style="fill:none;stroke:#ffffff;stroke-linecap:round;"/>
     </g>
     <g id="line2d_32">
      <g>
       <use style="fill:#262626;stroke:#262626;" x="62.7375" xlink:href="#m219da94a98" y="65.85"/>
      </g>
     </g>
     <g id="line2d_33">
      <g>
       <use style="fill:#262626;stroke:#262626;" x="565.2" xlink:href="#m219da94a98" y="65.85"/>
      </g>
     </g>
     <g id="text_12">
      <text style="fill:#262626;font-family:Liberation Sans;font-size:16.0px;font-style:normal;text-anchor:end;" transform="rotate(-0.000000, 55.737500, 69.987500)" x="55.7375" y="69.9875">0.8</text>
     </g>
    </g>
    <g id="ytick_6">
     <g id="line2d_34">
      <path clip-path="url(#p8d879c370d)" d="
M62.7375 29.15
L565.2 29.15" style="fill:none;stroke:#ffffff;stroke-linecap:round;"/>
     </g>
     <g id="line2d_35">
      <g>
       <use style="fill:#262626;stroke:#262626;" x="62.7375" xlink:href="#m219da94a98" y="29.15"/>
      </g>
     </g>
     <g id="line2d_36">
      <g>
       <use style="fill:#262626;stroke:#262626;" x="565.2" xlink:href="#m219da94a98" y="29.15"/>
      </g>
     </g>
     <g id="text_13">
      <text style="fill:#262626;font-family:Liberation Sans;font-size:16.0px;font-style:normal;text-anchor:end;" transform="rotate(-0.000000, 55.737500, 33.287500)" x="55.7375" y="33.2875">1.0</text>
     </g>
    </g>
    <g id="text_14">
     <text style="fill:#262626;font-family:Liberation Sans;font-size:20.0px;font-style:normal;text-anchor:middle;" transform="rotate(-90.000000, 25.440000, 120.900000)" x="25.44" y="120.9">Speed</text>
    </g>
   </g>
   <g id="line2d_37">
    <path clip-path="url(#p8d879c370d)" d="
M80.2755 212.296
L85.5368 211.917
L89.5706 211.408
L92.9028 210.767
L95.7089 210.016
L98.3396 209.082
L100.795 207.962
L103.075 206.662
L105.179 205.201
L107.284 203.449
L109.213 201.554
L111.142 199.349
L113.071 196.803
L115.001 193.883
L116.93 190.559
L118.859 186.802
L120.964 182.184
L123.068 176.998
L125.173 171.228
L127.453 164.313
L129.908 156.108
L132.539 146.487
L135.345 135.379
L138.852 120.509
L144.464 95.5165
L149.2 74.8243
L152.181 62.788
L154.461 54.4295
L156.566 47.5437
L158.319 42.5154
L159.898 38.6049
L161.301 35.6562
L162.704 33.2326
L163.932 31.5608
L164.984 30.471
L166.036 29.7042
L166.913 29.3151
L167.79 29.1546
L168.667 29.2234
L169.544 29.5212
L170.421 30.047
L171.473 30.9759
L172.525 32.2251
L173.753 34.0784
L174.98 36.3451
L176.383 39.421
L177.962 43.4655
L179.716 48.6298
L181.645 55.0414
L183.925 63.4646
L186.555 74.0884
L190.063 89.2644
L200.41 134.659
L203.567 147.154
L206.198 156.719
L208.653 164.87
L210.933 171.731
L213.213 177.902
L215.318 182.993
L217.422 187.519
L219.527 191.507
L221.456 194.718
L223.385 197.533
L225.314 199.983
L227.244 202.1
L229.348 204.068
L231.453 205.718
L233.557 207.092
L235.837 208.309
L238.292 209.356
L240.923 210.225
L243.905 210.96
L247.237 211.54
L251.095 211.983
L255.48 212.287
L255.48 212.287" style="fill:none;stroke:#4c72b0;stroke-linecap:round;stroke-width:2;"/>
   </g>
   <g id="line2d_38">
    <path clip-path="url(#p8d879c370d)" d="
M290.731 212.434
L294.063 212.123
L296.518 211.678
L298.448 211.118
L300.201 210.379
L301.78 209.464
L303.183 208.402
L304.586 207.054
L305.989 205.367
L307.392 203.285
L308.795 200.754
L310.198 197.72
L311.601 194.139
L313.004 189.975
L314.583 184.572
L316.336 177.679
L318.266 169.092
L320.545 157.83
L328.262 118.498
L329.841 112.127
L331.068 107.989
L332.121 105.102
L332.997 103.206
L333.874 101.8
L334.576 101.042
L335.277 100.617
L335.804 100.519
L336.33 100.61
L336.856 100.891
L337.557 101.555
L338.259 102.546
L339.136 104.227
L340.013 106.377
L341.065 109.532
L342.293 113.92
L343.871 120.492
L345.8 129.552
L352.815 163.553
L354.569 170.462
L355.972 175.157
L357.2 178.585
L358.427 181.335
L359.48 183.134
L360.357 184.231
L361.234 184.959
L361.935 185.275
L362.637 185.356
L363.338 185.203
L364.04 184.817
L364.741 184.203
L365.618 183.117
L366.495 181.685
L367.547 179.524
L368.775 176.414
L370.003 172.701
L371.406 167.766
L372.984 161.413
L374.913 152.647
L377.193 141.177
L380.876 121.274
L384.384 102.661
L386.488 92.6218
L388.242 85.3399
L389.645 80.4113
L390.873 76.8523
L391.925 74.4138
L392.802 72.839
L393.679 71.6963
L394.38 71.1007
L395.082 70.7924
L395.783 70.7733
L396.485 71.0435
L397.186 71.6014
L397.888 72.4437
L398.765 73.8884
L399.642 75.7556
L400.694 78.5292
L401.922 82.4523
L403.325 87.7554
L404.903 94.6216
L406.832 104.038
L409.463 118.063
L415.952 153.155
L418.232 164.142
L420.336 173.225
L422.266 180.556
L424.019 186.367
L425.598 190.908
L427.176 194.821
L428.755 198.141
L430.333 200.913
L431.736 202.954
L433.139 204.634
L434.542 205.988
L435.945 207.046
L437.348 207.84
L438.751 208.395
L440.154 208.734
L441.733 208.879
L443.311 208.793
L444.89 208.493
L446.643 207.916
L448.397 207.091
L450.151 206.019
L451.905 204.699
L453.834 202.955
L455.763 200.907
L457.868 198.327
L460.148 195.145
L462.603 191.31
L465.584 186.204
L475.23 169.247
L477.335 166.211
L479.089 164.062
L480.667 162.478
L482.07 161.379
L483.298 160.674
L484.525 160.218
L485.753 160.02
L486.805 160.056
L488.033 160.339
L489.261 160.877
L490.488 161.662
L491.891 162.847
L493.294 164.317
L494.873 166.278
L496.802 169.054
L499.082 172.754
L502.239 178.343
L508.903 190.242
L511.709 194.719
L514.165 198.206
L516.444 201.04
L518.549 203.303
L520.654 205.233
L522.758 206.85
L524.863 208.179
L526.967 209.254
L529.247 210.169
L531.702 210.915
L534.509 211.524
L537.665 211.979
L541.699 212.32
L547.136 212.533
L547.662 212.545
L547.662 212.545" style="fill:none;stroke:#d9544d;stroke-linecap:round;stroke-width:2;"/>
   </g>
   <g id="patch_3">
    <path d="
M62.7375 10.8
L565.2 10.8" style="fill:none;"/>
   </g>
   <g id="patch_4">
    <path d="
M565.2 231
L565.2 10.8" style="fill:none;"/>
   </g>
   <g id="patch_5">
    <path d="
M62.7375 231
L565.2 231" style="fill:none;"/>
   </g>
   <g id="patch_6">
    <path d="
M62.7375 231
L62.7375 10.8" style="fill:none;"/>
   </g>
   <g id="legend_1">
    <g id="line2d_39">
     <path d="
M406.747 36.8
L446.747 36.8" style="fill:none;stroke:#4c72b0;stroke-linecap:round;stroke-width:2;"/>
    </g>
    <g id="line2d_40"/>
    <g id="text_15">
     <text style="fill:#262626;font-family:Liberation Sans;font-size:20.0px;font-style:normal;text-anchor:start;" transform="rotate(-0.000000, 462.746875, 43.800000)" x="462.746875" y="43.8">Normal</text>
    </g>
    <g id="line2d_41">
     <path d="
M406.747 65.95
L446.747 65.95" style="fill:none;stroke:#d9544d;stroke-linecap:round;stroke-width:2;"/>
    </g>
    <g id="line2d_42"/>
    <g id="text_16">
     <text style="fill:#262626;font-family:Liberation Sans;font-size:20.0px;font-style:normal;text-anchor:start;" transform="rotate(-0.000000, 462.746875, 72.950000)" x="462.746875" y="72.95">Abnormal</text>
    </g>
   </g>
  </g>
 </g>
 <defs>
  <clipPath id="p8d879c370d">
   <rect height="220.2" width="502.4625" x="62.7375" y="10.8"/>
  </clipPath>
 </defs>
</svg>
