<?xml version="1.0" encoding="utf-8" standalone="no"?>
<!DOCTYPE svg PUBLIC "-//W3C//DTD SVG 1.1//EN"
  "http://www.w3.org/Graphics/SVG/1.1/DTD/svg11.dtd">
<!-- Created with matplotlib (http://matplotlib.org/) -->
<svg height="576pt" version="1.1" viewBox="0 0 864 576" width="864pt" xmlns="http://www.w3.org/2000/svg" xmlns:xlink="http://www.w3.org/1999/xlink">
 <defs>
  <style type="text/css">
*{stroke-linecap:butt;stroke-linejoin:round;}
  </style>
 </defs>
 <g id="figure_1">
  <g id="patch_1">
   <path d="
M0 576
L864 576
L864 0
L0 0
z
" style="fill:#ffffff;"/>
  </g>
  <g id="axes_1">
   <g id="patch_2">
    <path d="
M65.2969 172.4
L843.763 172.4
L843.763 30.2
L65.2969 30.2
z
" style="fill:#eaeaf2;"/>
   </g>
   <g id="matplotlib.axis_1"/>
   <g id="matplotlib.axis_2">
    <g id="ytick_1">
     <g id="line2d_1">
      <path clip-path="url(#pb156d73b3d)" d="
M65.2969 160.55
L843.763 160.55" style="fill:none;stroke:#ffffff;stroke-linecap:round;"/>
     </g>
     <g id="line2d_2">
      <defs>
       <path d="
M0 0
L0 0" id="m219da94a98" style="stroke:#262626;"/>
      </defs>
      <g>
       <use style="fill:#262626;stroke:#262626;" x="65.296875" xlink:href="#m219da94a98" y="160.55"/>
      </g>
     </g>
     <g id="line2d_3">
      <g>
       <use style="fill:#262626;stroke:#262626;" x="843.763302821" xlink:href="#m219da94a98" y="160.55"/>
      </g>
     </g>
     <g id="text_1">
      <text style="fill:#262626;font-family:Liberation Sans;font-size:18.0px;font-style:normal;text-anchor:end;" transform="rotate(-0.000000, 58.296875, 165.204688)" x="58.296875" y="165.2046875">0.0</text>
     </g>
    </g>
    <g id="ytick_2">
     <g id="line2d_4">
      <path clip-path="url(#pb156d73b3d)" d="
M65.2969 101.3
L843.763 101.3" style="fill:none;stroke:#ffffff;stroke-linecap:round;"/>
     </g>
     <g id="line2d_5">
      <g>
       <use style="fill:#262626;stroke:#262626;" x="65.296875" xlink:href="#m219da94a98" y="101.3"/>
      </g>
     </g>
     <g id="line2d_6">
      <g>
       <use style="fill:#262626;stroke:#262626;" x="843.763302821" xlink:href="#m219da94a98" y="101.3"/>
      </g>
     </g>
     <g id="text_2">
      <text style="fill:#262626;font-family:Liberation Sans;font-size:18.0px;font-style:normal;text-anchor:end;" transform="rotate(-0.000000, 58.296875, 105.954688)" x="58.296875" y="105.9546875">0.5</text>
     </g>
    </g>
    <g id="ytick_3">
     <g id="line2d_7">
      <path clip-path="url(#pb156d73b3d)" d="
M65.2969 42.05
L843.763 42.05" style="fill:none;stroke:#ffffff;stroke-linecap:round;"/>
     </g>
     <g id="line2d_8">
      <g>
       <use style="fill:#262626;stroke:#262626;" x="65.296875" xlink:href="#m219da94a98" y="42.05"/>
      </g>
     </g>
     <g id="line2d_9">
      <g>
       <use style="fill:#262626;stroke:#262626;" x="843.763302821" xlink:href="#m219da94a98" y="42.05"/>
      </g>
     </g>
     <g id="text_3">
      <text style="fill:#262626;font-family:Liberation Sans;font-size:18.0px;font-style:normal;text-anchor:end;" transform="rotate(-0.000000, 58.296875, 46.704688)" x="58.296875" y="46.7046875">1.0</text>
     </g>
    </g>
    <g id="text_4">
     <text style="fill:#262626;font-family:Liberation Sans;font-size:20.0px;font-style:normal;text-anchor:middle;" transform="rotate(-90.000000, 25.533125, 101.300000)" x="25.533125" y="101.3">Position</text>
    </g>
   </g>
   <g id="line2d_10">
    <path clip-path="url(#pb156d73b3d)" d="
M65.2969 160.55
L65.9199 160.433
L66.5429 160.083
L67.1659 159.501
L68.1005 158.197
L69.035 156.389
L69.9695 154.092
L71.2156 150.305
L72.4616 145.744
L74.0192 139.067
L75.8883 129.844
L78.0688 117.83
L82.1185 93.874
L85.2336 76.0726
L87.1027 66.4737
L88.6602 59.4039
L90.2178 53.3657
L91.4638 49.3788
L92.7099 46.2107
L93.6444 44.4026
L94.5789 43.0995
L95.2019 42.5172
L95.825 42.1669
L96.448 42.05
L104.547 42.0792
L105.17 42.313
L105.793 42.7795
L106.416 43.4769
L107.351 44.9499
L108.285 46.923
L109.22 49.3788
L110.466 53.3657
L111.712 58.1086
L113.27 64.9853
L115.139 74.4011
L117.631 88.375
L125.107 131.461
L126.976 140.483
L128.534 146.953
L129.78 151.326
L131.026 154.911
L131.96 157.047
L132.895 158.689
L133.829 159.821
L134.452 160.287
L135.075 160.521
L136.321 160.55
L143.486 160.521
L144.109 160.287
L144.732 159.821
L145.355 159.123
L146.29 157.65
L147.224 155.677
L148.159 153.221
L149.405 149.234
L150.651 144.491
L152.208 137.615
L154.078 128.199
L156.57 114.225
L164.046 71.1393
L165.915 62.1173
L167.473 55.6471
L168.719 51.2736
L169.965 47.689
L170.899 45.5528
L171.834 43.9114
L172.768 42.7795
L173.391 42.313
L174.014 42.0792
L175.26 42.05
L182.425 42.0792
L183.048 42.313
L183.671 42.7795
L184.294 43.4769
L185.229 44.9499
L186.163 46.923
L187.098 49.3788
L188.344 53.3657
L189.59 58.1086
L191.147 64.9853
L193.016 74.4011
L195.509 88.375
L202.985 131.461
L204.854 140.483
L206.411 146.953
L207.657 151.326
L208.904 154.911
L209.838 157.047
L210.773 158.689
L211.707 159.821
L212.33 160.287
L212.953 160.521
L214.199 160.55
L221.364 160.521
L221.987 160.287
L222.61 159.821
L223.233 159.123
L224.168 157.65
L225.102 155.677
L226.037 153.221
L227.283 149.234
L228.529 144.491
L230.086 137.615
L231.955 128.199
L234.447 114.225
L241.924 71.1393
L243.793 62.1173
L245.35 55.6471
L246.596 51.2736
L247.842 47.689
L248.777 45.5528
L249.711 43.9114
L250.646 42.7795
L251.269 42.313
L251.892 42.0792
L253.138 42.05
L260.303 42.0792
L260.926 42.313
L261.549 42.7795
L262.172 43.4769
L263.106 44.9499
L264.041 46.923
L264.976 49.3788
L266.222 53.3657
L267.468 58.1086
L269.025 64.9853
L270.894 74.4011
L273.386 88.375
L280.863 131.461
L282.732 140.483
L284.289 146.953
L285.535 151.326
L286.781 154.911
L287.716 157.047
L288.65 158.689
L289.585 159.821
L290.208 160.287
L290.831 160.521
L292.077 160.55
L299.242 160.521
L299.865 160.287
L300.488 159.821
L301.111 159.123
L302.045 157.65
L302.98 155.677
L303.914 153.221
L305.16 149.234
L306.407 144.491
L307.964 137.615
L309.833 128.199
L312.325 114.225
L319.802 71.1393
L321.671 62.1173
L323.228 55.6471
L324.474 51.2736
L325.72 47.689
L326.655 45.5528
L327.589 43.9114
L328.524 42.7795
L329.147 42.313
L329.77 42.0792
L331.016 42.05
L338.181 42.0792
L338.804 42.313
L339.427 42.7795
L340.05 43.4769
L340.984 44.9499
L341.919 46.923
L342.853 49.3788
L344.099 53.3657
L345.345 58.1086
L346.903 64.9853
L348.772 74.4011
L351.264 88.375
L358.74 131.461
L360.609 140.483
L362.167 146.953
L363.413 151.326
L364.659 154.911
L365.594 157.047
L366.528 158.689
L367.463 159.821
L368.086 160.287
L368.709 160.521
L369.955 160.55
L377.12 160.521
L377.743 160.287
L378.366 159.821
L378.989 159.123
L379.923 157.65
L380.858 155.677
L381.792 153.221
L383.038 149.234
L384.284 144.491
L385.842 137.615
L387.711 128.199
L390.203 114.225
L397.679 71.1393
L399.548 62.1173
L401.106 55.6471
L402.352 51.2736
L403.598 47.689
L404.533 45.5528
L405.467 43.9114
L406.402 42.7795
L407.025 42.313
L407.648 42.0792
L408.894 42.05
L416.058 42.0792
L416.681 42.313
L417.305 42.7795
L417.928 43.4769
L418.862 44.9499
L419.797 46.923
L420.731 49.3788
L421.977 53.3657
L423.223 58.1086
L424.781 64.9853
L426.65 74.4011
L429.142 88.375
L436.618 131.461
L438.487 140.483
L440.045 146.953
L441.291 151.326
L442.537 154.911
L443.471 157.047
L444.406 158.689
L445.341 159.821
L445.964 160.287
L446.587 160.521
L447.833 160.55
L454.997 160.521
L455.62 160.287
L456.243 159.821
L456.866 159.123
L457.801 157.65
L458.735 155.677
L459.67 153.221
L460.916 149.234
L462.162 144.491
L463.72 137.615
L465.589 128.199
L468.081 114.225
L475.557 71.1393
L477.426 62.1173
L478.984 55.6471
L480.23 51.2736
L481.476 47.689
L482.41 45.5528
L483.345 43.9114
L484.279 42.7795
L484.902 42.313
L485.525 42.0792
L486.771 42.05
L493.936 42.0792
L494.559 42.313
L495.182 42.7795
L495.805 43.4769
L496.74 44.9499
L497.674 46.923
L498.609 49.3788
L499.855 53.3657
L501.101 58.1086
L502.659 64.9853
L504.528 74.4011
L507.02 88.375
L514.496 131.461
L516.365 140.483
L517.923 146.953
L519.169 151.326
L520.415 154.911
L521.349 157.047
L522.284 158.689
L523.218 159.821
L523.841 160.287
L524.464 160.521
L525.71 160.55
L532.875 160.521
L533.498 160.287
L534.121 159.821
L534.744 159.123
L535.679 157.65
L536.613 155.677
L537.548 153.221
L538.794 149.234
L540.04 144.491
L541.597 137.615
L543.467 128.199
L545.959 114.225
L553.435 71.1393
L555.304 62.1173
L556.862 55.6471
L558.108 51.2736
L559.354 47.689
L560.288 45.5528
L561.223 43.9114
L562.157 42.7795
L562.78 42.313
L563.403 42.0792
L564.649 42.05
L571.814 42.0792
L572.437 42.313
L573.06 42.7795
L573.683 43.4769
L574.618 44.9499
L575.552 46.923
L576.487 49.3788
L577.733 53.3657
L578.979 58.1086
L580.536 64.9853
L582.405 74.4011
L584.898 88.375
L592.374 131.461
L594.243 140.483
L595.8 146.953
L597.046 151.326
L598.292 154.911
L599.227 157.047
L600.162 158.689
L601.096 159.821
L601.719 160.287
L602.342 160.521
L603.588 160.55
L610.753 160.521
L611.376 160.287
L611.999 159.821
L612.622 159.123
L613.557 157.65
L614.491 155.677
L615.426 153.221
L616.672 149.234
L617.918 144.491
L619.475 137.615
L621.344 128.199
L623.836 114.225
L631.313 71.1393
L633.182 62.1173
L634.739 55.6471
L635.985 51.2736
L637.231 47.689
L638.166 45.5528
L639.1 43.9114
L640.035 42.7795
L640.658 42.313
L641.281 42.0792
L642.527 42.05
L649.692 42.0792
L650.315 42.313
L650.938 42.7795
L651.561 43.4769
L652.495 44.9499
L653.43 46.923
L654.365 49.3788
L655.611 53.3657
L656.857 58.1086
L658.414 64.9853
L660.283 74.4011
L662.775 88.375
L670.252 131.461
L672.121 140.483
L673.678 146.953
L674.924 151.326
L676.17 154.911
L677.105 157.047
L678.039 158.689
L678.974 159.821
L679.597 160.287
L680.22 160.521
L681.466 160.55
L688.631 160.521
L689.254 160.287
L689.877 159.821
L690.5 159.123
L691.434 157.65
L692.369 155.677
L693.303 153.221
L694.549 149.234
L695.795 144.491
L697.353 137.615
L699.222 128.199
L701.714 114.225
L709.19 71.1393
L711.06 62.1173
L712.617 55.6471
L713.863 51.2736
L715.109 47.689
L716.044 45.5528
L716.978 43.9114
L717.913 42.7795
L718.536 42.313
L719.159 42.0792
L720.405 42.05
L727.57 42.0792
L728.193 42.313
L728.816 42.7795
L729.439 43.4769
L730.373 44.9499
L731.308 46.923
L732.242 49.3788
L733.488 53.3657
L734.734 58.1086
L736.292 64.9853
L738.161 74.4011
L740.653 88.375
L748.129 131.461
L749.998 140.483
L751.556 146.953
L752.802 151.326
L754.048 154.911
L754.983 157.047
L755.917 158.689
L756.852 159.821
L757.475 160.287
L758.098 160.521
L759.344 160.55
L766.509 160.521
L767.132 160.287
L767.755 159.821
L768.378 159.123
L769.312 157.65
L770.247 155.677
L771.181 153.221
L772.427 149.234
L773.673 144.491
L775.231 137.615
L777.1 128.199
L779.592 114.225
L787.068 71.1393
L788.937 62.1173
L790.495 55.6471
L791.741 51.2736
L792.987 47.689
L793.922 45.5528
L794.856 43.9114
L795.791 42.7795
L796.414 42.313
L797.037 42.0792
L798.283 42.05
L805.447 42.0792
L806.07 42.313
L806.693 42.7795
L807.316 43.4769
L808.251 44.9499
L809.186 46.923
L810.12 49.3788
L811.366 53.3657
L812.612 58.1086
L814.17 64.9853
L816.039 74.4011
L818.531 88.375
L826.007 131.461
L827.876 140.483
L829.434 146.953
L830.68 151.326
L831.926 154.911
L832.86 157.047
L833.795 158.689
L834.729 159.821
L835.353 160.287
L835.976 160.521
L837.222 160.55
L843.763 160.55
L843.763 160.55" style="fill:none;stroke:#4c72b0;stroke-linecap:round;stroke-width:2;"/>
   </g>
   <g id="line2d_11">
    <path clip-path="url(#pb156d73b3d)" d="
M65.2969 160.55
L65.6084 158.688
L69.3465 115.196
L71.5271 92.4035
L73.0847 78.0742
L74.6422 65.7757
L75.8883 57.6045
L77.1343 51.0568
L78.0688 47.2746
L79.0034 44.4978
L79.6264 43.2177
L80.2494 42.4007
L80.8724 42.05
L81.1839 42.05
L81.807 42.4007
L82.43 43.2177
L83.053 44.4978
L83.676 46.2358
L84.6106 49.6862
L85.5451 54.1206
L86.7911 61.4946
L88.0372 70.4308
L89.5947 83.5809
L91.1523 98.6263
L93.3329 122.161
L96.7595 160.55
L104.236 160.55
L104.547 158.688
L108.285 115.196
L110.466 92.4035
L112.024 78.0742
L113.581 65.7757
L114.827 57.6045
L116.073 51.0568
L117.008 47.2746
L117.942 44.4978
L118.565 43.2177
L119.188 42.4007
L119.811 42.05
L120.123 42.05
L120.746 42.4007
L121.369 43.2177
L121.992 44.4978
L122.615 46.2358
L123.549 49.6862
L124.484 54.1206
L125.73 61.4946
L126.976 70.4308
L128.534 83.5809
L130.091 98.6263
L132.272 122.161
L135.698 160.55
L143.175 160.55
L143.486 158.688
L147.224 115.196
L149.405 92.4035
L150.962 78.0742
L152.52 65.7757
L153.766 57.6045
L155.012 51.0568
L155.947 47.2746
L156.881 44.4978
L157.504 43.2177
L158.127 42.4007
L158.75 42.05
L159.062 42.05
L159.685 42.4007
L160.308 43.2177
L160.931 44.4978
L161.554 46.2358
L162.488 49.6862
L163.423 54.1206
L164.669 61.4946
L165.915 70.4308
L167.473 83.5809
L169.03 98.6263
L171.211 122.161
L174.637 160.55
L182.114 160.55
L182.425 158.688
L186.163 115.196
L188.344 92.4035
L189.901 78.0742
L191.459 65.7757
L192.705 57.6045
L193.951 51.0568
L194.886 47.2746
L195.82 44.4978
L196.443 43.2177
L197.066 42.4007
L197.689 42.05
L198.001 42.05
L198.624 42.4007
L199.247 43.2177
L199.87 44.4978
L200.493 46.2358
L201.427 49.6862
L202.362 54.1206
L203.608 61.4946
L204.854 70.4308
L206.411 83.5809
L207.969 98.6263
L210.15 122.161
L213.576 160.55
L221.052 160.55
L221.364 158.688
L225.102 115.196
L227.283 92.4035
L228.84 78.0742
L230.398 65.7757
L231.644 57.6045
L232.89 51.0568
L233.824 47.2746
L234.759 44.4978
L235.382 43.2177
L236.005 42.4007
L236.628 42.05
L236.94 42.05
L237.563 42.4007
L238.186 43.2177
L238.809 44.4978
L239.432 46.2358
L240.366 49.6862
L241.301 54.1206
L242.547 61.4946
L243.793 70.4308
L245.35 83.5809
L246.908 98.6263
L249.088 122.161
L252.515 160.55
L259.991 160.55
L260.303 158.688
L264.041 115.196
L266.222 92.4035
L267.779 78.0742
L269.337 65.7757
L270.583 57.6045
L271.829 51.0568
L272.763 47.2746
L273.698 44.4978
L274.321 43.2177
L274.944 42.4007
L275.567 42.05
L275.878 42.05
L276.501 42.4007
L277.124 43.2177
L277.747 44.4978
L278.371 46.2358
L279.305 49.6862
L280.24 54.1206
L281.486 61.4946
L282.732 70.4308
L284.289 83.5809
L285.847 98.6263
L288.027 122.161
L291.454 160.55
L298.93 160.55
L299.242 158.688
L302.98 115.196
L305.16 92.4035
L306.718 78.0742
L308.276 65.7757
L309.522 57.6045
L310.768 51.0568
L311.702 47.2746
L312.637 44.4978
L313.26 43.2177
L313.883 42.4007
L314.506 42.05
L314.817 42.05
L315.44 42.4007
L316.063 43.2177
L316.686 44.4978
L317.309 46.2358
L318.244 49.6862
L319.178 54.1206
L320.425 61.4946
L321.671 70.4308
L323.228 83.5809
L324.786 98.6263
L326.966 122.161
L330.393 160.55
L337.869 160.55
L338.181 158.688
L341.919 115.196
L344.099 92.4035
L345.657 78.0742
L347.214 65.7757
L348.461 57.6045
L349.707 51.0568
L350.641 47.2746
L351.576 44.4978
L352.199 43.2177
L352.822 42.4007
L353.445 42.05
L353.756 42.05
L354.379 42.4007
L355.002 43.2177
L355.625 44.4978
L356.248 46.2358
L357.183 49.6862
L358.117 54.1206
L359.363 61.4946
L360.609 70.4308
L362.167 83.5809
L363.725 98.6263
L365.905 122.161
L369.332 160.55
L376.808 160.55
L377.12 158.688
L380.858 115.196
L383.038 92.4035
L384.596 78.0742
L386.153 65.7757
L387.399 57.6045
L388.645 51.0568
L389.58 47.2746
L390.515 44.4978
L391.138 43.2177
L391.761 42.4007
L392.384 42.05
L392.695 42.05
L393.318 42.4007
L393.941 43.2177
L394.564 44.4978
L395.187 46.2358
L396.122 49.6862
L397.056 54.1206
L398.302 61.4946
L399.548 70.4308
L401.106 83.5809
L402.663 98.6263
L404.844 122.161
L408.271 160.55
L415.747 160.55
L416.058 158.688
L419.797 115.196
L421.977 92.4035
L423.535 78.0742
L425.092 65.7757
L426.338 57.6045
L427.584 51.0568
L428.519 47.2746
L429.453 44.4978
L430.076 43.2177
L430.699 42.4007
L431.323 42.05
L431.634 42.05
L432.257 42.4007
L432.88 43.2177
L433.503 44.4978
L434.126 46.2358
L435.061 49.6862
L435.995 54.1206
L437.241 61.4946
L438.487 70.4308
L440.045 83.5809
L441.602 98.6263
L443.783 122.161
L447.21 160.55
L454.686 160.55
L454.997 158.688
L458.735 115.196
L460.916 92.4035
L462.474 78.0742
L464.031 65.7757
L465.277 57.6045
L466.523 51.0568
L467.458 47.2746
L468.392 44.4978
L469.015 43.2177
L469.638 42.4007
L470.261 42.05
L470.573 42.05
L471.196 42.4007
L471.819 43.2177
L472.442 44.4978
L473.065 46.2358
L474 49.6862
L474.934 54.1206
L476.18 61.4946
L477.426 70.4308
L478.984 83.5809
L480.541 98.6263
L482.722 122.161
L486.148 160.55
L493.625 160.55
L493.936 158.688
L497.674 115.196
L499.855 92.4035
L501.413 78.0742
L502.97 65.7757
L504.216 57.6045
L505.462 51.0568
L506.397 47.2746
L507.331 44.4978
L507.954 43.2177
L508.577 42.4007
L509.2 42.05
L509.512 42.05
L510.135 42.4007
L510.758 43.2177
L511.381 44.4978
L512.004 46.2358
L512.938 49.6862
L513.873 54.1206
L515.119 61.4946
L516.365 70.4308
L517.923 83.5809
L519.48 98.6263
L521.661 122.161
L525.087 160.55
L532.564 160.55
L532.875 158.688
L536.613 115.196
L538.794 92.4035
L540.351 78.0742
L541.909 65.7757
L543.155 57.6045
L544.401 51.0568
L545.336 47.2746
L546.27 44.4978
L546.893 43.2177
L547.516 42.4007
L548.139 42.05
L548.451 42.05
L549.074 42.4007
L549.697 43.2177
L550.32 44.4978
L550.943 46.2358
L551.877 49.6862
L552.812 54.1206
L554.058 61.4946
L555.304 70.4308
L556.862 83.5809
L558.419 98.6263
L560.6 122.161
L564.026 160.55
L571.503 160.55
L571.814 158.688
L575.552 115.196
L577.733 92.4035
L579.29 78.0742
L580.848 65.7757
L582.094 57.6045
L583.34 51.0568
L584.274 47.2746
L585.209 44.4978
L585.832 43.2177
L586.455 42.4007
L587.078 42.05
L587.39 42.05
L588.013 42.4007
L588.636 43.2177
L589.259 44.4978
L589.882 46.2358
L590.816 49.6862
L591.751 54.1206
L592.997 61.4946
L594.243 70.4308
L595.8 83.5809
L597.358 98.6263
L599.539 122.161
L602.965 160.55
L610.441 160.55
L610.753 158.688
L614.491 115.196
L616.672 92.4035
L618.229 78.0742
L619.787 65.7757
L621.033 57.6045
L622.279 51.0568
L623.213 47.2746
L624.148 44.4978
L624.771 43.2177
L625.394 42.4007
L626.017 42.05
L626.329 42.05
L626.952 42.4007
L627.575 43.2177
L628.198 44.4978
L628.821 46.2358
L629.755 49.6862
L630.69 54.1206
L631.936 61.4946
L633.182 70.4308
L634.739 83.5809
L636.297 98.6263
L638.477 122.161
L641.904 160.55
L649.38 160.55
L649.692 158.688
L653.43 115.196
L655.611 92.4035
L657.168 78.0742
L658.726 65.7757
L659.972 57.6045
L661.218 51.0568
L662.152 47.2746
L663.087 44.4978
L663.71 43.2177
L664.333 42.4007
L664.956 42.05
L665.267 42.05
L665.89 42.4007
L666.513 43.2177
L667.136 44.4978
L667.759 46.2358
L668.694 49.6862
L669.629 54.1206
L670.875 61.4946
L672.121 70.4308
L673.678 83.5809
L675.236 98.6263
L677.416 122.161
L680.843 160.55
L688.319 160.55
L688.631 158.688
L692.369 115.196
L694.549 92.4035
L696.107 78.0742
L697.665 65.7757
L698.911 57.6045
L700.157 51.0568
L701.091 47.2746
L702.026 44.4978
L702.649 43.2177
L703.272 42.4007
L703.895 42.05
L704.206 42.05
L704.829 42.4007
L705.452 43.2177
L706.075 44.4978
L706.698 46.2358
L707.633 49.6862
L708.567 54.1206
L709.813 61.4946
L711.06 70.4308
L712.617 83.5809
L714.175 98.6263
L716.355 122.161
L719.782 160.55
L727.258 160.55
L727.57 158.688
L731.308 115.196
L733.488 92.4035
L735.046 78.0742
L736.603 65.7757
L737.85 57.6045
L739.096 51.0568
L740.03 47.2746
L740.965 44.4978
L741.588 43.2177
L742.211 42.4007
L742.834 42.05
L743.145 42.05
L743.768 42.4007
L744.391 43.2177
L745.014 44.4978
L745.637 46.2358
L746.572 49.6862
L747.506 54.1206
L748.752 61.4946
L749.998 70.4308
L751.556 83.5809
L753.114 98.6263
L755.294 122.161
L758.721 160.55
L766.197 160.55
L766.509 158.688
L770.247 115.196
L772.427 92.4035
L773.985 78.0742
L775.542 65.7757
L776.788 57.6045
L778.034 51.0568
L778.969 47.2746
L779.904 44.4978
L780.527 43.2177
L781.15 42.4007
L781.773 42.05
L782.084 42.05
L782.707 42.4007
L783.33 43.2177
L783.953 44.4978
L784.576 46.2358
L785.511 49.6862
L786.445 54.1206
L787.691 61.4946
L788.937 70.4308
L790.495 83.5809
L792.052 98.6263
L794.233 122.161
L797.66 160.55
L805.136 160.55
L805.447 158.688
L809.186 115.196
L811.366 92.4035
L812.924 78.0742
L814.481 65.7757
L815.727 57.6045
L816.973 51.0568
L817.908 47.2746
L818.842 44.4978
L819.465 43.2177
L820.088 42.4007
L820.711 42.05
L821.023 42.05
L821.646 42.4007
L822.269 43.2177
L822.892 44.4978
L823.515 46.2358
L824.45 49.6862
L825.384 54.1206
L826.63 61.4946
L827.876 70.4308
L829.434 83.5809
L830.991 98.6263
L833.172 122.161
L836.599 160.55
L843.763 160.55
L843.763 160.55" style="fill:none;stroke:#d9544d;stroke-linecap:round;"/>
   </g>
   <g id="patch_3">
    <path d="
M65.2969 30.2
L843.763 30.2" style="fill:none;"/>
   </g>
   <g id="patch_4">
    <path d="
M843.763 172.4
L843.763 30.2" style="fill:none;"/>
   </g>
   <g id="patch_5">
    <path d="
M65.2969 172.4
L843.763 172.4" style="fill:none;"/>
   </g>
   <g id="patch_6">
    <path d="
M65.2969 172.4
L65.2969 30.2" style="fill:none;"/>
   </g>
   <g id="text_5">
    <text style="fill:#262626;font-family:Liberation Sans;font-size:20.0px;font-style:normal;text-anchor:middle;" transform="rotate(-0.000000, 454.530089, 25.200000)" x="454.530088911" y="25.2">(A) Ma: Rhythmic movement (expert 1) [ SPARC: -5.151 , LDLJ: -19.582 ]</text>
   </g>
  </g>
  <g id="axes_2">
   <g id="patch_7">
    <path d="
M65.2969 344.8
L843.763 344.8
L843.763 202.6
L65.2969 202.6
z
" style="fill:#eaeaf2;"/>
   </g>
   <g id="matplotlib.axis_3"/>
   <g id="matplotlib.axis_4">
    <g id="ytick_4">
     <g id="line2d_12">
      <path clip-path="url(#p66d06836af)" d="
M65.2969 332.95
L843.763 332.95" style="fill:none;stroke:#ffffff;stroke-linecap:round;"/>
     </g>
     <g id="line2d_13">
      <g>
       <use style="fill:#262626;stroke:#262626;" x="65.296875" xlink:href="#m219da94a98" y="332.95"/>
      </g>
     </g>
     <g id="line2d_14">
      <g>
       <use style="fill:#262626;stroke:#262626;" x="843.763302821" xlink:href="#m219da94a98" y="332.95"/>
      </g>
     </g>
     <g id="text_6">
      <text style="fill:#262626;font-family:Liberation Sans;font-size:18.0px;font-style:normal;text-anchor:end;" transform="rotate(-0.000000, 58.296875, 337.604687)" x="58.296875" y="337.6046875">0.0</text>
     </g>
    </g>
    <g id="ytick_5">
     <g id="line2d_15">
      <path clip-path="url(#p66d06836af)" d="
M65.2969 273.7
L843.763 273.7" style="fill:none;stroke:#ffffff;stroke-linecap:round;"/>
     </g>
     <g id="line2d_16">
      <g>
       <use style="fill:#262626;stroke:#262626;" x="65.296875" xlink:href="#m219da94a98" y="273.7"/>
      </g>
     </g>
     <g id="line2d_17">
      <g>
       <use style="fill:#262626;stroke:#262626;" x="843.763302821" xlink:href="#m219da94a98" y="273.7"/>
      </g>
     </g>
     <g id="text_7">
      <text style="fill:#262626;font-family:Liberation Sans;font-size:18.0px;font-style:normal;text-anchor:end;" transform="rotate(-0.000000, 58.296875, 278.354688)" x="58.296875" y="278.3546875">0.5</text>
     </g>
    </g>
    <g id="ytick_6">
     <g id="line2d_18">
      <path clip-path="url(#p66d06836af)" d="
M65.2969 214.45
L843.763 214.45" style="fill:none;stroke:#ffffff;stroke-linecap:round;"/>
     </g>
     <g id="line2d_19">
      <g>
       <use style="fill:#262626;stroke:#262626;" x="65.296875" xlink:href="#m219da94a98" y="214.45"/>
      </g>
     </g>
     <g id="line2d_20">
      <g>
       <use style="fill:#262626;stroke:#262626;" x="843.763302821" xlink:href="#m219da94a98" y="214.45"/>
      </g>
     </g>
     <g id="text_8">
      <text style="fill:#262626;font-family:Liberation Sans;font-size:18.0px;font-style:normal;text-anchor:end;" transform="rotate(-0.000000, 58.296875, 219.104688)" x="58.296875" y="219.1046875">1.0</text>
     </g>
    </g>
   </g>
   <g id="line2d_21">
    <path clip-path="url(#p66d06836af)" d="
M65.2969 332.95
L67.1659 324.544
L69.035 316.367
L70.2811 311.919
L71.2156 309.306
L72.1501 307.322
L73.0847 305.888
L74.0192 304.853
L76.1998 302.747
L77.1343 301.357
L77.7573 300.079
L78.3803 298.443
L79.3149 295.201
L80.2494 290.906
L81.1839 285.507
L82.43 276.664
L83.9875 263.46
L88.3487 224.389
L89.5947 216.016
L90.5293 211.297
L91.1523 208.979
L91.7753 207.348
L92.3983 206.406
L92.7099 206.189
L93.0214 206.136
L93.3329 206.243
L93.6444 206.504
L94.2674 207.462
L94.8904 208.947
L95.825 211.994
L96.448 214.45
L104.236 214.45
L105.17 211.34
L105.793 209.794
L106.416 208.817
L106.728 208.575
L107.039 208.512
L107.351 208.636
L107.662 208.952
L108.285 210.178
L108.908 212.194
L109.531 214.965
L110.466 220.38
L111.712 229.36
L115.139 255.515
L116.073 261.033
L117.008 265.461
L117.942 268.87
L118.877 271.497
L121.68 278.53
L122.615 281.939
L123.549 286.367
L124.484 291.885
L125.73 300.731
L129.468 328.977
L130.403 333.912
L131.026 336.312
L131.649 337.934
L132.272 338.764
L132.583 338.888
L132.895 338.825
L133.206 338.583
L133.829 337.606
L134.452 336.06
L135.387 332.95
L143.175 332.95
L144.732 320.12
L145.355 316.275
L145.978 313.695
L146.29 312.937
L146.601 312.545
L146.913 312.514
L147.224 312.829
L147.536 313.466
L148.159 315.563
L149.093 320.027
L150.339 325.913
L150.962 327.697
L151.274 328.104
L151.585 328.13
L151.897 327.743
L152.208 326.917
L152.832 323.906
L153.455 319.108
L154.389 308.986
L155.635 292.009
L157.193 270.868
L158.127 261.145
L158.75 256.587
L159.373 253.704
L159.685 252.877
L159.996 252.429
L160.308 252.331
L160.619 252.539
L160.931 253.006
L161.554 254.493
L162.8 257.938
L163.423 258.902
L163.734 259.001
L164.046 258.787
L164.357 258.227
L164.669 257.299
L165.292 254.287
L165.915 249.765
L166.85 240.567
L169.965 206.244
L170.588 202.336
L171.211 200.237
L171.522 199.901
L171.834 200.036
L172.145 200.629
L172.457 201.655
L173.08 204.859
L174.014 211.802
L174.326 214.45
L182.114 214.45
L183.36 208.631
L184.294 205.41
L184.917 203.993
L185.54 203.254
L185.852 203.159
L186.163 203.256
L186.475 203.549
L187.098 204.736
L187.721 206.731
L188.344 209.525
L189.278 215.132
L190.213 222.255
L191.459 233.597
L196.443 282.152
L197.378 288.84
L198.312 294.195
L199.247 298.184
L199.87 300.118
L200.493 301.523
L201.116 302.463
L201.739 303.016
L202.362 303.27
L203.296 303.307
L204.542 303.241
L205.165 303.374
L205.788 303.733
L206.411 304.388
L207.034 305.393
L207.657 306.784
L208.592 309.625
L209.527 313.338
L210.773 319.399
L213.265 332.95
L221.052 332.95
L221.675 332.455
L222.61 331.304
L223.545 329.706
L224.479 327.709
L225.725 324.497
L227.283 319.713
L228.84 314.168
L230.709 306.563
L232.578 297.915
L234.447 288.221
L236.628 275.72
L243.793 233.382
L245.35 226.277
L246.596 221.67
L247.531 218.913
L248.465 216.783
L249.4 215.287
L250.023 214.639
L250.646 214.262
L251.269 214.149
L251.892 214.289
L252.204 214.45
L259.991 214.45
L260.926 212.703
L261.549 211.97
L262.172 211.67
L262.483 211.701
L262.795 211.862
L263.418 212.589
L264.041 213.874
L264.664 215.715
L265.599 219.466
L266.533 224.253
L267.779 231.804
L271.517 255.619
L272.763 262.11
L274.321 268.905
L278.371 285.29
L279.617 291.781
L281.174 301.24
L284.912 324.844
L285.847 329.309
L286.781 332.675
L287.404 334.239
L288.027 335.243
L288.65 335.699
L288.962 335.73
L289.273 335.638
L289.896 335.113
L290.519 334.191
L291.142 332.95
L298.93 332.95
L301.422 325.205
L302.045 323.864
L302.668 322.906
L303.291 322.306
L303.914 321.985
L305.472 321.484
L306.095 320.953
L306.718 319.97
L307.341 318.395
L307.964 316.125
L308.587 313.113
L309.522 307.249
L310.768 297.423
L313.571 273.764
L314.506 267.514
L315.44 262.612
L316.375 258.961
L317.309 256.202
L319.178 251.175
L320.113 247.836
L321.048 243.495
L322.294 236.178
L325.409 216.534
L326.032 213.811
L326.655 211.843
L327.278 210.693
L327.589 210.428
L327.901 210.365
L328.212 210.495
L328.524 210.805
L329.147 211.904
L329.77 213.511
L330.081 214.45
L337.869 214.45
L338.492 213.656
L339.115 213.153
L339.738 212.993
L340.361 213.22
L340.984 213.867
L341.607 214.956
L342.23 216.492
L343.165 219.609
L344.099 223.613
L345.345 230.05
L347.526 242.903
L350.018 257.227
L351.887 266.584
L356.871 290.173
L358.74 300.769
L362.167 320.701
L363.413 326.548
L364.348 329.975
L365.282 332.444
L365.905 333.533
L366.528 334.18
L367.151 334.407
L367.774 334.247
L368.397 333.744
L369.02 332.95
L376.808 332.95
L378.989 324.226
L379.612 322.509
L380.235 321.359
L380.858 320.78
L381.481 320.701
L382.104 320.981
L383.35 321.798
L383.973 321.862
L384.284 321.705
L384.596 321.387
L385.219 320.18
L385.842 318.103
L386.465 315.092
L387.399 308.869
L388.334 300.949
L391.761 269.632
L392.695 263.75
L393.318 260.827
L393.941 258.64
L394.564 257.057
L395.499 255.391
L396.745 253.286
L397.368 251.782
L397.991 249.741
L398.614 247.063
L399.548 241.814
L400.794 232.974
L402.975 216.965
L403.91 212.026
L404.533 209.864
L405.156 208.714
L405.467 208.523
L405.779 208.58
L406.09 208.874
L406.713 210.104
L407.336 212.036
L407.959 214.45
L415.747 214.45
L416.681 206.813
L417.305 202.875
L417.928 200.373
L418.239 199.762
L418.551 199.616
L418.862 199.949
L419.174 200.766
L419.797 203.819
L420.42 208.604
L421.354 218.296
L423.846 247.218
L424.469 252.482
L425.092 256.275
L425.715 258.501
L426.027 259.044
L426.338 259.234
L426.65 259.105
L426.961 258.701
L427.584 257.266
L429.142 252.875
L429.453 252.37
L429.765 252.127
L430.076 252.196
L430.388 252.62
L430.699 253.431
L431.323 256.299
L431.946 260.871
L432.569 267.048
L433.503 278.725
L436.307 316.321
L436.93 321.997
L437.553 325.927
L438.176 328.017
L438.487 328.387
L438.799 328.337
L439.11 327.9
L439.733 326.044
L440.668 321.634
L441.914 315.393
L442.537 313.233
L442.848 312.573
L443.16 312.24
L443.471 312.261
L443.783 312.649
L444.094 313.411
L444.717 316.019
L445.341 319.916
L446.275 327.456
L446.898 332.95
L454.686 332.95
L455.309 332.629
L455.932 332.087
L456.866 330.89
L457.801 329.268
L458.735 327.257
L459.982 324.005
L461.228 320.121
L462.474 315.596
L464.031 309.009
L465.589 301.381
L467.458 290.974
L469.95 275.664
L473.377 254.609
L475.246 244.412
L476.803 236.989
L478.361 230.612
L479.918 225.258
L481.164 221.69
L482.41 218.76
L483.345 217.006
L484.279 215.663
L485.214 214.771
L485.837 214.45
L493.625 214.45
L494.559 210.055
L495.182 207.742
L495.805 206.127
L496.117 205.627
L496.428 205.353
L496.74 205.315
L497.051 205.523
L497.363 205.982
L497.986 207.659
L498.609 210.329
L499.232 213.923
L500.166 220.787
L501.724 234.727
L503.593 251.702
L504.839 260.902
L505.774 266.06
L506.397 268.619
L507.02 270.525
L507.643 271.869
L508.266 272.782
L509.2 273.7
L510.135 274.618
L510.758 275.531
L511.381 276.875
L512.004 278.781
L512.627 281.34
L513.561 286.498
L514.496 293.177
L515.742 303.919
L518.546 329.072
L519.48 335.383
L520.103 338.527
L520.726 340.706
L521.349 341.877
L521.661 342.085
L521.972 342.047
L522.284 341.773
L522.595 341.273
L523.218 339.658
L523.841 337.345
L524.776 332.95
L532.564 332.95
L533.81 328.772
L537.548 315.561
L538.794 312.047
L540.04 309.124
L541.909 305.411
L543.467 302.176
L544.401 299.803
L545.336 296.897
L546.27 293.314
L547.205 288.956
L548.451 281.875
L549.697 273.413
L551.566 258.761
L554.992 231.076
L556.238 222.741
L557.173 217.632
L558.108 213.673
L558.731 211.718
L559.354 210.325
L559.977 209.49
L560.6 209.195
L560.911 209.241
L561.534 209.699
L562.157 210.603
L562.78 211.901
L563.715 214.45
L571.503 214.45
L572.437 213.126
L573.06 212.597
L573.683 212.39
L574.306 212.535
L574.929 213.056
L575.552 213.97
L576.175 215.289
L577.11 218.029
L578.044 221.662
L578.979 226.125
L580.225 233.192
L581.782 243.361
L587.078 279.389
L588.636 288.038
L590.193 295.353
L591.751 301.489
L593.62 307.755
L597.046 318.082
L600.473 328.036
L601.719 331.1
L602.654 332.95
L610.441 332.95
L611.687 329.686
L613.557 323.904
L616.36 315.29
L618.541 309.417
L621.033 302.721
L622.279 298.746
L623.525 293.973
L624.771 288.19
L626.017 281.298
L627.575 271.201
L629.755 255.124
L632.559 234.368
L633.805 226.432
L635.051 219.911
L635.985 216.136
L636.92 213.404
L637.543 212.175
L638.166 211.413
L638.789 211.104
L639.412 211.22
L640.035 211.73
L640.658 212.593
L641.593 214.45
L649.38 214.45
L650.003 213.973
L650.626 213.766
L651.249 213.864
L651.872 214.294
L652.495 215.077
L653.118 216.226
L654.053 218.635
L654.988 221.833
L656.234 227.168
L657.791 235.111
L664.956 273.7
L668.383 291.423
L673.99 321.668
L675.236 326.716
L676.17 329.658
L677.105 331.794
L677.728 332.759
L678.351 333.364
L678.974 333.625
L679.597 333.567
L680.22 333.22
L680.531 332.95
L688.319 332.95
L689.254 331.654
L690.811 328.925
L693.926 323.024
L694.861 320.872
L695.795 318.228
L696.73 314.909
L697.665 310.801
L698.911 304.084
L700.468 294.126
L703.895 271.426
L705.452 262.823
L707.321 253.986
L710.437 239.632
L714.175 221.668
L715.109 218.249
L716.044 215.706
L716.667 214.556
L717.29 213.85
L717.913 213.571
L718.536 213.68
L719.159 214.123
L719.47 214.45
L727.258 214.45
L728.193 210.91
L729.127 208.195
L729.75 206.98
L730.373 206.322
L730.685 206.22
L730.996 206.277
L731.308 206.498
L731.931 207.444
L732.554 209.076
L733.177 211.392
L734.111 216.102
L735.046 222.165
L736.292 231.972
L738.161 248.933
L740.653 271.546
L741.899 281.214
L743.145 289.132
L744.08 293.8
L745.014 297.396
L745.949 300.022
L746.883 301.848
L747.818 303.1
L749.375 304.601
L750.31 305.57
L751.244 306.87
L752.179 308.67
L753.114 311.074
L754.048 314.108
L755.294 319.022
L758.409 332.95
L766.197 332.95
L769.001 324.864
L769.624 323.714
L770.247 322.905
L770.87 322.387
L772.116 321.796
L772.739 321.425
L773.362 320.779
L773.985 319.701
L774.608 318.055
L775.231 315.748
L775.854 312.737
L776.788 306.94
L778.034 297.305
L781.15 271.899
L782.084 266.105
L783.019 261.578
L783.953 258.14
L785.199 254.538
L786.445 250.906
L787.38 247.473
L788.314 243.119
L789.56 235.909
L792.364 218.367
L793.298 214.151
L793.922 212.219
L794.545 211.069
L794.856 210.791
L795.168 210.705
L795.479 210.803
L795.791 211.075
L796.414 212.078
L797.037 213.571
L797.348 214.45
L805.136 214.45
L806.07 213.174
L806.693 212.676
L807.316 212.497
L807.94 212.666
L808.563 213.206
L809.186 214.134
L809.809 215.461
L810.743 218.202
L811.678 221.822
L812.612 226.26
L813.858 233.276
L815.416 243.366
L821.023 281.051
L822.581 289.458
L824.138 296.577
L825.696 302.59
L827.565 308.811
L831.303 320.117
L834.106 328.143
L835.353 331.149
L836.287 332.95
L843.763 332.95
L843.763 332.95" style="fill:none;stroke:#4c72b0;stroke-linecap:round;stroke-width:2;"/>
   </g>
   <g id="line2d_22">
    <path clip-path="url(#p66d06836af)" d="
M65.2969 332.95
L65.6084 298.166
L66.2314 295.994
L66.5429 295.357
L66.8544 295.01
L67.1659 294.946
L67.4775 295.153
L67.789 295.617
L68.412 297.251
L69.035 299.695
L69.9695 304.487
L72.7731 320.416
L73.3962 322.946
L74.0192 324.722
L74.3307 325.287
L74.6422 325.617
L74.9537 325.704
L75.2652 325.538
L75.5767 325.115
L76.1998 323.49
L76.8228 320.836
L77.4458 317.205
L78.3803 310.138
L79.6264 298.449
L82.7415 267.806
L83.676 261.231
L84.2991 258.129
L84.9221 256.218
L85.2336 255.742
L85.5451 255.6
L85.8566 255.797
L86.1681 256.337
L86.4796 257.222
L87.1027 260.014
L87.7257 264.127
L88.6602 272.574
L89.5947 283.333
L91.1523 304.675
L93.0214 331.563
L93.3329 330.127
L94.5789 315.028
L95.5135 306.111
L96.1365 301.546
L96.448 299.706
L96.7595 332.95
L104.236 332.95
L104.547 303.486
L105.17 307.984
L105.793 314.277
L106.728 326.583
L107.039 331.286
L107.351 329.693
L110.154 285.309
L111.089 274.901
L111.712 270.214
L112.335 267.526
L112.647 266.949
L112.958 266.877
L113.27 267.297
L113.581 268.186
L114.204 271.256
L114.827 275.791
L115.762 284.492
L117.942 305.703
L118.565 310.014
L119.188 312.909
L119.5 313.759
L119.811 314.187
L120.123 314.187
L120.434 313.759
L120.746 312.909
L121.369 310.014
L121.992 305.703
L122.926 297.266
L125.107 275.791
L125.73 271.256
L126.353 268.186
L126.665 267.297
L126.976 266.877
L127.288 266.949
L127.599 267.526
L127.911 268.615
L128.534 272.315
L129.157 277.95
L130.091 289.54
L131.337 308.988
L132.583 329.693
L132.895 331.286
L133.829 318.033
L134.764 307.984
L135.387 303.486
L135.698 332.95
L143.175 332.95
L143.486 261.703
L143.798 261.9
L144.109 263.791
L144.421 267.295
L145.044 278.612
L145.978 303.516
L146.913 332.132
L148.47 296.951
L148.782 293.24
L149.093 291.111
L149.405 290.649
L149.716 291.895
L150.028 294.846
L150.651 305.652
L151.274 322.227
L151.585 332.256
L152.208 311.21
L154.078 243.73
L154.701 228.011
L155.324 218.369
L155.635 216.112
L155.947 215.636
L156.258 216.942
L156.57 219.987
L157.193 230.92
L157.816 247.305
L159.062 289.5
L160.308 330.349
L160.619 327.466
L161.242 315.285
L161.554 311.474
L161.865 309.309
L162.177 308.833
L162.488 310.047
L162.8 312.908
L163.423 323.198
L163.734 330.344
L164.046 327.323
L165.292 288.217
L166.226 259.768
L166.85 245.091
L167.473 235.811
L167.784 233.57
L168.096 233.05
L168.407 234.296
L168.719 237.304
L169.342 248.394
L169.965 265.479
L170.899 299.125
L171.522 324.088
L171.834 329.377
L172.768 295.462
L173.391 278.05
L174.014 266.516
L174.326 263.242
L174.637 332.95
L182.114 332.95
L182.425 291.41
L183.048 295.609
L183.671 301.251
L184.606 312.181
L185.852 330.451
L186.163 330.407
L189.59 274.539
L190.524 262.835
L191.459 254.142
L192.082 250.268
L192.705 248.034
L193.016 247.543
L193.328 247.468
L193.639 247.805
L193.951 248.546
L194.574 251.188
L195.197 255.267
L196.132 263.691
L197.378 278.034
L200.493 316.101
L201.427 324.544
L202.05 328.773
L202.673 331.744
L202.985 332.736
L203.608 332.181
L203.919 332.186
L204.542 332.744
L205.165 330.578
L205.788 327.355
L206.723 320.946
L208.281 308.006
L209.527 297.989
L210.461 292.058
L211.084 289.303
L211.707 287.733
L212.019 287.442
L212.33 287.5
L212.642 287.919
L212.953 288.708
L213.265 289.871
L213.576 332.95
L221.052 332.95
L221.364 327.176
L222.922 320.173
L224.479 314.327
L226.037 309.471
L227.906 304.516
L234.447 288.555
L236.005 285.268
L236.94 283.718
L237.874 282.621
L238.497 282.195
L239.12 282.048
L239.743 282.204
L240.366 282.683
L240.989 283.5
L241.612 284.663
L242.547 287.058
L243.481 290.208
L244.727 295.477
L245.973 301.757
L247.842 312.408
L251.269 332.313
L251.581 331.923
L252.204 328.715
L252.515 332.95
L259.991 332.95
L260.303 315.703
L260.926 319.626
L261.86 327.465
L262.172 330.529
L262.483 332.122
L264.353 310.522
L265.91 293.689
L266.845 285.977
L267.468 282.238
L268.091 279.743
L268.402 278.973
L268.714 278.519
L269.025 278.373
L269.337 278.521
L269.648 278.949
L270.271 280.557
L270.894 282.998
L271.829 287.678
L273.698 297.323
L274.321 299.679
L274.944 301.268
L275.255 301.735
L275.567 301.971
L275.878 301.971
L276.19 301.735
L276.501 301.268
L277.124 299.679
L277.747 297.323
L278.682 292.759
L280.551 282.998
L281.174 280.557
L281.797 278.949
L282.109 278.521
L282.42 278.373
L282.732 278.519
L283.043 278.973
L283.355 279.743
L283.978 282.238
L284.601 285.977
L285.535 293.689
L286.781 306.902
L288.962 332.122
L289.273 330.529
L290.208 321.993
L291.142 315.703
L291.454 332.95
L298.93 332.95
L299.242 306.703
L299.553 305.792
L299.865 305.494
L300.176 305.782
L300.488 306.612
L301.111 309.66
L302.045 316.536
L303.291 326.138
L303.914 329.453
L304.226 330.462
L304.537 330.957
L304.849 330.897
L305.16 330.251
L305.472 329.005
L306.095 324.736
L306.718 318.282
L307.653 305.468
L309.833 273.046
L310.456 266.499
L311.079 262.261
L311.391 261.112
L311.702 260.636
L312.014 260.834
L312.325 261.691
L312.637 263.175
L313.26 267.839
L314.194 278.036
L316.375 304.11
L316.998 308.912
L317.621 311.591
L317.932 312.067
L318.244 311.961
L318.555 311.288
L318.867 310.079
L319.49 306.241
L320.425 297.959
L321.982 283.353
L322.605 279.415
L322.917 278.18
L323.228 277.515
L323.54 277.461
L323.851 278.05
L324.163 279.296
L324.786 283.735
L325.409 290.587
L326.343 304.418
L327.901 331.291
L328.212 329.534
L329.147 316.537
L329.77 310.408
L330.081 308.242
L330.393 332.95
L337.869 332.95
L338.181 321.637
L339.115 327.373
L339.738 332.047
L340.05 331.3
L341.607 317.146
L343.476 300.23
L344.411 293.306
L345.345 288.079
L345.968 285.678
L346.591 284.175
L346.903 283.753
L347.214 283.542
L347.526 283.531
L347.838 283.706
L348.461 284.553
L349.084 285.934
L350.33 289.6
L351.576 293.253
L352.199 294.658
L352.822 295.612
L353.445 296.036
L353.756 296.036
L354.068 295.894
L354.691 295.197
L355.314 294.005
L356.248 291.516
L358.429 285.187
L359.052 284.053
L359.363 283.706
L359.675 283.531
L359.986 283.542
L360.298 283.753
L360.609 284.175
L361.232 285.678
L361.856 288.079
L362.479 291.358
L363.413 297.759
L364.659 308.381
L367.151 331.3
L367.463 332.047
L368.397 325.281
L369.02 321.637
L369.332 332.95
L376.808 332.95
L377.12 298.453
L377.431 297.744
L377.743 297.849
L378.054 298.726
L378.366 300.319
L378.989 305.336
L379.923 315.887
L381.169 330.462
L381.481 332.536
L382.104 328.382
L382.415 327.297
L382.727 326.956
L383.038 327.399
L383.35 328.644
L383.973 332.382
L384.596 324.575
L385.53 308.635
L387.711 267.671
L388.334 259.442
L388.957 254.214
L389.268 252.862
L389.58 252.386
L389.892 252.787
L390.203 254.045
L390.515 256.119
L391.138 262.464
L392.072 276.104
L393.941 306.409
L394.564 313.812
L395.187 318.582
L395.499 319.841
L395.81 320.317
L396.122 320.008
L396.433 318.934
L396.745 317.135
L397.368 311.615
L398.302 299.891
L399.86 279.029
L400.483 273.123
L400.794 271.124
L401.106 269.869
L401.417 269.414
L401.729 269.8
L402.04 271.046
L402.352 273.149
L402.975 279.825
L403.598 289.42
L404.533 307.731
L405.467 327.917
L405.779 331.442
L406.713 314.128
L407.336 305.538
L407.959 299.992
L408.271 332.95
L415.747 332.95
L416.058 262.056
L416.37 265.359
L416.993 277.035
L417.616 294.689
L418.551 329.099
L418.862 324.181
L420.42 264.706
L421.043 247.379
L421.666 236.147
L421.977 233.11
L422.289 231.864
L422.6 232.412
L422.912 234.712
L423.223 238.678
L423.846 251.074
L424.781 277.926
L426.338 327.945
L426.65 329.571
L427.273 316.319
L427.896 308.89
L428.207 307.647
L428.519 308.122
L428.83 310.317
L429.142 314.185
L430.076 331.122
L431.011 300.783
L432.569 246.683
L433.192 230.015
L433.815 218.888
L434.126 215.785
L434.438 214.45
L434.749 214.926
L435.061 217.212
L435.372 221.264
L435.995 234.282
L436.618 252.825
L437.864 299.404
L438.799 331.634
L439.733 304.637
L440.356 293.689
L440.668 290.708
L440.979 289.463
L441.291 289.954
L441.602 292.14
L441.914 295.936
L442.537 307.822
L443.471 332.41
L445.029 285.453
L445.652 271.383
L446.275 262.692
L446.587 260.742
L446.898 260.517
L447.21 332.95
L454.686 332.95
L454.997 329.468
L456.555 322.431
L458.112 316.401
L460.605 307.907
L463.72 297.166
L466.212 288.63
L467.458 285.113
L468.392 283.105
L469.015 282.142
L469.638 281.514
L470.261 281.241
L470.884 281.332
L471.507 281.784
L472.13 282.583
L472.753 283.704
L473.688 285.914
L474.934 289.62
L477.115 297.166
L480.541 308.944
L483.033 317.541
L484.591 323.751
L485.837 329.468
L486.148 332.95
L493.625 332.95
L493.936 291.966
L494.559 297.006
L495.182 304.531
L496.117 319.799
L496.74 331.958
L497.051 327.481
L499.232 282.756
L500.166 268.205
L500.789 261.337
L501.413 257.095
L501.724 256.007
L502.036 255.611
L502.347 255.9
L502.659 256.853
L502.97 258.44
L503.593 263.355
L504.216 270.23
L505.462 287.678
L507.02 309.892
L507.954 319.76
L508.577 323.887
L508.889 325.097
L509.2 325.707
L509.512 325.707
L509.823 325.097
L510.135 323.887
L510.758 319.76
L511.381 313.604
L512.315 301.515
L514.808 266.578
L515.431 260.623
L516.054 256.853
L516.365 255.9
L516.677 255.611
L516.988 256.007
L517.3 257.095
L517.611 258.876
L518.234 264.457
L518.857 272.538
L519.792 288.517
L521.349 320.872
L521.972 331.958
L523.218 309.14
L523.841 300.473
L524.464 294.163
L524.776 291.966
L525.087 332.95
L532.564 332.95
L532.875 307.205
L533.498 304.793
L534.121 303.258
L534.433 302.807
L534.744 302.557
L535.056 302.498
L535.367 302.62
L535.679 302.909
L536.302 303.929
L536.925 305.433
L538.171 309.308
L539.728 314.189
L540.351 315.676
L540.974 316.701
L541.597 317.16
L541.909 317.152
L542.22 316.975
L542.532 316.624
L543.155 315.385
L543.778 313.428
L544.401 310.777
L545.336 305.627
L546.582 297.065
L549.697 274.147
L550.631 269.063
L551.254 266.601
L551.877 265.014
L552.189 264.578
L552.5 264.392
L552.812 264.461
L553.123 264.792
L553.435 265.385
L554.058 267.363
L554.681 270.375
L555.304 274.37
L556.238 282.021
L557.485 294.69
L559.977 323.766
L560.6 330.804
L560.911 331.726
L562.157 319.657
L563.092 312.483
L563.715 308.745
L564.026 332.95
L571.503 332.95
L571.814 319.625
L572.749 324.977
L573.683 331.342
L573.995 332.241
L575.552 319.598
L578.667 293.753
L579.913 285.422
L580.848 280.564
L581.471 278.093
L582.094 276.276
L582.717 275.127
L583.028 274.802
L583.34 274.641
L583.651 274.64
L583.963 274.796
L584.586 275.551
L585.209 276.852
L585.832 278.63
L586.767 282.014
L588.324 288.814
L590.505 298.383
L591.751 302.762
L592.685 305.236
L593.62 306.963
L594.243 307.72
L594.866 308.197
L595.489 308.443
L596.423 308.516
L597.981 308.472
L598.604 308.636
L599.227 309.026
L599.85 309.719
L600.473 310.781
L601.096 312.268
L601.719 314.223
L602.654 318.085
L602.965 332.95
L610.441 332.95
L610.753 313.357
L611.376 310.782
L611.999 308.871
L612.622 307.595
L613.245 306.905
L613.868 306.731
L614.491 306.986
L615.114 307.57
L616.049 308.825
L617.606 310.972
L618.229 311.531
L618.852 311.776
L619.475 311.63
L620.098 311.035
L620.721 309.955
L621.344 308.374
L622.279 305.088
L623.213 300.821
L624.459 294.014
L627.263 278.139
L628.198 274.13
L628.821 272.152
L629.444 270.839
L629.755 270.457
L630.067 270.268
L630.378 270.278
L630.69 270.492
L631.001 270.913
L631.624 272.382
L632.247 274.682
L632.87 277.784
L633.805 283.822
L635.051 294.021
L636.92 312.088
L638.789 330.324
L639.1 332.766
L640.347 322.68
L641.281 316.602
L641.593 314.896
L641.904 332.95
L649.38 332.95
L649.692 325.836
L650.938 332.715
L652.495 321.449
L655.299 300.639
L656.234 295.164
L657.168 290.965
L657.791 288.947
L658.414 287.559
L659.037 286.772
L659.66 286.525
L660.283 286.735
L660.906 287.299
L661.841 288.554
L663.398 290.764
L664.021 291.391
L664.644 291.762
L665.267 291.838
L665.89 291.612
L666.513 291.106
L667.448 289.945
L669.317 287.299
L669.94 286.735
L670.563 286.525
L670.875 286.586
L671.186 286.772
L671.809 287.559
L672.432 288.947
L673.055 290.965
L673.678 293.612
L674.613 298.687
L675.859 307.112
L679.285 332.715
L679.908 329.282
L680.531 325.836
L680.843 332.95
L688.319 332.95
L688.631 322.813
L689.254 320.424
L689.877 318.901
L690.5 318.103
L691.123 317.826
L692.68 317.694
L693.303 317.165
L693.926 316.027
L694.549 314.14
L695.172 311.448
L696.107 305.993
L697.353 296.9
L698.911 285.475
L699.845 280.277
L700.468 277.974
L701.091 276.747
L701.403 276.548
L701.714 276.621
L702.026 276.954
L702.649 278.334
L703.272 280.503
L704.518 286.195
L705.764 291.822
L706.387 293.982
L707.01 295.481
L707.633 296.247
L707.944 296.359
L708.256 296.301
L708.879 295.746
L709.502 294.764
L711.06 292.092
L711.371 291.797
L711.683 291.658
L711.994 291.704
L712.306 291.959
L712.617 292.445
L713.24 294.161
L713.863 296.91
L714.486 300.66
L715.421 307.875
L718.224 332.71
L719.159 326.122
L719.47 324.353
L719.782 332.95
L727.258 332.95
L727.57 299.947
L728.193 303.919
L729.127 312.006
L730.062 322.351
L730.685 330.26
L730.996 331.45
L735.046 276.094
L735.98 266.86
L736.603 262.136
L737.226 258.687
L737.85 256.579
L738.161 256.037
L738.473 255.837
L738.784 255.973
L739.096 256.441
L739.407 257.231
L740.03 259.727
L740.653 263.343
L741.588 270.523
L742.834 282.361
L745.637 309.964
L746.572 316.991
L747.195 320.605
L747.818 323.249
L748.441 324.875
L748.752 325.3
L749.064 325.471
L749.375 325.391
L749.687 325.069
L750.31 323.744
L750.933 321.603
L751.868 317.186
L753.425 308.14
L754.671 301.259
L755.606 297.402
L756.229 295.801
L756.54 295.351
L756.852 295.156
L757.163 295.231
L757.475 295.585
L757.786 296.229
L758.409 298.408
L758.721 332.95
L766.197 332.95
L766.509 308.273
L766.82 307.323
L767.132 306.949
L767.443 307.125
L767.755 307.81
L768.378 310.483
L769.312 316.66
L770.558 325.315
L771.181 328.256
L771.493 329.119
L771.804 329.502
L772.116 329.365
L772.427 328.681
L772.739 327.435
L773.362 323.281
L773.985 317.084
L774.919 304.865
L777.1 274.069
L777.723 267.842
L778.346 263.792
L778.657 262.682
L778.969 262.206
L779.28 262.366
L779.592 263.146
L779.904 264.518
L780.527 268.862
L781.461 278.404
L783.642 302.913
L784.265 307.457
L784.888 310.021
L785.199 310.497
L785.511 310.43
L785.822 309.833
L786.134 308.736
L786.757 305.218
L787.691 297.592
L789.249 284.176
L789.872 280.613
L790.183 279.523
L790.495 278.97
L790.806 278.993
L791.118 279.621
L791.429 280.866
L792.052 285.19
L792.675 291.785
L793.61 305.02
L795.168 330.688
L795.479 330.357
L796.414 317.88
L797.037 311.94
L797.348 309.812
L797.66 332.95
L805.136 332.95
L805.447 320.057
L806.382 325.387
L807.316 331.697
L807.628 331.911
L809.186 319.432
L812.301 293.979
L813.547 285.768
L814.481 280.969
L815.416 277.533
L816.039 276.048
L816.662 275.216
L816.973 275.041
L817.285 275.023
L817.596 275.157
L818.219 275.862
L818.842 277.101
L819.465 278.808
L820.4 282.075
L821.958 288.674
L824.138 298.022
L825.384 302.338
L826.319 304.804
L827.253 306.558
L827.876 307.351
L828.499 307.877
L829.122 308.183
L830.057 308.363
L831.614 308.519
L832.237 308.763
L832.86 309.229
L833.483 309.989
L834.106 311.11
L834.729 312.644
L835.353 314.632
L836.287 318.518
L836.599 332.95
L843.763 332.95
L843.763 332.95" style="fill:none;stroke:#d9544d;stroke-linecap:round;"/>
   </g>
   <g id="patch_8">
    <path d="
M65.2969 202.6
L843.763 202.6" style="fill:none;"/>
   </g>
   <g id="patch_9">
    <path d="
M843.763 344.8
L843.763 202.6" style="fill:none;"/>
   </g>
   <g id="patch_10">
    <path d="
M65.2969 344.8
L843.763 344.8" style="fill:none;"/>
   </g>
   <g id="patch_11">
    <path d="
M65.2969 344.8
L65.2969 202.6" style="fill:none;"/>
   </g>
   <g id="text_9">
    <text style="fill:#262626;font-family:Liberation Sans;font-size:20.0px;font-style:normal;text-anchor:middle;" transform="rotate(-0.000000, 454.530089, 197.600000)" x="454.530088911" y="197.6">(B) Mb: Rhythmic movement (novice) [ SPARC: -7.963 , LDLJ: -25.282 ]</text>
   </g>
  </g>
  <g id="axes_3">
   <g id="patch_12">
    <path d="
M65.2969 517.2
L843.763 517.2
L843.763 375
L65.2969 375
z
" style="fill:#eaeaf2;"/>
   </g>
   <g id="matplotlib.axis_5">
    <g id="xtick_1">
     <g id="line2d_23">
      <path clip-path="url(#p23f2a4daeb)" d="
M65.2969 517.2
L65.2969 375" style="fill:none;stroke:#ffffff;stroke-linecap:round;"/>
     </g>
     <g id="line2d_24">
      <g>
       <use style="fill:#262626;stroke:#262626;" x="65.296875" xlink:href="#m219da94a98" y="517.2"/>
      </g>
     </g>
     <g id="line2d_25">
      <g>
       <use style="fill:#262626;stroke:#262626;" x="65.296875" xlink:href="#m219da94a98" y="375.0"/>
      </g>
     </g>
     <g id="text_10">
      <text style="fill:#262626;font-family:Liberation Sans;font-size:18.0px;font-style:normal;text-anchor:middle;" transform="rotate(-0.000000, 65.296875, 537.244375)" x="65.296875" y="537.244375">0</text>
     </g>
    </g>
    <g id="xtick_2">
     <g id="line2d_26">
      <path clip-path="url(#p23f2a4daeb)" d="
M221.052 517.2
L221.052 375" style="fill:none;stroke:#ffffff;stroke-linecap:round;"/>
     </g>
     <g id="line2d_27">
      <g>
       <use style="fill:#262626;stroke:#262626;" x="221.052462799" xlink:href="#m219da94a98" y="517.2"/>
      </g>
     </g>
     <g id="line2d_28">
      <g>
       <use style="fill:#262626;stroke:#262626;" x="221.052462799" xlink:href="#m219da94a98" y="375.0"/>
      </g>
     </g>
     <g id="text_11">
      <text style="fill:#262626;font-family:Liberation Sans;font-size:18.0px;font-style:normal;text-anchor:middle;" transform="rotate(-0.000000, 221.052463, 537.244375)" x="221.052462799" y="537.244375">5</text>
     </g>
    </g>
    <g id="xtick_3">
     <g id="line2d_29">
      <path clip-path="url(#p23f2a4daeb)" d="
M376.808 517.2
L376.808 375" style="fill:none;stroke:#ffffff;stroke-linecap:round;"/>
     </g>
     <g id="line2d_30">
      <g>
       <use style="fill:#262626;stroke:#262626;" x="376.808050599" xlink:href="#m219da94a98" y="517.2"/>
      </g>
     </g>
     <g id="line2d_31">
      <g>
       <use style="fill:#262626;stroke:#262626;" x="376.808050599" xlink:href="#m219da94a98" y="375.0"/>
      </g>
     </g>
     <g id="text_12">
      <text style="fill:#262626;font-family:Liberation Sans;font-size:18.0px;font-style:normal;text-anchor:middle;" transform="rotate(-0.000000, 376.808051, 537.244375)" x="376.808050599" y="537.244375">10</text>
     </g>
    </g>
    <g id="xtick_4">
     <g id="line2d_32">
      <path clip-path="url(#p23f2a4daeb)" d="
M532.564 517.2
L532.564 375" style="fill:none;stroke:#ffffff;stroke-linecap:round;"/>
     </g>
     <g id="line2d_33">
      <g>
       <use style="fill:#262626;stroke:#262626;" x="532.563638398" xlink:href="#m219da94a98" y="517.2"/>
      </g>
     </g>
     <g id="line2d_34">
      <g>
       <use style="fill:#262626;stroke:#262626;" x="532.563638398" xlink:href="#m219da94a98" y="375.0"/>
      </g>
     </g>
     <g id="text_13">
      <text style="fill:#262626;font-family:Liberation Sans;font-size:18.0px;font-style:normal;text-anchor:middle;" transform="rotate(-0.000000, 532.563638, 537.244375)" x="532.563638398" y="537.244375">15</text>
     </g>
    </g>
    <g id="xtick_5">
     <g id="line2d_35">
      <path clip-path="url(#p23f2a4daeb)" d="
M688.319 517.2
L688.319 375" style="fill:none;stroke:#ffffff;stroke-linecap:round;"/>
     </g>
     <g id="line2d_36">
      <g>
       <use style="fill:#262626;stroke:#262626;" x="688.319226197" xlink:href="#m219da94a98" y="517.2"/>
      </g>
     </g>
     <g id="line2d_37">
      <g>
       <use style="fill:#262626;stroke:#262626;" x="688.319226197" xlink:href="#m219da94a98" y="375.0"/>
      </g>
     </g>
     <g id="text_14">
      <text style="fill:#262626;font-family:Liberation Sans;font-size:18.0px;font-style:normal;text-anchor:middle;" transform="rotate(-0.000000, 688.319226, 537.244375)" x="688.319226197" y="537.244375">20</text>
     </g>
    </g>
    <g id="xtick_6">
     <g id="text_15">
      <text style="fill:#262626;font-family:Liberation Sans;font-size:18.0px;font-style:normal;text-anchor:middle;" transform="rotate(-0.000000, 844.074814, 537.244375)" x="844.074813997" y="537.244375">25</text>
     </g>
    </g>
    <g id="text_16">
     <text style="fill:#262626;font-family:Liberation Sans;font-size:20.0px;font-style:normal;text-anchor:middle;" transform="rotate(-0.000000, 454.530089, 560.473125)" x="454.530088911" y="560.473125">Time (sec)</text>
    </g>
   </g>
   <g id="matplotlib.axis_6">
    <g id="ytick_7">
     <g id="line2d_38">
      <path clip-path="url(#p23f2a4daeb)" d="
M65.2969 505.35
L843.763 505.35" style="fill:none;stroke:#ffffff;stroke-linecap:round;"/>
     </g>
     <g id="line2d_39">
      <g>
       <use style="fill:#262626;stroke:#262626;" x="65.296875" xlink:href="#m219da94a98" y="505.35"/>
      </g>
     </g>
     <g id="line2d_40">
      <g>
       <use style="fill:#262626;stroke:#262626;" x="843.763302821" xlink:href="#m219da94a98" y="505.35"/>
      </g>
     </g>
     <g id="text_17">
      <text style="fill:#262626;font-family:Liberation Sans;font-size:18.0px;font-style:normal;text-anchor:end;" transform="rotate(-0.000000, 58.296875, 510.004688)" x="58.296875" y="510.0046875">0.0</text>
     </g>
    </g>
    <g id="ytick_8">
     <g id="line2d_41">
      <path clip-path="url(#p23f2a4daeb)" d="
M65.2969 446.1
L843.763 446.1" style="fill:none;stroke:#ffffff;stroke-linecap:round;"/>
     </g>
     <g id="line2d_42">
      <g>
       <use style="fill:#262626;stroke:#262626;" x="65.296875" xlink:href="#m219da94a98" y="446.1"/>
      </g>
     </g>
     <g id="line2d_43">
      <g>
       <use style="fill:#262626;stroke:#262626;" x="843.763302821" xlink:href="#m219da94a98" y="446.1"/>
      </g>
     </g>
     <g id="text_18">
      <text style="fill:#262626;font-family:Liberation Sans;font-size:18.0px;font-style:normal;text-anchor:end;" transform="rotate(-0.000000, 58.296875, 450.754688)" x="58.296875" y="450.7546875">0.5</text>
     </g>
    </g>
    <g id="ytick_9">
     <g id="line2d_44">
      <path clip-path="url(#p23f2a4daeb)" d="
M65.2969 386.85
L843.763 386.85" style="fill:none;stroke:#ffffff;stroke-linecap:round;"/>
     </g>
     <g id="line2d_45">
      <g>
       <use style="fill:#262626;stroke:#262626;" x="65.296875" xlink:href="#m219da94a98" y="386.85"/>
      </g>
     </g>
     <g id="line2d_46">
      <g>
       <use style="fill:#262626;stroke:#262626;" x="843.763302821" xlink:href="#m219da94a98" y="386.85"/>
      </g>
     </g>
     <g id="text_19">
      <text style="fill:#262626;font-family:Liberation Sans;font-size:18.0px;font-style:normal;text-anchor:end;" transform="rotate(-0.000000, 58.296875, 391.504688)" x="58.296875" y="391.5046875">1.0</text>
     </g>
    </g>
   </g>
   <g id="line2d_47">
    <path clip-path="url(#p23f2a4daeb)" d="
M65.2969 505.35
L65.6084 505.269
L65.9199 505.025
L66.5429 504.055
L67.1659 502.45
L67.789 500.228
L68.7235 495.791
L69.658 490.131
L70.9041 480.926
L72.4616 467.333
L74.9537 442.999
L77.4458 419.201
L79.0034 406.454
L80.2494 398.166
L81.1839 393.308
L82.1185 389.75
L82.7415 388.145
L83.3645 387.175
L83.676 386.931
L84.2991 386.85
L87.4142 386.931
L87.7257 387.175
L88.3487 388.145
L88.9717 389.75
L89.5947 391.972
L90.5293 396.409
L91.4638 402.069
L92.7099 411.274
L94.2674 424.867
L96.7595 449.201
L99.2516 472.999
L100.809 485.746
L102.055 494.034
L102.99 498.892
L103.924 502.45
L104.547 504.055
L105.17 505.025
L105.482 505.269
L106.105 505.35
L109.22 505.269
L109.531 505.025
L110.154 504.055
L110.778 502.45
L111.401 500.228
L112.335 495.791
L113.27 490.131
L114.516 480.926
L116.073 467.333
L118.565 442.999
L121.057 419.201
L122.615 406.454
L123.861 398.166
L124.796 393.308
L125.73 389.75
L126.353 388.145
L126.976 387.175
L127.288 386.931
L127.911 386.85
L131.026 386.931
L131.337 387.175
L131.96 388.145
L132.583 389.75
L133.206 391.972
L134.141 396.409
L135.075 402.069
L136.321 411.274
L137.879 424.867
L140.371 449.201
L142.863 472.999
L144.421 485.746
L145.667 494.034
L146.601 498.892
L147.536 502.45
L148.159 504.055
L148.782 505.025
L149.093 505.269
L149.716 505.35
L152.832 505.269
L153.143 505.025
L153.766 504.055
L154.389 502.45
L155.012 500.228
L155.947 495.791
L156.881 490.131
L158.127 480.926
L159.685 467.333
L162.177 442.999
L164.669 419.201
L166.226 406.454
L167.473 398.166
L168.407 393.308
L169.342 389.75
L169.965 388.145
L170.588 387.175
L170.899 386.931
L171.522 386.85
L174.637 386.931
L174.949 387.175
L175.572 388.145
L176.195 389.75
L176.818 391.972
L177.752 396.409
L178.687 402.069
L179.933 411.274
L181.491 424.867
L183.983 449.201
L186.475 472.999
L188.032 485.746
L189.278 494.034
L190.213 498.892
L191.147 502.45
L191.77 504.055
L192.393 505.025
L192.705 505.269
L193.328 505.35
L196.443 505.269
L196.755 505.025
L197.378 504.055
L198.001 502.45
L198.624 500.228
L199.558 495.791
L200.493 490.131
L201.739 480.926
L203.296 467.333
L205.788 442.999
L208.281 419.201
L209.838 406.454
L211.084 398.166
L212.019 393.308
L212.953 389.75
L213.576 388.145
L214.199 387.175
L214.511 386.931
L215.134 386.85
L218.249 386.931
L218.56 387.175
L219.183 388.145
L219.806 389.75
L220.429 391.972
L221.364 396.409
L222.299 402.069
L223.545 411.274
L225.102 424.867
L227.594 449.201
L230.086 472.999
L231.644 485.746
L232.89 494.034
L233.824 498.892
L234.759 502.45
L235.382 504.055
L236.005 505.025
L236.317 505.269
L236.94 505.35
L240.055 505.269
L240.366 505.025
L240.989 504.055
L241.612 502.45
L242.235 500.228
L243.17 495.791
L244.104 490.131
L245.35 480.926
L246.908 467.333
L249.4 442.999
L251.892 419.201
L253.45 406.454
L254.696 398.166
L255.63 393.308
L256.565 389.75
L257.188 388.145
L257.811 387.175
L258.122 386.931
L258.745 386.85
L261.86 386.931
L262.172 387.175
L262.795 388.145
L263.418 389.75
L264.041 391.972
L264.976 396.409
L265.91 402.069
L267.156 411.274
L268.714 424.867
L271.206 449.201
L273.698 472.999
L275.255 485.746
L276.501 494.034
L277.436 498.892
L278.371 502.45
L278.994 504.055
L279.617 505.025
L279.928 505.269
L280.551 505.35
L283.666 505.269
L283.978 505.025
L284.601 504.055
L285.224 502.45
L285.847 500.228
L286.781 495.791
L287.716 490.131
L288.962 480.926
L290.519 467.333
L293.012 442.999
L295.504 419.201
L297.061 406.454
L298.307 398.166
L299.242 393.308
L300.176 389.75
L300.799 388.145
L301.422 387.175
L301.734 386.931
L302.357 386.85
L305.472 386.931
L305.784 387.175
L306.407 388.145
L307.03 389.75
L307.653 391.972
L308.587 396.409
L309.522 402.069
L310.768 411.274
L312.325 424.867
L314.817 449.201
L317.309 472.999
L318.867 485.746
L320.113 494.034
L321.048 498.892
L321.982 502.45
L322.605 504.055
L323.228 505.025
L323.54 505.269
L324.163 505.35
L327.278 505.269
L327.589 505.025
L328.212 504.055
L328.835 502.45
L329.458 500.228
L330.393 495.791
L331.327 490.131
L332.573 480.926
L334.131 467.333
L336.623 442.999
L339.115 419.201
L340.673 406.454
L341.919 398.166
L342.853 393.308
L343.788 389.75
L344.411 388.145
L345.034 387.175
L345.345 386.931
L345.968 386.85
L349.084 386.931
L349.395 387.175
L350.018 388.145
L350.641 389.75
L351.264 391.972
L352.199 396.409
L353.133 402.069
L354.379 411.274
L355.937 424.867
L358.429 449.201
L360.921 472.999
L362.479 485.746
L363.725 494.034
L364.659 498.892
L365.594 502.45
L366.217 504.055
L366.84 505.025
L367.151 505.269
L367.774 505.35
L370.889 505.269
L371.201 505.025
L371.824 504.055
L372.447 502.45
L373.07 500.228
L374.004 495.791
L374.939 490.131
L376.185 480.926
L377.743 467.333
L380.235 442.999
L382.727 419.201
L384.284 406.454
L385.53 398.166
L386.465 393.308
L387.399 389.75
L388.022 388.145
L388.645 387.175
L388.957 386.931
L389.58 386.85
L392.695 386.931
L393.007 387.175
L393.63 388.145
L394.253 389.75
L394.876 391.972
L395.81 396.409
L396.745 402.069
L397.991 411.274
L399.548 424.867
L402.04 449.201
L404.533 472.999
L406.09 485.746
L407.336 494.034
L408.271 498.892
L409.205 502.45
L409.828 504.055
L410.451 505.025
L410.763 505.269
L411.386 505.35
L414.501 505.269
L414.812 505.025
L415.435 504.055
L416.058 502.45
L416.681 500.228
L417.616 495.791
L418.551 490.131
L419.797 480.926
L421.354 467.333
L423.846 442.999
L426.338 419.201
L427.896 406.454
L429.142 398.166
L430.076 393.308
L431.011 389.75
L431.634 388.145
L432.257 387.175
L432.569 386.931
L433.192 386.85
L436.307 386.931
L436.618 387.175
L437.241 388.145
L437.864 389.75
L438.487 391.972
L439.422 396.409
L440.356 402.069
L441.602 411.274
L443.16 424.867
L445.652 449.201
L448.144 472.999
L449.702 485.746
L450.948 494.034
L451.882 498.892
L452.817 502.45
L453.44 504.055
L454.063 505.025
L454.374 505.269
L454.997 505.35
L458.112 505.269
L458.424 505.025
L459.047 504.055
L459.67 502.45
L460.293 500.228
L461.228 495.791
L462.162 490.131
L463.408 480.926
L464.966 467.333
L467.458 442.999
L469.95 419.201
L471.507 406.454
L472.753 398.166
L473.688 393.308
L474.623 389.75
L475.246 388.145
L475.869 387.175
L476.18 386.931
L476.803 386.85
L479.918 386.931
L480.23 387.175
L480.853 388.145
L481.476 389.75
L482.099 391.972
L483.033 396.409
L483.968 402.069
L485.214 411.274
L486.771 424.867
L489.264 449.201
L491.756 472.999
L493.313 485.746
L494.559 494.034
L495.494 498.892
L496.428 502.45
L497.051 504.055
L497.674 505.025
L497.986 505.269
L498.609 505.35
L501.101 505.35
L501.101 505.35" style="fill:none;stroke:#4c72b0;stroke-linecap:round;stroke-width:2;"/>
   </g>
   <g id="line2d_48">
    <path clip-path="url(#p23f2a4daeb)" d="
M65.2969 505.35
L65.6084 502.247
L68.1005 454.317
L69.658 428.364
L70.9041 411.305
L71.8386 401.174
L72.7731 393.609
L73.3962 390.085
L74.0192 387.824
L74.3307 387.175
L74.6422 386.85
L74.9537 386.85
L75.2652 387.175
L75.5767 387.824
L76.1998 390.085
L76.8228 393.609
L77.4458 398.357
L78.3803 407.658
L79.3149 419.364
L80.5609 438.208
L82.1185 465.78
L84.2991 505.35
L87.1027 505.35
L87.4142 502.247
L89.9063 454.317
L91.4638 428.364
L92.7099 411.305
L93.6444 401.174
L94.5789 393.609
L95.2019 390.085
L95.825 387.824
L96.1365 387.175
L96.448 386.85
L96.7595 386.85
L97.071 387.175
L97.3825 387.824
L98.0055 390.085
L98.6286 393.609
L99.2516 398.357
L100.186 407.658
L101.121 419.364
L102.367 438.208
L103.924 465.78
L106.105 505.35
L108.908 505.35
L109.22 502.247
L111.712 454.317
L113.27 428.364
L114.516 411.305
L115.45 401.174
L116.385 393.609
L117.008 390.085
L117.631 387.824
L117.942 387.175
L118.254 386.85
L118.565 386.85
L118.877 387.175
L119.188 387.824
L119.811 390.085
L120.434 393.609
L121.057 398.357
L121.992 407.658
L122.926 419.364
L124.172 438.208
L125.73 465.78
L127.911 505.35
L130.714 505.35
L131.026 502.247
L133.518 454.317
L135.075 428.364
L136.321 411.305
L137.256 401.174
L138.19 393.609
L138.814 390.085
L139.437 387.824
L139.748 387.175
L140.06 386.85
L140.371 386.85
L140.683 387.175
L140.994 387.824
L141.617 390.085
L142.24 393.609
L142.863 398.357
L143.798 407.658
L144.732 419.364
L145.978 438.208
L147.536 465.78
L149.716 505.35
L152.52 505.35
L152.832 502.247
L155.324 454.317
L156.881 428.364
L158.127 411.305
L159.062 401.174
L159.996 393.609
L160.619 390.085
L161.242 387.824
L161.554 387.175
L161.865 386.85
L162.177 386.85
L162.488 387.175
L162.8 387.824
L163.423 390.085
L164.046 393.609
L164.669 398.357
L165.603 407.658
L166.538 419.364
L167.784 438.208
L169.342 465.78
L171.522 505.35
L174.326 505.35
L174.637 502.247
L177.129 454.317
L178.687 428.364
L179.933 411.305
L180.868 401.174
L181.802 393.609
L182.425 390.085
L183.048 387.824
L183.36 387.175
L183.671 386.85
L183.983 386.85
L184.294 387.175
L184.606 387.824
L185.229 390.085
L185.852 393.609
L186.475 398.357
L187.409 407.658
L188.344 419.364
L189.59 438.208
L191.147 465.78
L193.328 505.35
L196.132 505.35
L196.443 502.247
L198.935 454.317
L200.493 428.364
L201.739 411.305
L202.673 401.174
L203.608 393.609
L204.231 390.085
L204.854 387.824
L205.165 387.175
L205.477 386.85
L205.788 386.85
L206.1 387.175
L206.411 387.824
L207.034 390.085
L207.657 393.609
L208.281 398.357
L209.215 407.658
L210.15 419.364
L211.396 438.208
L212.953 465.78
L215.134 505.35
L217.937 505.35
L218.249 502.247
L220.741 454.317
L222.299 428.364
L223.545 411.305
L224.479 401.174
L225.414 393.609
L226.037 390.085
L226.66 387.824
L226.971 387.175
L227.283 386.85
L227.594 386.85
L227.906 387.175
L228.217 387.824
L228.84 390.085
L229.463 393.609
L230.086 398.357
L231.021 407.658
L231.955 419.364
L233.201 438.208
L234.759 465.78
L236.94 505.35
L239.743 505.35
L240.055 502.247
L242.547 454.317
L244.104 428.364
L245.35 411.305
L246.285 401.174
L247.219 393.609
L247.842 390.085
L248.465 387.824
L248.777 387.175
L249.088 386.85
L249.4 386.85
L249.711 387.175
L250.023 387.824
L250.646 390.085
L251.269 393.609
L251.892 398.357
L252.827 407.658
L253.761 419.364
L255.007 438.208
L256.565 465.78
L258.745 505.35
L261.549 505.35
L261.86 502.247
L264.353 454.317
L265.91 428.364
L267.156 411.305
L268.091 401.174
L269.025 393.609
L269.648 390.085
L270.271 387.824
L270.583 387.175
L270.894 386.85
L271.206 386.85
L271.517 387.175
L271.829 387.824
L272.452 390.085
L273.075 393.609
L273.698 398.357
L274.632 407.658
L275.567 419.364
L276.813 438.208
L278.371 465.78
L280.551 505.35
L283.355 505.35
L283.666 502.247
L286.158 454.317
L287.716 428.364
L288.962 411.305
L289.896 401.174
L290.831 393.609
L291.454 390.085
L292.077 387.824
L292.389 387.175
L292.7 386.85
L293.012 386.85
L293.323 387.175
L293.635 387.824
L294.258 390.085
L294.881 393.609
L295.504 398.357
L296.438 407.658
L297.373 419.364
L298.619 438.208
L300.176 465.78
L302.357 505.35
L305.16 505.35
L305.472 502.247
L307.964 454.317
L309.522 428.364
L310.768 411.305
L311.702 401.174
L312.637 393.609
L313.26 390.085
L313.883 387.824
L314.194 387.175
L314.506 386.85
L314.817 386.85
L315.129 387.175
L315.44 387.824
L316.063 390.085
L316.686 393.609
L317.309 398.357
L318.244 407.658
L319.178 419.364
L320.425 438.208
L321.982 465.78
L324.163 505.35
L326.966 505.35
L327.278 502.247
L329.77 454.317
L331.327 428.364
L332.573 411.305
L333.508 401.174
L334.443 393.609
L335.066 390.085
L335.689 387.824
L336 387.175
L336.312 386.85
L336.623 386.85
L336.935 387.175
L337.246 387.824
L337.869 390.085
L338.492 393.609
L339.115 398.357
L340.05 407.658
L340.984 419.364
L342.23 438.208
L343.788 465.78
L345.968 505.35
L348.772 505.35
L349.084 502.247
L351.576 454.317
L353.133 428.364
L354.379 411.305
L355.314 401.174
L356.248 393.609
L356.871 390.085
L357.494 387.824
L357.806 387.175
L358.117 386.85
L358.429 386.85
L358.74 387.175
L359.052 387.824
L359.675 390.085
L360.298 393.609
L360.921 398.357
L361.856 407.658
L362.79 419.364
L364.036 438.208
L365.594 465.78
L367.774 505.35
L370.578 505.35
L370.889 502.247
L373.381 454.317
L374.939 428.364
L376.185 411.305
L377.12 401.174
L378.054 393.609
L378.677 390.085
L379.3 387.824
L379.612 387.175
L379.923 386.85
L380.235 386.85
L380.546 387.175
L380.858 387.824
L381.481 390.085
L382.104 393.609
L382.727 398.357
L383.661 407.658
L384.596 419.364
L385.842 438.208
L387.399 465.78
L389.58 505.35
L392.384 505.35
L392.695 502.247
L395.187 454.317
L396.745 428.364
L397.991 411.305
L398.925 401.174
L399.86 393.609
L400.483 390.085
L401.106 387.824
L401.417 387.175
L401.729 386.85
L402.04 386.85
L402.352 387.175
L402.663 387.824
L403.287 390.085
L403.91 393.609
L404.533 398.357
L405.467 407.658
L406.402 419.364
L407.648 438.208
L409.205 465.78
L411.386 505.35
L414.189 505.35
L414.501 502.247
L416.993 454.317
L418.551 428.364
L419.797 411.305
L420.731 401.174
L421.666 393.609
L422.289 390.085
L422.912 387.824
L423.223 387.175
L423.535 386.85
L423.846 386.85
L424.158 387.175
L424.469 387.824
L425.092 390.085
L425.715 393.609
L426.338 398.357
L427.273 407.658
L428.207 419.364
L429.453 438.208
L431.011 465.78
L433.192 505.35
L435.995 505.35
L436.307 502.247
L438.799 454.317
L440.356 428.364
L441.602 411.305
L442.537 401.174
L443.471 393.609
L444.094 390.085
L444.717 387.824
L445.029 387.175
L445.341 386.85
L445.652 386.85
L445.964 387.175
L446.275 387.824
L446.898 390.085
L447.521 393.609
L448.144 398.357
L449.079 407.658
L450.013 419.364
L451.259 438.208
L452.817 465.78
L454.997 505.35
L457.801 505.35
L458.112 502.247
L460.605 454.317
L462.162 428.364
L463.408 411.305
L464.343 401.174
L465.277 393.609
L465.9 390.085
L466.523 387.824
L466.835 387.175
L467.146 386.85
L467.458 386.85
L467.769 387.175
L468.081 387.824
L468.704 390.085
L469.327 393.609
L469.95 398.357
L470.884 407.658
L471.819 419.364
L473.065 438.208
L474.623 465.78
L476.803 505.35
L479.607 505.35
L479.918 502.247
L482.41 454.317
L483.968 428.364
L485.214 411.305
L486.148 401.174
L487.083 393.609
L487.706 390.085
L488.329 387.824
L488.641 387.175
L488.952 386.85
L489.264 386.85
L489.575 387.175
L489.887 387.824
L490.51 390.085
L491.133 393.609
L491.756 398.357
L492.69 407.658
L493.625 419.364
L494.871 438.208
L496.428 465.78
L498.609 505.35
L501.101 505.35
L501.101 505.35" style="fill:none;stroke:#d9544d;stroke-linecap:round;"/>
   </g>
   <g id="patch_13">
    <path d="
M65.2969 375
L843.763 375" style="fill:none;"/>
   </g>
   <g id="patch_14">
    <path d="
M843.763 517.2
L843.763 375" style="fill:none;"/>
   </g>
   <g id="patch_15">
    <path d="
M65.2969 517.2
L843.763 517.2" style="fill:none;"/>
   </g>
   <g id="patch_16">
    <path d="
M65.2969 517.2
L65.2969 375" style="fill:none;"/>
   </g>
   <g id="text_20">
    <text style="fill:#262626;font-family:Liberation Sans;font-size:20.0px;font-style:normal;text-anchor:start;" transform="rotate(-0.000000, 501.412521, 422.400000)" x="501.412520838" y="422.4">Md [ SPARC: -5.737 , LDLJ: -22.361 ]</text>
   </g>
   <g id="text_21">
    <text style="fill:#262626;font-family:Liberation Sans;font-size:20.0px;font-style:normal;text-anchor:middle;" transform="rotate(-0.000000, 454.530089, 370.000000)" x="454.530088911" y="370.0">(C) Mc: Rhythmic movement (expert 2) [ SPARC: -5.309 , LDLJ: -18.894 ]</text>
   </g>
  </g>
 </g>
 <defs>
  <clipPath id="p23f2a4daeb">
   <rect height="142.2" width="778.466427821" x="65.296875" y="375.0"/>
  </clipPath>
  <clipPath id="pb156d73b3d">
   <rect height="142.2" width="778.466427821" x="65.296875" y="30.2"/>
  </clipPath>
  <clipPath id="p66d06836af">
   <rect height="142.2" width="778.466427821" x="65.296875" y="202.6"/>
  </clipPath>
 </defs>
</svg>
