<?xml version="1.0" encoding="utf-8" standalone="no"?>
<!DOCTYPE svg PUBLIC "-//W3C//DTD SVG 1.1//EN"
  "http://www.w3.org/Graphics/SVG/1.1/DTD/svg11.dtd">
<!-- Created with matplotlib (http://matplotlib.org/) -->
<svg height="504pt" version="1.1" viewBox="0 0 612 504" width="612pt" xmlns="http://www.w3.org/2000/svg" xmlns:xlink="http://www.w3.org/1999/xlink">
 <defs>
  <style type="text/css">
*{stroke-linecap:butt;stroke-linejoin:round;}
  </style>
 </defs>
 <g id="figure_1">
  <g id="patch_1">
   <path d="
M0 504
L612 504
L612 0
L0 0
z
" style="fill:#ffffff;"/>
  </g>
  <g id="axes_1">
   <g id="patch_2">
    <path d="
M61.5625 210.3
L298.888 210.3
L298.888 49.1
L61.5625 49.1
z
" style="fill:#eaeaf2;"/>
   </g>
   <g id="matplotlib.axis_1">
    <g id="xtick_1">
     <g id="line2d_1">
      <path clip-path="url(#p65a8e0f494)" d="
M61.5625 210.3
L61.5625 49.1" style="fill:none;stroke:#ffffff;stroke-linecap:round;"/>
     </g>
     <g id="line2d_2">
      <defs>
       <path d="
M0 0
L0 0" id="m219da94a98" style="stroke:#262626;"/>
      </defs>
      <g>
       <use style="fill:#262626;stroke:#262626;" x="61.5625" xlink:href="#m219da94a98" y="210.3"/>
      </g>
     </g>
     <g id="line2d_3">
      <g>
       <use style="fill:#262626;stroke:#262626;" x="61.5625" xlink:href="#m219da94a98" y="49.1"/>
      </g>
     </g>
     <g id="text_1">
      <text style="fill:#262626;font-family:Liberation Sans;font-size:18.0px;font-style:normal;text-anchor:middle;" transform="rotate(-0.000000, 61.562500, 230.344375)" x="61.5625" y="230.344375">0.0</text>
     </g>
    </g>
    <g id="xtick_2">
     <g id="line2d_4">
      <path clip-path="url(#p65a8e0f494)" d="
M120.894 210.3
L120.894 49.1" style="fill:none;stroke:#ffffff;stroke-linecap:round;"/>
     </g>
     <g id="line2d_5">
      <g>
       <use style="fill:#262626;stroke:#262626;" x="120.893767756" xlink:href="#m219da94a98" y="210.3"/>
      </g>
     </g>
     <g id="line2d_6">
      <g>
       <use style="fill:#262626;stroke:#262626;" x="120.893767756" xlink:href="#m219da94a98" y="49.1"/>
      </g>
     </g>
     <g id="text_2">
      <text style="fill:#262626;font-family:Liberation Sans;font-size:18.0px;font-style:normal;text-anchor:middle;" transform="rotate(-0.000000, 120.893768, 230.344375)" x="120.893767756" y="230.344375">0.5</text>
     </g>
    </g>
    <g id="xtick_3">
     <g id="line2d_7">
      <path clip-path="url(#p65a8e0f494)" d="
M180.225 210.3
L180.225 49.1" style="fill:none;stroke:#ffffff;stroke-linecap:round;"/>
     </g>
     <g id="line2d_8">
      <g>
       <use style="fill:#262626;stroke:#262626;" x="180.225035511" xlink:href="#m219da94a98" y="210.3"/>
      </g>
     </g>
     <g id="line2d_9">
      <g>
       <use style="fill:#262626;stroke:#262626;" x="180.225035511" xlink:href="#m219da94a98" y="49.1"/>
      </g>
     </g>
     <g id="text_3">
      <text style="fill:#262626;font-family:Liberation Sans;font-size:18.0px;font-style:normal;text-anchor:middle;" transform="rotate(-0.000000, 180.225036, 230.344375)" x="180.225035511" y="230.344375">1.0</text>
     </g>
    </g>
    <g id="xtick_4">
     <g id="line2d_10">
      <path clip-path="url(#p65a8e0f494)" d="
M239.556 210.3
L239.556 49.1" style="fill:none;stroke:#ffffff;stroke-linecap:round;"/>
     </g>
     <g id="line2d_11">
      <g>
       <use style="fill:#262626;stroke:#262626;" x="239.556303267" xlink:href="#m219da94a98" y="210.3"/>
      </g>
     </g>
     <g id="line2d_12">
      <g>
       <use style="fill:#262626;stroke:#262626;" x="239.556303267" xlink:href="#m219da94a98" y="49.1"/>
      </g>
     </g>
     <g id="text_4">
      <text style="fill:#262626;font-family:Liberation Sans;font-size:18.0px;font-style:normal;text-anchor:middle;" transform="rotate(-0.000000, 239.556303, 230.344375)" x="239.556303267" y="230.344375">1.5</text>
     </g>
    </g>
    <g id="xtick_5">
     <g id="line2d_13">
      <path clip-path="url(#p65a8e0f494)" d="
M298.888 210.3
L298.888 49.1" style="fill:none;stroke:#ffffff;stroke-linecap:round;"/>
     </g>
     <g id="line2d_14">
      <g>
       <use style="fill:#262626;stroke:#262626;" x="298.887571023" xlink:href="#m219da94a98" y="210.3"/>
      </g>
     </g>
     <g id="line2d_15">
      <g>
       <use style="fill:#262626;stroke:#262626;" x="298.887571023" xlink:href="#m219da94a98" y="49.1"/>
      </g>
     </g>
     <g id="text_5">
      <text style="fill:#262626;font-family:Liberation Sans;font-size:18.0px;font-style:normal;text-anchor:middle;" transform="rotate(-0.000000, 298.887571, 230.344375)" x="298.887571023" y="230.344375">2.0</text>
     </g>
    </g>
    <g id="text_6">
     <text style="fill:#262626;font-family:Liberation Sans;font-size:18.0px;font-style:normal;text-anchor:middle;" transform="rotate(-0.000000, 180.225036, 252.123750)" x="180.225035511" y="252.12375">Time (sec)</text>
    </g>
   </g>
   <g id="matplotlib.axis_2">
    <g id="ytick_1">
     <g id="line2d_16">
      <path clip-path="url(#p65a8e0f494)" d="
M61.5625 202.973
L298.888 202.973" style="fill:none;stroke:#ffffff;stroke-linecap:round;"/>
     </g>
     <g id="line2d_17">
      <g>
       <use style="fill:#262626;stroke:#262626;" x="61.5625" xlink:href="#m219da94a98" y="202.972727273"/>
      </g>
     </g>
     <g id="line2d_18">
      <g>
       <use style="fill:#262626;stroke:#262626;" x="298.887571023" xlink:href="#m219da94a98" y="202.972727273"/>
      </g>
     </g>
     <g id="text_7">
      <text style="fill:#262626;font-family:Liberation Sans;font-size:18.0px;font-style:normal;text-anchor:end;" transform="rotate(-0.000000, 54.562500, 207.627415)" x="54.5625" y="207.627414773">0.0</text>
     </g>
    </g>
    <g id="ytick_2">
     <g id="line2d_19">
      <path clip-path="url(#p65a8e0f494)" d="
M61.5625 129.7
L298.888 129.7" style="fill:none;stroke:#ffffff;stroke-linecap:round;"/>
     </g>
     <g id="line2d_20">
      <g>
       <use style="fill:#262626;stroke:#262626;" x="61.5625" xlink:href="#m219da94a98" y="129.7"/>
      </g>
     </g>
     <g id="line2d_21">
      <g>
       <use style="fill:#262626;stroke:#262626;" x="298.887571023" xlink:href="#m219da94a98" y="129.7"/>
      </g>
     </g>
     <g id="text_8">
      <text style="fill:#262626;font-family:Liberation Sans;font-size:18.0px;font-style:normal;text-anchor:end;" transform="rotate(-0.000000, 54.562500, 134.354688)" x="54.5625" y="134.3546875">0.5</text>
     </g>
    </g>
    <g id="ytick_3">
     <g id="line2d_22">
      <path clip-path="url(#p65a8e0f494)" d="
M61.5625 56.4273
L298.888 56.4273" style="fill:none;stroke:#ffffff;stroke-linecap:round;"/>
     </g>
     <g id="line2d_23">
      <g>
       <use style="fill:#262626;stroke:#262626;" x="61.5625" xlink:href="#m219da94a98" y="56.4272727273"/>
      </g>
     </g>
     <g id="line2d_24">
      <g>
       <use style="fill:#262626;stroke:#262626;" x="298.887571023" xlink:href="#m219da94a98" y="56.4272727273"/>
      </g>
     </g>
     <g id="text_9">
      <text style="fill:#262626;font-family:Liberation Sans;font-size:18.0px;font-style:normal;text-anchor:end;" transform="rotate(-0.000000, 54.562500, 61.081960)" x="54.5625" y="61.0819602273">1.0</text>
     </g>
    </g>
   </g>
   <g id="line2d_25">
    <path clip-path="url(#p65a8e0f494)" d="
M61.5625 202.69
L62.3931 202.315
L62.9865 201.814
L63.5798 200.995
L64.1731 199.703
L64.7664 197.731
L65.3597 194.828
L65.953 190.708
L66.5463 185.072
L67.2583 175.932
L67.9703 163.923
L68.9196 143.541
L70.4622 103.815
L71.6488 75.6518
L72.3608 63.6615
L72.8354 58.6992
L73.1914 56.7932
L73.4288 56.4273
L73.5474 56.5188
L73.7847 57.2493
L74.1407 59.6877
L74.6154 65.306
L75.2087 75.6518
L76.0393 94.6803
L78.7686 161.638
L79.5992 175.932
L80.3112 185.072
L81.0232 191.644
L81.7351 196.119
L82.3284 198.616
L82.9218 200.289
L83.5151 201.37
L84.1084 202.045
L84.8204 202.511
L85.1763 202.652
L85.1763 202.652" style="fill:none;stroke:#4c72b0;stroke-linecap:round;stroke-width:1.5;"/>
   </g>
   <g id="line2d_26">
    <path clip-path="url(#p65a8e0f494)" d="
M61.5625 202.69
L63.1051 202.352
L64.2917 201.876
L65.3597 201.191
L66.309 200.289
L67.1396 199.193
L67.9703 197.731
L68.8009 195.813
L69.6316 193.343
L70.4622 190.218
L71.4115 185.712
L72.3608 180.077
L73.4288 172.255
L74.4967 162.79
L75.802 149.062
L77.3446 130.303
L81.4978 78.0949
L82.5658 68.0531
L83.3964 62.1734
L84.1084 58.6992
L84.583 57.2493
L84.939 56.6332
L85.295 56.4273
L85.5323 56.5188
L85.8883 56.9986
L86.2443 57.8854
L86.719 59.6877
L87.3123 62.8975
L88.0242 68.0531
L88.9735 76.8596
L90.1602 90.2784
L92.0588 114.766
L94.5507 146.333
L95.9746 161.638
L97.1613 172.255
L98.2292 180.077
L99.2972 186.334
L100.246 190.708
L101.196 194.111
L102.145 196.697
L103.094 198.616
L104.044 200.008
L104.993 200.995
L105.942 201.68
L107.01 202.19
L108.316 202.563
L108.909 202.672
L108.909 202.672" style="fill:none;stroke:#55a868;stroke-linecap:round;stroke-width:1.5;"/>
   </g>
   <g id="line2d_27">
    <path clip-path="url(#p65a8e0f494)" d="
M61.5625 202.69
L63.9358 202.34
L65.7157 201.856
L67.1396 201.253
L68.4449 200.462
L69.6316 199.484
L70.8182 198.191
L71.8861 196.697
L72.9541 194.828
L74.0221 192.522
L75.09 189.712
L76.2767 185.921
L77.4633 181.35
L78.7686 175.342
L80.0739 168.252
L81.4978 159.273
L83.1591 147.25
L85.1763 130.809
L91.3468 78.9333
L92.6521 70.4097
L93.72 64.7408
L94.6693 60.8472
L95.3813 58.6992
L95.9746 57.4414
L96.5679 56.6815
L97.0426 56.4374
L97.3986 56.468
L97.7546 56.6815
L98.2292 57.2493
L98.8225 58.4084
L99.5345 60.442
L100.365 63.6615
L101.314 68.3783
L102.382 74.8625
L103.688 84.1935
L105.468 98.695
L111.757 151.723
L113.418 163.17
L114.961 172.255
L116.385 179.288
L117.69 184.636
L118.877 188.652
L120.063 191.943
L121.25 194.595
L122.436 196.697
L123.623 198.336
L124.81 199.595
L125.996 200.546
L127.302 201.312
L128.725 201.896
L130.387 202.34
L132.523 202.665
L132.76 202.69
L132.76 202.69" style="fill:none;stroke:#c44e52;stroke-linecap:round;stroke-width:1.5;"/>
   </g>
   <g id="line2d_28">
    <path clip-path="url(#p65a8e0f494)" d="
M61.5625 202.69
L64.6477 202.352
L67.021 201.876
L68.9196 201.283
L70.5809 200.546
L72.1235 199.622
L73.5474 198.513
L74.9714 197.103
L76.2767 195.497
L77.5819 193.54
L78.8872 191.184
L80.1925 188.377
L81.6165 184.745
L83.0404 180.465
L84.4644 175.49
L86.007 169.283
L87.6683 161.638
L89.4482 152.377
L91.4655 140.688
L94.076 124.152
L100.009 86.0269
L101.789 76.2522
L103.213 69.5468
L104.4 64.8805
L105.468 61.4898
L106.417 59.1719
L107.248 57.7096
L107.96 56.8902
L108.553 56.5188
L109.146 56.433
L109.621 56.5703
L110.214 56.9986
L110.807 57.7096
L111.519 58.9301
L112.35 60.8472
L113.299 63.6615
L114.367 67.5726
L115.554 72.7597
L116.978 79.9974
L118.758 90.2784
L121.25 106.146
L126.827 142.122
L128.963 154.314
L130.861 163.923
L132.641 171.773
L134.303 178.067
L135.845 183.044
L137.269 186.939
L138.693 190.218
L140.117 192.939
L141.541 195.168
L142.965 196.97
L144.389 198.408
L145.813 199.54
L147.356 200.483
L149.017 201.238
L150.915 201.845
L153.17 202.315
L155.899 202.642
L156.374 202.681
L156.374 202.681" style="fill:none;stroke:#8172b2;stroke-linecap:round;stroke-width:1.5;"/>
   </g>
   <g id="line2d_29">
    <path clip-path="url(#p65a8e0f494)" d="
M61.5625 202.69
L65.4784 202.345
L68.4449 201.864
L70.8182 201.265
L72.9541 200.496
L74.8527 199.573
L76.6326 198.45
L78.2939 197.129
L79.8365 195.625
L81.3791 193.81
L82.9218 191.644
L84.4644 189.084
L86.007 186.088
L87.5496 182.618
L89.2109 178.314
L90.8721 173.392
L92.6521 167.412
L94.5507 160.228
L96.5679 151.723
L98.9412 140.688
L101.789 126.318
L109.739 85.473
L111.757 76.6158
L113.418 70.2701
L114.842 65.6532
L116.147 62.1734
L117.215 59.9061
L118.165 58.3526
L118.995 57.3622
L119.826 56.7237
L120.538 56.4602
L121.25 56.4602
L121.962 56.7237
L122.674 57.2493
L123.504 58.1898
L124.335 59.4762
L125.284 61.3579
L126.352 63.978
L127.539 67.4776
L128.963 72.4254
L130.624 79.1024
L132.523 87.7075
L135.015 100.119
L144.389 147.978
L146.644 157.817
L148.661 165.694
L150.559 172.255
L152.339 177.65
L154.119 182.331
L155.781 186.088
L157.442 189.295
L159.103 192.002
L160.646 194.111
L162.307 195.998
L163.968 197.536
L165.63 198.777
L167.409 199.828
L169.308 200.689
L171.444 201.404
L173.817 201.958
L176.665 202.387
L180.106 202.683
L180.106 202.683" style="fill:none;stroke:#ccb974;stroke-linecap:round;stroke-width:1.5;"/>
   </g>
   <g id="line2d_30">
    <path clip-path="url(#p65a8e0f494)" d="
M61.5625 202.69
L66.1903 202.352
L69.7502 201.876
L72.5981 201.283
L75.09 200.546
L77.3446 199.649
L79.3619 198.616
L81.2605 197.403
L83.1591 195.916
L84.939 194.234
L86.719 192.235
L88.4989 189.882
L90.2788 187.137
L92.0588 183.966
L93.8387 180.336
L95.7373 175.932
L97.6359 170.957
L99.6532 165.036
L101.789 158.062
L104.162 149.51
L106.773 139.241
L110.095 125.185
L118.995 86.9571
L121.25 78.5127
L123.148 72.2041
L124.81 67.4145
L126.234 63.9249
L127.539 61.271
L128.725 59.339
L129.793 58.0088
L130.743 57.1607
L131.573 56.6815
L132.404 56.4502
L133.235 56.468
L134.065 56.7348
L134.896 57.2493
L135.845 58.1371
L136.795 59.339
L137.863 61.0568
L139.049 63.4024
L140.354 66.4864
L141.897 70.7614
L143.558 76.0513
L145.457 82.8435
L147.83 92.218
L151.034 105.886
L158.984 140.207
L161.714 150.844
L164.206 159.673
L166.46 166.845
L168.596 172.891
L170.613 177.928
L172.512 182.089
L174.411 185.712
L176.191 188.652
L177.97 191.184
L179.75 193.343
L181.53 195.168
L183.429 196.789
L185.328 198.117
L187.345 199.253
L189.481 200.198
L191.854 200.995
L194.465 201.632
L197.55 202.144
L201.228 202.52
L203.839 202.684
L203.839 202.684" style="fill:none;stroke:#64b5cd;stroke-linecap:round;stroke-width:1.5;"/>
   </g>
   <g id="line2d_31">
    <path clip-path="url(#p65a8e0f494)" d="
M61.5625 202.69
L67.021 202.347
L71.1742 201.867
L74.4967 201.27
L77.4633 200.51
L80.0739 199.61
L82.4471 198.557
L84.7017 197.307
L86.8376 195.858
L88.8549 194.217
L90.8721 192.277
L92.7707 190.146
L94.6693 187.692
L96.5679 184.886
L98.5852 181.493
L100.602 177.65
L102.738 173.07
L104.874 167.954
L107.129 161.969
L109.502 155.041
L112.113 146.727
L115.079 136.519
L118.877 122.597
L127.658 90.0723
L130.268 81.3908
L132.523 74.6393
L134.421 69.6198
L136.083 65.8038
L137.625 62.7916
L139.049 60.4987
L140.354 58.8298
L141.541 57.6854
L142.609 56.9665
L143.558 56.5786
L144.508 56.4291
L145.457 56.5188
L146.406 56.8472
L147.356 57.4128
L148.423 58.3289
L149.491 59.536
L150.678 61.2093
L151.983 63.4392
L153.407 66.3137
L155.069 70.2104
L156.849 74.9745
L158.866 81.0165
L161.239 88.843
L164.324 99.8566
L169.901 120.814
L174.411 137.361
L177.614 148.289
L180.344 156.831
L182.836 163.923
L185.209 170.008
L187.463 175.172
L189.599 179.515
L191.617 183.144
L193.634 186.334
L195.651 189.114
L197.668 191.514
L199.686 193.568
L201.703 195.311
L203.839 196.854
L205.975 198.127
L208.229 199.219
L210.721 200.171
L213.451 200.966
L216.536 201.619
L220.096 202.131
L224.367 202.511
L227.571 202.685
L227.571 202.685" style="fill:none;stroke:#4c72b0;stroke-linecap:round;stroke-width:1.5;"/>
   </g>
   <g id="line2d_32">
    <path clip-path="url(#p65a8e0f494)" d="
M61.5625 202.69
L67.8516 202.343
L72.4795 201.876
L76.2767 201.283
L79.5992 200.546
L82.5658 199.663
L85.295 198.616
L87.7869 197.424
L90.1602 196.043
L92.4148 194.476
L94.6693 192.627
L96.8053 190.587
L98.9412 188.238
L101.077 185.554
L103.213 182.511
L105.349 179.087
L107.604 175.043
L109.858 170.544
L112.231 165.311
L114.723 159.273
L117.453 152.051
L120.419 143.541
L123.86 132.951
L128.488 117.907
L135.964 93.5673
L139.049 84.307
L141.541 77.4739
L143.796 71.9293
L145.694 67.8117
L147.474 64.4645
L149.017 61.9987
L150.441 60.1027
L151.746 58.6992
L153.051 57.6259
L154.238 56.943
L155.306 56.5703
L156.374 56.4287
L157.442 56.5188
L158.51 56.8403
L159.578 57.3915
L160.764 58.2703
L161.951 59.4244
L163.256 61.004
L164.68 63.0848
L166.223 65.7409
L167.884 69.0403
L169.783 73.3231
L171.919 78.7226
L174.411 85.6804
L177.377 94.6803
L181.412 107.707
L190.43 137.046
L193.871 147.364
L196.838 155.582
L199.567 162.504
L202.059 168.252
L204.432 173.205
L206.805 177.65
L209.06 181.413
L211.315 184.745
L213.569 187.671
L215.705 190.093
L217.96 192.308
L220.214 194.204
L222.469 195.813
L224.842 197.233
L227.334 198.461
L229.945 199.498
L232.793 200.388
L235.878 201.12
L239.438 201.732
L243.591 202.212
L248.693 202.57
L251.304 202.685
L251.304 202.685" style="fill:none;stroke:#55a868;stroke-linecap:round;stroke-width:1.5;"/>
   </g>
   <g id="line2d_33">
    <path clip-path="url(#p65a8e0f494)" d="
M61.5625 202.69
L68.5636 202.348
L73.9034 201.869
L78.1753 201.273
L81.8538 200.546
L85.1763 199.667
L88.1429 198.661
L90.9908 197.459
L93.6014 196.119
L96.0933 194.595
L98.5852 192.802
L100.958 190.815
L103.332 188.53
L105.705 185.921
L108.078 182.965
L110.451 179.641
L112.825 175.932
L115.317 171.611
L117.809 166.845
L120.419 161.379
L123.267 154.88
L126.352 147.25
L129.793 138.106
L133.947 126.387
L147.593 87.2691
L150.441 80.0689
L152.933 74.3435
L155.187 69.7175
L157.205 66.0856
L158.984 63.3171
L160.646 61.1277
L162.188 59.4532
L163.612 58.2254
L164.918 57.3752
L166.223 56.7932
L167.409 56.4996
L168.596 56.4318
L169.783 56.59
L170.969 56.9735
L172.156 57.5806
L173.461 58.5032
L174.885 59.8082
L176.309 61.4163
L177.852 63.4883
L179.513 66.0856
L181.412 69.4901
L183.429 73.5759
L185.684 78.6525
L188.294 85.1056
L191.379 93.3621
L195.414 104.849
L207.399 139.403
L210.959 148.762
L214.044 156.278
L216.892 162.663
L219.621 168.252
L222.232 173.1
L224.723 177.275
L227.215 181.016
L229.589 184.191
L231.962 187.005
L234.335 189.482
L236.708 191.644
L239.082 193.518
L241.574 195.205
L244.184 196.697
L246.913 197.991
L249.761 199.091
L252.847 200.041
L256.169 200.83
L259.966 201.498
L264.357 202.033
L269.578 202.438
L275.036 202.686
L275.036 202.686" style="fill:none;stroke:#c44e52;stroke-linecap:round;stroke-width:1.5;"/>
   </g>
   <g id="line2d_34">
    <path clip-path="url(#p65a8e0f494)" d="
M61.5625 202.69
L69.3942 202.345
L75.2087 201.876
L80.0739 201.265
L84.227 200.521
L87.9056 199.638
L91.2281 198.616
L94.3134 197.437
L97.1613 196.119
L99.8905 194.618
L102.501 192.939
L105.112 190.995
L107.604 188.869
L110.095 186.457
L112.587 183.738
L115.079 180.695
L117.69 177.143
L120.3 173.205
L123.03 168.667
L125.759 163.698
L128.725 157.817
L131.811 151.196
L135.252 143.258
L139.168 133.627
L144.152 120.725
L154.713 93.1981
L158.272 84.6484
L161.239 78.0949
L163.731 73.0968
L165.986 69.0403
L168.121 65.6532
L170.02 63.0472
L171.8 60.9724
L173.461 59.3731
L175.004 58.1898
L176.428 57.3622
L177.852 56.7932
L179.157 56.5014
L180.462 56.4309
L181.768 56.582
L183.073 56.9539
L184.378 57.545
L185.802 58.4366
L187.345 59.6877
L188.887 61.2278
L190.549 63.1984
L192.329 65.6532
L194.346 68.8401
L196.482 72.648
L198.855 77.3505
L201.466 83.0222
L204.551 90.2784
L208.348 99.8129
L214.4 115.709
L221.282 133.627
L225.435 143.823
L228.995 151.985
L232.199 158.791
L235.166 164.593
L238.014 169.69
L240.743 174.134
L243.472 178.15
L246.083 181.599
L248.693 184.68
L251.304 187.411
L253.914 189.814
L256.525 191.913
L259.136 193.734
L261.865 195.367
L264.713 196.807
L267.679 198.057
L270.883 199.157
L274.324 200.095
L278.122 200.891
L282.393 201.548
L287.259 202.066
L293.192 202.465
L298.769 202.686
L298.769 202.686" style="fill:none;stroke:#8172b2;stroke-linecap:round;stroke-width:1.5;"/>
   </g>
   <g id="patch_3">
    <path d="
M61.5625 49.1
L298.888 49.1" style="fill:none;"/>
   </g>
   <g id="patch_4">
    <path d="
M298.888 210.3
L298.888 49.1" style="fill:none;"/>
   </g>
   <g id="patch_5">
    <path d="
M61.5625 210.3
L298.888 210.3" style="fill:none;"/>
   </g>
   <g id="patch_6">
    <path d="
M61.5625 210.3
L61.5625 49.1" style="fill:none;"/>
   </g>
   <g id="text_10">
    <text style="fill:#262626;font-family:Liberation Sans;font-size:18.0px;font-style:normal;" transform="translate(98.1745667614 24.71175)">(A) Speed profiles of</text>
    <text style="fill:#262626;font-family:Liberation Sans;font-size:18.0px;font-style:normal;" transform="translate(108.669410511 44.1)">different durations</text>
   </g>
  </g>
  <g id="axes_2">
   <g id="patch_7">
    <path d="
M351.97 210.3
L589.295 210.3
L589.295 49.1
L351.97 49.1
z
" style="fill:#eaeaf2;"/>
   </g>
   <g id="matplotlib.axis_3">
    <g id="xtick_6">
     <g id="line2d_35">
      <path clip-path="url(#p7a4ee0c860)" d="
M351.97 210.3
L351.97 49.1" style="fill:none;stroke:#ffffff;stroke-linecap:round;"/>
     </g>
     <g id="line2d_36">
      <g>
       <use style="fill:#262626;stroke:#262626;" x="351.970383523" xlink:href="#m219da94a98" y="210.3"/>
      </g>
     </g>
     <g id="line2d_37">
      <g>
       <use style="fill:#262626;stroke:#262626;" x="351.970383523" xlink:href="#m219da94a98" y="49.1"/>
      </g>
     </g>
     <g id="text_11">
      <text style="fill:#262626;font-family:Liberation Sans;font-size:18.0px;font-style:normal;text-anchor:middle;" transform="rotate(-0.000000, 351.970384, 230.344375)" x="351.970383523" y="230.344375">0</text>
     </g>
    </g>
    <g id="xtick_7">
     <g id="line2d_38">
      <path clip-path="url(#p7a4ee0c860)" d="
M399.435 210.3
L399.435 49.1" style="fill:none;stroke:#ffffff;stroke-linecap:round;"/>
     </g>
     <g id="line2d_39">
      <g>
       <use style="fill:#262626;stroke:#262626;" x="399.435397727" xlink:href="#m219da94a98" y="210.3"/>
      </g>
     </g>
     <g id="line2d_40">
      <g>
       <use style="fill:#262626;stroke:#262626;" x="399.435397727" xlink:href="#m219da94a98" y="49.1"/>
      </g>
     </g>
     <g id="text_12">
      <text style="fill:#262626;font-family:Liberation Sans;font-size:18.0px;font-style:normal;text-anchor:middle;" transform="rotate(-0.000000, 399.435398, 230.344375)" x="399.435397727" y="230.344375">2</text>
     </g>
    </g>
    <g id="xtick_8">
     <g id="line2d_41">
      <path clip-path="url(#p7a4ee0c860)" d="
M446.9 210.3
L446.9 49.1" style="fill:none;stroke:#ffffff;stroke-linecap:round;"/>
     </g>
     <g id="line2d_42">
      <g>
       <use style="fill:#262626;stroke:#262626;" x="446.900411932" xlink:href="#m219da94a98" y="210.3"/>
      </g>
     </g>
     <g id="line2d_43">
      <g>
       <use style="fill:#262626;stroke:#262626;" x="446.900411932" xlink:href="#m219da94a98" y="49.1"/>
      </g>
     </g>
     <g id="text_13">
      <text style="fill:#262626;font-family:Liberation Sans;font-size:18.0px;font-style:normal;text-anchor:middle;" transform="rotate(-0.000000, 446.900412, 230.344375)" x="446.900411932" y="230.344375">4</text>
     </g>
    </g>
    <g id="xtick_9">
     <g id="line2d_44">
      <path clip-path="url(#p7a4ee0c860)" d="
M494.365 210.3
L494.365 49.1" style="fill:none;stroke:#ffffff;stroke-linecap:round;"/>
     </g>
     <g id="line2d_45">
      <g>
       <use style="fill:#262626;stroke:#262626;" x="494.365426136" xlink:href="#m219da94a98" y="210.3"/>
      </g>
     </g>
     <g id="line2d_46">
      <g>
       <use style="fill:#262626;stroke:#262626;" x="494.365426136" xlink:href="#m219da94a98" y="49.1"/>
      </g>
     </g>
     <g id="text_14">
      <text style="fill:#262626;font-family:Liberation Sans;font-size:18.0px;font-style:normal;text-anchor:middle;" transform="rotate(-0.000000, 494.365426, 230.344375)" x="494.365426136" y="230.344375">6</text>
     </g>
    </g>
    <g id="xtick_10">
     <g id="line2d_47">
      <path clip-path="url(#p7a4ee0c860)" d="
M541.83 210.3
L541.83 49.1" style="fill:none;stroke:#ffffff;stroke-linecap:round;"/>
     </g>
     <g id="line2d_48">
      <g>
       <use style="fill:#262626;stroke:#262626;" x="541.830440341" xlink:href="#m219da94a98" y="210.3"/>
      </g>
     </g>
     <g id="line2d_49">
      <g>
       <use style="fill:#262626;stroke:#262626;" x="541.830440341" xlink:href="#m219da94a98" y="49.1"/>
      </g>
     </g>
     <g id="text_15">
      <text style="fill:#262626;font-family:Liberation Sans;font-size:18.0px;font-style:normal;text-anchor:middle;" transform="rotate(-0.000000, 541.830440, 230.344375)" x="541.830440341" y="230.344375">8</text>
     </g>
    </g>
    <g id="xtick_11">
     <g id="line2d_50">
      <path clip-path="url(#p7a4ee0c860)" d="
M589.295 210.3
L589.295 49.1" style="fill:none;stroke:#ffffff;stroke-linecap:round;"/>
     </g>
     <g id="line2d_51">
      <g>
       <use style="fill:#262626;stroke:#262626;" x="589.295454545" xlink:href="#m219da94a98" y="210.3"/>
      </g>
     </g>
     <g id="line2d_52">
      <g>
       <use style="fill:#262626;stroke:#262626;" x="589.295454545" xlink:href="#m219da94a98" y="49.1"/>
      </g>
     </g>
     <g id="text_16">
      <text style="fill:#262626;font-family:Liberation Sans;font-size:18.0px;font-style:normal;text-anchor:middle;" transform="rotate(-0.000000, 589.295455, 230.344375)" x="589.295454545" y="230.344375">10</text>
     </g>
    </g>
    <g id="text_17">
     <text style="fill:#262626;font-family:Liberation Sans;font-size:18.0px;font-style:normal;text-anchor:middle;" transform="rotate(-0.000000, 470.632919, 252.123750)" x="470.632919034" y="252.12375">Frequency (Hz)</text>
    </g>
   </g>
   <g id="matplotlib.axis_4">
    <g id="ytick_4">
     <g id="line2d_53">
      <path clip-path="url(#p7a4ee0c860)" d="
M351.97 202.973
L589.295 202.973" style="fill:none;stroke:#ffffff;stroke-linecap:round;"/>
     </g>
     <g id="line2d_54">
      <g>
       <use style="fill:#262626;stroke:#262626;" x="351.970383523" xlink:href="#m219da94a98" y="202.972727273"/>
      </g>
     </g>
     <g id="line2d_55">
      <g>
       <use style="fill:#262626;stroke:#262626;" x="589.295454545" xlink:href="#m219da94a98" y="202.972727273"/>
      </g>
     </g>
     <g id="text_18">
      <text style="fill:#262626;font-family:Liberation Sans;font-size:18.0px;font-style:normal;text-anchor:end;" transform="rotate(-0.000000, 344.970384, 207.627415)" x="344.970383523" y="207.627414773">0.0</text>
     </g>
    </g>
    <g id="ytick_5">
     <g id="line2d_56">
      <path clip-path="url(#p7a4ee0c860)" d="
M351.97 129.7
L589.295 129.7" style="fill:none;stroke:#ffffff;stroke-linecap:round;"/>
     </g>
     <g id="line2d_57">
      <g>
       <use style="fill:#262626;stroke:#262626;" x="351.970383523" xlink:href="#m219da94a98" y="129.7"/>
      </g>
     </g>
     <g id="line2d_58">
      <g>
       <use style="fill:#262626;stroke:#262626;" x="589.295454545" xlink:href="#m219da94a98" y="129.7"/>
      </g>
     </g>
     <g id="text_19">
      <text style="fill:#262626;font-family:Liberation Sans;font-size:18.0px;font-style:normal;text-anchor:end;" transform="rotate(-0.000000, 344.970384, 134.354688)" x="344.970383523" y="134.3546875">0.5</text>
     </g>
    </g>
    <g id="ytick_6">
     <g id="line2d_59">
      <path clip-path="url(#p7a4ee0c860)" d="
M351.97 56.4273
L589.295 56.4273" style="fill:none;stroke:#ffffff;stroke-linecap:round;"/>
     </g>
     <g id="line2d_60">
      <g>
       <use style="fill:#262626;stroke:#262626;" x="351.970383523" xlink:href="#m219da94a98" y="56.4272727273"/>
      </g>
     </g>
     <g id="line2d_61">
      <g>
       <use style="fill:#262626;stroke:#262626;" x="589.295454545" xlink:href="#m219da94a98" y="56.4272727273"/>
      </g>
     </g>
     <g id="text_20">
      <text style="fill:#262626;font-family:Liberation Sans;font-size:18.0px;font-style:normal;text-anchor:end;" transform="rotate(-0.000000, 344.970384, 61.081960)" x="344.970383523" y="61.0819602273">1.0</text>
     </g>
    </g>
   </g>
   <g id="line2d_62">
    <path clip-path="url(#p7a4ee0c860)" d="
M351.97 56.4273
L357.764 56.5644
L363.559 56.975
L369.353 57.6568
L375.147 58.6061
L380.941 59.8177
L386.735 61.2849
L392.529 62.9999
L398.323 64.9533
L404.117 67.1349
L409.911 69.5329
L415.705 72.1349
L421.499 74.9273
L427.293 77.8961
L433.087 81.0262
L438.881 84.3021
L444.675 87.708
L450.47 91.2277
L456.264 94.8447
L462.058 98.5427
L467.852 102.305
L473.646 106.116
L479.44 109.959
L485.234 113.82
L491.028 117.682
L496.822 121.532
L502.616 125.356
L508.41 129.14
L514.204 132.874
L519.998 136.544
L525.792 140.142
L531.587 143.657
L537.381 147.082
L543.175 150.408
L548.969 153.629
L554.763 156.74
L560.557 159.736
L566.351 162.613
L572.145 165.368
L577.939 168.001
L583.733 170.509" style="fill:none;stroke:#4c72b0;stroke-linecap:round;stroke-width:1.5;"/>
   </g>
   <g id="line2d_63">
    <path clip-path="url(#p7a4ee0c860)" d="
M351.97 56.4273
L354.867 56.5644
L357.764 56.975
L360.661 57.6568
L363.559 58.6061
L366.456 59.8177
L369.353 61.2849
L372.25 62.9999
L375.147 64.9534
L378.044 67.1349
L380.941 69.5329
L383.838 72.1349
L386.735 74.9274
L389.632 77.8962
L392.529 81.0263
L395.426 84.3022
L398.323 87.7081
L401.22 91.2278
L404.117 94.8448
L407.014 98.5428
L409.911 102.305
L412.808 106.116
L415.705 109.959
L418.602 113.82
L421.499 117.682
L424.396 121.532
L427.293 125.356
L430.19 129.14
L433.087 132.874
L435.984 136.544
L438.881 140.142
L441.778 143.657
L444.675 147.082
L447.573 150.408
L450.47 153.629
L453.367 156.74
L456.264 159.736
L459.161 162.613
L462.058 165.368
L464.955 168.001
L467.852 170.509
L470.749 172.893
L473.646 175.152
L476.543 177.289
L479.44 179.305
L482.337 181.202
L485.234 182.983
L488.131 184.651
L491.028 186.211
L493.925 187.665
L496.822 189.018
L499.719 190.274
L502.616 191.438
L505.513 192.514
L508.41 193.508
L511.307 194.422
L514.204 195.263
L517.101 196.035
L519.998 196.741
L522.895 197.387
L525.792 197.976
L528.689 198.513
L531.587 199
L534.484 199.443
L537.381 199.843
L540.278 200.205
L543.175 200.532
L546.072 200.825
L548.969 201.089
L551.866 201.325
L554.763 201.536
L557.66 201.723
L560.557 201.89
L563.454 202.037
L566.351 202.167
L569.248 202.281
L572.145 202.38
L575.042 202.466
L577.939 202.541
L580.836 202.604
L583.733 202.659
L586.63 202.705" style="fill:none;stroke:#55a868;stroke-linecap:round;stroke-width:1.5;"/>
   </g>
   <g id="line2d_64">
    <path clip-path="url(#p7a4ee0c860)" d="
M351.97 56.4273
L353.419 56.5044
L354.867 56.7356
L356.316 57.1202
L357.764 57.6569
L359.213 58.3442
L360.661 59.1798
L362.11 60.1612
L365.007 62.549
L367.904 65.4787
L370.801 68.9149
L373.698 72.8171
L376.595 77.1399
L379.492 81.8341
L383.838 89.4569
L388.183 97.6139
L393.977 108.999
L405.566 131.947
L409.911 140.143
L414.257 147.923
L418.602 155.198
L422.948 161.904
L425.845 166.037
L428.742 169.893
L431.639 173.468
L434.536 176.765
L437.433 179.789
L440.33 182.548
L443.227 185.051
L446.124 187.31
L449.021 189.341
L451.918 191.156
L454.815 192.771
L457.712 194.201
L462.058 196.036
L466.403 197.541
L470.749 198.764
L475.094 199.748
L479.44 200.533
L485.234 201.326
L491.028 201.89
L498.271 202.356
L506.962 202.67
L518.55 202.844
L546.072 202.929
L588.079 202.951
L588.079 202.951" style="fill:none;stroke:#c44e52;stroke-linecap:round;stroke-width:1.5;"/>
   </g>
   <g id="line2d_65">
    <path clip-path="url(#p7a4ee0c860)" d="
M351.97 56.4273
L353.419 56.5644
L354.867 56.975
L356.316 57.6568
L357.764 58.6061
L359.213 59.8177
L360.661 61.285
L362.11 62.9999
L363.559 64.9534
L365.007 67.1349
L367.904 72.1349
L370.801 77.8962
L373.698 84.3022
L376.595 91.2278
L380.941 102.305
L395.426 140.142
L399.771 150.408
L402.668 156.74
L405.566 162.613
L408.463 168.001
L411.36 172.893
L414.257 177.289
L417.154 181.202
L420.051 184.651
L422.948 187.665
L425.845 190.274
L428.742 192.514
L431.639 194.422
L434.536 196.035
L437.433 197.387
L440.33 198.513
L443.227 199.443
L447.573 200.532
L451.918 201.325
L456.264 201.89
L462.058 202.38
L469.3 202.705
L479.44 202.866
L511.307 202.956
L544.623 202.945
L588.079 202.956
L588.079 202.956" style="fill:none;stroke:#8172b2;stroke-linecap:round;stroke-width:1.5;"/>
   </g>
   <g id="line2d_66">
    <path clip-path="url(#p7a4ee0c860)" d="
M351.97 56.4273
L353.419 56.6415
L354.867 57.2822
L356.316 58.344
L357.764 59.8177
L359.213 61.6908
L360.661 63.9475
L362.11 66.5688
L363.559 69.5329
L365.007 72.8157
L367.904 80.2295
L370.801 88.5781
L373.698 97.6116
L379.492 116.717
L385.286 135.633
L388.183 144.522
L391.08 152.834
L393.977 160.466
L396.874 167.354
L399.771 173.469
L402.668 178.812
L405.566 183.411
L408.463 187.311
L411.36 190.573
L414.257 193.267
L417.154 195.462
L420.051 197.231
L422.948 198.639
L425.845 199.747
L428.742 200.608
L431.639 201.269
L435.984 201.966
L440.33 202.403
L446.124 202.715
L453.367 202.861
L477.991 202.963
L498.271 202.97
L588.079 202.96
L588.079 202.96" style="fill:none;stroke:#ccb974;stroke-linecap:round;stroke-width:1.5;"/>
   </g>
   <g id="line2d_67">
    <path clip-path="url(#p7a4ee0c860)" d="
M351.97 56.4273
L352.695 56.5044
L353.419 56.7356
L354.143 57.1201
L354.867 57.6568
L356.316 59.1795
L357.764 61.285
L359.213 63.9475
L360.661 67.1349
L362.11 70.8093
L364.283 77.1383
L366.456 84.3022
L369.353 94.8449
L372.974 108.996
L379.492 134.717
L382.389 145.382
L385.286 155.199
L387.459 161.905
L389.632 168.001
L391.805 173.469
L393.977 178.312
L396.15 182.549
L398.323 186.211
L400.496 189.341
L402.668 191.987
L404.841 194.201
L407.014 196.035
L409.187 197.539
L411.36 198.762
L413.532 199.747
L415.705 200.532
L418.602 201.325
L421.499 201.89
L425.121 202.356
L429.466 202.671
L435.26 202.845
L449.021 202.928
L474.37 202.972
L500.443 202.946
L549.693 202.964
L577.215 202.956
L588.803 202.965
L588.803 202.965" style="fill:none;stroke:#64b5cd;stroke-linecap:round;stroke-width:1.5;"/>
   </g>
   <g id="line2d_68">
    <path clip-path="url(#p7a4ee0c860)" d="
M351.97 56.4273
L352.695 56.5323
L353.419 56.8468
L354.143 57.3696
L354.867 58.0983
L355.592 59.0301
L357.04 61.486
L358.489 64.6965
L359.937 68.6091
L361.386 73.1605
L363.559 81.0263
L365.731 89.8957
L368.628 102.779
L377.319 142.349
L380.216 154.024
L382.389 161.905
L384.562 168.956
L386.735 175.152
L388.908 180.504
L391.08 185.051
L392.529 187.665
L393.977 189.969
L395.426 191.987
L396.874 193.743
L398.323 195.263
L400.496 197.152
L402.668 198.639
L404.841 199.796
L407.014 200.683
L409.187 201.353
L412.084 201.984
L414.981 202.391
L418.602 202.683
L423.672 202.85
L437.433 202.945
L449.745 202.937
L510.583 202.956
L539.553 202.97
L563.454 202.955
L588.803 202.966
L588.803 202.966" style="fill:none;stroke:#4c72b0;stroke-linecap:round;stroke-width:1.5;"/>
   </g>
   <g id="line2d_69">
    <path clip-path="url(#p7a4ee0c860)" d="
M351.97 56.4273
L352.695 56.5644
L353.419 56.975
L354.143 57.6568
L354.867 58.6061
L355.592 59.8177
L357.04 62.9999
L358.489 67.1349
L359.937 72.1349
L361.386 77.8962
L363.559 87.7082
L366.456 102.305
L374.422 143.657
L376.595 153.629
L378.768 162.613
L380.941 170.509
L383.114 177.289
L384.562 181.202
L386.011 184.651
L387.459 187.665
L388.908 190.274
L390.356 192.514
L391.805 194.422
L393.253 196.035
L394.702 197.387
L396.15 198.513
L398.323 199.843
L400.496 200.825
L402.668 201.536
L404.841 202.037
L407.738 202.466
L411.36 202.744
L416.429 202.875
L434.536 202.94
L469.3 202.953
L491.752 202.953
L528.689 202.961
L558.384 202.964
L588.803 202.967
L588.803 202.967" style="fill:none;stroke:#55a868;stroke-linecap:round;stroke-width:1.5;"/>
   </g>
   <g id="line2d_70">
    <path clip-path="url(#p7a4ee0c860)" d="
M351.97 56.4273
L352.695 56.6008
L353.419 57.1201
L354.143 57.9817
L354.867 59.1795
L355.592 60.7053
L356.316 62.5484
L357.764 67.1349
L359.213 72.8157
L360.661 79.442
L362.834 90.7822
L365.731 107.554
L370.801 137.451
L372.974 149.173
L375.147 159.736
L377.319 168.956
L378.768 174.319
L380.216 179.06
L381.665 183.198
L383.114 186.768
L384.562 189.814
L386.011 192.384
L387.459 194.531
L388.908 196.307
L390.356 197.762
L391.805 198.942
L393.253 199.891
L394.702 200.646
L396.874 201.485
L399.047 202.054
L401.944 202.514
L405.566 202.783
L410.635 202.888
L435.984 202.954
L454.815 202.946
L487.407 202.962
L509.859 202.965
L531.587 202.955
L588.803 202.968
L588.803 202.968" style="fill:none;stroke:#c44e52;stroke-linecap:round;stroke-width:1.5;"/>
   </g>
   <g id="line2d_71">
    <path clip-path="url(#p7a4ee0c860)" d="
M351.97 56.4273
L352.695 56.6415
L353.419 57.2822
L354.143 58.344
L354.867 59.8177
L355.592 61.6908
L356.316 63.9475
L357.764 69.5329
L359.213 76.3907
L360.661 84.3022
L362.834 97.6116
L370.801 148.758
L372.974 160.466
L374.422 167.354
L375.871 173.469
L377.319 178.812
L378.768 183.411
L380.216 187.311
L381.665 190.573
L383.114 193.267
L384.562 195.462
L386.011 197.231
L387.459 198.639
L388.908 199.747
L390.356 200.608
L391.805 201.269
L393.977 201.966
L396.15 202.403
L399.047 202.715
L402.668 202.861
L414.981 202.963
L425.121 202.97
L482.337 202.964
L499.719 202.955
L553.314 202.968
L580.836 202.964
L588.803 202.969
L588.803 202.969" style="fill:none;stroke:#8172b2;stroke-linecap:round;stroke-width:1.5;"/>
   </g>
   <g id="patch_8">
    <path d="
M351.97 49.1
L589.295 49.1" style="fill:none;"/>
   </g>
   <g id="patch_9">
    <path d="
M589.295 210.3
L589.295 49.1" style="fill:none;"/>
   </g>
   <g id="patch_10">
    <path d="
M351.97 210.3
L589.295 210.3" style="fill:none;"/>
   </g>
   <g id="patch_11">
    <path d="
M351.97 210.3
L351.97 49.1" style="fill:none;"/>
   </g>
   <g id="text_21">
    <text style="fill:#262626;font-family:Liberation Sans;font-size:18.0px;font-style:normal;" transform="translate(351.093231534 24.71175)">(B) Fourier magnitude spectra</text>
    <text style="fill:#262626;font-family:Liberation Sans;font-size:18.0px;font-style:normal;" transform="translate(404.921669034 44.1)">of speed profiles</text>
   </g>
  </g>
  <g id="axes_3">
   <g id="patch_12">
    <path d="
M61.5625 447
L589.295 447
L589.295 285.8
L61.5625 285.8
z
" style="fill:#eaeaf2;"/>
   </g>
   <g id="matplotlib.axis_5">
    <g id="xtick_12">
     <g id="line2d_72">
      <path clip-path="url(#pf2c33883fa)" d="
M61.5625 447
L61.5625 285.8" style="fill:none;stroke:#ffffff;stroke-linecap:round;"/>
     </g>
     <g id="line2d_73">
      <g>
       <use style="fill:#262626;stroke:#262626;" x="61.5625" xlink:href="#m219da94a98" y="447.0"/>
      </g>
     </g>
     <g id="line2d_74">
      <g>
       <use style="fill:#262626;stroke:#262626;" x="61.5625" xlink:href="#m219da94a98" y="285.8"/>
      </g>
     </g>
     <g id="text_22">
      <text style="fill:#262626;font-family:Liberation Sans;font-size:18.0px;font-style:normal;text-anchor:middle;" transform="rotate(-0.000000, 61.562500, 467.044375)" x="61.5625" y="467.044375">0.2</text>
     </g>
    </g>
    <g id="xtick_13">
     <g id="line2d_75">
      <path clip-path="url(#pf2c33883fa)" d="
M120.199 447
L120.199 285.8" style="fill:none;stroke:#ffffff;stroke-linecap:round;"/>
     </g>
     <g id="line2d_76">
      <g>
       <use style="fill:#262626;stroke:#262626;" x="120.199494949" xlink:href="#m219da94a98" y="447.0"/>
      </g>
     </g>
     <g id="line2d_77">
      <g>
       <use style="fill:#262626;stroke:#262626;" x="120.199494949" xlink:href="#m219da94a98" y="285.8"/>
      </g>
     </g>
     <g id="text_23">
      <text style="fill:#262626;font-family:Liberation Sans;font-size:18.0px;font-style:normal;text-anchor:middle;" transform="rotate(-0.000000, 120.199495, 467.044375)" x="120.199494949" y="467.044375">0.4</text>
     </g>
    </g>
    <g id="xtick_14">
     <g id="line2d_78">
      <path clip-path="url(#pf2c33883fa)" d="
M178.836 447
L178.836 285.8" style="fill:none;stroke:#ffffff;stroke-linecap:round;"/>
     </g>
     <g id="line2d_79">
      <g>
       <use style="fill:#262626;stroke:#262626;" x="178.836489899" xlink:href="#m219da94a98" y="447.0"/>
      </g>
     </g>
     <g id="line2d_80">
      <g>
       <use style="fill:#262626;stroke:#262626;" x="178.836489899" xlink:href="#m219da94a98" y="285.8"/>
      </g>
     </g>
     <g id="text_24">
      <text style="fill:#262626;font-family:Liberation Sans;font-size:18.0px;font-style:normal;text-anchor:middle;" transform="rotate(-0.000000, 178.836490, 467.044375)" x="178.836489899" y="467.044375">0.6</text>
     </g>
    </g>
    <g id="xtick_15">
     <g id="line2d_81">
      <path clip-path="url(#pf2c33883fa)" d="
M237.473 447
L237.473 285.8" style="fill:none;stroke:#ffffff;stroke-linecap:round;"/>
     </g>
     <g id="line2d_82">
      <g>
       <use style="fill:#262626;stroke:#262626;" x="237.473484848" xlink:href="#m219da94a98" y="447.0"/>
      </g>
     </g>
     <g id="line2d_83">
      <g>
       <use style="fill:#262626;stroke:#262626;" x="237.473484848" xlink:href="#m219da94a98" y="285.8"/>
      </g>
     </g>
     <g id="text_25">
      <text style="fill:#262626;font-family:Liberation Sans;font-size:18.0px;font-style:normal;text-anchor:middle;" transform="rotate(-0.000000, 237.473485, 467.044375)" x="237.473484848" y="467.044375">0.8</text>
     </g>
    </g>
    <g id="xtick_16">
     <g id="line2d_84">
      <path clip-path="url(#pf2c33883fa)" d="
M296.11 447
L296.11 285.8" style="fill:none;stroke:#ffffff;stroke-linecap:round;"/>
     </g>
     <g id="line2d_85">
      <g>
       <use style="fill:#262626;stroke:#262626;" x="296.110479798" xlink:href="#m219da94a98" y="447.0"/>
      </g>
     </g>
     <g id="line2d_86">
      <g>
       <use style="fill:#262626;stroke:#262626;" x="296.110479798" xlink:href="#m219da94a98" y="285.8"/>
      </g>
     </g>
     <g id="text_26">
      <text style="fill:#262626;font-family:Liberation Sans;font-size:18.0px;font-style:normal;text-anchor:middle;" transform="rotate(-0.000000, 296.110480, 467.044375)" x="296.110479798" y="467.044375">1.0</text>
     </g>
    </g>
    <g id="xtick_17">
     <g id="line2d_87">
      <path clip-path="url(#pf2c33883fa)" d="
M354.747 447
L354.747 285.8" style="fill:none;stroke:#ffffff;stroke-linecap:round;"/>
     </g>
     <g id="line2d_88">
      <g>
       <use style="fill:#262626;stroke:#262626;" x="354.747474747" xlink:href="#m219da94a98" y="447.0"/>
      </g>
     </g>
     <g id="line2d_89">
      <g>
       <use style="fill:#262626;stroke:#262626;" x="354.747474747" xlink:href="#m219da94a98" y="285.8"/>
      </g>
     </g>
     <g id="text_27">
      <text style="fill:#262626;font-family:Liberation Sans;font-size:18.0px;font-style:normal;text-anchor:middle;" transform="rotate(-0.000000, 354.747475, 467.044375)" x="354.747474747" y="467.044375">1.2</text>
     </g>
    </g>
    <g id="xtick_18">
     <g id="line2d_90">
      <path clip-path="url(#pf2c33883fa)" d="
M413.384 447
L413.384 285.8" style="fill:none;stroke:#ffffff;stroke-linecap:round;"/>
     </g>
     <g id="line2d_91">
      <g>
       <use style="fill:#262626;stroke:#262626;" x="413.384469697" xlink:href="#m219da94a98" y="447.0"/>
      </g>
     </g>
     <g id="line2d_92">
      <g>
       <use style="fill:#262626;stroke:#262626;" x="413.384469697" xlink:href="#m219da94a98" y="285.8"/>
      </g>
     </g>
     <g id="text_28">
      <text style="fill:#262626;font-family:Liberation Sans;font-size:18.0px;font-style:normal;text-anchor:middle;" transform="rotate(-0.000000, 413.384470, 467.044375)" x="413.384469697" y="467.044375">1.4</text>
     </g>
    </g>
    <g id="xtick_19">
     <g id="line2d_93">
      <path clip-path="url(#pf2c33883fa)" d="
M472.021 447
L472.021 285.8" style="fill:none;stroke:#ffffff;stroke-linecap:round;"/>
     </g>
     <g id="line2d_94">
      <g>
       <use style="fill:#262626;stroke:#262626;" x="472.021464646" xlink:href="#m219da94a98" y="447.0"/>
      </g>
     </g>
     <g id="line2d_95">
      <g>
       <use style="fill:#262626;stroke:#262626;" x="472.021464646" xlink:href="#m219da94a98" y="285.8"/>
      </g>
     </g>
     <g id="text_29">
      <text style="fill:#262626;font-family:Liberation Sans;font-size:18.0px;font-style:normal;text-anchor:middle;" transform="rotate(-0.000000, 472.021465, 467.044375)" x="472.021464646" y="467.044375">1.6</text>
     </g>
    </g>
    <g id="xtick_20">
     <g id="line2d_96">
      <path clip-path="url(#pf2c33883fa)" d="
M530.658 447
L530.658 285.8" style="fill:none;stroke:#ffffff;stroke-linecap:round;"/>
     </g>
     <g id="line2d_97">
      <g>
       <use style="fill:#262626;stroke:#262626;" x="530.658459596" xlink:href="#m219da94a98" y="447.0"/>
      </g>
     </g>
     <g id="line2d_98">
      <g>
       <use style="fill:#262626;stroke:#262626;" x="530.658459596" xlink:href="#m219da94a98" y="285.8"/>
      </g>
     </g>
     <g id="text_30">
      <text style="fill:#262626;font-family:Liberation Sans;font-size:18.0px;font-style:normal;text-anchor:middle;" transform="rotate(-0.000000, 530.658460, 467.044375)" x="530.658459596" y="467.044375">1.8</text>
     </g>
    </g>
    <g id="xtick_21">
     <g id="line2d_99">
      <path clip-path="url(#pf2c33883fa)" d="
M589.295 447
L589.295 285.8" style="fill:none;stroke:#ffffff;stroke-linecap:round;"/>
     </g>
     <g id="line2d_100">
      <g>
       <use style="fill:#262626;stroke:#262626;" x="589.295454545" xlink:href="#m219da94a98" y="447.0"/>
      </g>
     </g>
     <g id="line2d_101">
      <g>
       <use style="fill:#262626;stroke:#262626;" x="589.295454545" xlink:href="#m219da94a98" y="285.8"/>
      </g>
     </g>
     <g id="text_31">
      <text style="fill:#262626;font-family:Liberation Sans;font-size:18.0px;font-style:normal;text-anchor:middle;" transform="rotate(-0.000000, 589.295455, 467.044375)" x="589.295454545" y="467.044375">2.0</text>
     </g>
    </g>
    <g id="text_32">
     <text style="fill:#262626;font-family:Liberation Sans;font-size:18.0px;font-style:normal;text-anchor:middle;" transform="rotate(-0.000000, 325.428977, 488.823750)" x="325.428977273" y="488.82375">Duration (sec)</text>
    </g>
   </g>
   <g id="matplotlib.axis_6">
    <g id="ytick_7">
     <g id="line2d_102">
      <path clip-path="url(#pf2c33883fa)" d="
M61.5625 447
L589.295 447" style="fill:none;stroke:#ffffff;stroke-linecap:round;"/>
     </g>
     <g id="line2d_103">
      <g>
       <use style="fill:#262626;stroke:#262626;" x="61.5625" xlink:href="#m219da94a98" y="447.0"/>
      </g>
     </g>
     <g id="line2d_104">
      <g>
       <use style="fill:#262626;stroke:#262626;" x="589.295454545" xlink:href="#m219da94a98" y="447.0"/>
      </g>
     </g>
     <g id="text_33">
      <text style="fill:#262626;font-family:Liberation Sans;font-size:18.0px;font-style:normal;text-anchor:end;" transform="rotate(-0.000000, 54.562500, 451.654688)" x="54.5625" y="451.6546875">−1.95</text>
     </g>
    </g>
    <g id="ytick_8">
     <g id="line2d_105">
      <path clip-path="url(#pf2c33883fa)" d="
M61.5625 425.507
L589.295 425.507" style="fill:none;stroke:#ffffff;stroke-linecap:round;"/>
     </g>
     <g id="line2d_106">
      <g>
       <use style="fill:#262626;stroke:#262626;" x="61.5625" xlink:href="#m219da94a98" y="425.506666667"/>
      </g>
     </g>
     <g id="line2d_107">
      <g>
       <use style="fill:#262626;stroke:#262626;" x="589.295454545" xlink:href="#m219da94a98" y="425.506666667"/>
      </g>
     </g>
     <g id="text_34">
      <text style="fill:#262626;font-family:Liberation Sans;font-size:18.0px;font-style:normal;text-anchor:end;" transform="rotate(-0.000000, 54.562500, 430.161354)" x="54.5625" y="430.161354167">−1.85</text>
     </g>
    </g>
    <g id="ytick_9">
     <g id="line2d_108">
      <path clip-path="url(#pf2c33883fa)" d="
M61.5625 404.013
L589.295 404.013" style="fill:none;stroke:#ffffff;stroke-linecap:round;"/>
     </g>
     <g id="line2d_109">
      <g>
       <use style="fill:#262626;stroke:#262626;" x="61.5625" xlink:href="#m219da94a98" y="404.013333333"/>
      </g>
     </g>
     <g id="line2d_110">
      <g>
       <use style="fill:#262626;stroke:#262626;" x="589.295454545" xlink:href="#m219da94a98" y="404.013333333"/>
      </g>
     </g>
     <g id="text_35">
      <text style="fill:#262626;font-family:Liberation Sans;font-size:18.0px;font-style:normal;text-anchor:end;" transform="rotate(-0.000000, 54.562500, 408.668021)" x="54.5625" y="408.668020833">−1.75</text>
     </g>
    </g>
    <g id="ytick_10">
     <g id="line2d_111">
      <path clip-path="url(#pf2c33883fa)" d="
M61.5625 382.52
L589.295 382.52" style="fill:none;stroke:#ffffff;stroke-linecap:round;"/>
     </g>
     <g id="line2d_112">
      <g>
       <use style="fill:#262626;stroke:#262626;" x="61.5625" xlink:href="#m219da94a98" y="382.52"/>
      </g>
     </g>
     <g id="line2d_113">
      <g>
       <use style="fill:#262626;stroke:#262626;" x="589.295454545" xlink:href="#m219da94a98" y="382.52"/>
      </g>
     </g>
     <g id="text_36">
      <text style="fill:#262626;font-family:Liberation Sans;font-size:18.0px;font-style:normal;text-anchor:end;" transform="rotate(-0.000000, 54.562500, 387.174687)" x="54.5625" y="387.1746875">−1.65</text>
     </g>
    </g>
    <g id="ytick_11">
     <g id="line2d_114">
      <path clip-path="url(#pf2c33883fa)" d="
M61.5625 361.027
L589.295 361.027" style="fill:none;stroke:#ffffff;stroke-linecap:round;"/>
     </g>
     <g id="line2d_115">
      <g>
       <use style="fill:#262626;stroke:#262626;" x="61.5625" xlink:href="#m219da94a98" y="361.026666667"/>
      </g>
     </g>
     <g id="line2d_116">
      <g>
       <use style="fill:#262626;stroke:#262626;" x="589.295454545" xlink:href="#m219da94a98" y="361.026666667"/>
      </g>
     </g>
     <g id="text_37">
      <text style="fill:#262626;font-family:Liberation Sans;font-size:18.0px;font-style:normal;text-anchor:end;" transform="rotate(-0.000000, 54.562500, 365.681354)" x="54.5625" y="365.681354167">−1.55</text>
     </g>
    </g>
   </g>
   <g id="line2d_117">
    <path clip-path="url(#pf2c33883fa)" d="
M61.5625 305.18
L120.199 354.402
L178.836 377.315
L237.473 391.564
L296.11 401.375
L354.747 408.696
L413.384 414.178
L472.021 418.51
L530.658 422.024
L589.295 424.933" style="fill:none;stroke:#4c72b0;stroke-linecap:round;stroke-width:2;"/>
   </g>
   <g id="patch_13">
    <path d="
M61.5625 285.8
L589.295 285.8" style="fill:none;"/>
   </g>
   <g id="patch_14">
    <path d="
M589.295 447
L589.295 285.8" style="fill:none;"/>
   </g>
   <g id="patch_15">
    <path d="
M61.5625 447
L589.295 447" style="fill:none;"/>
   </g>
   <g id="patch_16">
    <path d="
M61.5625 447
L61.5625 285.8" style="fill:none;"/>
   </g>
   <g id="text_38">
    <text style="fill:#262626;font-family:Liberation Sans;font-size:18.0px;font-style:normal;text-anchor:middle;" transform="rotate(-0.000000, 325.428977, 280.800000)" x="325.428977273" y="280.8">(C) SAL for different movement durations</text>
   </g>
  </g>
 </g>
 <defs>
  <clipPath id="p7a4ee0c860">
   <rect height="161.2" width="237.325071023" x="351.970383523" y="49.1"/>
  </clipPath>
  <clipPath id="p65a8e0f494">
   <rect height="161.2" width="237.325071023" x="61.5625" y="49.1"/>
  </clipPath>
  <clipPath id="pf2c33883fa">
   <rect height="161.2" width="527.732954545" x="61.5625" y="285.8"/>
  </clipPath>
 </defs>
</svg>
