<?xml version="1.0" encoding="utf-8" standalone="no"?>
<!DOCTYPE svg PUBLIC "-//W3C//DTD SVG 1.1//EN"
  "http://www.w3.org/Graphics/SVG/1.1/DTD/svg11.dtd">
<!-- Created with matplotlib (http://matplotlib.org/) -->
<svg height="504pt" version="1.1" viewBox="0 0 612 504" width="612pt" xmlns="http://www.w3.org/2000/svg" xmlns:xlink="http://www.w3.org/1999/xlink">
 <defs>
  <style type="text/css">
*{stroke-linecap:butt;stroke-linejoin:round;}
  </style>
 </defs>
 <g id="figure_1">
  <g id="patch_1">
   <path d="
M0 504
L612 504
L612 0
L0 0
z
" style="fill:#ffffff;"/>
  </g>
  <g id="axes_1">
   <g id="patch_2">
    <path d="
M63.7225 209.22
L297.765 209.22
L297.765 51.26
L63.7225 51.26
z
" style="fill:#eaeaf2;"/>
   </g>
   <g id="matplotlib.axis_1">
    <g id="xtick_1">
     <g id="line2d_1">
      <path clip-path="url(#p2f147aec1f)" d="
M63.7225 209.22
L63.7225 51.26" style="fill:none;stroke:#ffffff;stroke-linecap:round;"/>
     </g>
     <g id="line2d_2">
      <defs>
       <path d="
M0 0
L0 0" id="m219da94a98" style="stroke:#262626;"/>
      </defs>
      <g>
       <use style="fill:#262626;stroke:#262626;" x="63.7225" xlink:href="#m219da94a98" y="209.22"/>
      </g>
     </g>
     <g id="line2d_3">
      <g>
       <use style="fill:#262626;stroke:#262626;" x="63.7225" xlink:href="#m219da94a98" y="51.26"/>
      </g>
     </g>
     <g id="text_1">
      <text style="fill:#262626;font-family:Liberation Sans;font-size:18.0px;font-style:normal;text-anchor:middle;" transform="rotate(-0.000000, 63.722500, 229.264375)" x="63.7225" y="229.264375">0.0</text>
     </g>
    </g>
    <g id="xtick_2">
     <g id="line2d_4">
      <path clip-path="url(#p2f147aec1f)" d="
M122.233 209.22
L122.233 51.26" style="fill:none;stroke:#ffffff;stroke-linecap:round;"/>
     </g>
     <g id="line2d_5">
      <g>
       <use style="fill:#262626;stroke:#262626;" x="122.233220881" xlink:href="#m219da94a98" y="209.22"/>
      </g>
     </g>
     <g id="line2d_6">
      <g>
       <use style="fill:#262626;stroke:#262626;" x="122.233220881" xlink:href="#m219da94a98" y="51.26"/>
      </g>
     </g>
     <g id="text_2">
      <text style="fill:#262626;font-family:Liberation Sans;font-size:18.0px;font-style:normal;text-anchor:middle;" transform="rotate(-0.000000, 122.233221, 229.264375)" x="122.233220881" y="229.264375">0.5</text>
     </g>
    </g>
    <g id="xtick_3">
     <g id="line2d_7">
      <path clip-path="url(#p2f147aec1f)" d="
M180.744 209.22
L180.744 51.26" style="fill:none;stroke:#ffffff;stroke-linecap:round;"/>
     </g>
     <g id="line2d_8">
      <g>
       <use style="fill:#262626;stroke:#262626;" x="180.743941761" xlink:href="#m219da94a98" y="209.22"/>
      </g>
     </g>
     <g id="line2d_9">
      <g>
       <use style="fill:#262626;stroke:#262626;" x="180.743941761" xlink:href="#m219da94a98" y="51.26"/>
      </g>
     </g>
     <g id="text_3">
      <text style="fill:#262626;font-family:Liberation Sans;font-size:18.0px;font-style:normal;text-anchor:middle;" transform="rotate(-0.000000, 180.743942, 229.264375)" x="180.743941761" y="229.264375">1.0</text>
     </g>
    </g>
    <g id="xtick_4">
     <g id="line2d_10">
      <path clip-path="url(#p2f147aec1f)" d="
M239.255 209.22
L239.255 51.26" style="fill:none;stroke:#ffffff;stroke-linecap:round;"/>
     </g>
     <g id="line2d_11">
      <g>
       <use style="fill:#262626;stroke:#262626;" x="239.254662642" xlink:href="#m219da94a98" y="209.22"/>
      </g>
     </g>
     <g id="line2d_12">
      <g>
       <use style="fill:#262626;stroke:#262626;" x="239.254662642" xlink:href="#m219da94a98" y="51.26"/>
      </g>
     </g>
     <g id="text_4">
      <text style="fill:#262626;font-family:Liberation Sans;font-size:18.0px;font-style:normal;text-anchor:middle;" transform="rotate(-0.000000, 239.254663, 229.264375)" x="239.254662642" y="229.264375">1.5</text>
     </g>
    </g>
    <g id="xtick_5">
     <g id="line2d_13">
      <path clip-path="url(#p2f147aec1f)" d="
M297.765 209.22
L297.765 51.26" style="fill:none;stroke:#ffffff;stroke-linecap:round;"/>
     </g>
     <g id="line2d_14">
      <g>
       <use style="fill:#262626;stroke:#262626;" x="297.765383523" xlink:href="#m219da94a98" y="209.22"/>
      </g>
     </g>
     <g id="line2d_15">
      <g>
       <use style="fill:#262626;stroke:#262626;" x="297.765383523" xlink:href="#m219da94a98" y="51.26"/>
      </g>
     </g>
     <g id="text_5">
      <text style="fill:#262626;font-family:Liberation Sans;font-size:18.0px;font-style:normal;text-anchor:middle;" transform="rotate(-0.000000, 297.765384, 229.264375)" x="297.765383523" y="229.264375">2.0</text>
     </g>
    </g>
    <g id="text_6">
     <text style="fill:#262626;font-family:Liberation Sans;font-size:18.0px;font-style:normal;text-anchor:middle;" transform="rotate(-0.000000, 180.743942, 251.043750)" x="180.743941761" y="251.04375">Time (sec)</text>
    </g>
   </g>
   <g id="matplotlib.axis_2">
    <g id="ytick_1">
     <g id="line2d_16">
      <path clip-path="url(#p2f147aec1f)" d="
M63.7225 202.04
L297.765 202.04" style="fill:none;stroke:#ffffff;stroke-linecap:round;"/>
     </g>
     <g id="line2d_17">
      <g>
       <use style="fill:#262626;stroke:#262626;" x="63.7225" xlink:href="#m219da94a98" y="202.04"/>
      </g>
     </g>
     <g id="line2d_18">
      <g>
       <use style="fill:#262626;stroke:#262626;" x="297.765383523" xlink:href="#m219da94a98" y="202.04"/>
      </g>
     </g>
     <g id="text_7">
      <text style="fill:#262626;font-family:Liberation Sans;font-size:18.0px;font-style:normal;text-anchor:end;" transform="rotate(-0.000000, 56.722500, 206.694687)" x="56.7225" y="206.6946875">0.0</text>
     </g>
    </g>
    <g id="ytick_2">
     <g id="line2d_19">
      <path clip-path="url(#p2f147aec1f)" d="
M63.7225 130.24
L297.765 130.24" style="fill:none;stroke:#ffffff;stroke-linecap:round;"/>
     </g>
     <g id="line2d_20">
      <g>
       <use style="fill:#262626;stroke:#262626;" x="63.7225" xlink:href="#m219da94a98" y="130.24"/>
      </g>
     </g>
     <g id="line2d_21">
      <g>
       <use style="fill:#262626;stroke:#262626;" x="297.765383523" xlink:href="#m219da94a98" y="130.24"/>
      </g>
     </g>
     <g id="text_8">
      <text style="fill:#262626;font-family:Liberation Sans;font-size:18.0px;font-style:normal;text-anchor:end;" transform="rotate(-0.000000, 56.722500, 134.894688)" x="56.7225" y="134.8946875">0.5</text>
     </g>
    </g>
    <g id="ytick_3">
     <g id="line2d_22">
      <path clip-path="url(#p2f147aec1f)" d="
M63.7225 58.44
L297.765 58.44" style="fill:none;stroke:#ffffff;stroke-linecap:round;"/>
     </g>
     <g id="line2d_23">
      <g>
       <use style="fill:#262626;stroke:#262626;" x="63.7225" xlink:href="#m219da94a98" y="58.44"/>
      </g>
     </g>
     <g id="line2d_24">
      <g>
       <use style="fill:#262626;stroke:#262626;" x="297.765383523" xlink:href="#m219da94a98" y="58.44"/>
      </g>
     </g>
     <g id="text_9">
      <text style="fill:#262626;font-family:Liberation Sans;font-size:18.0px;font-style:normal;text-anchor:end;" transform="rotate(-0.000000, 56.722500, 63.094688)" x="56.7225" y="63.0946875">1.0</text>
     </g>
    </g>
   </g>
   <g id="line2d_25">
    <path clip-path="url(#p2f147aec1f)" d="
M63.7225 201.763
L64.5417 201.395
L65.1268 200.905
L65.7119 200.102
L66.297 198.836
L66.8821 196.903
L67.4672 194.059
L68.0523 190.022
L68.6374 184.499
L69.3395 175.543
L70.1587 161.536
L71.0949 141.007
L74.1374 68.8993
L74.7225 61.6349
L75.0736 59.2455
L75.3076 58.5297
L75.4246 58.44
L75.5417 58.5297
L75.7757 59.2455
L76.1268 61.6349
L76.5949 67.1403
L77.18 77.2782
L77.9991 95.9241
L80.8076 163.775
L81.6268 177.226
L82.3289 185.736
L83.031 191.799
L83.7332 195.89
L84.3183 198.155
L84.9034 199.662
L85.4885 200.629
L86.0736 201.228
L86.7757 201.639
L87.0098 201.726
L87.0098 201.726" style="fill:none;stroke:#4c72b0;stroke-linecap:round;stroke-width:1.5;"/>
   </g>
   <g id="line2d_26">
    <path clip-path="url(#p2f147aec1f)" d="
M63.7225 201.763
L65.2438 201.432
L66.414 200.965
L67.4672 200.295
L68.4034 199.41
L69.2225 198.336
L70.0417 196.903
L70.8608 195.024
L71.68 192.604
L72.6161 189.045
L73.5523 184.499
L74.4885 178.831
L75.5417 170.989
L76.7119 160.387
L77.9991 146.539
L79.6374 126.321
L83.1481 82.1701
L84.2013 71.8005
L85.0204 65.5288
L85.7225 61.6349
L86.3076 59.5352
L86.7757 58.6418
L87.1268 58.44
L87.3608 58.5297
L87.7119 58.9998
L88.063 59.8688
L88.531 61.6349
L89.1162 64.7802
L89.8183 69.8321
L90.7545 78.4616
L91.9247 91.6107
L93.914 117.146
L96.2545 146.539
L97.6587 161.536
L98.8289 171.94
L99.9991 180.36
L101.052 186.329
L101.989 190.488
L102.925 193.714
L103.861 196.158
L104.797 197.967
L105.733 199.275
L106.669 200.201
L107.723 200.905
L108.893 201.395
L110.297 201.726
L110.414 201.745
L110.414 201.745" style="fill:none;stroke:#55a868;stroke-linecap:round;stroke-width:1.5;"/>
   </g>
   <g id="line2d_27">
    <path clip-path="url(#p2f147aec1f)" d="
M63.7225 201.763
L66.0629 201.42
L67.8183 200.946
L69.2225 200.355
L70.5097 199.58
L71.68 198.621
L72.8502 197.354
L73.9034 195.89
L74.9566 194.059
L76.0098 191.799
L77.18 188.706
L78.3502 184.919
L79.5204 180.36
L80.8076 174.377
L82.0949 167.332
L83.4991 158.43
L85.1374 146.539
L87.1268 130.333
L92.9779 81.3264
L94.2651 72.8342
L95.3183 67.1403
L96.2545 63.1863
L97.0736 60.6663
L97.7757 59.2455
L98.2438 58.6891
L98.7119 58.45
L99.063 58.4799
L99.5311 58.7986
L99.9991 59.4338
L100.584 60.6663
L101.286 62.7711
L102.106 66.0492
L103.042 70.7995
L104.212 78.0641
L105.616 88.3562
L107.606 104.875
L112.52 146.539
L114.276 159.219
L115.797 168.693
L117.201 176.113
L118.489 181.813
L119.776 186.523
L120.946 190.022
L122.116 192.861
L123.286 195.125
L124.457 196.903
L125.627 198.277
L126.797 199.321
L128.084 200.168
L129.489 200.818
L131.127 201.316
L133.116 201.67
L133.935 201.763
L133.935 201.763" style="fill:none;stroke:#c44e52;stroke-linecap:round;stroke-width:1.5;"/>
   </g>
   <g id="line2d_28">
    <path clip-path="url(#p2f147aec1f)" d="
M63.7225 201.763
L66.7651 201.432
L69.1055 200.965
L71.0949 200.34
L72.7332 199.601
L74.2544 198.676
L75.6587 197.567
L77.0629 196.158
L78.3502 194.555
L79.6374 192.604
L80.9247 190.257
L82.2119 187.464
L83.6161 183.854
L85.0204 179.605
L86.5417 174.229
L88.063 168.017
L89.7013 160.387
L91.5736 150.525
L93.68 138.158
L96.4885 120.219
L101.169 90.2042
L103.042 79.6722
L104.563 72.3133
L105.85 67.1403
L106.903 63.7307
L107.84 61.3769
L108.659 59.8688
L109.361 58.9998
L109.946 58.5802
L110.531 58.44
L110.999 58.5297
L111.584 58.8936
L112.169 59.5352
L112.872 60.6663
L113.691 62.4716
L114.627 65.1497
L115.68 68.8993
L116.85 73.8997
L118.254 80.9087
L120.01 90.9053
L122.467 106.397
L128.201 143.109
L130.308 154.983
L132.18 164.323
L133.935 171.94
L135.574 178.038
L137.095 182.854
L138.499 186.619
L139.903 189.784
L141.308 192.408
L142.712 194.555
L144.116 196.288
L145.52 197.67
L146.925 198.757
L148.446 199.662
L150.084 200.384
L151.957 200.965
L154.18 201.414
L156.989 201.736
L157.223 201.754
L157.223 201.754" style="fill:none;stroke:#8172b2;stroke-linecap:round;stroke-width:1.5;"/>
   </g>
   <g id="line2d_29">
    <path clip-path="url(#p2f147aec1f)" d="
M63.7225 201.763
L67.5842 201.424
L70.5097 200.954
L72.9672 200.331
L75.0736 199.564
L76.9459 198.643
L78.7012 197.525
L80.3395 196.21
L81.8608 194.714
L83.3821 192.911
L84.9034 190.76
L86.4247 188.22
L87.9459 185.25
L89.5842 181.528
L91.2225 177.226
L92.9779 171.94
L94.7332 165.936
L96.6055 158.746
L98.7119 149.739
L101.052 138.732
L104.095 123.28
L110.648 89.6464
L112.754 80.1637
L114.51 73.2566
L116.031 68.1784
L117.318 64.6352
L118.489 62.0695
L119.425 60.493
L120.244 59.4738
L121.063 58.7986
L121.765 58.4974
L122.467 58.4544
L123.169 58.6696
L123.872 59.1419
L124.691 60.0145
L125.51 61.2272
L126.446 63.0181
L127.499 65.5288
L128.669 68.8993
L130.074 73.6841
L131.712 80.1637
L133.584 88.5396
L136.042 100.654
L145.638 149.213
L147.861 158.746
L149.85 166.359
L151.723 172.686
L153.478 177.877
L155.233 182.373
L156.872 185.975
L158.51 189.045
L160.148 191.631
L161.786 193.784
L163.425 195.555
L165.063 196.996
L166.701 198.155
L168.457 199.135
L170.329 199.936
L172.435 200.598
L174.893 201.131
L177.818 201.53
L180.627 201.756
L180.627 201.756" style="fill:none;stroke:#ccb974;stroke-linecap:round;stroke-width:1.5;"/>
   </g>
   <g id="line2d_30">
    <path clip-path="url(#p2f147aec1f)" d="
M63.7225 201.763
L68.4034 201.42
L71.914 200.946
L74.7225 200.355
L77.18 199.621
L79.4034 198.73
L81.3927 197.704
L83.2651 196.5
L85.1374 195.024
L86.8927 193.357
L88.6481 191.376
L90.4034 189.045
L92.1587 186.329
L93.914 183.192
L95.6694 179.605
L97.5417 175.255
L99.414 170.344
L101.403 164.504
L103.51 157.632
L105.85 149.213
L108.542 138.637
L111.935 124.296
L120.01 89.7392
L122.35 80.9087
L124.34 74.2619
L125.978 69.5173
L127.499 65.7869
L128.786 63.1863
L129.957 61.2932
L131.01 59.9897
L131.946 59.1587
L132.765 58.6891
L133.584 58.4624
L134.403 58.4799
L135.223 58.7413
L136.042 59.2455
L136.978 60.1155
L137.914 61.2932
L138.967 62.9765
L140.138 65.275
L141.425 68.2969
L142.946 72.486
L144.584 77.6696
L146.574 84.7638
L148.914 93.9907
L152.191 107.924
L159.563 139.589
L162.372 150.525
L164.829 159.219
L167.052 166.288
L169.159 172.252
L171.148 177.226
L173.021 181.337
L174.893 184.919
L176.765 188.007
L178.521 190.488
L180.276 192.604
L182.031 194.393
L183.904 195.981
L185.776 197.282
L187.765 198.395
L189.872 199.321
L192.212 200.102
L194.787 200.727
L197.829 201.228
L201.574 201.605
L204.031 201.757
L204.031 201.757" style="fill:none;stroke:#64b5cd;stroke-linecap:round;stroke-width:1.5;"/>
   </g>
   <g id="line2d_31">
    <path clip-path="url(#p2f147aec1f)" d="
M63.7225 201.763
L69.1055 201.426
L73.2012 200.957
L76.5949 200.346
L79.5204 199.592
L82.0949 198.699
L84.4353 197.655
L86.6587 196.416
L88.7651 194.981
L90.7545 193.357
L92.7438 191.437
L94.7332 189.189
L96.6055 186.742
L98.5949 183.761
L100.584 180.36
L102.574 176.514
L104.68 171.94
L106.786 166.838
L109.01 160.882
L111.467 153.641
L114.159 144.982
L117.201 134.423
L121.297 119.342
L128.201 93.8536
L131.01 84.3878
L133.233 77.6135
L135.223 72.2395
L136.978 68.1278
L138.499 65.0963
L139.903 62.7711
L141.191 61.0607
L142.361 59.8688
L143.414 59.0997
L144.35 58.6615
L145.286 58.4565
L146.223 58.4858
L147.159 58.7492
L148.095 59.2455
L149.148 60.079
L150.201 61.1991
L151.372 62.7711
L152.659 64.8848
L154.063 67.6281
L155.584 71.0821
L157.34 75.6363
L159.329 81.4463
L161.669 89.0125
L164.595 99.2912
L169.276 116.706
L174.659 136.508
L177.818 147.309
L180.627 156.129
L183.084 163.143
L185.425 169.171
L187.648 174.293
L189.755 178.607
L191.861 182.413
L193.85 185.564
L195.84 188.31
L197.829 190.683
L199.818 192.715
L201.808 194.439
L203.914 195.968
L206.021 197.229
L208.244 198.311
L210.701 199.256
L213.393 200.044
L216.435 200.692
L219.946 201.202
L224.159 201.58
L227.435 201.758
L227.435 201.758" style="fill:none;stroke:#4c72b0;stroke-linecap:round;stroke-width:1.5;"/>
   </g>
   <g id="line2d_32">
    <path clip-path="url(#p2f147aec1f)" d="
M63.7225 201.763
L69.9246 201.423
L74.6055 200.951
L78.4672 200.34
L81.7438 199.601
L84.6693 198.717
L87.3608 197.67
L89.8183 196.479
L92.1587 195.1
L94.3821 193.537
L96.6055 191.694
L98.7119 189.663
L100.818 187.326
L102.925 184.658
L105.031 181.635
L107.254 178.038
L109.478 174.006
L111.818 169.277
L114.159 164.05
L116.733 157.732
L119.425 150.525
L122.467 141.711
L125.978 130.831
L131.244 113.682
L136.978 95.1962
L140.138 85.7594
L142.712 78.7618
L144.935 73.363
L146.808 69.3613
L148.563 66.1154
L150.084 63.7307
L151.489 61.9034
L152.776 60.5572
L154.063 59.5352
L155.233 58.8936
L156.286 58.5535
L157.34 58.44
L158.393 58.5535
L159.446 58.8936
L160.499 59.4587
L161.669 60.347
L162.957 61.6349
L164.244 63.2395
L165.648 65.338
L167.169 68.0017
L168.925 71.5471
L170.797 75.8383
L172.904 81.2217
L175.361 88.1276
L178.404 97.3896
L182.733 111.374
L190.34 135.989
L193.85 146.539
L196.893 154.983
L199.584 161.82
L202.159 167.761
L204.616 172.87
L206.957 177.226
L209.18 180.913
L211.404 184.179
L213.627 187.046
L215.85 189.541
L218.074 191.694
L220.297 193.537
L222.521 195.1
L224.861 196.479
L227.318 197.67
L229.893 198.676
L232.701 199.539
L235.861 200.271
L239.489 200.873
L243.701 201.337
L248.967 201.679
L250.84 201.758
L250.84 201.758" style="fill:none;stroke:#55a868;stroke-linecap:round;stroke-width:1.5;"/>
   </g>
   <g id="line2d_33">
    <path clip-path="url(#p2f147aec1f)" d="
M63.7225 201.763
L70.7438 201.42
L76.0098 200.946
L80.3395 200.335
L83.9672 199.608
L87.2438 198.73
L90.2864 197.681
L93.0949 196.472
L95.6694 195.125
L98.1268 193.596
L100.584 191.799
L102.925 189.81
L105.265 187.525
L107.606 184.919
L109.946 181.97
L112.286 178.657
L114.627 174.965
L117.084 170.668
L119.659 165.7
L122.35 160
L125.159 153.521
L128.201 145.936
L131.712 136.554
L136.042 124.296
L147.51 91.4536
L150.552 83.5998
L153.127 77.5388
L155.35 72.8342
L157.34 69.1036
L159.212 66.0492
L160.85 63.768
L162.372 61.9952
L163.776 60.6663
L165.18 59.6416
L166.467 58.9753
L167.638 58.5995
L168.808 58.4444
L169.978 58.5109
L171.148 58.7986
L172.318 59.3061
L173.606 60.1155
L174.893 61.1835
L176.297 62.6367
L177.818 64.5393
L179.457 66.9538
L181.212 69.9379
L183.201 73.7798
L185.425 78.5948
L187.882 84.4712
L190.808 92.0832
L194.435 102.188
L201.34 122.262
L206.489 136.876
L210.116 146.539
L213.276 154.359
L216.201 161.028
L218.893 166.639
L221.467 171.52
L224.042 175.924
L226.499 179.69
L228.957 183.042
L231.297 185.869
L233.638 188.36
L235.978 190.539
L238.436 192.517
L240.893 194.209
L243.467 195.706
L246.159 197.007
L248.967 198.114
L252.01 199.071
L255.287 199.867
L259.031 200.542
L263.361 201.085
L268.51 201.495
L274.244 201.759
L274.244 201.759" style="fill:none;stroke:#c44e52;stroke-linecap:round;stroke-width:1.5;"/>
   </g>
   <g id="line2d_34">
    <path clip-path="url(#p2f147aec1f)" d="
M63.7225 201.763
L71.4459 201.424
L77.297 200.954
L82.0949 200.349
L86.1906 199.613
L89.8183 198.741
L93.0949 197.731
L96.1374 196.566
L99.063 195.205
L101.754 193.714
L104.446 191.964
L107.02 190.022
L109.595 187.792
L112.052 185.372
L114.51 182.649
L117.084 179.452
L119.659 175.886
L122.233 171.94
L124.925 167.401
L127.733 162.216
L130.659 156.338
L133.818 149.476
L137.329 141.289
L141.308 131.426
L146.925 116.838
L154.882 96.2162
L158.51 87.4447
L161.552 80.6593
L164.127 75.4433
L166.467 71.1959
L168.574 67.8265
L170.446 65.2247
L172.201 63.144
L173.84 61.5305
L175.361 60.3266
L176.765 59.4738
L178.169 58.8737
L179.457 58.5486
L180.744 58.44
L182.031 58.5486
L183.318 58.8737
L184.723 59.4738
L186.127 60.3266
L187.648 61.5305
L189.169 63.0181
L190.808 64.9268
L192.563 67.3096
L194.552 70.4085
L196.659 74.1166
L198.999 78.7016
L201.574 84.2378
L204.616 91.3281
L208.361 100.654
L214.329 116.222
L221.35 134.381
L225.446 144.354
L228.957 152.334
L232.116 158.983
L235.042 164.649
L237.85 169.625
L240.542 173.961
L243.233 177.877
L245.808 181.24
L248.382 184.243
L250.957 186.905
L253.531 189.246
L256.106 191.29
L258.797 193.136
L261.489 194.714
L264.297 196.105
L267.223 197.311
L270.382 198.371
L273.776 199.275
L277.521 200.041
L281.733 200.674
L286.648 201.181
L292.616 201.565
L297.648 201.759
L297.648 201.759" style="fill:none;stroke:#8172b2;stroke-linecap:round;stroke-width:1.5;"/>
   </g>
   <g id="patch_3">
    <path d="
M63.7225 51.26
L297.765 51.26" style="fill:none;"/>
   </g>
   <g id="patch_4">
    <path d="
M297.765 209.22
L297.765 51.26" style="fill:none;"/>
   </g>
   <g id="patch_5">
    <path d="
M63.7225 209.22
L297.765 209.22" style="fill:none;"/>
   </g>
   <g id="patch_6">
    <path d="
M63.7225 209.22
L63.7225 51.26" style="fill:none;"/>
   </g>
   <g id="text_10">
    <text style="fill:#262626;font-family:Liberation Sans;font-size:18.0px;font-style:normal;" transform="translate(98.6934730114 26.87175)">(A) Speed profiles of</text>
    <text style="fill:#262626;font-family:Liberation Sans;font-size:18.0px;font-style:normal;" transform="translate(109.188316761 46.26)">different durations</text>
   </g>
  </g>
  <g id="axes_2">
   <g id="patch_7">
    <path d="
M353.008 209.22
L587.051 209.22
L587.051 51.26
L353.008 51.26
z
" style="fill:#eaeaf2;"/>
   </g>
   <g id="matplotlib.axis_3">
    <g id="xtick_6">
     <g id="line2d_35">
      <path clip-path="url(#p30bf902943)" d="
M353.008 209.22
L353.008 51.26" style="fill:none;stroke:#ffffff;stroke-linecap:round;"/>
     </g>
     <g id="line2d_36">
      <g>
       <use style="fill:#262626;stroke:#262626;" x="353.008196023" xlink:href="#m219da94a98" y="209.22"/>
      </g>
     </g>
     <g id="line2d_37">
      <g>
       <use style="fill:#262626;stroke:#262626;" x="353.008196023" xlink:href="#m219da94a98" y="51.26"/>
      </g>
     </g>
     <g id="text_11">
      <text style="fill:#262626;font-family:Liberation Sans;font-size:18.0px;font-style:normal;text-anchor:middle;" transform="rotate(-0.000000, 353.008196, 229.264375)" x="353.008196023" y="229.264375">0</text>
     </g>
    </g>
    <g id="xtick_7">
     <g id="line2d_38">
      <path clip-path="url(#p30bf902943)" d="
M399.817 209.22
L399.817 51.26" style="fill:none;stroke:#ffffff;stroke-linecap:round;"/>
     </g>
     <g id="line2d_39">
      <g>
       <use style="fill:#262626;stroke:#262626;" x="399.816772727" xlink:href="#m219da94a98" y="209.22"/>
      </g>
     </g>
     <g id="line2d_40">
      <g>
       <use style="fill:#262626;stroke:#262626;" x="399.816772727" xlink:href="#m219da94a98" y="51.26"/>
      </g>
     </g>
     <g id="text_12">
      <text style="fill:#262626;font-family:Liberation Sans;font-size:18.0px;font-style:normal;text-anchor:middle;" transform="rotate(-0.000000, 399.816773, 229.264375)" x="399.816772727" y="229.264375">2</text>
     </g>
    </g>
    <g id="xtick_8">
     <g id="line2d_41">
      <path clip-path="url(#p30bf902943)" d="
M446.625 209.22
L446.625 51.26" style="fill:none;stroke:#ffffff;stroke-linecap:round;"/>
     </g>
     <g id="line2d_42">
      <g>
       <use style="fill:#262626;stroke:#262626;" x="446.625349432" xlink:href="#m219da94a98" y="209.22"/>
      </g>
     </g>
     <g id="line2d_43">
      <g>
       <use style="fill:#262626;stroke:#262626;" x="446.625349432" xlink:href="#m219da94a98" y="51.26"/>
      </g>
     </g>
     <g id="text_13">
      <text style="fill:#262626;font-family:Liberation Sans;font-size:18.0px;font-style:normal;text-anchor:middle;" transform="rotate(-0.000000, 446.625349, 229.264375)" x="446.625349432" y="229.264375">4</text>
     </g>
    </g>
    <g id="xtick_9">
     <g id="line2d_44">
      <path clip-path="url(#p30bf902943)" d="
M493.434 209.22
L493.434 51.26" style="fill:none;stroke:#ffffff;stroke-linecap:round;"/>
     </g>
     <g id="line2d_45">
      <g>
       <use style="fill:#262626;stroke:#262626;" x="493.433926136" xlink:href="#m219da94a98" y="209.22"/>
      </g>
     </g>
     <g id="line2d_46">
      <g>
       <use style="fill:#262626;stroke:#262626;" x="493.433926136" xlink:href="#m219da94a98" y="51.26"/>
      </g>
     </g>
     <g id="text_14">
      <text style="fill:#262626;font-family:Liberation Sans;font-size:18.0px;font-style:normal;text-anchor:middle;" transform="rotate(-0.000000, 493.433926, 229.264375)" x="493.433926136" y="229.264375">6</text>
     </g>
    </g>
    <g id="xtick_10">
     <g id="line2d_47">
      <path clip-path="url(#p30bf902943)" d="
M540.243 209.22
L540.243 51.26" style="fill:none;stroke:#ffffff;stroke-linecap:round;"/>
     </g>
     <g id="line2d_48">
      <g>
       <use style="fill:#262626;stroke:#262626;" x="540.242502841" xlink:href="#m219da94a98" y="209.22"/>
      </g>
     </g>
     <g id="line2d_49">
      <g>
       <use style="fill:#262626;stroke:#262626;" x="540.242502841" xlink:href="#m219da94a98" y="51.26"/>
      </g>
     </g>
     <g id="text_15">
      <text style="fill:#262626;font-family:Liberation Sans;font-size:18.0px;font-style:normal;text-anchor:middle;" transform="rotate(-0.000000, 540.242503, 229.264375)" x="540.242502841" y="229.264375">8</text>
     </g>
    </g>
    <g id="xtick_11">
     <g id="line2d_50">
      <path clip-path="url(#p30bf902943)" d="
M587.051 209.22
L587.051 51.26" style="fill:none;stroke:#ffffff;stroke-linecap:round;"/>
     </g>
     <g id="line2d_51">
      <g>
       <use style="fill:#262626;stroke:#262626;" x="587.051079545" xlink:href="#m219da94a98" y="209.22"/>
      </g>
     </g>
     <g id="line2d_52">
      <g>
       <use style="fill:#262626;stroke:#262626;" x="587.051079545" xlink:href="#m219da94a98" y="51.26"/>
      </g>
     </g>
     <g id="text_16">
      <text style="fill:#262626;font-family:Liberation Sans;font-size:18.0px;font-style:normal;text-anchor:middle;" transform="rotate(-0.000000, 587.051080, 229.264375)" x="587.051079545" y="229.264375">10</text>
     </g>
    </g>
    <g id="text_17">
     <text style="fill:#262626;font-family:Liberation Sans;font-size:18.0px;font-style:normal;text-anchor:middle;" transform="rotate(-0.000000, 470.029638, 251.043750)" x="470.029637784" y="251.04375">Frequency (Hz)</text>
    </g>
   </g>
   <g id="matplotlib.axis_4">
    <g id="ytick_4">
     <g id="line2d_53">
      <path clip-path="url(#p30bf902943)" d="
M353.008 202.04
L587.051 202.04" style="fill:none;stroke:#ffffff;stroke-linecap:round;"/>
     </g>
     <g id="line2d_54">
      <g>
       <use style="fill:#262626;stroke:#262626;" x="353.008196023" xlink:href="#m219da94a98" y="202.04"/>
      </g>
     </g>
     <g id="line2d_55">
      <g>
       <use style="fill:#262626;stroke:#262626;" x="587.051079545" xlink:href="#m219da94a98" y="202.04"/>
      </g>
     </g>
     <g id="text_18">
      <text style="fill:#262626;font-family:Liberation Sans;font-size:18.0px;font-style:normal;text-anchor:end;" transform="rotate(-0.000000, 346.008196, 206.694687)" x="346.008196023" y="206.6946875">0.0</text>
     </g>
    </g>
    <g id="ytick_5">
     <g id="line2d_56">
      <path clip-path="url(#p30bf902943)" d="
M353.008 130.24
L587.051 130.24" style="fill:none;stroke:#ffffff;stroke-linecap:round;"/>
     </g>
     <g id="line2d_57">
      <g>
       <use style="fill:#262626;stroke:#262626;" x="353.008196023" xlink:href="#m219da94a98" y="130.24"/>
      </g>
     </g>
     <g id="line2d_58">
      <g>
       <use style="fill:#262626;stroke:#262626;" x="587.051079545" xlink:href="#m219da94a98" y="130.24"/>
      </g>
     </g>
     <g id="text_19">
      <text style="fill:#262626;font-family:Liberation Sans;font-size:18.0px;font-style:normal;text-anchor:end;" transform="rotate(-0.000000, 346.008196, 134.894688)" x="346.008196023" y="134.8946875">0.5</text>
     </g>
    </g>
    <g id="ytick_6">
     <g id="line2d_59">
      <path clip-path="url(#p30bf902943)" d="
M353.008 58.44
L587.051 58.44" style="fill:none;stroke:#ffffff;stroke-linecap:round;"/>
     </g>
     <g id="line2d_60">
      <g>
       <use style="fill:#262626;stroke:#262626;" x="353.008196023" xlink:href="#m219da94a98" y="58.44"/>
      </g>
     </g>
     <g id="line2d_61">
      <g>
       <use style="fill:#262626;stroke:#262626;" x="587.051079545" xlink:href="#m219da94a98" y="58.44"/>
      </g>
     </g>
     <g id="text_20">
      <text style="fill:#262626;font-family:Liberation Sans;font-size:18.0px;font-style:normal;text-anchor:end;" transform="rotate(-0.000000, 346.008196, 63.094688)" x="346.008196023" y="63.0946875">1.0</text>
     </g>
    </g>
   </g>
   <g id="line2d_62">
    <path clip-path="url(#p30bf902943)" d="
M353.008 58.44
L358.722 58.5744
L364.436 58.9767
L370.15 59.6448
L375.864 60.575
L381.578 61.7623
L387.292 63.2
L393.006 64.8805
L398.72 66.7947
L404.434 68.9324
L410.148 71.2822
L415.862 73.8319
L421.575 76.5682
L427.289 79.4773
L433.003 82.5445
L438.717 85.7546
L444.431 89.0921
L450.145 92.541
L455.859 96.0853
L461.573 99.7089
L467.287 103.396
L473.001 107.13
L478.715 110.896
L484.429 114.679
L490.143 118.464
L495.857 122.236
L501.571 125.983
L507.285 129.691
L512.998 133.35
L518.712 136.947
L524.426 140.472
L530.14 143.917
L535.854 147.273
L541.568 150.532
L547.282 153.688
L552.996 156.736
L558.71 159.672
L564.424 162.491
L570.138 165.191
L575.852 167.771
L581.566 170.229" style="fill:none;stroke:#4c72b0;stroke-linecap:round;stroke-width:1.5;"/>
   </g>
   <g id="line2d_63">
    <path clip-path="url(#p30bf902943)" d="
M353.008 58.44
L355.865 58.5744
L358.722 58.9767
L361.579 59.6448
L364.436 60.5751
L367.293 61.7623
L370.15 63.2
L373.007 64.8805
L375.864 66.7947
L378.721 68.9324
L381.578 71.2822
L384.435 73.8319
L387.292 76.5683
L390.149 79.4774
L393.006 82.5446
L395.863 85.7547
L398.72 89.0921
L401.577 92.5411
L404.434 96.0854
L407.291 99.709
L410.148 103.396
L413.005 107.13
L415.862 110.896
L418.718 114.679
L421.575 118.464
L424.432 122.236
L427.289 125.983
L430.146 129.692
L433.003 133.35
L435.86 136.947
L438.717 140.472
L441.574 143.917
L444.431 147.273
L447.288 150.532
L450.145 153.688
L453.002 156.736
L455.859 159.672
L458.716 162.491
L461.573 165.191
L464.43 167.771
L467.287 170.229
L470.144 172.565
L473.001 174.779
L475.858 176.873
L478.715 178.848
L481.572 180.707
L484.429 182.452
L487.286 184.087
L490.143 185.615
L493 187.04
L495.857 188.365
L498.714 189.596
L501.571 190.737
L504.428 191.792
L507.285 192.765
L510.141 193.661
L512.998 194.485
L515.855 195.241
L518.712 195.934
L521.569 196.567
L524.426 197.144
L527.283 197.67
L530.14 198.147
L532.997 198.581
L535.854 198.974
L538.711 199.328
L541.568 199.648
L544.425 199.936
L547.282 200.194
L550.139 200.425
L552.996 200.632
L555.853 200.816
L558.71 200.979
L561.567 201.123
L564.424 201.25
L567.281 201.362
L570.138 201.459
L572.995 201.544
L575.852 201.617
L578.709 201.679
L581.566 201.733
L584.423 201.778" style="fill:none;stroke:#55a868;stroke-linecap:round;stroke-width:1.5;"/>
   </g>
   <g id="line2d_64">
    <path clip-path="url(#p30bf902943)" d="
M353.008 58.44
L354.437 58.5156
L355.865 58.7422
L357.294 59.119
L358.722 59.645
L360.151 60.3184
L361.579 61.1372
L363.008 62.0989
L365.865 64.4387
L368.722 67.3095
L371.578 70.6766
L374.435 74.5004
L377.292 78.7363
L380.149 83.3361
L384.435 90.8058
L388.72 98.7988
L394.434 109.955
L405.862 132.442
L410.148 140.473
L414.433 148.097
L418.718 155.226
L423.004 161.797
L425.861 165.847
L428.718 169.625
L431.575 173.128
L434.432 176.359
L437.289 179.323
L440.146 182.026
L443.003 184.478
L445.86 186.693
L448.717 188.682
L451.574 190.46
L454.431 192.043
L457.288 193.445
L461.573 195.243
L465.858 196.717
L470.144 197.916
L474.429 198.88
L478.715 199.649
L484.429 200.426
L490.143 200.979
L497.285 201.435
L505.856 201.743
L517.284 201.914
L544.425 201.997
L585.851 202.019
L585.851 202.019" style="fill:none;stroke:#c44e52;stroke-linecap:round;stroke-width:1.5;"/>
   </g>
   <g id="line2d_65">
    <path clip-path="url(#p30bf902943)" d="
M353.008 58.44
L354.437 58.5744
L355.865 58.9767
L357.294 59.6448
L358.722 60.5751
L360.151 61.7623
L361.579 63.2
L363.008 64.8805
L364.436 66.7947
L365.865 68.9324
L368.722 73.8319
L371.578 79.4774
L374.435 85.7547
L377.292 92.5411
L381.578 103.396
L395.863 140.472
L400.148 150.532
L403.005 156.736
L405.862 162.491
L408.719 167.771
L411.576 172.565
L414.433 176.873
L417.29 180.707
L420.147 184.087
L423.004 187.04
L425.861 189.596
L428.718 191.792
L431.575 193.661
L434.432 195.241
L437.289 196.567
L440.146 197.67
L443.003 198.581
L447.288 199.648
L451.574 200.425
L455.859 200.979
L461.573 201.459
L468.715 201.778
L478.715 201.936
L510.141 202.024
L544.425 202.01
L585.851 202.024
L585.851 202.024" style="fill:none;stroke:#8172b2;stroke-linecap:round;stroke-width:1.5;"/>
   </g>
   <g id="line2d_66">
    <path clip-path="url(#p30bf902943)" d="
M353.008 58.44
L354.437 58.6499
L355.865 59.2777
L357.294 60.3182
L358.722 61.7623
L360.151 63.5977
L361.579 65.809
L363.008 68.3776
L364.436 71.2822
L365.865 74.4991
L368.722 81.7638
L371.578 89.9446
L374.435 98.7966
L380.149 117.518
L385.863 136.054
L388.72 144.764
L391.577 152.909
L394.434 160.388
L397.291 167.137
L400.148 173.129
L403.005 178.365
L405.862 182.871
L408.719 186.693
L411.576 189.89
L414.433 192.529
L417.29 194.681
L420.147 196.414
L423.004 197.793
L425.861 198.879
L428.718 199.723
L431.575 200.37
L435.86 201.053
L440.146 201.481
L445.86 201.788
L454.431 201.942
L483 202.008
L537.283 202.018
L575.852 202.017
L585.851 202.028
L585.851 202.028" style="fill:none;stroke:#ccb974;stroke-linecap:round;stroke-width:1.5;"/>
   </g>
   <g id="line2d_67">
    <path clip-path="url(#p30bf902943)" d="
M353.008 58.44
L353.722 58.5156
L354.437 58.7421
L355.151 59.1189
L355.865 59.6448
L357.294 61.1369
L358.722 63.2
L360.151 65.809
L361.579 68.9324
L363.008 72.5329
L365.15 78.7347
L367.293 85.7547
L370.15 96.0854
L374.435 112.786
L380.149 135.157
L383.006 145.606
L385.863 155.226
L388.006 161.797
L390.149 167.771
L392.292 173.129
L394.434 177.875
L396.577 182.026
L398.72 185.615
L400.862 188.682
L403.005 191.275
L405.148 193.444
L407.291 195.241
L409.433 196.716
L411.576 197.914
L413.719 198.879
L416.576 199.867
L419.433 200.583
L422.29 201.089
L425.861 201.503
L430.146 201.778
L436.575 201.933
L457.288 202.026
L477.286 202.021
L504.428 202.013
L570.852 202.036
L586.565 202.032
L586.565 202.032" style="fill:none;stroke:#64b5cd;stroke-linecap:round;stroke-width:1.5;"/>
   </g>
   <g id="line2d_68">
    <path clip-path="url(#p30bf902943)" d="
M353.008 58.44
L353.722 58.5429
L354.437 58.8511
L355.151 59.3633
L355.865 60.0775
L356.579 60.9905
L358.008 63.397
L359.436 66.543
L360.865 70.377
L362.293 74.8369
L364.436 82.5446
L366.579 91.2357
L369.436 103.86
L378.007 142.635
L380.864 154.075
L383.006 161.797
L385.149 168.707
L387.292 174.779
L389.435 180.023
L391.577 184.479
L393.72 188.205
L395.148 190.32
L396.577 192.166
L398.005 193.768
L400.148 195.766
L402.291 197.347
L404.434 198.581
L406.576 199.532
L408.719 200.254
L411.576 200.94
L414.433 201.387
L418.004 201.714
L423.004 201.907
L433.003 201.983
L458.716 202.026
L480.858 202.011
L586.565 202.034
L586.565 202.034" style="fill:none;stroke:#4c72b0;stroke-linecap:round;stroke-width:1.5;"/>
   </g>
   <g id="line2d_69">
    <path clip-path="url(#p30bf902943)" d="
M353.008 58.44
L353.722 58.5744
L354.437 58.9767
L355.151 59.6448
L355.865 60.5751
L356.579 61.7623
L358.008 64.8805
L359.436 68.9324
L360.865 73.8319
L362.293 79.4774
L364.436 89.0922
L367.293 103.396
L375.15 143.917
L377.292 153.688
L379.435 162.491
L381.578 170.229
L383.721 176.873
L385.149 180.707
L386.578 184.087
L388.006 187.04
L389.435 189.596
L390.863 191.792
L392.292 193.661
L393.72 195.241
L395.148 196.567
L396.577 197.67
L398.72 198.974
L400.862 199.936
L403.005 200.632
L405.148 201.123
L408.005 201.544
L411.576 201.816
L416.576 201.944
L434.432 202.008
L468.715 202.02
L490.857 202.02
L527.283 202.029
L558.71 202.039
L586.565 202.035
L586.565 202.035" style="fill:none;stroke:#55a868;stroke-linecap:round;stroke-width:1.5;"/>
   </g>
   <g id="line2d_70">
    <path clip-path="url(#p30bf902943)" d="
M353.008 58.44
L353.722 58.61
L354.437 59.1189
L355.151 59.9632
L355.865 61.1369
L356.579 62.632
L358.008 66.543
L359.436 71.5903
L360.865 77.6398
L362.293 84.5351
L364.436 96.0854
L368.007 117.045
L371.578 137.835
L373.721 149.321
L375.864 159.672
L378.007 168.707
L379.435 173.963
L380.864 178.607
L382.292 182.662
L383.721 186.161
L385.149 189.146
L386.578 191.664
L388.006 193.768
L389.435 195.508
L390.863 196.934
L392.292 198.09
L393.72 199.02
L395.863 200.069
L398.005 200.794
L400.148 201.28
L403.005 201.664
L406.576 201.881
L413.005 201.97
L439.432 202.008
L586.565 202.036
L586.565 202.036" style="fill:none;stroke:#c44e52;stroke-linecap:round;stroke-width:1.5;"/>
   </g>
   <g id="line2d_71">
    <path clip-path="url(#p30bf902943)" d="
M353.008 58.44
L353.722 58.6499
L354.437 59.2777
L355.151 60.3182
L355.865 61.7623
L356.579 63.5977
L358.008 68.3776
L359.436 74.4991
L360.865 81.7638
L363.008 94.3023
L365.865 112.786
L370.15 140.472
L372.293 152.909
L374.435 163.856
L375.864 170.229
L377.292 175.841
L378.721 180.707
L380.149 184.864
L381.578 188.365
L383.006 191.275
L384.435 193.661
L385.863 195.595
L387.292 197.144
L388.72 198.37
L390.149 199.328
L391.577 200.069
L393.72 200.858
L395.863 201.362
L398.72 201.733
L402.291 201.915
L411.576 202.008
L420.861 202.006
L450.859 202.023
L470.144 202.032
L486.571 202.023
L526.569 202.028
L557.996 202.026
L586.565 202.036
L586.565 202.036" style="fill:none;stroke:#8172b2;stroke-linecap:round;stroke-width:1.5;"/>
   </g>
   <g id="patch_8">
    <path d="
M353.008 51.26
L587.051 51.26" style="fill:none;"/>
   </g>
   <g id="patch_9">
    <path d="
M587.051 209.22
L587.051 51.26" style="fill:none;"/>
   </g>
   <g id="patch_10">
    <path d="
M353.008 209.22
L587.051 209.22" style="fill:none;"/>
   </g>
   <g id="patch_11">
    <path d="
M353.008 209.22
L353.008 51.26" style="fill:none;"/>
   </g>
   <g id="text_21">
    <text style="fill:#262626;font-family:Liberation Sans;font-size:18.0px;font-style:normal;" transform="translate(350.489950284 26.87175)">(B) Fourier magnitude spectra</text>
    <text style="fill:#262626;font-family:Liberation Sans;font-size:18.0px;font-style:normal;" transform="translate(404.318387784 46.26)">of speed profiles</text>
   </g>
  </g>
  <g id="axes_3">
   <g id="patch_12">
    <path d="
M63.7225 444.84
L587.051 444.84
L587.051 286.88
L63.7225 286.88
z
" style="fill:#eaeaf2;"/>
   </g>
   <g id="matplotlib.axis_5">
    <g id="xtick_12">
     <g id="line2d_72">
      <path clip-path="url(#p16f8a8055c)" d="
M63.7225 444.84
L63.7225 286.88" style="fill:none;stroke:#ffffff;stroke-linecap:round;"/>
     </g>
     <g id="line2d_73">
      <g>
       <use style="fill:#262626;stroke:#262626;" x="63.7225" xlink:href="#m219da94a98" y="444.84"/>
      </g>
     </g>
     <g id="line2d_74">
      <g>
       <use style="fill:#262626;stroke:#262626;" x="63.7225" xlink:href="#m219da94a98" y="286.88"/>
      </g>
     </g>
     <g id="text_22">
      <text style="fill:#262626;font-family:Liberation Sans;font-size:18.0px;font-style:normal;text-anchor:middle;" transform="rotate(-0.000000, 63.722500, 464.884375)" x="63.7225" y="464.884375">0.2</text>
     </g>
    </g>
    <g id="xtick_13">
     <g id="line2d_75">
      <path clip-path="url(#p16f8a8055c)" d="
M121.87 444.84
L121.87 286.88" style="fill:none;stroke:#ffffff;stroke-linecap:round;"/>
     </g>
     <g id="line2d_76">
      <g>
       <use style="fill:#262626;stroke:#262626;" x="121.870119949" xlink:href="#m219da94a98" y="444.84"/>
      </g>
     </g>
     <g id="line2d_77">
      <g>
       <use style="fill:#262626;stroke:#262626;" x="121.870119949" xlink:href="#m219da94a98" y="286.88"/>
      </g>
     </g>
     <g id="text_23">
      <text style="fill:#262626;font-family:Liberation Sans;font-size:18.0px;font-style:normal;text-anchor:middle;" transform="rotate(-0.000000, 121.870120, 464.884375)" x="121.870119949" y="464.884375">0.4</text>
     </g>
    </g>
    <g id="xtick_14">
     <g id="line2d_78">
      <path clip-path="url(#p16f8a8055c)" d="
M180.018 444.84
L180.018 286.88" style="fill:none;stroke:#ffffff;stroke-linecap:round;"/>
     </g>
     <g id="line2d_79">
      <g>
       <use style="fill:#262626;stroke:#262626;" x="180.017739899" xlink:href="#m219da94a98" y="444.84"/>
      </g>
     </g>
     <g id="line2d_80">
      <g>
       <use style="fill:#262626;stroke:#262626;" x="180.017739899" xlink:href="#m219da94a98" y="286.88"/>
      </g>
     </g>
     <g id="text_24">
      <text style="fill:#262626;font-family:Liberation Sans;font-size:18.0px;font-style:normal;text-anchor:middle;" transform="rotate(-0.000000, 180.017740, 464.884375)" x="180.017739899" y="464.884375">0.6</text>
     </g>
    </g>
    <g id="xtick_15">
     <g id="line2d_81">
      <path clip-path="url(#p16f8a8055c)" d="
M238.165 444.84
L238.165 286.88" style="fill:none;stroke:#ffffff;stroke-linecap:round;"/>
     </g>
     <g id="line2d_82">
      <g>
       <use style="fill:#262626;stroke:#262626;" x="238.165359848" xlink:href="#m219da94a98" y="444.84"/>
      </g>
     </g>
     <g id="line2d_83">
      <g>
       <use style="fill:#262626;stroke:#262626;" x="238.165359848" xlink:href="#m219da94a98" y="286.88"/>
      </g>
     </g>
     <g id="text_25">
      <text style="fill:#262626;font-family:Liberation Sans;font-size:18.0px;font-style:normal;text-anchor:middle;" transform="rotate(-0.000000, 238.165360, 464.884375)" x="238.165359848" y="464.884375">0.8</text>
     </g>
    </g>
    <g id="xtick_16">
     <g id="line2d_84">
      <path clip-path="url(#p16f8a8055c)" d="
M296.313 444.84
L296.313 286.88" style="fill:none;stroke:#ffffff;stroke-linecap:round;"/>
     </g>
     <g id="line2d_85">
      <g>
       <use style="fill:#262626;stroke:#262626;" x="296.312979798" xlink:href="#m219da94a98" y="444.84"/>
      </g>
     </g>
     <g id="line2d_86">
      <g>
       <use style="fill:#262626;stroke:#262626;" x="296.312979798" xlink:href="#m219da94a98" y="286.88"/>
      </g>
     </g>
     <g id="text_26">
      <text style="fill:#262626;font-family:Liberation Sans;font-size:18.0px;font-style:normal;text-anchor:middle;" transform="rotate(-0.000000, 296.312980, 464.884375)" x="296.312979798" y="464.884375">1.0</text>
     </g>
    </g>
    <g id="xtick_17">
     <g id="line2d_87">
      <path clip-path="url(#p16f8a8055c)" d="
M354.461 444.84
L354.461 286.88" style="fill:none;stroke:#ffffff;stroke-linecap:round;"/>
     </g>
     <g id="line2d_88">
      <g>
       <use style="fill:#262626;stroke:#262626;" x="354.460599747" xlink:href="#m219da94a98" y="444.84"/>
      </g>
     </g>
     <g id="line2d_89">
      <g>
       <use style="fill:#262626;stroke:#262626;" x="354.460599747" xlink:href="#m219da94a98" y="286.88"/>
      </g>
     </g>
     <g id="text_27">
      <text style="fill:#262626;font-family:Liberation Sans;font-size:18.0px;font-style:normal;text-anchor:middle;" transform="rotate(-0.000000, 354.460600, 464.884375)" x="354.460599747" y="464.884375">1.2</text>
     </g>
    </g>
    <g id="xtick_18">
     <g id="line2d_90">
      <path clip-path="url(#p16f8a8055c)" d="
M412.608 444.84
L412.608 286.88" style="fill:none;stroke:#ffffff;stroke-linecap:round;"/>
     </g>
     <g id="line2d_91">
      <g>
       <use style="fill:#262626;stroke:#262626;" x="412.608219697" xlink:href="#m219da94a98" y="444.84"/>
      </g>
     </g>
     <g id="line2d_92">
      <g>
       <use style="fill:#262626;stroke:#262626;" x="412.608219697" xlink:href="#m219da94a98" y="286.88"/>
      </g>
     </g>
     <g id="text_28">
      <text style="fill:#262626;font-family:Liberation Sans;font-size:18.0px;font-style:normal;text-anchor:middle;" transform="rotate(-0.000000, 412.608220, 464.884375)" x="412.608219697" y="464.884375">1.4</text>
     </g>
    </g>
    <g id="xtick_19">
     <g id="line2d_93">
      <path clip-path="url(#p16f8a8055c)" d="
M470.756 444.84
L470.756 286.88" style="fill:none;stroke:#ffffff;stroke-linecap:round;"/>
     </g>
     <g id="line2d_94">
      <g>
       <use style="fill:#262626;stroke:#262626;" x="470.755839646" xlink:href="#m219da94a98" y="444.84"/>
      </g>
     </g>
     <g id="line2d_95">
      <g>
       <use style="fill:#262626;stroke:#262626;" x="470.755839646" xlink:href="#m219da94a98" y="286.88"/>
      </g>
     </g>
     <g id="text_29">
      <text style="fill:#262626;font-family:Liberation Sans;font-size:18.0px;font-style:normal;text-anchor:middle;" transform="rotate(-0.000000, 470.755840, 464.884375)" x="470.755839646" y="464.884375">1.6</text>
     </g>
    </g>
    <g id="xtick_20">
     <g id="line2d_96">
      <path clip-path="url(#p16f8a8055c)" d="
M528.903 444.84
L528.903 286.88" style="fill:none;stroke:#ffffff;stroke-linecap:round;"/>
     </g>
     <g id="line2d_97">
      <g>
       <use style="fill:#262626;stroke:#262626;" x="528.903459596" xlink:href="#m219da94a98" y="444.84"/>
      </g>
     </g>
     <g id="line2d_98">
      <g>
       <use style="fill:#262626;stroke:#262626;" x="528.903459596" xlink:href="#m219da94a98" y="286.88"/>
      </g>
     </g>
     <g id="text_30">
      <text style="fill:#262626;font-family:Liberation Sans;font-size:18.0px;font-style:normal;text-anchor:middle;" transform="rotate(-0.000000, 528.903460, 464.884375)" x="528.903459596" y="464.884375">1.8</text>
     </g>
    </g>
    <g id="xtick_21">
     <g id="line2d_99">
      <path clip-path="url(#p16f8a8055c)" d="
M587.051 444.84
L587.051 286.88" style="fill:none;stroke:#ffffff;stroke-linecap:round;"/>
     </g>
     <g id="line2d_100">
      <g>
       <use style="fill:#262626;stroke:#262626;" x="587.051079545" xlink:href="#m219da94a98" y="444.84"/>
      </g>
     </g>
     <g id="line2d_101">
      <g>
       <use style="fill:#262626;stroke:#262626;" x="587.051079545" xlink:href="#m219da94a98" y="286.88"/>
      </g>
     </g>
     <g id="text_31">
      <text style="fill:#262626;font-family:Liberation Sans;font-size:18.0px;font-style:normal;text-anchor:middle;" transform="rotate(-0.000000, 587.051080, 464.884375)" x="587.051079545" y="464.884375">2.0</text>
     </g>
    </g>
    <g id="text_32">
     <text style="fill:#262626;font-family:Liberation Sans;font-size:18.0px;font-style:normal;text-anchor:middle;" transform="rotate(-0.000000, 325.386790, 486.663750)" x="325.386789773" y="486.66375">Duration (sec)</text>
    </g>
   </g>
   <g id="matplotlib.axis_6">
    <g id="ytick_7">
     <g id="line2d_102">
      <path clip-path="url(#p16f8a8055c)" d="
M63.7225 444.84
L587.051 444.84" style="fill:none;stroke:#ffffff;stroke-linecap:round;"/>
     </g>
     <g id="line2d_103">
      <g>
       <use style="fill:#262626;stroke:#262626;" x="63.7225" xlink:href="#m219da94a98" y="444.84"/>
      </g>
     </g>
     <g id="line2d_104">
      <g>
       <use style="fill:#262626;stroke:#262626;" x="587.051079545" xlink:href="#m219da94a98" y="444.84"/>
      </g>
     </g>
     <g id="text_33">
      <text style="fill:#262626;font-family:Liberation Sans;font-size:18.0px;font-style:normal;text-anchor:end;" transform="rotate(-0.000000, 56.722500, 449.494688)" x="56.7225" y="449.4946875">−1.95</text>
     </g>
    </g>
    <g id="ytick_8">
     <g id="line2d_105">
      <path clip-path="url(#p16f8a8055c)" d="
M63.7225 423.779
L587.051 423.779" style="fill:none;stroke:#ffffff;stroke-linecap:round;"/>
     </g>
     <g id="line2d_106">
      <g>
       <use style="fill:#262626;stroke:#262626;" x="63.7225" xlink:href="#m219da94a98" y="423.778666667"/>
      </g>
     </g>
     <g id="line2d_107">
      <g>
       <use style="fill:#262626;stroke:#262626;" x="587.051079545" xlink:href="#m219da94a98" y="423.778666667"/>
      </g>
     </g>
     <g id="text_34">
      <text style="fill:#262626;font-family:Liberation Sans;font-size:18.0px;font-style:normal;text-anchor:end;" transform="rotate(-0.000000, 56.722500, 428.433354)" x="56.7225" y="428.433354167">−1.85</text>
     </g>
    </g>
    <g id="ytick_9">
     <g id="line2d_108">
      <path clip-path="url(#p16f8a8055c)" d="
M63.7225 402.717
L587.051 402.717" style="fill:none;stroke:#ffffff;stroke-linecap:round;"/>
     </g>
     <g id="line2d_109">
      <g>
       <use style="fill:#262626;stroke:#262626;" x="63.7225" xlink:href="#m219da94a98" y="402.717333333"/>
      </g>
     </g>
     <g id="line2d_110">
      <g>
       <use style="fill:#262626;stroke:#262626;" x="587.051079545" xlink:href="#m219da94a98" y="402.717333333"/>
      </g>
     </g>
     <g id="text_35">
      <text style="fill:#262626;font-family:Liberation Sans;font-size:18.0px;font-style:normal;text-anchor:end;" transform="rotate(-0.000000, 56.722500, 407.372021)" x="56.7225" y="407.372020833">−1.75</text>
     </g>
    </g>
    <g id="ytick_10">
     <g id="line2d_111">
      <path clip-path="url(#p16f8a8055c)" d="
M63.7225 381.656
L587.051 381.656" style="fill:none;stroke:#ffffff;stroke-linecap:round;"/>
     </g>
     <g id="line2d_112">
      <g>
       <use style="fill:#262626;stroke:#262626;" x="63.7225" xlink:href="#m219da94a98" y="381.656"/>
      </g>
     </g>
     <g id="line2d_113">
      <g>
       <use style="fill:#262626;stroke:#262626;" x="587.051079545" xlink:href="#m219da94a98" y="381.656"/>
      </g>
     </g>
     <g id="text_36">
      <text style="fill:#262626;font-family:Liberation Sans;font-size:18.0px;font-style:normal;text-anchor:end;" transform="rotate(-0.000000, 56.722500, 386.310687)" x="56.7225" y="386.3106875">−1.65</text>
     </g>
    </g>
    <g id="ytick_11">
     <g id="line2d_114">
      <path clip-path="url(#p16f8a8055c)" d="
M63.7225 360.595
L587.051 360.595" style="fill:none;stroke:#ffffff;stroke-linecap:round;"/>
     </g>
     <g id="line2d_115">
      <g>
       <use style="fill:#262626;stroke:#262626;" x="63.7225" xlink:href="#m219da94a98" y="360.594666667"/>
      </g>
     </g>
     <g id="line2d_116">
      <g>
       <use style="fill:#262626;stroke:#262626;" x="587.051079545" xlink:href="#m219da94a98" y="360.594666667"/>
      </g>
     </g>
     <g id="text_37">
      <text style="fill:#262626;font-family:Liberation Sans;font-size:18.0px;font-style:normal;text-anchor:end;" transform="rotate(-0.000000, 56.722500, 365.249354)" x="56.7225" y="365.249354167">−1.55</text>
     </g>
    </g>
   </g>
   <g id="line2d_117">
    <path clip-path="url(#p16f8a8055c)" d="
M63.7225 305.87
L121.87 354.103
L180.018 376.556
L238.165 390.518
L296.313 400.132
L354.461 407.306
L412.608 412.678
L470.756 416.923
L528.903 420.366
L587.051 423.217" style="fill:none;stroke:#4c72b0;stroke-linecap:round;stroke-width:2;"/>
   </g>
   <g id="patch_13">
    <path d="
M63.7225 286.88
L587.051 286.88" style="fill:none;"/>
   </g>
   <g id="patch_14">
    <path d="
M587.051 444.84
L587.051 286.88" style="fill:none;"/>
   </g>
   <g id="patch_15">
    <path d="
M63.7225 444.84
L587.051 444.84" style="fill:none;"/>
   </g>
   <g id="patch_16">
    <path d="
M63.7225 444.84
L63.7225 286.88" style="fill:none;"/>
   </g>
   <g id="text_38">
    <text style="fill:#262626;font-family:Liberation Sans;font-size:18.0px;font-style:normal;text-anchor:middle;" transform="rotate(-0.000000, 325.386790, 281.880000)" x="325.386789773" y="281.88">(C) SAL for different movement durations</text>
   </g>
  </g>
 </g>
 <defs>
  <clipPath id="p30bf902943">
   <rect height="157.96" width="234.042883523" x="353.008196023" y="51.26"/>
  </clipPath>
  <clipPath id="p2f147aec1f">
   <rect height="157.96" width="234.042883523" x="63.7225" y="51.26"/>
  </clipPath>
  <clipPath id="p16f8a8055c">
   <rect height="157.96" width="523.328579545" x="63.7225" y="286.88"/>
  </clipPath>
 </defs>
</svg>
