<?xml version="1.0" encoding="utf-8" standalone="no"?>
<!DOCTYPE svg PUBLIC "-//W3C//DTD SVG 1.1//EN"
  "http://www.w3.org/Graphics/SVG/1.1/DTD/svg11.dtd">
<!-- Created with matplotlib (http://matplotlib.org/) -->
<svg height="576pt" version="1.1" viewBox="0 0 648 576" width="648pt" xmlns="http://www.w3.org/2000/svg" xmlns:xlink="http://www.w3.org/1999/xlink">
 <defs>
  <style type="text/css">
*{stroke-linecap:butt;stroke-linejoin:round;}
  </style>
 </defs>
 <g id="figure_1">
  <g id="patch_1">
   <path d="
M0 576
L648 576
L648 0
L0 0
z
" style="fill:#ffffff;"/>
  </g>
  <g id="axes_1">
   <g id="patch_2">
    <path d="
M47.6266 168.72
L617.518 168.72
L617.518 29.3
L47.6266 29.3
z
" style="fill:#eaeaf2;"/>
   </g>
   <g id="matplotlib.axis_1">
    <g id="xtick_1">
     <g id="line2d_1">
      <path clip-path="url(#pe922993440)" d="
M47.6266 168.72
L47.6266 29.3" style="fill:none;stroke:#ffffff;stroke-linecap:round;"/>
     </g>
     <g id="line2d_2">
      <defs>
       <path d="
M0 0
L0 0" id="m219da94a98" style="stroke:#262626;"/>
      </defs>
      <g>
       <use style="fill:#262626;stroke:#262626;" x="47.6265625" xlink:href="#m219da94a98" y="168.72"/>
      </g>
     </g>
     <g id="line2d_3">
      <g>
       <use style="fill:#262626;stroke:#262626;" x="47.6265625" xlink:href="#m219da94a98" y="29.3"/>
      </g>
     </g>
     <g id="text_1">
      <text style="fill:#262626;font-family:Liberation Sans;font-size:18.0px;font-style:normal;text-anchor:middle;" transform="rotate(-0.000000, 47.626562, 188.764375)" x="47.6265625" y="188.764375">0</text>
     </g>
    </g>
    <g id="xtick_2">
     <g id="line2d_4">
      <path clip-path="url(#pe922993440)" d="
M138.605 168.72
L138.605 29.3" style="fill:none;stroke:#ffffff;stroke-linecap:round;"/>
     </g>
     <g id="line2d_5">
      <g>
       <use style="fill:#262626;stroke:#262626;" x="138.605338224" xlink:href="#m219da94a98" y="168.72"/>
      </g>
     </g>
     <g id="line2d_6">
      <g>
       <use style="fill:#262626;stroke:#262626;" x="138.605338224" xlink:href="#m219da94a98" y="29.3"/>
      </g>
     </g>
     <g id="text_2">
      <text style="fill:#262626;font-family:Liberation Sans;font-size:18.0px;font-style:normal;text-anchor:middle;" transform="rotate(-0.000000, 138.605338, 188.764375)" x="138.605338224" y="188.764375">1</text>
     </g>
    </g>
    <g id="xtick_3">
     <g id="line2d_7">
      <path clip-path="url(#pe922993440)" d="
M229.584 168.72
L229.584 29.3" style="fill:none;stroke:#ffffff;stroke-linecap:round;"/>
     </g>
     <g id="line2d_8">
      <g>
       <use style="fill:#262626;stroke:#262626;" x="229.584113948" xlink:href="#m219da94a98" y="168.72"/>
      </g>
     </g>
     <g id="line2d_9">
      <g>
       <use style="fill:#262626;stroke:#262626;" x="229.584113948" xlink:href="#m219da94a98" y="29.3"/>
      </g>
     </g>
     <g id="text_3">
      <text style="fill:#262626;font-family:Liberation Sans;font-size:18.0px;font-style:normal;text-anchor:middle;" transform="rotate(-0.000000, 229.584114, 188.764375)" x="229.584113948" y="188.764375">2</text>
     </g>
    </g>
    <g id="xtick_4">
     <g id="line2d_10">
      <path clip-path="url(#pe922993440)" d="
M320.563 168.72
L320.563 29.3" style="fill:none;stroke:#ffffff;stroke-linecap:round;"/>
     </g>
     <g id="line2d_11">
      <g>
       <use style="fill:#262626;stroke:#262626;" x="320.562889673" xlink:href="#m219da94a98" y="168.72"/>
      </g>
     </g>
     <g id="line2d_12">
      <g>
       <use style="fill:#262626;stroke:#262626;" x="320.562889673" xlink:href="#m219da94a98" y="29.3"/>
      </g>
     </g>
     <g id="text_4">
      <text style="fill:#262626;font-family:Liberation Sans;font-size:18.0px;font-style:normal;text-anchor:middle;" transform="rotate(-0.000000, 320.562890, 188.764375)" x="320.562889673" y="188.764375">3</text>
     </g>
    </g>
    <g id="xtick_5">
     <g id="line2d_13">
      <path clip-path="url(#pe922993440)" d="
M411.542 168.72
L411.542 29.3" style="fill:none;stroke:#ffffff;stroke-linecap:round;"/>
     </g>
     <g id="line2d_14">
      <g>
       <use style="fill:#262626;stroke:#262626;" x="411.541665397" xlink:href="#m219da94a98" y="168.72"/>
      </g>
     </g>
     <g id="line2d_15">
      <g>
       <use style="fill:#262626;stroke:#262626;" x="411.541665397" xlink:href="#m219da94a98" y="29.3"/>
      </g>
     </g>
     <g id="text_5">
      <text style="fill:#262626;font-family:Liberation Sans;font-size:18.0px;font-style:normal;text-anchor:middle;" transform="rotate(-0.000000, 411.541665, 188.764375)" x="411.541665397" y="188.764375">4</text>
     </g>
    </g>
    <g id="xtick_6">
     <g id="line2d_16">
      <path clip-path="url(#pe922993440)" d="
M502.52 168.72
L502.52 29.3" style="fill:none;stroke:#ffffff;stroke-linecap:round;"/>
     </g>
     <g id="line2d_17">
      <g>
       <use style="fill:#262626;stroke:#262626;" x="502.520441121" xlink:href="#m219da94a98" y="168.72"/>
      </g>
     </g>
     <g id="line2d_18">
      <g>
       <use style="fill:#262626;stroke:#262626;" x="502.520441121" xlink:href="#m219da94a98" y="29.3"/>
      </g>
     </g>
     <g id="text_6">
      <text style="fill:#262626;font-family:Liberation Sans;font-size:18.0px;font-style:normal;text-anchor:middle;" transform="rotate(-0.000000, 502.520441, 188.764375)" x="502.520441121" y="188.764375">5</text>
     </g>
    </g>
    <g id="xtick_7">
     <g id="line2d_19">
      <path clip-path="url(#pe922993440)" d="
M593.499 168.72
L593.499 29.3" style="fill:none;stroke:#ffffff;stroke-linecap:round;"/>
     </g>
     <g id="line2d_20">
      <g>
       <use style="fill:#262626;stroke:#262626;" x="593.499216845" xlink:href="#m219da94a98" y="168.72"/>
      </g>
     </g>
     <g id="line2d_21">
      <g>
       <use style="fill:#262626;stroke:#262626;" x="593.499216845" xlink:href="#m219da94a98" y="29.3"/>
      </g>
     </g>
     <g id="text_7">
      <text style="fill:#262626;font-family:Liberation Sans;font-size:18.0px;font-style:normal;text-anchor:middle;" transform="rotate(-0.000000, 593.499217, 188.764375)" x="593.499216845" y="188.764375">6</text>
     </g>
    </g>
    <g id="text_8">
     <text style="fill:#262626;font-family:Liberation Sans;font-size:18.0px;font-style:normal;text-anchor:middle;" transform="rotate(-0.000000, 332.572088, 210.543750)" x="332.572088068" y="210.54375">Time (s)</text>
    </g>
   </g>
   <g id="matplotlib.axis_2"/>
   <g id="line2d_22">
    <path clip-path="url(#pe922993440)" d="
M47.6266 142.246
L49.1732 129.702
L49.992 124.61
L50.7198 121.415
L51.2657 119.875
L51.7206 119.115
L52.1755 118.773
L52.5394 118.752
L52.9943 118.971
L53.6312 119.581
L55.5417 121.615
L56.1786 121.923
L56.8154 121.981
L57.5432 121.787
L58.544 121.242
L60.8185 119.939
L62.82 119.167
L69.7344 116.472
L70.5532 115.798
L71.463 114.729
L72.4638 113.18
L74.1014 110.137
L76.3759 105.997
L78.5593 102.067
L79.5601 99.7529
L80.5609 96.8797
L81.7436 92.7633
L83.6542 85.1412
L89.4768 60.9446
L91.2054 51.6614
L93.3889 40.0191
L94.4806 35.3899
L95.2994 32.7744
L96.0273 31.1407
L96.6641 30.2551
L97.21 29.8894
L97.6649 29.8494
L98.1198 30.0368
L98.6657 30.5433
L99.3025 31.4943
L100.03 33.0178
L100.849 35.2463
L101.85 38.6653
L102.942 43.2265
L104.215 49.5623
L105.853 58.9801
L111.676 93.6826
L113.495 102.774
L114.769 108.143
L115.861 111.82
L116.77 114.14
L117.589 115.666
L118.408 116.746
L119.318 117.58
L125.413 122.135
L126.323 122.465
L127.324 122.592
L128.871 122.523
L130.781 122.489
L133.511 122.524
L134.511 122.259
L135.512 121.745
L136.695 120.863
L139.697 118.469
L140.88 117.889
L143.882 116.638
L144.701 115.904
L145.52 114.836
L146.43 113.223
L147.43 110.964
L148.795 107.285
L152.889 95.1966
L156.619 84.5529
L157.802 81.8597
L158.712 80.2933
L159.439 79.4158
L160.076 78.9349
L160.713 78.7179
L161.35 78.7514
L161.987 79.0173
L162.715 79.5821
L163.534 80.5241
L164.443 81.9312
L165.444 83.9076
L166.536 86.56
L167.901 90.4921
L172.267 103.62
L173.996 107.759
L177.635 115.743
L178.909 118.088
L179.819 119.357
L180.638 120.142
L181.365 120.561
L182.184 120.772
L183.276 120.797
L184.914 120.834
L186.005 121.108
L187.734 121.848
L188.917 122.236
L189.826 122.304
L190.736 122.144
L192.101 121.629
L193.557 121.125
L194.557 121.021
L195.558 121.151
L199.015 121.855
L199.925 121.675
L200.926 121.232
L202.109 120.447
L204.019 118.855
L206.294 117.024
L207.567 116.276
L208.932 115.743
L211.115 114.936
L212.025 114.322
L212.935 113.42
L213.936 112.075
L215.209 109.932
L220.395 100.26
L222.033 96.886
L223.489 93.3658
L225.035 89.0136
L226.764 83.4499
L228.765 76.2163
L233.405 59.0164
L234.497 55.9894
L235.407 54.0348
L236.317 52.6037
L237.135 51.7077
L238.045 51.0334
L239.41 50.3411
L242.23 49.1568
L242.958 49.118
L243.504 49.2971
L244.05 49.7211
L244.596 50.4472
L245.232 51.7407
L245.869 53.567
L246.597 56.3366
L247.507 60.7853
L248.599 67.3315
L250.6 81.046
L252.42 92.8414
L253.693 99.6488
L254.785 104.36
L255.877 108.117
L256.969 111.07
L258.06 113.368
L259.061 114.986
L260.062 116.183
L260.881 116.853
L261.609 117.198
L262.245 117.28
L262.791 117.155
L263.337 116.813
L263.883 116.209
L264.429 115.285
L265.066 113.721
L265.703 111.533
L266.431 108.146
L267.249 103.081
L268.159 95.8623
L269.251 85.2815
L272.435 52.9525
L273.163 48.1443
L273.709 45.7267
L274.164 44.5644
L274.528 44.2089
L274.801 44.2763
L275.074 44.6245
L275.437 45.5097
L275.892 47.2492
L276.529 50.7208
L277.348 56.5532
L278.986 70.3229
L280.441 81.7122
L281.442 87.8787
L282.261 91.7097
L283.08 94.4886
L283.807 96.1822
L284.444 97.1657
L285.081 97.7774
L285.718 98.1051
L286.446 98.2375
L287.538 98.1842
L289.084 98.1325
L289.994 98.3419
L290.904 98.8069
L291.905 99.5979
L293.542 101.252
L295.18 102.803
L296.454 103.69
L299.911 105.808
L300.911 106.843
L302.185 108.52
L305.551 113.183
L306.734 114.322
L308.008 115.222
L314.012 118.745
L315.468 119.336
L317.379 119.823
L319.198 120.364
L320.836 121.115
L322.928 122.071
L324.02 122.308
L325.112 122.299
L327.568 122.134
L328.296 122.399
L328.933 122.876
L329.57 123.619
L330.298 124.81
L331.207 126.766
L332.572 130.325
L332.572 130.325" style="fill:none;stroke:#4c72b0;stroke-linecap:round;stroke-width:1.75;"/>
   </g>
   <g id="line2d_23">
    <path clip-path="url(#pe922993440)" d="
M47.6266 167.863
L49.1732 163.318
L49.992 161.55
L50.6289 160.615
L51.2657 160.071
L51.8116 159.884
L52.4484 159.921
L53.2672 160.22
L55.0868 160.952
L55.9966 161.048
L57.1793 160.927
L58.817 160.784
L59.8177 160.938
L61.1824 161.416
L62.6381 161.865
L63.5478 161.899
L64.4576 161.691
L65.7313 161.119
L67.187 160.507
L68.0968 160.378
L69.0066 160.503
L70.1893 160.927
L71.554 161.381
L72.3728 161.424
L73.1006 161.255
L74.0104 160.786
L76.8307 159.06
L77.5586 158.982
L78.2864 159.136
L79.1962 159.591
L81.4707 160.894
L82.1985 161.011
L82.9263 160.893
L83.7451 160.5
L84.8369 159.688
L86.6565 158.335
L87.5662 157.942
L88.476 157.789
L89.7497 157.834
L91.2964 157.846
L92.2971 157.604
L93.3889 157.075
L96.8461 155.144
L97.9378 154.919
L99.6664 154.842
L101.304 154.69
L102.76 154.311
L104.488 153.612
L106.126 152.72
L107.4 151.783
L108.764 150.497
L111.949 147.359
L113.04 146.69
L114.132 146.288
L117.407 145.299
L118.499 144.601
L119.773 143.5
L121.319 141.858
L122.957 139.803
L124.595 137.367
L127.688 132.632
L128.689 131.56
L129.689 130.816
L131.145 130.075
L132.328 129.386
L133.238 128.596
L134.238 127.405
L135.694 125.252
L137.605 122.5
L138.878 121.069
L141.972 117.827
L143.518 115.641
L145.156 113.416
L145.975 112.66
L146.611 112.335
L147.248 112.269
L147.885 112.46
L148.613 112.956
L149.523 113.881
L152.161 116.738
L153.071 117.319
L154.072 117.684
L156.255 118.346
L157.074 118.922
L157.893 119.812
L158.803 121.175
L159.985 123.394
L162.533 128.273
L163.625 129.842
L164.898 131.265
L166.809 133.34
L167.81 134.795
L168.901 136.812
L170.357 140.039
L172.449 144.656
L173.541 146.526
L174.451 147.688
L175.452 148.597
L176.725 149.419
L178.454 150.563
L179.546 151.575
L181.001 153.282
L182.821 155.393
L183.731 156.128
L184.55 156.504
L185.277 156.606
L186.187 156.483
L188.826 155.901
L189.553 156.042
L190.372 156.446
L191.373 157.237
L193.829 159.333
L194.557 159.633
L195.285 159.695
L196.013 159.53
L196.923 159.083
L199.106 157.909
L199.834 157.795
L200.562 157.912
L201.29 158.265
L202.2 158.987
L203.837 160.675
L205.02 161.755
L205.839 162.246
L206.566 162.447
L207.294 162.413
L208.022 162.162
L208.932 161.607
L212.389 159.198
L213.299 158.971
L214.209 158.98
L215.3 159.229
L218.576 160.168
L219.758 160.173
L221.487 159.908
L223.034 159.757
L224.125 159.874
L225.49 160.269
L227.31 160.794
L228.31 160.84
L229.311 160.652
L230.949 160.049
L232.222 159.687
L233.223 159.641
L234.406 159.834
L235.953 160.087
L236.771 159.984
L237.499 159.666
L238.318 159.037
L239.41 157.852
L241.32 155.728
L242.048 155.238
L242.685 155.048
L243.322 155.095
L244.05 155.408
L245.051 156.145
L246.597 157.296
L247.325 157.547
L247.962 157.514
L248.599 157.216
L249.236 156.664
L250.054 155.639
L251.51 153.362
L252.784 151.516
L253.693 150.578
L254.421 150.125
L255.149 149.927
L255.968 149.953
L257.424 150.297
L258.424 150.43
L259.152 150.33
L259.88 150.003
L260.608 149.429
L261.518 148.388
L262.7 146.646
L265.066 143.067
L266.067 141.98
L266.976 141.327
L267.886 140.971
L268.887 140.832
L272.981 140.538
L274.892 140.301
L276.074 140.395
L277.621 140.774
L279.259 141.111
L280.35 141.093
L281.624 140.817
L283.444 140.401
L284.353 140.442
L285.172 140.718
L285.991 141.233
L286.992 142.138
L288.993 144.359
L290.631 146
L292.359 147.38
L294.361 149.006
L295.817 150.498
L299.001 153.891
L300.093 154.645
L301.184 155.113
L302.731 155.489
L304.369 155.952
L305.642 156.565
L307.917 158.003
L309.282 158.701
L310.464 159.045
L311.829 159.182
L314.194 159.376
L315.377 159.734
L316.742 160.397
L318.834 161.437
L319.744 161.635
L320.563 161.579
L321.382 161.276
L322.291 160.676
L323.838 159.31
L325.021 158.399
L325.749 158.079
L326.386 158.012
L327.022 158.162
L327.75 158.586
L328.66 159.417
L331.207 161.967
L331.935 162.343
L332.663 162.473
L333.391 162.375
L334.392 161.979
L336.393 161.107
L337.303 160.986
L338.213 161.093
L339.668 161.544
L340.942 161.855
L341.852 161.848
L342.762 161.609
L344.035 160.995
L345.582 160.285
L346.401 160.141
L347.22 160.235
L348.038 160.558
L349.312 161.346
L350.677 162.143
L351.496 162.391
L352.314 162.396
L353.133 162.169
L354.316 161.577
L356.045 160.731
L357.045 160.506
L358.137 160.512
L361.321 160.735
L362.595 160.473
L365.688 159.711
L369.782 159.134
L370.965 158.566
L372.876 157.34
L374.695 156.268
L376.242 155.631
L379.062 154.802
L381.701 153.879
L383.884 153.186
L385.34 152.973
L387.341 152.954
L388.797 152.85
L389.98 152.534
L391.253 151.947
L394.529 150.317
L397.44 149.149
L398.441 148.394
L399.441 147.342
L400.897 145.425
L402.626 143.21
L403.627 142.296
L404.536 141.784
L405.537 141.508
L407.721 141.04
L408.539 140.564
L409.358 139.817
L410.359 138.56
L411.997 136.048
L413.634 133.673
L414.908 132.225
L416.364 130.931
L419.457 128.563
L420.731 127.81
L421.822 127.423
L422.914 127.276
L425.279 127.052
L426.189 126.661
L427.099 126
L428.282 124.831
L430.01 123.119
L430.829 122.604
L431.557 122.405
L432.285 122.463
L433.013 122.749
L434.104 123.462
L436.015 124.754
L437.016 125.133
L438.016 125.259
L441.474 125.407
L442.474 125.849
L443.566 126.601
L444.931 127.843
L446.659 129.74
L448.297 131.871
L449.753 134.132
L451.481 137.255
L455.12 143.962
L456.485 145.93
L457.759 147.379
L459.124 148.592
L462.126 150.829
L465.128 153.293
L467.312 154.946
L469.586 156.358
L473.498 158.494
L475.136 159.157
L476.319 159.401
L477.319 159.389
L478.32 159.147
L479.412 158.629
L480.777 157.705
L483.415 155.575
L484.78 154.255
L485.78 152.975
L486.69 151.441
L487.691 149.265
L488.874 146.086
L492.422 136.068
L493.423 134.079
L494.514 132.396
L498.335 127.023
L500.61 123.416
L501.429 122.529
L502.066 122.117
L502.611 121.986
L503.157 122.069
L503.703 122.365
L504.34 122.959
L505.159 124.059
L506.251 125.946
L512.255 137.027
L514.712 141.578
L516.895 145.551
L517.987 147.109
L518.897 148.037
L519.715 148.549
L520.443 148.76
L521.262 148.774
L522.445 148.546
L524.264 148.209
L525.356 148.25
L526.721 148.546
L528.631 148.957
L529.814 148.965
L531.361 148.716
L532.907 148.528
L533.908 148.639
L534.909 148.996
L536.092 149.677
L538.548 151.172
L539.549 151.477
L540.459 151.523
L541.55 151.331
L544.462 150.636
L545.371 150.719
L546.372 151.043
L548.101 151.918
L549.284 152.401
L550.193 152.544
L551.103 152.457
L552.377 152.076
L553.741 151.731
L554.56 151.76
L555.288 152.001
L556.107 152.509
L557.381 153.619
L558.745 154.746
L559.564 155.155
L560.292 155.287
L561.111 155.189
L562.293 154.773
L563.476 154.419
L564.204 154.417
L564.932 154.658
L565.66 155.157
L566.569 156.094
L569.663 159.608
L570.391 159.969
L571.027 160.053
L571.664 159.929
L572.483 159.521
L574.03 158.401
L575.031 157.81
L575.758 157.609
L576.395 157.642
L577.032 157.885
L577.76 158.401
L578.761 159.421
L580.762 161.56
L581.49 162.026
L582.127 162.199
L582.764 162.137
L583.401 161.856
L584.219 161.246
L586.767 159.158
L587.495 158.942
L588.131 158.971
L588.859 159.237
L589.769 159.832
L592.226 161.576
L593.044 161.822
L593.863 161.82
L594.773 161.563
L596.047 160.931
L597.775 160.111
L598.776 159.901
L599.686 159.952
L600.687 160.26
L602.142 160.999
L603.598 161.683
L604.508 161.881
L605.417 161.836
L606.418 161.547
L608.329 160.942
L609.057 160.968
L609.784 161.231
L610.603 161.797
L612.696 163.411
L613.242 163.458
L613.697 163.25
L614.151 162.774
L614.697 161.814
L615.334 160.139
L616.062 157.544
L617.154 152.67
L617.518 150.916
L617.518 150.916" style="fill:none;stroke:#d9544d;stroke-linecap:round;stroke-width:1.75;"/>
   </g>
   <g id="patch_3">
    <path d="
M47.6266 29.3
L617.518 29.3" style="fill:none;"/>
   </g>
   <g id="patch_4">
    <path d="
M617.518 168.72
L617.518 29.3" style="fill:none;"/>
   </g>
   <g id="patch_5">
    <path d="
M47.6266 168.72
L617.518 168.72" style="fill:none;"/>
   </g>
   <g id="patch_6">
    <path d="
M47.6266 168.72
L47.6266 29.3" style="fill:none;"/>
   </g>
   <g id="text_9">
    <text style="fill:#262626;font-family:Liberation Sans;font-size:18.0px;font-style:normal;text-anchor:middle;" transform="rotate(-0.000000, 332.572088, 24.300000)" x="332.572088068" y="24.3">Movements of two different scales</text>
   </g>
   <g id="legend_1">
    <g id="line2d_24">
     <path d="
M505.918 57.38
L541.918 57.38" style="fill:none;stroke:#4c72b0;stroke-linecap:round;stroke-width:1.75;"/>
    </g>
    <g id="line2d_25"/>
    <g id="text_10">
     <!-- $X_{filt}^{fast}$ -->
     <g style="fill:#262626;" transform="translate(556.317613636 63.68)">
      <text>
       <tspan style="font-family:cmmi10;font-size:18.0px;font-style:regular;" x="0.0" y="-0.9979375">X</tspan>
       <tspan style="font-family:cmmi10;font-size:12.6px;font-style:regular;" x="14.90625 17.6293125 21.0647460937 23.7878085938 25.4021484375 29.155078125 30.4384921875 36.3324375" y="5.009375 -10.11875 5.009375 -10.11875 5.009375 5.009375 -10.11875 -10.11875">ffialtst</tspan>
      </text>
     </g>
    </g>
    <g id="line2d_26">
     <path d="
M505.918 91.58
L541.918 91.58" style="fill:none;stroke:#d9544d;stroke-linecap:round;stroke-width:1.75;"/>
    </g>
    <g id="line2d_27"/>
    <g id="text_11">
     <!-- $X_{filt}^{slow}$ -->
     <g style="fill:#262626;" transform="translate(556.317613636 97.88)">
      <text>
       <tspan style="font-family:cmmi10;font-size:18.0px;font-style:regular;" x="0.0" y="-0.55575">X</tspan>
       <tspan style="font-family:cmmi10;font-size:12.6px;font-style:regular;" x="14.90625 17.1196875 21.0647460937 23.0136328125 25.4021484375 26.7665625 29.155078125 32.8635351562" y="4.0359375 -8.2609375 4.0359375 -8.2609375 4.0359375 -8.2609375 4.0359375 -8.2609375">fsillotw</tspan>
      </text>
     </g>
    </g>
   </g>
  </g>
  <g id="axes_2">
   <g id="patch_7">
    <path d="
M47.6266 520.8
L298.918 520.8
L298.918 264.02
L47.6266 264.02
z
" style="fill:#eaeaf2;"/>
   </g>
   <g id="matplotlib.axis_3">
    <g id="xtick_8">
     <g id="line2d_28">
      <path clip-path="url(#pde51aa0b3e)" d="
M72.7557 520.8
L72.7557 264.02" style="fill:none;stroke:#ffffff;stroke-linecap:round;"/>
     </g>
     <g id="line2d_29">
      <g>
       <use style="fill:#262626;stroke:#262626;" x="72.7556676136" xlink:href="#m219da94a98" y="520.8"/>
      </g>
     </g>
     <g id="line2d_30">
      <g>
       <use style="fill:#262626;stroke:#262626;" x="72.7556676136" xlink:href="#m219da94a98" y="264.02"/>
      </g>
     </g>
     <g id="text_12">
      <text style="fill:#262626;font-family:Liberation Sans;font-size:16.0px;font-style:normal;text-anchor:middle;" transform="rotate(-0.000000, 72.755668, 539.395000)" x="72.7556676136" y="539.395">−8</text>
     </g>
    </g>
    <g id="xtick_9">
     <g id="line2d_31">
      <path clip-path="url(#pde51aa0b3e)" d="
M123.014 520.8
L123.014 264.02" style="fill:none;stroke:#ffffff;stroke-linecap:round;"/>
     </g>
     <g id="line2d_32">
      <g>
       <use style="fill:#262626;stroke:#262626;" x="123.013877841" xlink:href="#m219da94a98" y="520.8"/>
      </g>
     </g>
     <g id="line2d_33">
      <g>
       <use style="fill:#262626;stroke:#262626;" x="123.013877841" xlink:href="#m219da94a98" y="264.02"/>
      </g>
     </g>
     <g id="text_13">
      <text style="fill:#262626;font-family:Liberation Sans;font-size:16.0px;font-style:normal;text-anchor:middle;" transform="rotate(-0.000000, 123.013878, 539.395000)" x="123.013877841" y="539.395">−6</text>
     </g>
    </g>
    <g id="xtick_10">
     <g id="line2d_34">
      <path clip-path="url(#pde51aa0b3e)" d="
M173.272 520.8
L173.272 264.02" style="fill:none;stroke:#ffffff;stroke-linecap:round;"/>
     </g>
     <g id="line2d_35">
      <g>
       <use style="fill:#262626;stroke:#262626;" x="173.272088068" xlink:href="#m219da94a98" y="520.8"/>
      </g>
     </g>
     <g id="line2d_36">
      <g>
       <use style="fill:#262626;stroke:#262626;" x="173.272088068" xlink:href="#m219da94a98" y="264.02"/>
      </g>
     </g>
     <g id="text_14">
      <text style="fill:#262626;font-family:Liberation Sans;font-size:16.0px;font-style:normal;text-anchor:middle;" transform="rotate(-0.000000, 173.272088, 539.395000)" x="173.272088068" y="539.395">−4</text>
     </g>
    </g>
    <g id="xtick_11">
     <g id="line2d_37">
      <path clip-path="url(#pde51aa0b3e)" d="
M223.53 520.8
L223.53 264.02" style="fill:none;stroke:#ffffff;stroke-linecap:round;"/>
     </g>
     <g id="line2d_38">
      <g>
       <use style="fill:#262626;stroke:#262626;" x="223.530298295" xlink:href="#m219da94a98" y="520.8"/>
      </g>
     </g>
     <g id="line2d_39">
      <g>
       <use style="fill:#262626;stroke:#262626;" x="223.530298295" xlink:href="#m219da94a98" y="264.02"/>
      </g>
     </g>
     <g id="text_15">
      <text style="fill:#262626;font-family:Liberation Sans;font-size:16.0px;font-style:normal;text-anchor:middle;" transform="rotate(-0.000000, 223.530298, 539.395000)" x="223.530298295" y="539.395">−2</text>
     </g>
    </g>
    <g id="xtick_12">
     <g id="line2d_40">
      <path clip-path="url(#pde51aa0b3e)" d="
M273.789 520.8
L273.789 264.02" style="fill:none;stroke:#ffffff;stroke-linecap:round;"/>
     </g>
     <g id="line2d_41">
      <g>
       <use style="fill:#262626;stroke:#262626;" x="273.788508523" xlink:href="#m219da94a98" y="520.8"/>
      </g>
     </g>
     <g id="line2d_42">
      <g>
       <use style="fill:#262626;stroke:#262626;" x="273.788508523" xlink:href="#m219da94a98" y="264.02"/>
      </g>
     </g>
     <g id="text_16">
      <text style="fill:#262626;font-family:Liberation Sans;font-size:16.0px;font-style:normal;text-anchor:middle;" transform="rotate(-0.000000, 273.788509, 539.395000)" x="273.788508523" y="539.395">0</text>
     </g>
    </g>
    <g id="text_17">
     <text style="fill:#262626;font-family:Liberation Sans;font-size:18.0px;font-style:normal;text-anchor:middle;" transform="rotate(-0.000000, 173.272088, 560.759375)" x="173.272088068" y="560.759375">Smoothness</text>
    </g>
   </g>
   <g id="matplotlib.axis_4">
    <g id="ytick_1">
     <g id="line2d_43">
      <path clip-path="url(#pde51aa0b3e)" d="
M47.6266 520.8
L298.918 520.8" style="fill:none;stroke:#ffffff;stroke-linecap:round;"/>
     </g>
     <g id="line2d_44">
      <g>
       <use style="fill:#262626;stroke:#262626;" x="47.6265625" xlink:href="#m219da94a98" y="520.8"/>
      </g>
     </g>
     <g id="line2d_45">
      <g>
       <use style="fill:#262626;stroke:#262626;" x="298.917613636" xlink:href="#m219da94a98" y="520.8"/>
      </g>
     </g>
     <g id="text_18">
      <text style="fill:#262626;font-family:Liberation Sans;font-size:16.0px;font-style:normal;text-anchor:end;" transform="rotate(-0.000000, 40.626562, 524.937500)" x="40.6265625" y="524.9375">0.00</text>
     </g>
    </g>
    <g id="ytick_2">
     <g id="line2d_46">
      <path clip-path="url(#pde51aa0b3e)" d="
M47.6266 488.702
L298.918 488.702" style="fill:none;stroke:#ffffff;stroke-linecap:round;"/>
     </g>
     <g id="line2d_47">
      <g>
       <use style="fill:#262626;stroke:#262626;" x="47.6265625" xlink:href="#m219da94a98" y="488.7025"/>
      </g>
     </g>
     <g id="line2d_48">
      <g>
       <use style="fill:#262626;stroke:#262626;" x="298.917613636" xlink:href="#m219da94a98" y="488.7025"/>
      </g>
     </g>
     <g id="text_19">
      <text style="fill:#262626;font-family:Liberation Sans;font-size:16.0px;font-style:normal;text-anchor:end;" transform="rotate(-0.000000, 40.626562, 492.840000)" x="40.6265625" y="492.84">0.05</text>
     </g>
    </g>
    <g id="ytick_3">
     <g id="line2d_49">
      <path clip-path="url(#pde51aa0b3e)" d="
M47.6266 456.605
L298.918 456.605" style="fill:none;stroke:#ffffff;stroke-linecap:round;"/>
     </g>
     <g id="line2d_50">
      <g>
       <use style="fill:#262626;stroke:#262626;" x="47.6265625" xlink:href="#m219da94a98" y="456.605"/>
      </g>
     </g>
     <g id="line2d_51">
      <g>
       <use style="fill:#262626;stroke:#262626;" x="298.917613636" xlink:href="#m219da94a98" y="456.605"/>
      </g>
     </g>
     <g id="text_20">
      <text style="fill:#262626;font-family:Liberation Sans;font-size:16.0px;font-style:normal;text-anchor:end;" transform="rotate(-0.000000, 40.626562, 460.742500)" x="40.6265625" y="460.7425">0.10</text>
     </g>
    </g>
    <g id="ytick_4">
     <g id="line2d_52">
      <path clip-path="url(#pde51aa0b3e)" d="
M47.6266 424.507
L298.918 424.507" style="fill:none;stroke:#ffffff;stroke-linecap:round;"/>
     </g>
     <g id="line2d_53">
      <g>
       <use style="fill:#262626;stroke:#262626;" x="47.6265625" xlink:href="#m219da94a98" y="424.5075"/>
      </g>
     </g>
     <g id="line2d_54">
      <g>
       <use style="fill:#262626;stroke:#262626;" x="298.917613636" xlink:href="#m219da94a98" y="424.5075"/>
      </g>
     </g>
     <g id="text_21">
      <text style="fill:#262626;font-family:Liberation Sans;font-size:16.0px;font-style:normal;text-anchor:end;" transform="rotate(-0.000000, 40.626562, 428.645000)" x="40.6265625" y="428.645">0.15</text>
     </g>
    </g>
    <g id="ytick_5">
     <g id="line2d_55">
      <path clip-path="url(#pde51aa0b3e)" d="
M47.6266 392.41
L298.918 392.41" style="fill:none;stroke:#ffffff;stroke-linecap:round;"/>
     </g>
     <g id="line2d_56">
      <g>
       <use style="fill:#262626;stroke:#262626;" x="47.6265625" xlink:href="#m219da94a98" y="392.41"/>
      </g>
     </g>
     <g id="line2d_57">
      <g>
       <use style="fill:#262626;stroke:#262626;" x="298.917613636" xlink:href="#m219da94a98" y="392.41"/>
      </g>
     </g>
     <g id="text_22">
      <text style="fill:#262626;font-family:Liberation Sans;font-size:16.0px;font-style:normal;text-anchor:end;" transform="rotate(-0.000000, 40.626562, 396.547500)" x="40.6265625" y="396.5475">0.20</text>
     </g>
    </g>
    <g id="ytick_6">
     <g id="line2d_58">
      <path clip-path="url(#pde51aa0b3e)" d="
M47.6266 360.312
L298.918 360.312" style="fill:none;stroke:#ffffff;stroke-linecap:round;"/>
     </g>
     <g id="line2d_59">
      <g>
       <use style="fill:#262626;stroke:#262626;" x="47.6265625" xlink:href="#m219da94a98" y="360.3125"/>
      </g>
     </g>
     <g id="line2d_60">
      <g>
       <use style="fill:#262626;stroke:#262626;" x="298.917613636" xlink:href="#m219da94a98" y="360.3125"/>
      </g>
     </g>
     <g id="text_23">
      <text style="fill:#262626;font-family:Liberation Sans;font-size:16.0px;font-style:normal;text-anchor:end;" transform="rotate(-0.000000, 40.626562, 364.450000)" x="40.6265625" y="364.45">0.25</text>
     </g>
    </g>
    <g id="ytick_7">
     <g id="line2d_61">
      <path clip-path="url(#pde51aa0b3e)" d="
M47.6266 328.215
L298.918 328.215" style="fill:none;stroke:#ffffff;stroke-linecap:round;"/>
     </g>
     <g id="line2d_62">
      <g>
       <use style="fill:#262626;stroke:#262626;" x="47.6265625" xlink:href="#m219da94a98" y="328.215"/>
      </g>
     </g>
     <g id="line2d_63">
      <g>
       <use style="fill:#262626;stroke:#262626;" x="298.917613636" xlink:href="#m219da94a98" y="328.215"/>
      </g>
     </g>
     <g id="text_24">
      <text style="fill:#262626;font-family:Liberation Sans;font-size:16.0px;font-style:normal;text-anchor:end;" transform="rotate(-0.000000, 40.626562, 332.352500)" x="40.6265625" y="332.3525">0.30</text>
     </g>
    </g>
    <g id="ytick_8">
     <g id="line2d_64">
      <path clip-path="url(#pde51aa0b3e)" d="
M47.6266 296.117
L298.918 296.117" style="fill:none;stroke:#ffffff;stroke-linecap:round;"/>
     </g>
     <g id="line2d_65">
      <g>
       <use style="fill:#262626;stroke:#262626;" x="47.6265625" xlink:href="#m219da94a98" y="296.1175"/>
      </g>
     </g>
     <g id="line2d_66">
      <g>
       <use style="fill:#262626;stroke:#262626;" x="298.917613636" xlink:href="#m219da94a98" y="296.1175"/>
      </g>
     </g>
     <g id="text_25">
      <text style="fill:#262626;font-family:Liberation Sans;font-size:16.0px;font-style:normal;text-anchor:end;" transform="rotate(-0.000000, 40.626562, 300.255000)" x="40.6265625" y="300.255">0.35</text>
     </g>
    </g>
    <g id="ytick_9">
     <g id="line2d_67">
      <path clip-path="url(#pde51aa0b3e)" d="
M47.6266 264.02
L298.918 264.02" style="fill:none;stroke:#ffffff;stroke-linecap:round;"/>
     </g>
     <g id="line2d_68">
      <g>
       <use style="fill:#262626;stroke:#262626;" x="47.6265625" xlink:href="#m219da94a98" y="264.02"/>
      </g>
     </g>
     <g id="line2d_69">
      <g>
       <use style="fill:#262626;stroke:#262626;" x="298.917613636" xlink:href="#m219da94a98" y="264.02"/>
      </g>
     </g>
     <g id="text_26">
      <text style="fill:#262626;font-family:Liberation Sans;font-size:16.0px;font-style:normal;text-anchor:end;" transform="rotate(-0.000000, 40.626562, 268.157500)" x="40.6265625" y="268.1575">0.40</text>
     </g>
    </g>
   </g>
   <g id="line2d_70">
    <path clip-path="url(#pde51aa0b3e)" d="
M67.5798 520.423
L69.2182 520.506
L70.8567 520.541
L75.7721 520.423
L80.6876 519.992
L83.9645 519.507
L87.2414 518.852
L92.1569 517.588
L101.988 514.627
L106.903 513.022
L110.18 511.693
L111.819 510.88
L113.457 509.933
L115.095 508.828
L116.734 507.546
L118.372 506.075
L120.011 504.409
L121.649 502.551
L124.926 498.315
L128.203 493.547
L138.034 478.556
L142.95 471.719
L149.503 462.885
L152.78 457.969
L154.419 455.231
L156.057 452.249
L157.696 448.986
L159.334 445.418
L160.973 441.531
L164.25 432.84
L167.527 423.169
L174.08 403.184
L177.357 394.219
L178.996 390.209
L180.634 386.534
L182.273 383.169
L185.55 377.122
L188.827 371.32
L190.465 368.208
L192.104 364.794
L193.742 360.977
L195.381 356.679
L197.019 351.862
L198.658 346.529
L201.935 334.553
L206.85 315.336
L208.488 309.361
L210.127 303.972
L211.765 299.386
L213.404 295.805
L215.042 293.405
L216.681 292.324
L218.319 292.664
L219.958 294.482
L221.596 297.796
L223.235 302.58
L224.873 308.776
L226.512 316.292
L228.15 325.01
L229.789 334.789
L231.427 345.472
L234.704 368.857
L242.896 430.421
L246.173 452.569
L247.812 462.542
L249.45 471.658
L251.089 479.867
L252.727 487.142
L254.366 493.49
L256.004 498.94
L257.643 503.545
L259.281 507.371
L260.92 510.498
L262.558 513.012
L264.197 514.999
L265.835 516.542
L267.473 517.721
L269.112 518.605
L270.75 519.256
L272.389 519.725
L275.666 520.279
L275.666 520.279" style="fill:none;stroke:#4c72b0;stroke-linecap:round;stroke-width:2;"/>
   </g>
   <g id="line2d_71">
    <path clip-path="url(#pde51aa0b3e)" d="
M66.6935 520.499
L68.3394 520.555
L69.9853 520.571
L74.9231 520.422
L79.8608 519.972
L83.1526 519.472
L86.4445 518.8
L91.3822 517.513
L99.6118 515.025
L104.55 513.418
L107.841 512.115
L109.487 511.325
L111.133 510.408
L112.779 509.338
L114.425 508.1
L116.071 506.679
L117.717 505.075
L121.009 501.355
L124.3 497.104
L137.468 479.277
L140.76 474.864
L144.051 470.087
L147.343 464.667
L150.635 458.402
L153.927 451.211
L157.219 443.136
L160.511 434.331
L165.448 420.313
L170.386 406.327
L173.678 397.581
L176.97 389.559
L180.262 382.264
L190.137 361.465
L191.783 357.481
L193.429 353.192
L195.075 348.568
L198.367 338.336
L203.304 321.413
L206.596 310.514
L208.242 305.705
L209.888 301.589
L211.534 298.361
L213.18 296.205
L214.826 295.277
L216.472 295.701
L218.118 297.56
L219.764 300.893
L221.409 305.694
L223.055 311.913
L224.701 319.459
L226.347 328.209
L227.993 338.01
L231.285 360.061
L236.223 396.389
L239.514 420.572
L242.806 443.173
L244.452 453.549
L246.098 463.177
L247.744 471.987
L249.39 479.936
L251.036 487.006
L252.682 493.202
L254.328 498.553
L255.974 503.103
L257.62 506.913
L259.265 510.054
L260.911 512.601
L262.557 514.635
L264.203 516.231
L265.849 517.463
L267.495 518.398
L269.141 519.096
L270.787 519.605
L274.079 520.224
L275.725 520.394
L275.725 520.394" style="fill:none;stroke:#d9544d;stroke-linecap:round;stroke-width:2;"/>
   </g>
   <g id="patch_8">
    <path d="
M47.6266 264.02
L298.918 264.02" style="fill:none;"/>
   </g>
   <g id="patch_9">
    <path d="
M298.918 520.8
L298.918 264.02" style="fill:none;"/>
   </g>
   <g id="patch_10">
    <path d="
M47.6266 520.8
L298.918 520.8" style="fill:none;"/>
   </g>
   <g id="patch_11">
    <path d="
M47.6266 520.8
L47.6266 264.02" style="fill:none;"/>
   </g>
   <g id="text_27">
    <text style="fill:#262626;font-family:Liberation Sans;font-size:18.0px;font-style:normal;" transform="translate(39.5419318182 239.63175)">Smooth histogram of smoothness</text>
    <text style="fill:#262626;font-family:Liberation Sans;font-size:18.0px;font-style:normal;" transform="translate(49.2239630682 259.02)">values estimated using SPARC</text>
   </g>
   <g id="legend_2">
    <g id="line2d_72">
     <path d="
M63.8266 291.38
L99.8266 291.38" style="fill:none;stroke:#4c72b0;stroke-linecap:round;stroke-width:2;"/>
    </g>
    <g id="line2d_73"/>
    <g id="text_28">
     <!-- $X_{noisy}^{fast}$ -->
     <g style="fill:#262626;" transform="translate(114.2265625 297.68)">
      <text>
       <tspan style="font-family:cmmi10;font-size:18.0px;font-style:regular;" x="0.0" y="-0.5448125">X</tspan>
       <tspan style="font-family:cmmi10;font-size:12.6px;font-style:regular;" x="14.90625 17.4324375 22.4674804688 23.5909335937 28.564453125 30.2416171875 32.9018554688 36.1355625 38.7958007813" y="4.915625 -9.11875 4.915625 -9.11875 4.915625 -9.11875 4.915625 -9.11875 4.915625">nfoaissty</tspan>
      </text>
     </g>
    </g>
    <g id="line2d_74">
     <path d="
M63.8266 325.04
L99.8266 325.04" style="fill:none;stroke:#d9544d;stroke-linecap:round;stroke-width:2;"/>
    </g>
    <g id="line2d_75"/>
    <g id="text_29">
     <!-- $X_{noisy}^{slow}$ -->
     <g style="fill:#262626;" transform="translate(114.2265625 331.34)">
      <text>
       <tspan style="font-family:cmmi10;font-size:18.0px;font-style:regular;" x="0.0" y="-0.55575">X</tspan>
       <tspan style="font-family:cmmi10;font-size:12.6px;font-style:regular;" x="14.90625 17.1196875 22.4674804688 23.0136328125 26.7665625 28.564453125 32.8635351562 32.9018554688 38.7958007813" y="4.0359375 -8.2609375 4.0359375 -8.2609375 -8.2609375 4.0359375 -8.2609375 4.0359375 4.0359375">nsoloiwsy</tspan>
      </text>
     </g>
    </g>
   </g>
  </g>
  <g id="axes_3">
   <g id="patch_12">
    <path d="
M366.227 520.8
L617.518 520.8
L617.518 264.02
L366.227 264.02
z
" style="fill:#eaeaf2;"/>
   </g>
   <g id="matplotlib.axis_5">
    <g id="xtick_13">
     <g id="line2d_76">
      <path clip-path="url(#p66e53e2ff4)" d="
M366.227 520.8
L366.227 264.02" style="fill:none;stroke:#ffffff;stroke-linecap:round;"/>
     </g>
     <g id="line2d_77">
      <g>
       <use style="fill:#262626;stroke:#262626;" x="366.2265625" xlink:href="#m219da94a98" y="520.8"/>
      </g>
     </g>
     <g id="line2d_78">
      <g>
       <use style="fill:#262626;stroke:#262626;" x="366.2265625" xlink:href="#m219da94a98" y="264.02"/>
      </g>
     </g>
     <g id="text_30">
      <text style="fill:#262626;font-family:Liberation Sans;font-size:16.0px;font-style:normal;text-anchor:middle;" transform="rotate(-0.000000, 366.226562, 539.395000)" x="366.2265625" y="539.395">−20</text>
     </g>
    </g>
    <g id="xtick_14">
     <g id="line2d_79">
      <path clip-path="url(#p66e53e2ff4)" d="
M397.638 520.8
L397.638 264.02" style="fill:none;stroke:#ffffff;stroke-linecap:round;"/>
     </g>
     <g id="line2d_80">
      <g>
       <use style="fill:#262626;stroke:#262626;" x="397.637943892" xlink:href="#m219da94a98" y="520.8"/>
      </g>
     </g>
     <g id="line2d_81">
      <g>
       <use style="fill:#262626;stroke:#262626;" x="397.637943892" xlink:href="#m219da94a98" y="264.02"/>
      </g>
     </g>
     <g id="text_31">
      <text style="fill:#262626;font-family:Liberation Sans;font-size:16.0px;font-style:normal;text-anchor:middle;" transform="rotate(-0.000000, 397.637944, 539.395000)" x="397.637943892" y="539.395">−18</text>
     </g>
    </g>
    <g id="xtick_15">
     <g id="line2d_82">
      <path clip-path="url(#p66e53e2ff4)" d="
M429.049 520.8
L429.049 264.02" style="fill:none;stroke:#ffffff;stroke-linecap:round;"/>
     </g>
     <g id="line2d_83">
      <g>
       <use style="fill:#262626;stroke:#262626;" x="429.049325284" xlink:href="#m219da94a98" y="520.8"/>
      </g>
     </g>
     <g id="line2d_84">
      <g>
       <use style="fill:#262626;stroke:#262626;" x="429.049325284" xlink:href="#m219da94a98" y="264.02"/>
      </g>
     </g>
     <g id="text_32">
      <text style="fill:#262626;font-family:Liberation Sans;font-size:16.0px;font-style:normal;text-anchor:middle;" transform="rotate(-0.000000, 429.049325, 539.395000)" x="429.049325284" y="539.395">−16</text>
     </g>
    </g>
    <g id="xtick_16">
     <g id="line2d_85">
      <path clip-path="url(#p66e53e2ff4)" d="
M460.461 520.8
L460.461 264.02" style="fill:none;stroke:#ffffff;stroke-linecap:round;"/>
     </g>
     <g id="line2d_86">
      <g>
       <use style="fill:#262626;stroke:#262626;" x="460.460706676" xlink:href="#m219da94a98" y="520.8"/>
      </g>
     </g>
     <g id="line2d_87">
      <g>
       <use style="fill:#262626;stroke:#262626;" x="460.460706676" xlink:href="#m219da94a98" y="264.02"/>
      </g>
     </g>
     <g id="text_33">
      <text style="fill:#262626;font-family:Liberation Sans;font-size:16.0px;font-style:normal;text-anchor:middle;" transform="rotate(-0.000000, 460.460707, 539.395000)" x="460.460706676" y="539.395">−14</text>
     </g>
    </g>
    <g id="xtick_17">
     <g id="line2d_88">
      <path clip-path="url(#p66e53e2ff4)" d="
M491.872 520.8
L491.872 264.02" style="fill:none;stroke:#ffffff;stroke-linecap:round;"/>
     </g>
     <g id="line2d_89">
      <g>
       <use style="fill:#262626;stroke:#262626;" x="491.872088068" xlink:href="#m219da94a98" y="520.8"/>
      </g>
     </g>
     <g id="line2d_90">
      <g>
       <use style="fill:#262626;stroke:#262626;" x="491.872088068" xlink:href="#m219da94a98" y="264.02"/>
      </g>
     </g>
     <g id="text_34">
      <text style="fill:#262626;font-family:Liberation Sans;font-size:16.0px;font-style:normal;text-anchor:middle;" transform="rotate(-0.000000, 491.872088, 539.395000)" x="491.872088068" y="539.395">−12</text>
     </g>
    </g>
    <g id="xtick_18">
     <g id="line2d_91">
      <path clip-path="url(#p66e53e2ff4)" d="
M523.283 520.8
L523.283 264.02" style="fill:none;stroke:#ffffff;stroke-linecap:round;"/>
     </g>
     <g id="line2d_92">
      <g>
       <use style="fill:#262626;stroke:#262626;" x="523.28346946" xlink:href="#m219da94a98" y="520.8"/>
      </g>
     </g>
     <g id="line2d_93">
      <g>
       <use style="fill:#262626;stroke:#262626;" x="523.28346946" xlink:href="#m219da94a98" y="264.02"/>
      </g>
     </g>
     <g id="text_35">
      <text style="fill:#262626;font-family:Liberation Sans;font-size:16.0px;font-style:normal;text-anchor:middle;" transform="rotate(-0.000000, 523.283469, 539.395000)" x="523.28346946" y="539.395">−10</text>
     </g>
    </g>
    <g id="xtick_19">
     <g id="line2d_94">
      <path clip-path="url(#p66e53e2ff4)" d="
M554.695 520.8
L554.695 264.02" style="fill:none;stroke:#ffffff;stroke-linecap:round;"/>
     </g>
     <g id="line2d_95">
      <g>
       <use style="fill:#262626;stroke:#262626;" x="554.694850852" xlink:href="#m219da94a98" y="520.8"/>
      </g>
     </g>
     <g id="line2d_96">
      <g>
       <use style="fill:#262626;stroke:#262626;" x="554.694850852" xlink:href="#m219da94a98" y="264.02"/>
      </g>
     </g>
     <g id="text_36">
      <text style="fill:#262626;font-family:Liberation Sans;font-size:16.0px;font-style:normal;text-anchor:middle;" transform="rotate(-0.000000, 554.694851, 539.395000)" x="554.694850852" y="539.395">−8</text>
     </g>
    </g>
    <g id="xtick_20">
     <g id="line2d_97">
      <path clip-path="url(#p66e53e2ff4)" d="
M586.106 520.8
L586.106 264.02" style="fill:none;stroke:#ffffff;stroke-linecap:round;"/>
     </g>
     <g id="line2d_98">
      <g>
       <use style="fill:#262626;stroke:#262626;" x="586.106232244" xlink:href="#m219da94a98" y="520.8"/>
      </g>
     </g>
     <g id="line2d_99">
      <g>
       <use style="fill:#262626;stroke:#262626;" x="586.106232244" xlink:href="#m219da94a98" y="264.02"/>
      </g>
     </g>
     <g id="text_37">
      <text style="fill:#262626;font-family:Liberation Sans;font-size:16.0px;font-style:normal;text-anchor:middle;" transform="rotate(-0.000000, 586.106232, 539.395000)" x="586.106232244" y="539.395">−6</text>
     </g>
    </g>
    <g id="xtick_21">
     <g id="line2d_100">
      <path clip-path="url(#p66e53e2ff4)" d="
M617.518 520.8
L617.518 264.02" style="fill:none;stroke:#ffffff;stroke-linecap:round;"/>
     </g>
     <g id="line2d_101">
      <g>
       <use style="fill:#262626;stroke:#262626;" x="617.517613636" xlink:href="#m219da94a98" y="520.8"/>
      </g>
     </g>
     <g id="line2d_102">
      <g>
       <use style="fill:#262626;stroke:#262626;" x="617.517613636" xlink:href="#m219da94a98" y="264.02"/>
      </g>
     </g>
     <g id="text_38">
      <text style="fill:#262626;font-family:Liberation Sans;font-size:16.0px;font-style:normal;text-anchor:middle;" transform="rotate(-0.000000, 617.517614, 539.395000)" x="617.517613636" y="539.395">−4</text>
     </g>
    </g>
    <g id="text_39">
     <text style="fill:#262626;font-family:Liberation Sans;font-size:18.0px;font-style:normal;text-anchor:middle;" transform="rotate(-0.000000, 491.872088, 560.759375)" x="491.872088068" y="560.759375">Smoothness</text>
    </g>
   </g>
   <g id="matplotlib.axis_6">
    <g id="ytick_10">
     <g id="line2d_103">
      <path clip-path="url(#p66e53e2ff4)" d="
M366.227 520.8
L617.518 520.8" style="fill:none;stroke:#ffffff;stroke-linecap:round;"/>
     </g>
     <g id="line2d_104">
      <g>
       <use style="fill:#262626;stroke:#262626;" x="366.2265625" xlink:href="#m219da94a98" y="520.8"/>
      </g>
     </g>
     <g id="line2d_105">
      <g>
       <use style="fill:#262626;stroke:#262626;" x="617.517613636" xlink:href="#m219da94a98" y="520.8"/>
      </g>
     </g>
     <g id="text_40">
      <text style="fill:#262626;font-family:Liberation Sans;font-size:16.0px;font-style:normal;text-anchor:end;" transform="rotate(-0.000000, 359.226562, 524.937500)" x="359.2265625" y="524.9375">0.00</text>
     </g>
    </g>
    <g id="ytick_11">
     <g id="line2d_106">
      <path clip-path="url(#p66e53e2ff4)" d="
M366.227 469.444
L617.518 469.444" style="fill:none;stroke:#ffffff;stroke-linecap:round;"/>
     </g>
     <g id="line2d_107">
      <g>
       <use style="fill:#262626;stroke:#262626;" x="366.2265625" xlink:href="#m219da94a98" y="469.444"/>
      </g>
     </g>
     <g id="line2d_108">
      <g>
       <use style="fill:#262626;stroke:#262626;" x="617.517613636" xlink:href="#m219da94a98" y="469.444"/>
      </g>
     </g>
     <g id="text_41">
      <text style="fill:#262626;font-family:Liberation Sans;font-size:16.0px;font-style:normal;text-anchor:end;" transform="rotate(-0.000000, 359.226562, 473.581500)" x="359.2265625" y="473.5815">0.05</text>
     </g>
    </g>
    <g id="ytick_12">
     <g id="line2d_109">
      <path clip-path="url(#p66e53e2ff4)" d="
M366.227 418.088
L617.518 418.088" style="fill:none;stroke:#ffffff;stroke-linecap:round;"/>
     </g>
     <g id="line2d_110">
      <g>
       <use style="fill:#262626;stroke:#262626;" x="366.2265625" xlink:href="#m219da94a98" y="418.088"/>
      </g>
     </g>
     <g id="line2d_111">
      <g>
       <use style="fill:#262626;stroke:#262626;" x="617.517613636" xlink:href="#m219da94a98" y="418.088"/>
      </g>
     </g>
     <g id="text_42">
      <text style="fill:#262626;font-family:Liberation Sans;font-size:16.0px;font-style:normal;text-anchor:end;" transform="rotate(-0.000000, 359.226562, 422.225500)" x="359.2265625" y="422.2255">0.10</text>
     </g>
    </g>
    <g id="ytick_13">
     <g id="line2d_112">
      <path clip-path="url(#p66e53e2ff4)" d="
M366.227 366.732
L617.518 366.732" style="fill:none;stroke:#ffffff;stroke-linecap:round;"/>
     </g>
     <g id="line2d_113">
      <g>
       <use style="fill:#262626;stroke:#262626;" x="366.2265625" xlink:href="#m219da94a98" y="366.732"/>
      </g>
     </g>
     <g id="line2d_114">
      <g>
       <use style="fill:#262626;stroke:#262626;" x="617.517613636" xlink:href="#m219da94a98" y="366.732"/>
      </g>
     </g>
     <g id="text_43">
      <text style="fill:#262626;font-family:Liberation Sans;font-size:16.0px;font-style:normal;text-anchor:end;" transform="rotate(-0.000000, 359.226562, 370.869500)" x="359.2265625" y="370.8695">0.15</text>
     </g>
    </g>
    <g id="ytick_14">
     <g id="line2d_115">
      <path clip-path="url(#p66e53e2ff4)" d="
M366.227 315.376
L617.518 315.376" style="fill:none;stroke:#ffffff;stroke-linecap:round;"/>
     </g>
     <g id="line2d_116">
      <g>
       <use style="fill:#262626;stroke:#262626;" x="366.2265625" xlink:href="#m219da94a98" y="315.376"/>
      </g>
     </g>
     <g id="line2d_117">
      <g>
       <use style="fill:#262626;stroke:#262626;" x="617.517613636" xlink:href="#m219da94a98" y="315.376"/>
      </g>
     </g>
     <g id="text_44">
      <text style="fill:#262626;font-family:Liberation Sans;font-size:16.0px;font-style:normal;text-anchor:end;" transform="rotate(-0.000000, 359.226562, 319.513500)" x="359.2265625" y="319.5135">0.20</text>
     </g>
    </g>
    <g id="ytick_15">
     <g id="line2d_118">
      <path clip-path="url(#p66e53e2ff4)" d="
M366.227 264.02
L617.518 264.02" style="fill:none;stroke:#ffffff;stroke-linecap:round;"/>
     </g>
     <g id="line2d_119">
      <g>
       <use style="fill:#262626;stroke:#262626;" x="366.2265625" xlink:href="#m219da94a98" y="264.02"/>
      </g>
     </g>
     <g id="line2d_120">
      <g>
       <use style="fill:#262626;stroke:#262626;" x="617.517613636" xlink:href="#m219da94a98" y="264.02"/>
      </g>
     </g>
     <g id="text_45">
      <text style="fill:#262626;font-family:Liberation Sans;font-size:16.0px;font-style:normal;text-anchor:end;" transform="rotate(-0.000000, 359.226562, 268.157500)" x="359.2265625" y="268.1575">0.25</text>
     </g>
    </g>
   </g>
   <g id="line2d_121">
    <path clip-path="url(#p66e53e2ff4)" d="
M419.344 520.547
L422.441 520.408
L425.538 520.024
L427.087 519.696
L428.635 519.243
L430.184 518.629
L431.732 517.816
L433.281 516.756
L434.829 515.4
L436.378 513.693
L437.926 511.582
L439.474 509.013
L441.023 505.941
L442.571 502.328
L444.12 498.149
L445.668 493.396
L447.217 488.078
L448.765 482.224
L451.862 469.119
L454.959 454.657
L464.25 409.853
L468.895 389.126
L475.089 363.002
L479.735 344.265
L482.831 332.762
L484.38 327.555
L485.928 322.842
L487.477 318.72
L489.025 315.277
L490.574 312.581
L492.122 310.677
L493.671 309.584
L495.219 309.29
L496.768 309.759
L498.316 310.927
L499.865 312.716
L501.413 315.037
L502.962 317.799
L504.51 320.918
L507.607 327.96
L510.704 335.815
L513.801 344.422
L516.898 353.884
L519.995 364.276
L523.092 375.479
L530.834 404.233
L533.931 414.629
L537.028 423.844
L540.125 431.862
L543.222 438.914
L547.867 448.519
L554.061 461.317
L561.803 477.748
L564.9 483.573
L566.449 486.151
L567.997 488.473
L569.546 490.533
L571.094 492.342
L572.642 493.925
L575.739 496.579
L583.482 502.496
L586.579 505.251
L594.321 512.586
L597.418 515.088
L598.966 516.153
L600.515 517.082
L602.063 517.876
L603.612 518.538
L606.709 519.512
L609.806 520.107
L612.903 520.426
L615.999 520.548
L615.999 520.548" style="fill:none;stroke:#4c72b0;stroke-linecap:round;stroke-width:2;"/>
   </g>
   <g id="line2d_122">
    <path clip-path="url(#p66e53e2ff4)" d="
M387.157 520.653
L391.654 520.437
L394.652 520.046
L397.65 519.302
L399.149 518.736
L400.648 517.998
L402.147 517.053
L403.646 515.86
L405.145 514.376
L406.644 512.554
L408.143 510.344
L409.642 507.697
L411.14 504.561
L412.639 500.883
L414.138 496.612
L415.637 491.701
L417.136 486.109
L418.635 479.803
L420.134 472.767
L421.633 465.001
L423.132 456.528
L426.13 437.697
L429.128 417.029
L435.124 374.909
L438.122 355.838
L441.12 338.998
L444.118 324.295
L447.115 311.218
L450.113 299.292
L453.111 288.537
L454.61 283.794
L456.109 279.656
L457.608 276.288
L459.107 273.855
L460.606 272.507
L462.105 272.363
L463.604 273.496
L465.103 275.924
L466.602 279.613
L468.101 284.472
L469.6 290.365
L471.099 297.12
L474.097 312.407
L480.093 344.44
L483.09 358.7
L486.088 371.105
L489.086 381.955
L498.08 412.725
L502.577 429.864
L507.074 446.869
L510.072 457.073
L513.07 465.926
L514.569 469.831
L517.567 476.714
L520.564 482.606
L523.562 487.782
L526.56 492.409
L529.558 496.53
L532.556 500.118
L535.554 503.152
L538.552 505.672
L541.55 507.789
L546.047 510.535
L553.542 514.78
L556.539 516.335
L559.537 517.691
L562.535 518.779
L565.533 519.578
L568.531 520.114
L571.529 520.438
L576.026 520.648
L577.525 520.663
L577.525 520.663" style="fill:none;stroke:#d9544d;stroke-linecap:round;stroke-width:2;"/>
   </g>
   <g id="patch_13">
    <path d="
M366.227 264.02
L617.518 264.02" style="fill:none;"/>
   </g>
   <g id="patch_14">
    <path d="
M617.518 520.8
L617.518 264.02" style="fill:none;"/>
   </g>
   <g id="patch_15">
    <path d="
M366.227 520.8
L617.518 520.8" style="fill:none;"/>
   </g>
   <g id="patch_16">
    <path d="
M366.227 520.8
L366.227 264.02" style="fill:none;"/>
   </g>
   <g id="text_46">
    <text style="fill:#262626;font-family:Liberation Sans;font-size:18.0px;font-style:normal;" transform="translate(358.141931818 239.63175)">Smooth histogram of smoothness</text>
    <text style="fill:#262626;font-family:Liberation Sans;font-size:18.0px;font-style:normal;" transform="translate(377.484900568 259.02)">values estimated using LDLJ</text>
   </g>
   <g id="legend_3">
    <g id="line2d_123">
     <path d="
M505.918 292.1
L541.918 292.1" style="fill:none;stroke:#4c72b0;stroke-linecap:round;stroke-width:2;"/>
    </g>
    <g id="line2d_124"/>
    <g id="text_47">
     <!-- $X_{filt}^{fast}$ -->
     <g style="fill:#262626;" transform="translate(556.317613636 298.4)">
      <text>
       <tspan style="font-family:cmmi10;font-size:18.0px;font-style:regular;" x="0.0" y="-0.9979375">X</tspan>
       <tspan style="font-family:cmmi10;font-size:12.6px;font-style:regular;" x="14.90625 17.6293125 21.0647460937 23.7878085938 25.4021484375 29.155078125 30.4384921875 36.3324375" y="5.009375 -10.11875 5.009375 -10.11875 5.009375 5.009375 -10.11875 -10.11875">ffialtst</tspan>
      </text>
     </g>
    </g>
    <g id="line2d_125">
     <path d="
M505.918 326.3
L541.918 326.3" style="fill:none;stroke:#d9544d;stroke-linecap:round;stroke-width:2;"/>
    </g>
    <g id="line2d_126"/>
    <g id="text_48">
     <!-- $X_{filt}^{slow}$ -->
     <g style="fill:#262626;" transform="translate(556.317613636 332.6)">
      <text>
       <tspan style="font-family:cmmi10;font-size:18.0px;font-style:regular;" x="0.0" y="-0.55575">X</tspan>
       <tspan style="font-family:cmmi10;font-size:12.6px;font-style:regular;" x="14.90625 17.1196875 21.0647460937 23.0136328125 25.4021484375 26.7665625 29.155078125 32.8635351562" y="4.0359375 -8.2609375 4.0359375 -8.2609375 4.0359375 -8.2609375 4.0359375 -8.2609375">fsillotw</tspan>
      </text>
     </g>
    </g>
   </g>
  </g>
 </g>
 <defs>
  <clipPath id="pde51aa0b3e">
   <rect height="256.78" width="251.291051136" x="47.6265625" y="264.02"/>
  </clipPath>
  <clipPath id="p66e53e2ff4">
   <rect height="256.78" width="251.291051136" x="366.2265625" y="264.02"/>
  </clipPath>
  <clipPath id="pe922993440">
   <rect height="139.42" width="569.891051136" x="47.6265625" y="29.3"/>
  </clipPath>
 </defs>
</svg>
