<?xml version="1.0" encoding="utf-8" standalone="no"?>
<!DOCTYPE svg PUBLIC "-//W3C//DTD SVG 1.1//EN"
  "http://www.w3.org/Graphics/SVG/1.1/DTD/svg11.dtd">
<!-- Created with matplotlib (http://matplotlib.org/) -->
<svg height="576pt" version="1.1" viewBox="0 0 648 576" width="648pt" xmlns="http://www.w3.org/2000/svg" xmlns:xlink="http://www.w3.org/1999/xlink">
 <defs>
  <style type="text/css">
*{stroke-linecap:butt;stroke-linejoin:round;}
  </style>
 </defs>
 <g id="figure_1">
  <g id="patch_1">
   <path d="
M0 576
L648 576
L648 0
L0 0
z
" style="fill:#ffffff;"/>
  </g>
  <g id="axes_1">
   <g id="patch_2">
    <path d="
M47.6266 168.72
L617.518 168.72
L617.518 29.3
L47.6266 29.3
z
" style="fill:#eaeaf2;"/>
   </g>
   <g id="matplotlib.axis_1">
    <g id="xtick_1">
     <g id="line2d_1">
      <path clip-path="url(#pe922993440)" d="
M47.6266 168.72
L47.6266 29.3" style="fill:none;stroke:#ffffff;stroke-linecap:round;"/>
     </g>
     <g id="line2d_2">
      <defs>
       <path d="
M0 0
L0 0" id="m219da94a98" style="stroke:#262626;"/>
      </defs>
      <g>
       <use style="fill:#262626;stroke:#262626;" x="47.6265625" xlink:href="#m219da94a98" y="168.72"/>
      </g>
     </g>
     <g id="line2d_3">
      <g>
       <use style="fill:#262626;stroke:#262626;" x="47.6265625" xlink:href="#m219da94a98" y="29.3"/>
      </g>
     </g>
     <g id="text_1">
      <text style="fill:#262626;font-family:Liberation Sans;font-size:18.0px;font-style:normal;text-anchor:middle;" transform="rotate(-0.000000, 47.626562, 188.764375)" x="47.6265625" y="188.764375">0</text>
     </g>
    </g>
    <g id="xtick_2">
     <g id="line2d_4">
      <path clip-path="url(#pe922993440)" d="
M138.605 168.72
L138.605 29.3" style="fill:none;stroke:#ffffff;stroke-linecap:round;"/>
     </g>
     <g id="line2d_5">
      <g>
       <use style="fill:#262626;stroke:#262626;" x="138.605338224" xlink:href="#m219da94a98" y="168.72"/>
      </g>
     </g>
     <g id="line2d_6">
      <g>
       <use style="fill:#262626;stroke:#262626;" x="138.605338224" xlink:href="#m219da94a98" y="29.3"/>
      </g>
     </g>
     <g id="text_2">
      <text style="fill:#262626;font-family:Liberation Sans;font-size:18.0px;font-style:normal;text-anchor:middle;" transform="rotate(-0.000000, 138.605338, 188.764375)" x="138.605338224" y="188.764375">1</text>
     </g>
    </g>
    <g id="xtick_3">
     <g id="line2d_7">
      <path clip-path="url(#pe922993440)" d="
M229.584 168.72
L229.584 29.3" style="fill:none;stroke:#ffffff;stroke-linecap:round;"/>
     </g>
     <g id="line2d_8">
      <g>
       <use style="fill:#262626;stroke:#262626;" x="229.584113948" xlink:href="#m219da94a98" y="168.72"/>
      </g>
     </g>
     <g id="line2d_9">
      <g>
       <use style="fill:#262626;stroke:#262626;" x="229.584113948" xlink:href="#m219da94a98" y="29.3"/>
      </g>
     </g>
     <g id="text_3">
      <text style="fill:#262626;font-family:Liberation Sans;font-size:18.0px;font-style:normal;text-anchor:middle;" transform="rotate(-0.000000, 229.584114, 188.764375)" x="229.584113948" y="188.764375">2</text>
     </g>
    </g>
    <g id="xtick_4">
     <g id="line2d_10">
      <path clip-path="url(#pe922993440)" d="
M320.563 168.72
L320.563 29.3" style="fill:none;stroke:#ffffff;stroke-linecap:round;"/>
     </g>
     <g id="line2d_11">
      <g>
       <use style="fill:#262626;stroke:#262626;" x="320.562889673" xlink:href="#m219da94a98" y="168.72"/>
      </g>
     </g>
     <g id="line2d_12">
      <g>
       <use style="fill:#262626;stroke:#262626;" x="320.562889673" xlink:href="#m219da94a98" y="29.3"/>
      </g>
     </g>
     <g id="text_4">
      <text style="fill:#262626;font-family:Liberation Sans;font-size:18.0px;font-style:normal;text-anchor:middle;" transform="rotate(-0.000000, 320.562890, 188.764375)" x="320.562889673" y="188.764375">3</text>
     </g>
    </g>
    <g id="xtick_5">
     <g id="line2d_13">
      <path clip-path="url(#pe922993440)" d="
M411.542 168.72
L411.542 29.3" style="fill:none;stroke:#ffffff;stroke-linecap:round;"/>
     </g>
     <g id="line2d_14">
      <g>
       <use style="fill:#262626;stroke:#262626;" x="411.541665397" xlink:href="#m219da94a98" y="168.72"/>
      </g>
     </g>
     <g id="line2d_15">
      <g>
       <use style="fill:#262626;stroke:#262626;" x="411.541665397" xlink:href="#m219da94a98" y="29.3"/>
      </g>
     </g>
     <g id="text_5">
      <text style="fill:#262626;font-family:Liberation Sans;font-size:18.0px;font-style:normal;text-anchor:middle;" transform="rotate(-0.000000, 411.541665, 188.764375)" x="411.541665397" y="188.764375">4</text>
     </g>
    </g>
    <g id="xtick_6">
     <g id="line2d_16">
      <path clip-path="url(#pe922993440)" d="
M502.52 168.72
L502.52 29.3" style="fill:none;stroke:#ffffff;stroke-linecap:round;"/>
     </g>
     <g id="line2d_17">
      <g>
       <use style="fill:#262626;stroke:#262626;" x="502.520441121" xlink:href="#m219da94a98" y="168.72"/>
      </g>
     </g>
     <g id="line2d_18">
      <g>
       <use style="fill:#262626;stroke:#262626;" x="502.520441121" xlink:href="#m219da94a98" y="29.3"/>
      </g>
     </g>
     <g id="text_6">
      <text style="fill:#262626;font-family:Liberation Sans;font-size:18.0px;font-style:normal;text-anchor:middle;" transform="rotate(-0.000000, 502.520441, 188.764375)" x="502.520441121" y="188.764375">5</text>
     </g>
    </g>
    <g id="xtick_7">
     <g id="line2d_19">
      <path clip-path="url(#pe922993440)" d="
M593.499 168.72
L593.499 29.3" style="fill:none;stroke:#ffffff;stroke-linecap:round;"/>
     </g>
     <g id="line2d_20">
      <g>
       <use style="fill:#262626;stroke:#262626;" x="593.499216845" xlink:href="#m219da94a98" y="168.72"/>
      </g>
     </g>
     <g id="line2d_21">
      <g>
       <use style="fill:#262626;stroke:#262626;" x="593.499216845" xlink:href="#m219da94a98" y="29.3"/>
      </g>
     </g>
     <g id="text_7">
      <text style="fill:#262626;font-family:Liberation Sans;font-size:18.0px;font-style:normal;text-anchor:middle;" transform="rotate(-0.000000, 593.499217, 188.764375)" x="593.499216845" y="188.764375">6</text>
     </g>
    </g>
    <g id="text_8">
     <text style="fill:#262626;font-family:Liberation Sans;font-size:18.0px;font-style:normal;text-anchor:middle;" transform="rotate(-0.000000, 332.572088, 210.543750)" x="332.572088068" y="210.54375">Time (s)</text>
    </g>
   </g>
   <g id="matplotlib.axis_2"/>
   <g id="line2d_22">
    <path clip-path="url(#pe922993440)" d="
M47.6266 163.022
L49.1732 130.491
L49.992 117.377
L50.6289 110.101
L51.1747 106.022
L51.6296 104.079
L51.9935 103.389
L52.2665 103.317
L52.5394 103.576
L52.9033 104.354
L53.4492 106.197
L55.6327 114.455
L56.0876 115.28
L56.4515 115.602
L56.8154 115.632
L57.1793 115.395
L57.6342 114.781
L58.2711 113.501
L60.0907 109.611
L60.6365 108.982
L61.0914 108.759
L61.5463 108.811
L62.0012 109.117
L62.6381 109.884
L64.0027 112.081
L64.8216 113.137
L65.3674 113.523
L65.8223 113.6
L66.2772 113.437
L66.7321 113.041
L67.369 112.131
L68.1878 110.501
L70.8262 104.857
L71.554 103.893
L72.2818 103.295
L73.0096 103.013
L73.8284 102.947
L75.648 102.897
L76.3759 102.618
L77.1037 102.083
L77.8315 101.261
L78.6503 99.9826
L79.5601 98.1363
L80.6519 95.3802
L82.0165 91.2572
L87.0204 75.3824
L91.2964 63.8193
L92.843 58.414
L95.6634 48.3305
L96.5731 45.9801
L97.21 44.86
L97.7559 44.31
L98.2108 44.1651
L98.5747 44.2611
L99.0296 44.646
L99.5754 45.4833
L100.212 46.9329
L101.031 49.4092
L102.305 54.0953
L104.852 63.5374
L107.945 74.372
L109.219 80.0232
L113.131 98.3781
L114.041 101.177
L114.86 103.013
L115.679 104.322
L116.679 105.466
L120.41 109.001
L121.41 109.73
L122.229 110.064
L122.957 110.132
L123.776 109.976
L125.14 109.423
L126.232 109.08
L126.96 109.063
L127.688 109.276
L128.416 109.722
L129.416 110.629
L131.418 112.513
L132.146 112.871
L132.783 112.943
L133.42 112.779
L134.147 112.331
L135.148 111.411
L136.786 109.909
L137.514 109.534
L138.15 109.435
L138.787 109.555
L139.515 109.921
L140.971 110.995
L141.881 111.514
L142.517 111.642
L143.063 111.542
L143.609 111.224
L144.246 110.572
L144.974 109.489
L145.975 107.552
L149.523 100.26
L152.525 94.9048
L153.799 91.9267
L156.528 85.2665
L157.347 83.8969
L158.075 83.0887
L158.712 82.6856
L159.439 82.5032
L160.531 82.5258
L161.714 82.4939
L162.533 82.2456
L163.534 81.6938
L164.898 80.9467
L165.535 80.8517
L166.081 81.0078
L166.627 81.4338
L167.173 82.1571
L167.81 83.38
L168.628 85.492
L169.811 89.2796
L172.177 96.9787
L173.268 99.7481
L174.36 101.943
L175.725 104.153
L177.635 106.786
L179 108.351
L180.183 109.374
L181.456 110.169
L183.64 111.488
L186.187 113.236
L186.824 113.361
L187.37 113.262
L187.916 112.949
L188.553 112.323
L189.462 111.059
L191.009 108.834
L191.646 108.302
L192.101 108.168
L192.556 108.27
L193.011 108.614
L193.557 109.329
L194.284 110.699
L196.559 115.376
L197.105 115.931
L197.56 116.093
L197.923 116.014
L198.378 115.658
L198.924 114.882
L199.652 113.381
L202.381 107.163
L203.018 106.416
L203.564 106.09
L204.11 106.026
L204.747 106.21
L205.748 106.797
L206.93 107.424
L207.658 107.566
L208.386 107.48
L209.296 107.122
L211.388 106.205
L212.298 106.122
L213.39 106.279
L214.664 106.448
L215.391 106.312
L216.028 105.956
L216.665 105.339
L217.393 104.306
L218.303 102.592
L219.849 99.0884
L221.669 95.1237
L223.489 91.7809
L225.035 88.7719
L226.218 85.9148
L227.583 81.9643
L230.403 73.6233
L231.495 71.1418
L232.586 69.1846
L234.224 66.7903
L235.862 64.2892
L239.41 58.5293
L240.047 58.0449
L240.593 57.9111
L241.047 58.02
L241.502 58.3375
L242.048 58.9913
L242.685 60.1054
L243.504 62.003
L244.778 65.6078
L247.416 73.1827
L250.418 81.3505
L251.51 85.2154
L252.784 90.6322
L255.695 103.463
L256.514 105.979
L257.242 107.516
L257.788 108.228
L258.333 108.593
L258.879 108.662
L259.425 108.504
L260.244 108.006
L263.519 105.514
L264.156 104.72
L264.793 103.565
L265.43 101.924
L266.158 99.3441
L266.976 95.5002
L267.977 89.6104
L271.616 66.7648
L272.435 63.5825
L273.072 61.9434
L273.618 61.1391
L273.982 60.9077
L274.346 60.9135
L274.71 61.1484
L275.164 61.7486
L275.71 62.8883
L276.347 64.7403
L277.166 67.828
L278.258 72.8827
L282.261 92.4126
L283.08 95.0191
L283.807 96.6562
L284.444 97.5548
L284.99 97.9495
L285.445 98.0395
L285.991 97.9018
L286.628 97.4762
L287.629 96.4724
L289.084 95.0343
L289.812 94.6145
L290.449 94.5013
L290.995 94.6106
L291.632 94.9737
L292.359 95.6628
L293.36 96.955
L296.726 101.582
L298.455 103.349
L302.731 107.366
L303.459 107.642
L304.096 107.648
L304.733 107.422
L305.46 106.904
L306.552 105.787
L307.917 104.442
L308.554 104.092
L309.1 104.02
L309.645 104.192
L310.191 104.612
L310.828 105.392
L311.738 106.903
L313.558 110.049
L314.285 110.826
L314.831 111.1
L315.286 111.11
L315.832 110.871
L316.469 110.303
L317.561 108.941
L318.47 107.921
L319.016 107.569
L319.471 107.497
L319.926 107.658
L320.381 108.062
L320.927 108.856
L321.655 110.348
L324.111 115.861
L324.657 116.451
L325.112 116.637
L325.476 116.581
L325.931 116.268
L326.477 115.593
L327.386 114.033
L328.387 112.403
L328.933 111.879
L329.297 111.757
L329.661 111.849
L330.025 112.172
L330.48 112.905
L331.025 114.245
L331.753 116.677
L332.572 119.93
L332.572 119.93" style="fill:none;stroke:#4c72b0;stroke-linecap:round;stroke-width:1.75;"/>
   </g>
   <g id="line2d_23">
    <path clip-path="url(#pe922993440)" d="
M47.6266 143.971
L49.3552 139.832
L50.2649 138.158
L51.0838 137.091
L51.8116 136.513
L52.4484 136.276
L53.0853 136.26
L53.8131 136.462
L54.8139 137.001
L57.4523 138.573
L58.2711 138.757
L58.9989 138.717
L59.8177 138.437
L60.7275 137.88
L64.0937 135.525
L64.9125 135.343
L65.7313 135.388
L66.6411 135.666
L67.8239 136.276
L69.7344 137.544
L71.9179 139.244
L75.0112 141.707
L76.0119 142.189
L76.9217 142.398
L77.9225 142.399
L79.4691 142.132
L83.8361 141.114
L84.7459 140.534
L85.8376 139.539
L88.658 136.749
L89.4768 136.348
L90.2046 136.251
L90.9325 136.393
L91.7513 136.795
L92.934 137.666
L95.1175 139.304
L96.0273 139.709
L96.8461 139.843
L97.5739 139.756
L98.3927 139.421
L99.3025 138.785
L100.576 137.577
L102.396 135.856
L103.306 135.294
L104.124 135.053
L104.943 135.061
L105.944 135.323
L107.945 135.928
L108.764 135.902
L109.492 135.652
L110.22 135.176
L111.13 134.297
L112.403 132.713
L114.587 129.986
L115.77 128.897
L116.952 128.134
L120.864 125.933
L124.413 123.225
L125.14 123.056
L125.868 123.101
L126.778 123.394
L128.325 123.939
L128.962 123.918
L129.507 123.68
L130.053 123.196
L130.69 122.296
L131.418 120.839
L132.419 118.256
L134.784 111.917
L135.512 110.611
L136.149 109.87
L136.695 109.538
L137.241 109.462
L137.878 109.639
L138.696 110.147
L140.516 111.357
L141.153 111.514
L141.79 111.44
L142.426 111.118
L143.154 110.461
L144.064 109.301
L146.611 105.835
L147.248 105.369
L147.794 105.197
L148.34 105.25
L148.886 105.526
L149.523 106.097
L150.433 107.255
L152.707 110.325
L153.526 110.994
L154.254 111.312
L155.072 111.41
L157.711 111.484
L158.439 111.874
L159.167 112.518
L160.076 113.652
L161.441 115.778
L163.17 118.409
L164.17 119.55
L165.08 120.264
L166.081 120.747
L168.81 121.823
L169.629 122.515
L170.448 123.504
L171.449 125.113
L172.813 127.818
L175.088 132.367
L176.18 134.026
L177.089 135.034
L177.999 135.725
L179 136.214
L180.819 136.793
L183.094 137.605
L184.914 138.198
L186.096 138.351
L187.279 138.275
L191.1 137.81
L192.01 138.05
L192.92 138.53
L193.829 139.261
L194.921 140.431
L198.196 144.192
L198.924 144.572
L199.47 144.637
L200.016 144.492
L200.562 144.126
L201.199 143.425
L202.018 142.14
L203.2 139.761
L205.02 136.068
L205.839 134.865
L206.476 134.252
L207.021 133.975
L207.567 133.927
L208.113 134.094
L208.75 134.527
L209.569 135.387
L210.752 137.019
L215.118 143.438
L215.937 144.163
L216.574 144.482
L217.211 144.547
L217.757 144.384
L218.394 143.94
L219.122 143.129
L220.122 141.633
L222.033 138.685
L222.761 137.957
L223.398 137.637
L223.943 137.63
L224.489 137.872
L225.126 138.451
L225.945 139.573
L228.856 143.996
L229.402 144.335
L229.857 144.403
L230.312 144.265
L230.858 143.827
L231.495 142.973
L232.313 141.447
L234.952 136.132
L235.589 135.4
L236.135 135.052
L236.68 134.957
L237.226 135.088
L237.954 135.529
L240.684 137.521
L241.411 137.646
L242.139 137.547
L243.049 137.183
L253.784 131.843
L256.605 130.753
L258.697 129.927
L259.698 129.786
L260.699 129.881
L263.246 130.292
L263.883 130.104
L264.52 129.688
L265.248 128.91
L266.067 127.678
L267.431 125.118
L268.705 122.864
L269.433 121.954
L270.07 121.498
L270.616 121.393
L271.161 121.555
L271.707 121.967
L272.435 122.84
L273.527 124.569
L274.983 126.821
L275.801 127.672
L276.438 128.024
L276.984 128.1
L277.621 127.945
L278.349 127.52
L280.714 125.894
L281.351 125.826
L281.897 125.996
L282.443 126.394
L283.08 127.14
L283.898 128.483
L285.263 131.264
L286.537 133.709
L287.356 134.827
L287.992 135.339
L288.538 135.506
L289.084 135.432
L289.721 135.081
L290.54 134.335
L292.268 132.668
L292.905 132.356
L293.451 132.31
L293.997 132.483
L294.634 132.947
L295.453 133.86
L297.545 136.357
L298.182 136.751
L298.728 136.868
L299.274 136.784
L300.002 136.414
L301.457 135.292
L302.367 134.767
L303.095 134.617
L303.823 134.729
L304.733 135.137
L306.279 135.873
L307.007 135.973
L307.735 135.855
L308.827 135.413
L309.827 135.079
L310.464 135.096
L311.01 135.324
L311.647 135.864
L312.375 136.808
L315.013 140.628
L315.559 140.905
L316.014 140.902
L316.469 140.682
L317.015 140.152
L317.743 139.085
L320.381 134.818
L321.018 134.362
L321.564 134.247
L322.11 134.374
L322.746 134.779
L323.656 135.682
L326.204 138.408
L327.568 139.425
L330.207 141.311
L332.117 142.706
L332.936 143.043
L333.664 143.11
L334.392 142.938
L335.21 142.485
L336.484 141.465
L337.667 140.603
L338.395 140.317
L339.032 140.291
L339.668 140.492
L340.396 140.98
L341.397 141.969
L343.035 143.623
L343.762 144.052
L344.399 144.167
L344.945 144.053
L345.582 143.68
L346.401 142.891
L349.403 139.594
L350.04 139.311
L350.677 139.259
L351.314 139.425
L352.133 139.902
L353.406 140.974
L354.953 142.22
L355.863 142.679
L356.681 142.852
L357.5 142.801
L358.501 142.493
L360.321 141.618
L361.867 140.988
L363.414 140.619
L365.506 140.131
L366.689 139.616
L368.145 138.718
L370.51 137.248
L371.602 136.841
L372.603 136.69
L373.694 136.76
L374.877 137.075
L376.333 137.711
L379.062 138.958
L379.972 139.079
L380.7 138.95
L381.428 138.58
L382.156 137.953
L383.065 136.851
L386.068 132.893
L386.704 132.53
L387.25 132.441
L387.887 132.58
L388.706 133.046
L390.253 134.018
L390.799 134.114
L391.344 133.972
L391.89 133.557
L392.527 132.721
L393.346 131.177
L395.893 125.942
L396.439 125.378
L396.894 125.166
L397.349 125.196
L397.804 125.454
L398.35 126.023
L399.169 127.241
L400.715 129.618
L401.352 130.199
L401.807 130.373
L402.262 130.323
L402.717 130.047
L403.263 129.432
L403.99 128.213
L405.173 125.678
L406.538 122.867
L407.357 121.644
L408.084 120.948
L408.721 120.626
L409.449 120.515
L410.632 120.622
L411.724 120.635
L412.542 120.407
L413.361 119.944
L414.726 118.858
L415.818 118.09
L416.545 117.81
L417.273 117.781
L418.001 117.991
L419.184 118.628
L420.185 119.075
L420.822 119.127
L421.367 118.959
L421.913 118.569
L422.55 117.839
L423.369 116.546
L425.916 112.239
L426.644 111.573
L427.281 111.314
L427.827 111.321
L428.464 111.559
L429.283 112.14
L430.465 113.292
L432.376 115.489
L436.015 119.835
L436.652 120.129
L437.198 120.132
L437.744 119.887
L438.38 119.299
L439.199 118.163
L441.292 115.034
L441.929 114.567
L442.383 114.476
L442.838 114.601
L443.384 115.025
L444.021 115.849
L444.931 117.437
L446.75 120.659
L447.569 121.619
L448.297 122.132
L449.025 122.382
L451.663 122.989
L452.482 123.595
L453.483 124.651
L455.757 127.169
L456.576 127.703
L457.395 127.963
L458.396 128.017
L459.76 128.088
L460.488 128.371
L461.125 128.859
L461.853 129.739
L462.672 131.132
L463.763 133.5
L465.947 138.383
L466.766 139.668
L467.403 140.321
L468.039 140.657
L468.585 140.707
L469.222 140.533
L470.041 140.057
L471.952 138.853
L472.679 138.688
L473.316 138.751
L474.044 139.047
L475.136 139.786
L476.41 140.603
L477.046 140.779
L477.592 140.73
L478.138 140.468
L478.775 139.887
L479.503 138.895
L480.595 136.973
L482.232 134.092
L483.051 133.06
L483.779 132.467
L484.507 132.156
L485.416 132.027
L486.963 131.837
L487.691 131.512
L488.419 130.96
L489.329 129.964
L490.602 128.188
L494.15 122.706
L495.424 120.284
L496.88 116.953
L498.881 112.363
L499.7 110.988
L500.337 110.267
L500.883 109.922
L501.429 109.833
L501.975 109.989
L502.611 110.445
L503.339 111.261
L504.431 112.87
L510.072 122.162
L512.255 126.278
L513.802 129.015
L514.712 130.231
L515.439 130.892
L516.167 131.254
L516.895 131.343
L517.714 131.205
L519.806 130.723
L520.625 130.834
L521.535 131.217
L523.718 132.277
L524.355 132.276
L524.992 132.029
L525.629 131.537
L526.539 130.508
L528.176 128.61
L528.813 128.238
L529.268 128.193
L529.723 128.355
L530.269 128.824
L530.906 129.717
L531.816 131.437
L533.362 134.367
L533.999 135.116
L534.454 135.383
L534.909 135.404
L535.364 135.18
L535.91 134.618
L536.637 133.485
L538.73 129.941
L539.276 129.483
L539.731 129.362
L540.186 129.495
L540.641 129.881
L541.186 130.653
L541.914 132.106
L543.461 135.91
L544.462 138.068
L545.189 139.15
L545.735 139.613
L546.19 139.755
L546.645 139.676
L547.191 139.305
L547.828 138.54
L548.647 137.16
L551.376 132.184
L552.013 131.569
L552.559 131.34
L553.014 131.379
L553.469 131.627
L554.014 132.19
L554.742 133.333
L555.743 135.393
L557.472 138.954
L558.199 139.953
L558.745 140.385
L559.291 140.524
L559.746 140.42
L560.292 140.058
L561.02 139.259
L563.749 135.86
L564.386 135.535
L565.023 135.474
L565.66 135.646
L566.569 136.171
L568.389 137.312
L569.208 137.539
L570.027 137.519
L571.027 137.237
L573.302 136.503
L574.303 136.456
L575.849 136.653
L577.305 136.765
L578.488 136.615
L581.399 136.075
L582.218 136.256
L582.946 136.639
L583.764 137.33
L584.765 138.49
L587.677 142.109
L588.404 142.562
L589.041 142.679
L589.587 142.552
L590.224 142.143
L590.952 141.367
L591.953 139.93
L593.681 137.403
L594.409 136.707
L595.046 136.401
L595.592 136.386
L596.138 136.593
L596.774 137.076
L597.775 138.169
L599.14 139.648
L599.868 140.116
L600.414 140.237
L600.959 140.147
L601.596 139.798
L602.415 139.068
L604.053 137.56
L604.69 137.305
L605.235 137.341
L605.781 137.631
L606.418 138.275
L607.237 139.469
L609.057 142.248
L609.693 142.789
L610.239 142.949
L610.694 142.854
L611.24 142.487
L611.968 141.661
L613.878 139.276
L614.424 139.004
L614.879 139.026
L615.334 139.295
L615.88 139.939
L616.517 141.072
L617.518 143.369
L617.518 143.369" style="fill:none;stroke:#d9544d;stroke-linecap:round;stroke-width:1.75;"/>
   </g>
   <g id="patch_3">
    <path d="
M47.6266 29.3
L617.518 29.3" style="fill:none;"/>
   </g>
   <g id="patch_4">
    <path d="
M617.518 168.72
L617.518 29.3" style="fill:none;"/>
   </g>
   <g id="patch_5">
    <path d="
M47.6266 168.72
L617.518 168.72" style="fill:none;"/>
   </g>
   <g id="patch_6">
    <path d="
M47.6266 168.72
L47.6266 29.3" style="fill:none;"/>
   </g>
   <g id="text_9">
    <text style="fill:#262626;font-family:Liberation Sans;font-size:18.0px;font-style:normal;text-anchor:middle;" transform="rotate(-0.000000, 332.572088, 24.300000)" x="332.572088068" y="24.3">Movements of two different scales</text>
   </g>
   <g id="legend_1">
    <g id="line2d_24">
     <path d="
M502.498 52.7
L538.498 52.7" style="fill:none;stroke:#4c72b0;stroke-linecap:round;stroke-width:1.75;"/>
    </g>
    <g id="line2d_25"/>
    <g id="text_10">
     <!-- $x(t)$ -->
     <g style="fill:#262626;" transform="translate(552.897613636 59.0)">
      <text>
       <tspan style="font-family:cmmi10;font-size:18.0px;font-style:regular;" x="0.0 17.26171875" y="-0.5">xt</tspan>
       <tspan style="font-family:cmr10;font-size:18.0px;font-style:regular;" x="10.2744140625 23.7568359375" y="-0.5">()</tspan>
      </text>
     </g>
    </g>
    <g id="line2d_26">
     <path d="
M502.498 81.5
L538.498 81.5" style="fill:none;stroke:#d9544d;stroke-linecap:round;stroke-width:1.75;"/>
    </g>
    <g id="line2d_27"/>
    <g id="text_11">
     <!-- $\frac{1}{2}x(2t)$ -->
     <g style="fill:#262626;" transform="translate(552.897613636 87.8)">
      <text>
       <tspan style="font-family:cmmi10;font-size:18.0px;font-style:regular;" x="8.55 34.81171875" y="-0.8609375">xt</tspan>
       <tspan style="font-family:cmr10;font-size:12.6px;font-style:regular;" x="0.0 0.0" y="-7.6109375 6.403125">12</tspan>
       <tspan style="font-family:cmr10;font-size:18.0px;font-style:regular;" x="18.8244140625 25.81171875 41.3068359375" y="-0.8609375">(2)</tspan>
      </text>
      <rect height="1.125" width="6.3" x="0.0" y="-4.1109375"/>
     </g>
    </g>
   </g>
  </g>
  <g id="axes_2">
   <g id="patch_7">
    <path d="
M47.6266 520.8
L298.918 520.8
L298.918 264.02
L47.6266 264.02
z
" style="fill:#eaeaf2;"/>
   </g>
   <g id="matplotlib.axis_3">
    <g id="xtick_8">
     <g id="line2d_28">
      <path clip-path="url(#pde51aa0b3e)" d="
M47.6266 520.8
L47.6266 264.02" style="fill:none;stroke:#ffffff;stroke-linecap:round;"/>
     </g>
     <g id="line2d_29">
      <g>
       <use style="fill:#262626;stroke:#262626;" x="47.6265625" xlink:href="#m219da94a98" y="520.8"/>
      </g>
     </g>
     <g id="line2d_30">
      <g>
       <use style="fill:#262626;stroke:#262626;" x="47.6265625" xlink:href="#m219da94a98" y="264.02"/>
      </g>
     </g>
     <g id="text_12">
      <text style="fill:#262626;font-family:Liberation Sans;font-size:16.0px;font-style:normal;text-anchor:middle;" transform="rotate(-0.000000, 47.626563, 539.395000)" x="47.6265625" y="539.395">−12</text>
     </g>
    </g>
    <g id="xtick_9">
     <g id="line2d_31">
      <path clip-path="url(#pde51aa0b3e)" d="
M83.5253 520.8
L83.5253 264.02" style="fill:none;stroke:#ffffff;stroke-linecap:round;"/>
     </g>
     <g id="line2d_32">
      <g>
       <use style="fill:#262626;stroke:#262626;" x="83.5252840909" xlink:href="#m219da94a98" y="520.8"/>
      </g>
     </g>
     <g id="line2d_33">
      <g>
       <use style="fill:#262626;stroke:#262626;" x="83.5252840909" xlink:href="#m219da94a98" y="264.02"/>
      </g>
     </g>
     <g id="text_13">
      <text style="fill:#262626;font-family:Liberation Sans;font-size:16.0px;font-style:normal;text-anchor:middle;" transform="rotate(-0.000000, 83.525284, 539.395000)" x="83.5252840909" y="539.395">−10</text>
     </g>
    </g>
    <g id="xtick_10">
     <g id="line2d_34">
      <path clip-path="url(#pde51aa0b3e)" d="
M119.424 520.8
L119.424 264.02" style="fill:none;stroke:#ffffff;stroke-linecap:round;"/>
     </g>
     <g id="line2d_35">
      <g>
       <use style="fill:#262626;stroke:#262626;" x="119.424005682" xlink:href="#m219da94a98" y="520.8"/>
      </g>
     </g>
     <g id="line2d_36">
      <g>
       <use style="fill:#262626;stroke:#262626;" x="119.424005682" xlink:href="#m219da94a98" y="264.02"/>
      </g>
     </g>
     <g id="text_14">
      <text style="fill:#262626;font-family:Liberation Sans;font-size:16.0px;font-style:normal;text-anchor:middle;" transform="rotate(-0.000000, 119.424006, 539.395000)" x="119.424005682" y="539.395">−8</text>
     </g>
    </g>
    <g id="xtick_11">
     <g id="line2d_37">
      <path clip-path="url(#pde51aa0b3e)" d="
M155.323 520.8
L155.323 264.02" style="fill:none;stroke:#ffffff;stroke-linecap:round;"/>
     </g>
     <g id="line2d_38">
      <g>
       <use style="fill:#262626;stroke:#262626;" x="155.322727273" xlink:href="#m219da94a98" y="520.8"/>
      </g>
     </g>
     <g id="line2d_39">
      <g>
       <use style="fill:#262626;stroke:#262626;" x="155.322727273" xlink:href="#m219da94a98" y="264.02"/>
      </g>
     </g>
     <g id="text_15">
      <text style="fill:#262626;font-family:Liberation Sans;font-size:16.0px;font-style:normal;text-anchor:middle;" transform="rotate(-0.000000, 155.322727, 539.395000)" x="155.322727273" y="539.395">−6</text>
     </g>
    </g>
    <g id="xtick_12">
     <g id="line2d_40">
      <path clip-path="url(#pde51aa0b3e)" d="
M191.221 520.8
L191.221 264.02" style="fill:none;stroke:#ffffff;stroke-linecap:round;"/>
     </g>
     <g id="line2d_41">
      <g>
       <use style="fill:#262626;stroke:#262626;" x="191.221448864" xlink:href="#m219da94a98" y="520.8"/>
      </g>
     </g>
     <g id="line2d_42">
      <g>
       <use style="fill:#262626;stroke:#262626;" x="191.221448864" xlink:href="#m219da94a98" y="264.02"/>
      </g>
     </g>
     <g id="text_16">
      <text style="fill:#262626;font-family:Liberation Sans;font-size:16.0px;font-style:normal;text-anchor:middle;" transform="rotate(-0.000000, 191.221449, 539.395000)" x="191.221448864" y="539.395">−4</text>
     </g>
    </g>
    <g id="xtick_13">
     <g id="line2d_43">
      <path clip-path="url(#pde51aa0b3e)" d="
M227.12 520.8
L227.12 264.02" style="fill:none;stroke:#ffffff;stroke-linecap:round;"/>
     </g>
     <g id="line2d_44">
      <g>
       <use style="fill:#262626;stroke:#262626;" x="227.120170455" xlink:href="#m219da94a98" y="520.8"/>
      </g>
     </g>
     <g id="line2d_45">
      <g>
       <use style="fill:#262626;stroke:#262626;" x="227.120170455" xlink:href="#m219da94a98" y="264.02"/>
      </g>
     </g>
     <g id="text_17">
      <text style="fill:#262626;font-family:Liberation Sans;font-size:16.0px;font-style:normal;text-anchor:middle;" transform="rotate(-0.000000, 227.120170, 539.395000)" x="227.120170455" y="539.395">−2</text>
     </g>
    </g>
    <g id="xtick_14">
     <g id="line2d_46">
      <path clip-path="url(#pde51aa0b3e)" d="
M263.019 520.8
L263.019 264.02" style="fill:none;stroke:#ffffff;stroke-linecap:round;"/>
     </g>
     <g id="line2d_47">
      <g>
       <use style="fill:#262626;stroke:#262626;" x="263.018892045" xlink:href="#m219da94a98" y="520.8"/>
      </g>
     </g>
     <g id="line2d_48">
      <g>
       <use style="fill:#262626;stroke:#262626;" x="263.018892045" xlink:href="#m219da94a98" y="264.02"/>
      </g>
     </g>
     <g id="text_18">
      <text style="fill:#262626;font-family:Liberation Sans;font-size:16.0px;font-style:normal;text-anchor:middle;" transform="rotate(-0.000000, 263.018892, 539.395000)" x="263.018892045" y="539.395">0</text>
     </g>
    </g>
    <g id="xtick_15">
     <g id="line2d_49">
      <path clip-path="url(#pde51aa0b3e)" d="
M298.918 520.8
L298.918 264.02" style="fill:none;stroke:#ffffff;stroke-linecap:round;"/>
     </g>
     <g id="line2d_50">
      <g>
       <use style="fill:#262626;stroke:#262626;" x="298.917613636" xlink:href="#m219da94a98" y="520.8"/>
      </g>
     </g>
     <g id="line2d_51">
      <g>
       <use style="fill:#262626;stroke:#262626;" x="298.917613636" xlink:href="#m219da94a98" y="264.02"/>
      </g>
     </g>
     <g id="text_19">
      <text style="fill:#262626;font-family:Liberation Sans;font-size:16.0px;font-style:normal;text-anchor:middle;" transform="rotate(-0.000000, 298.917614, 539.395000)" x="298.917613636" y="539.395">2</text>
     </g>
    </g>
    <g id="text_20">
     <text style="fill:#262626;font-family:Liberation Sans;font-size:18.0px;font-style:normal;text-anchor:middle;" transform="rotate(-0.000000, 173.272088, 560.759375)" x="173.272088068" y="560.759375">Smoothness</text>
    </g>
   </g>
   <g id="matplotlib.axis_4">
    <g id="ytick_1">
     <g id="line2d_52">
      <path clip-path="url(#pde51aa0b3e)" d="
M47.6266 520.8
L298.918 520.8" style="fill:none;stroke:#ffffff;stroke-linecap:round;"/>
     </g>
     <g id="line2d_53">
      <g>
       <use style="fill:#262626;stroke:#262626;" x="47.6265625" xlink:href="#m219da94a98" y="520.8"/>
      </g>
     </g>
     <g id="line2d_54">
      <g>
       <use style="fill:#262626;stroke:#262626;" x="298.917613636" xlink:href="#m219da94a98" y="520.8"/>
      </g>
     </g>
     <g id="text_21">
      <text style="fill:#262626;font-family:Liberation Sans;font-size:16.0px;font-style:normal;text-anchor:end;" transform="rotate(-0.000000, 40.626562, 524.937500)" x="40.6265625" y="524.9375">0.00</text>
     </g>
    </g>
    <g id="ytick_2">
     <g id="line2d_55">
      <path clip-path="url(#pde51aa0b3e)" d="
M47.6266 484.117
L298.918 484.117" style="fill:none;stroke:#ffffff;stroke-linecap:round;"/>
     </g>
     <g id="line2d_56">
      <g>
       <use style="fill:#262626;stroke:#262626;" x="47.6265625" xlink:href="#m219da94a98" y="484.117142857"/>
      </g>
     </g>
     <g id="line2d_57">
      <g>
       <use style="fill:#262626;stroke:#262626;" x="298.917613636" xlink:href="#m219da94a98" y="484.117142857"/>
      </g>
     </g>
     <g id="text_22">
      <text style="fill:#262626;font-family:Liberation Sans;font-size:16.0px;font-style:normal;text-anchor:end;" transform="rotate(-0.000000, 40.626562, 488.254643)" x="40.6265625" y="488.254642857">0.05</text>
     </g>
    </g>
    <g id="ytick_3">
     <g id="line2d_58">
      <path clip-path="url(#pde51aa0b3e)" d="
M47.6266 447.434
L298.918 447.434" style="fill:none;stroke:#ffffff;stroke-linecap:round;"/>
     </g>
     <g id="line2d_59">
      <g>
       <use style="fill:#262626;stroke:#262626;" x="47.6265625" xlink:href="#m219da94a98" y="447.434285714"/>
      </g>
     </g>
     <g id="line2d_60">
      <g>
       <use style="fill:#262626;stroke:#262626;" x="298.917613636" xlink:href="#m219da94a98" y="447.434285714"/>
      </g>
     </g>
     <g id="text_23">
      <text style="fill:#262626;font-family:Liberation Sans;font-size:16.0px;font-style:normal;text-anchor:end;" transform="rotate(-0.000000, 40.626562, 451.571786)" x="40.6265625" y="451.571785714">0.10</text>
     </g>
    </g>
    <g id="ytick_4">
     <g id="line2d_61">
      <path clip-path="url(#pde51aa0b3e)" d="
M47.6266 410.751
L298.918 410.751" style="fill:none;stroke:#ffffff;stroke-linecap:round;"/>
     </g>
     <g id="line2d_62">
      <g>
       <use style="fill:#262626;stroke:#262626;" x="47.6265625" xlink:href="#m219da94a98" y="410.751428571"/>
      </g>
     </g>
     <g id="line2d_63">
      <g>
       <use style="fill:#262626;stroke:#262626;" x="298.917613636" xlink:href="#m219da94a98" y="410.751428571"/>
      </g>
     </g>
     <g id="text_24">
      <text style="fill:#262626;font-family:Liberation Sans;font-size:16.0px;font-style:normal;text-anchor:end;" transform="rotate(-0.000000, 40.626562, 414.888929)" x="40.6265625" y="414.888928571">0.15</text>
     </g>
    </g>
    <g id="ytick_5">
     <g id="line2d_64">
      <path clip-path="url(#pde51aa0b3e)" d="
M47.6266 374.069
L298.918 374.069" style="fill:none;stroke:#ffffff;stroke-linecap:round;"/>
     </g>
     <g id="line2d_65">
      <g>
       <use style="fill:#262626;stroke:#262626;" x="47.6265625" xlink:href="#m219da94a98" y="374.068571429"/>
      </g>
     </g>
     <g id="line2d_66">
      <g>
       <use style="fill:#262626;stroke:#262626;" x="298.917613636" xlink:href="#m219da94a98" y="374.068571429"/>
      </g>
     </g>
     <g id="text_25">
      <text style="fill:#262626;font-family:Liberation Sans;font-size:16.0px;font-style:normal;text-anchor:end;" transform="rotate(-0.000000, 40.626562, 378.206071)" x="40.6265625" y="378.206071429">0.20</text>
     </g>
    </g>
    <g id="ytick_6">
     <g id="line2d_67">
      <path clip-path="url(#pde51aa0b3e)" d="
M47.6266 337.386
L298.918 337.386" style="fill:none;stroke:#ffffff;stroke-linecap:round;"/>
     </g>
     <g id="line2d_68">
      <g>
       <use style="fill:#262626;stroke:#262626;" x="47.6265625" xlink:href="#m219da94a98" y="337.385714286"/>
      </g>
     </g>
     <g id="line2d_69">
      <g>
       <use style="fill:#262626;stroke:#262626;" x="298.917613636" xlink:href="#m219da94a98" y="337.385714286"/>
      </g>
     </g>
     <g id="text_26">
      <text style="fill:#262626;font-family:Liberation Sans;font-size:16.0px;font-style:normal;text-anchor:end;" transform="rotate(-0.000000, 40.626562, 341.523214)" x="40.6265625" y="341.523214286">0.25</text>
     </g>
    </g>
    <g id="ytick_7">
     <g id="line2d_70">
      <path clip-path="url(#pde51aa0b3e)" d="
M47.6266 300.703
L298.918 300.703" style="fill:none;stroke:#ffffff;stroke-linecap:round;"/>
     </g>
     <g id="line2d_71">
      <g>
       <use style="fill:#262626;stroke:#262626;" x="47.6265625" xlink:href="#m219da94a98" y="300.702857143"/>
      </g>
     </g>
     <g id="line2d_72">
      <g>
       <use style="fill:#262626;stroke:#262626;" x="298.917613636" xlink:href="#m219da94a98" y="300.702857143"/>
      </g>
     </g>
     <g id="text_27">
      <text style="fill:#262626;font-family:Liberation Sans;font-size:16.0px;font-style:normal;text-anchor:end;" transform="rotate(-0.000000, 40.626562, 304.840357)" x="40.6265625" y="304.840357143">0.30</text>
     </g>
    </g>
    <g id="ytick_8">
     <g id="line2d_73">
      <path clip-path="url(#pde51aa0b3e)" d="
M47.6266 264.02
L298.918 264.02" style="fill:none;stroke:#ffffff;stroke-linecap:round;"/>
     </g>
     <g id="line2d_74">
      <g>
       <use style="fill:#262626;stroke:#262626;" x="47.6265625" xlink:href="#m219da94a98" y="264.02"/>
      </g>
     </g>
     <g id="line2d_75">
      <g>
       <use style="fill:#262626;stroke:#262626;" x="298.917613636" xlink:href="#m219da94a98" y="264.02"/>
      </g>
     </g>
     <g id="text_28">
      <text style="fill:#262626;font-family:Liberation Sans;font-size:16.0px;font-style:normal;text-anchor:end;" transform="rotate(-0.000000, 40.626562, 268.157500)" x="40.6265625" y="268.1575">0.35</text>
     </g>
    </g>
   </g>
   <g id="line2d_76">
    <path clip-path="url(#pde51aa0b3e)" d="
M108.594 520.551
L112.308 520.548
L116.022 520.248
L118.497 519.846
L120.973 519.233
L123.449 518.368
L125.925 517.232
L128.401 515.832
L130.877 514.208
L134.59 511.477
L140.78 506.57
L145.732 502.418
L148.207 500.137
L150.683 497.565
L153.159 494.531
L155.635 490.843
L156.873 488.698
L159.349 483.733
L161.825 477.839
L164.3 471.082
L166.776 463.612
L170.49 451.428
L174.204 438.337
L177.918 424.289
L181.631 409.216
L187.821 383.568
L190.297 374.254
L192.773 365.959
L195.248 358.645
L201.438 341.575
L203.914 333.65
L206.39 324.643
L212.579 300.474
L213.817 296.295
L215.055 292.671
L216.293 289.746
L217.531 287.658
L218.769 286.534
L220.007 286.488
L221.245 287.615
L222.483 289.994
L223.721 293.679
L224.958 298.699
L226.196 305.052
L227.434 312.707
L228.672 321.598
L229.91 331.622
L232.386 354.502
L236.1 393.061
L239.813 431.479
L242.289 454.328
L243.527 464.481
L244.765 473.672
L246.003 481.86
L247.241 489.038
L248.479 495.232
L249.717 500.491
L250.955 504.887
L252.193 508.501
L253.431 511.426
L254.669 513.756
L255.906 515.581
L257.144 516.989
L258.382 518.056
L259.62 518.852
L260.858 519.434
L262.096 519.853
L264.572 520.347
L265.81 520.476
L265.81 520.476" style="fill:none;stroke:#4c72b0;stroke-linecap:round;stroke-width:2;"/>
   </g>
   <g id="line2d_77">
    <path clip-path="url(#pde51aa0b3e)" d="
M72.5768 520.61
L77.166 520.527
L80.2255 520.306
L83.2849 519.901
L86.3444 519.246
L89.4038 518.273
L92.4633 516.941
L95.5227 515.264
L100.112 512.323
L104.701 509.429
L107.761 507.867
L110.82 506.739
L113.879 506.008
L119.998 504.808
L121.528 504.319
L123.058 503.674
L124.588 502.843
L126.117 501.806
L127.647 500.557
L129.177 499.099
L130.706 497.443
L133.766 493.614
L136.825 489.223
L139.885 484.345
L142.944 478.898
L146.004 472.655
L147.533 469.146
L149.063 465.335
L150.593 461.205
L153.652 451.976
L156.712 441.627
L165.89 409.173
L168.95 400.024
L170.479 396.011
L172.009 392.378
L173.539 389.103
L175.069 386.14
L178.128 380.891
L184.247 371.034
L187.306 365.572
L194.955 351.075
L196.485 348.55
L198.014 346.331
L199.544 344.489
L201.074 343.081
L202.604 342.151
L204.133 341.735
L205.663 341.859
L207.193 342.541
L208.723 343.802
L210.252 345.658
L211.782 348.132
L213.312 351.248
L214.841 355.032
L216.371 359.508
L217.901 364.694
L219.431 370.599
L220.96 377.215
L222.49 384.513
L225.55 400.913
L228.609 419.074
L234.728 456.244
L237.787 472.886
L239.317 480.3
L240.847 487.013
L242.377 492.989
L243.906 498.218
L245.436 502.717
L246.966 506.522
L248.495 509.685
L250.025 512.272
L251.555 514.351
L253.085 515.994
L254.614 517.27
L256.144 518.245
L257.674 518.977
L259.204 519.517
L262.263 520.185
L265.322 520.499
L266.852 520.574
L266.852 520.574" style="fill:none;stroke:#d9544d;stroke-linecap:round;stroke-width:2;"/>
   </g>
   <g id="patch_8">
    <path d="
M47.6266 264.02
L298.918 264.02" style="fill:none;"/>
   </g>
   <g id="patch_9">
    <path d="
M298.918 520.8
L298.918 264.02" style="fill:none;"/>
   </g>
   <g id="patch_10">
    <path d="
M47.6266 520.8
L298.918 520.8" style="fill:none;"/>
   </g>
   <g id="patch_11">
    <path d="
M47.6266 520.8
L47.6266 264.02" style="fill:none;"/>
   </g>
   <g id="text_29">
    <text style="fill:#262626;font-family:Liberation Sans;font-size:18.0px;font-style:normal;" transform="translate(39.5419318182 239.63175)">Smooth histogram of smoothness</text>
    <text style="fill:#262626;font-family:Liberation Sans;font-size:18.0px;font-style:normal;" transform="translate(49.2239630682 259.02)">values estimated using SPARC</text>
   </g>
   <g id="legend_2">
    <g id="line2d_78">
     <path d="
M63.8266 291.38
L99.8266 291.38" style="fill:none;stroke:#4c72b0;stroke-linecap:round;stroke-width:2;"/>
    </g>
    <g id="line2d_79"/>
    <g id="text_30">
     <!-- $X_{noisy}^{fast}$ -->
     <g style="fill:#262626;" transform="translate(114.2265625 297.68)">
      <text>
       <tspan style="font-family:cmmi10;font-size:18.0px;font-style:regular;" x="0.0" y="-0.5448125">X</tspan>
       <tspan style="font-family:cmmi10;font-size:12.6px;font-style:regular;" x="14.90625 17.4324375 22.4674804688 23.5909335937 28.564453125 30.2416171875 32.9018554688 36.1355625 38.7958007813" y="4.915625 -9.11875 4.915625 -9.11875 4.915625 -9.11875 4.915625 -9.11875 4.915625">nfoaissty</tspan>
      </text>
     </g>
    </g>
    <g id="line2d_80">
     <path d="
M63.8266 325.04
L99.8266 325.04" style="fill:none;stroke:#d9544d;stroke-linecap:round;stroke-width:2;"/>
    </g>
    <g id="line2d_81"/>
    <g id="text_31">
     <!-- $X_{noisy}^{slow}$ -->
     <g style="fill:#262626;" transform="translate(114.2265625 331.34)">
      <text>
       <tspan style="font-family:cmmi10;font-size:18.0px;font-style:regular;" x="0.0" y="-0.55575">X</tspan>
       <tspan style="font-family:cmmi10;font-size:12.6px;font-style:regular;" x="14.90625 17.1196875 22.4674804688 23.0136328125 26.7665625 28.564453125 32.8635351562 32.9018554688 38.7958007813" y="4.0359375 -8.2609375 4.0359375 -8.2609375 -8.2609375 4.0359375 -8.2609375 4.0359375 4.0359375">nsoloiwsy</tspan>
      </text>
     </g>
    </g>
   </g>
  </g>
  <g id="axes_3">
   <g id="patch_12">
    <path d="
M366.227 520.8
L617.518 520.8
L617.518 264.02
L366.227 264.02
z
" style="fill:#eaeaf2;"/>
   </g>
   <g id="matplotlib.axis_5">
    <g id="xtick_16">
     <g id="line2d_82">
      <path clip-path="url(#p66e53e2ff4)" d="
M366.227 520.8
L366.227 264.02" style="fill:none;stroke:#ffffff;stroke-linecap:round;"/>
     </g>
     <g id="line2d_83">
      <g>
       <use style="fill:#262626;stroke:#262626;" x="366.2265625" xlink:href="#m219da94a98" y="520.8"/>
      </g>
     </g>
     <g id="line2d_84">
      <g>
       <use style="fill:#262626;stroke:#262626;" x="366.2265625" xlink:href="#m219da94a98" y="264.02"/>
      </g>
     </g>
     <g id="text_32">
      <text style="fill:#262626;font-family:Liberation Sans;font-size:16.0px;font-style:normal;text-anchor:middle;" transform="rotate(-0.000000, 366.226562, 539.395000)" x="366.2265625" y="539.395">−22</text>
     </g>
    </g>
    <g id="xtick_17">
     <g id="line2d_85">
      <path clip-path="url(#p66e53e2ff4)" d="
M394.148 520.8
L394.148 264.02" style="fill:none;stroke:#ffffff;stroke-linecap:round;"/>
     </g>
     <g id="line2d_86">
      <g>
       <use style="fill:#262626;stroke:#262626;" x="394.147790404" xlink:href="#m219da94a98" y="520.8"/>
      </g>
     </g>
     <g id="line2d_87">
      <g>
       <use style="fill:#262626;stroke:#262626;" x="394.147790404" xlink:href="#m219da94a98" y="264.02"/>
      </g>
     </g>
     <g id="text_33">
      <text style="fill:#262626;font-family:Liberation Sans;font-size:16.0px;font-style:normal;text-anchor:middle;" transform="rotate(-0.000000, 394.147790, 539.395000)" x="394.147790404" y="539.395">−20</text>
     </g>
    </g>
    <g id="xtick_18">
     <g id="line2d_88">
      <path clip-path="url(#p66e53e2ff4)" d="
M422.069 520.8
L422.069 264.02" style="fill:none;stroke:#ffffff;stroke-linecap:round;"/>
     </g>
     <g id="line2d_89">
      <g>
       <use style="fill:#262626;stroke:#262626;" x="422.069018308" xlink:href="#m219da94a98" y="520.8"/>
      </g>
     </g>
     <g id="line2d_90">
      <g>
       <use style="fill:#262626;stroke:#262626;" x="422.069018308" xlink:href="#m219da94a98" y="264.02"/>
      </g>
     </g>
     <g id="text_34">
      <text style="fill:#262626;font-family:Liberation Sans;font-size:16.0px;font-style:normal;text-anchor:middle;" transform="rotate(-0.000000, 422.069018, 539.395000)" x="422.069018308" y="539.395">−18</text>
     </g>
    </g>
    <g id="xtick_19">
     <g id="line2d_91">
      <path clip-path="url(#p66e53e2ff4)" d="
M449.99 520.8
L449.99 264.02" style="fill:none;stroke:#ffffff;stroke-linecap:round;"/>
     </g>
     <g id="line2d_92">
      <g>
       <use style="fill:#262626;stroke:#262626;" x="449.990246212" xlink:href="#m219da94a98" y="520.8"/>
      </g>
     </g>
     <g id="line2d_93">
      <g>
       <use style="fill:#262626;stroke:#262626;" x="449.990246212" xlink:href="#m219da94a98" y="264.02"/>
      </g>
     </g>
     <g id="text_35">
      <text style="fill:#262626;font-family:Liberation Sans;font-size:16.0px;font-style:normal;text-anchor:middle;" transform="rotate(-0.000000, 449.990246, 539.395000)" x="449.990246212" y="539.395">−16</text>
     </g>
    </g>
    <g id="xtick_20">
     <g id="line2d_94">
      <path clip-path="url(#p66e53e2ff4)" d="
M477.911 520.8
L477.911 264.02" style="fill:none;stroke:#ffffff;stroke-linecap:round;"/>
     </g>
     <g id="line2d_95">
      <g>
       <use style="fill:#262626;stroke:#262626;" x="477.911474116" xlink:href="#m219da94a98" y="520.8"/>
      </g>
     </g>
     <g id="line2d_96">
      <g>
       <use style="fill:#262626;stroke:#262626;" x="477.911474116" xlink:href="#m219da94a98" y="264.02"/>
      </g>
     </g>
     <g id="text_36">
      <text style="fill:#262626;font-family:Liberation Sans;font-size:16.0px;font-style:normal;text-anchor:middle;" transform="rotate(-0.000000, 477.911474, 539.395000)" x="477.911474116" y="539.395">−14</text>
     </g>
    </g>
    <g id="xtick_21">
     <g id="line2d_97">
      <path clip-path="url(#p66e53e2ff4)" d="
M505.833 520.8
L505.833 264.02" style="fill:none;stroke:#ffffff;stroke-linecap:round;"/>
     </g>
     <g id="line2d_98">
      <g>
       <use style="fill:#262626;stroke:#262626;" x="505.83270202" xlink:href="#m219da94a98" y="520.8"/>
      </g>
     </g>
     <g id="line2d_99">
      <g>
       <use style="fill:#262626;stroke:#262626;" x="505.83270202" xlink:href="#m219da94a98" y="264.02"/>
      </g>
     </g>
     <g id="text_37">
      <text style="fill:#262626;font-family:Liberation Sans;font-size:16.0px;font-style:normal;text-anchor:middle;" transform="rotate(-0.000000, 505.832702, 539.395000)" x="505.83270202" y="539.395">−12</text>
     </g>
    </g>
    <g id="xtick_22">
     <g id="line2d_100">
      <path clip-path="url(#p66e53e2ff4)" d="
M533.754 520.8
L533.754 264.02" style="fill:none;stroke:#ffffff;stroke-linecap:round;"/>
     </g>
     <g id="line2d_101">
      <g>
       <use style="fill:#262626;stroke:#262626;" x="533.753929924" xlink:href="#m219da94a98" y="520.8"/>
      </g>
     </g>
     <g id="line2d_102">
      <g>
       <use style="fill:#262626;stroke:#262626;" x="533.753929924" xlink:href="#m219da94a98" y="264.02"/>
      </g>
     </g>
     <g id="text_38">
      <text style="fill:#262626;font-family:Liberation Sans;font-size:16.0px;font-style:normal;text-anchor:middle;" transform="rotate(-0.000000, 533.753930, 539.395000)" x="533.753929924" y="539.395">−10</text>
     </g>
    </g>
    <g id="xtick_23">
     <g id="line2d_103">
      <path clip-path="url(#p66e53e2ff4)" d="
M561.675 520.8
L561.675 264.02" style="fill:none;stroke:#ffffff;stroke-linecap:round;"/>
     </g>
     <g id="line2d_104">
      <g>
       <use style="fill:#262626;stroke:#262626;" x="561.675157828" xlink:href="#m219da94a98" y="520.8"/>
      </g>
     </g>
     <g id="line2d_105">
      <g>
       <use style="fill:#262626;stroke:#262626;" x="561.675157828" xlink:href="#m219da94a98" y="264.02"/>
      </g>
     </g>
     <g id="text_39">
      <text style="fill:#262626;font-family:Liberation Sans;font-size:16.0px;font-style:normal;text-anchor:middle;" transform="rotate(-0.000000, 561.675158, 539.395000)" x="561.675157828" y="539.395">−8</text>
     </g>
    </g>
    <g id="xtick_24">
     <g id="line2d_106">
      <path clip-path="url(#p66e53e2ff4)" d="
M589.596 520.8
L589.596 264.02" style="fill:none;stroke:#ffffff;stroke-linecap:round;"/>
     </g>
     <g id="line2d_107">
      <g>
       <use style="fill:#262626;stroke:#262626;" x="589.596385732" xlink:href="#m219da94a98" y="520.8"/>
      </g>
     </g>
     <g id="line2d_108">
      <g>
       <use style="fill:#262626;stroke:#262626;" x="589.596385732" xlink:href="#m219da94a98" y="264.02"/>
      </g>
     </g>
     <g id="text_40">
      <text style="fill:#262626;font-family:Liberation Sans;font-size:16.0px;font-style:normal;text-anchor:middle;" transform="rotate(-0.000000, 589.596386, 539.395000)" x="589.596385732" y="539.395">−6</text>
     </g>
    </g>
    <g id="xtick_25">
     <g id="line2d_109">
      <path clip-path="url(#p66e53e2ff4)" d="
M617.518 520.8
L617.518 264.02" style="fill:none;stroke:#ffffff;stroke-linecap:round;"/>
     </g>
     <g id="line2d_110">
      <g>
       <use style="fill:#262626;stroke:#262626;" x="617.517613636" xlink:href="#m219da94a98" y="520.8"/>
      </g>
     </g>
     <g id="line2d_111">
      <g>
       <use style="fill:#262626;stroke:#262626;" x="617.517613636" xlink:href="#m219da94a98" y="264.02"/>
      </g>
     </g>
     <g id="text_41">
      <text style="fill:#262626;font-family:Liberation Sans;font-size:16.0px;font-style:normal;text-anchor:middle;" transform="rotate(-0.000000, 617.517614, 539.395000)" x="617.517613636" y="539.395">−4</text>
     </g>
    </g>
    <g id="text_42">
     <text style="fill:#262626;font-family:Liberation Sans;font-size:18.0px;font-style:normal;text-anchor:middle;" transform="rotate(-0.000000, 491.872088, 560.759375)" x="491.872088068" y="560.759375">Smoothness</text>
    </g>
   </g>
   <g id="matplotlib.axis_6">
    <g id="ytick_9">
     <g id="line2d_112">
      <path clip-path="url(#p66e53e2ff4)" d="
M366.227 520.8
L617.518 520.8" style="fill:none;stroke:#ffffff;stroke-linecap:round;"/>
     </g>
     <g id="line2d_113">
      <g>
       <use style="fill:#262626;stroke:#262626;" x="366.2265625" xlink:href="#m219da94a98" y="520.8"/>
      </g>
     </g>
     <g id="line2d_114">
      <g>
       <use style="fill:#262626;stroke:#262626;" x="617.517613636" xlink:href="#m219da94a98" y="520.8"/>
      </g>
     </g>
     <g id="text_43">
      <text style="fill:#262626;font-family:Liberation Sans;font-size:16.0px;font-style:normal;text-anchor:end;" transform="rotate(-0.000000, 359.226562, 524.937500)" x="359.2265625" y="524.9375">0.00</text>
     </g>
    </g>
    <g id="ytick_10">
     <g id="line2d_115">
      <path clip-path="url(#p66e53e2ff4)" d="
M366.227 469.444
L617.518 469.444" style="fill:none;stroke:#ffffff;stroke-linecap:round;"/>
     </g>
     <g id="line2d_116">
      <g>
       <use style="fill:#262626;stroke:#262626;" x="366.2265625" xlink:href="#m219da94a98" y="469.444"/>
      </g>
     </g>
     <g id="line2d_117">
      <g>
       <use style="fill:#262626;stroke:#262626;" x="617.517613636" xlink:href="#m219da94a98" y="469.444"/>
      </g>
     </g>
     <g id="text_44">
      <text style="fill:#262626;font-family:Liberation Sans;font-size:16.0px;font-style:normal;text-anchor:end;" transform="rotate(-0.000000, 359.226562, 473.581500)" x="359.2265625" y="473.5815">0.05</text>
     </g>
    </g>
    <g id="ytick_11">
     <g id="line2d_118">
      <path clip-path="url(#p66e53e2ff4)" d="
M366.227 418.088
L617.518 418.088" style="fill:none;stroke:#ffffff;stroke-linecap:round;"/>
     </g>
     <g id="line2d_119">
      <g>
       <use style="fill:#262626;stroke:#262626;" x="366.2265625" xlink:href="#m219da94a98" y="418.088"/>
      </g>
     </g>
     <g id="line2d_120">
      <g>
       <use style="fill:#262626;stroke:#262626;" x="617.517613636" xlink:href="#m219da94a98" y="418.088"/>
      </g>
     </g>
     <g id="text_45">
      <text style="fill:#262626;font-family:Liberation Sans;font-size:16.0px;font-style:normal;text-anchor:end;" transform="rotate(-0.000000, 359.226562, 422.225500)" x="359.2265625" y="422.2255">0.10</text>
     </g>
    </g>
    <g id="ytick_12">
     <g id="line2d_121">
      <path clip-path="url(#p66e53e2ff4)" d="
M366.227 366.732
L617.518 366.732" style="fill:none;stroke:#ffffff;stroke-linecap:round;"/>
     </g>
     <g id="line2d_122">
      <g>
       <use style="fill:#262626;stroke:#262626;" x="366.2265625" xlink:href="#m219da94a98" y="366.732"/>
      </g>
     </g>
     <g id="line2d_123">
      <g>
       <use style="fill:#262626;stroke:#262626;" x="617.517613636" xlink:href="#m219da94a98" y="366.732"/>
      </g>
     </g>
     <g id="text_46">
      <text style="fill:#262626;font-family:Liberation Sans;font-size:16.0px;font-style:normal;text-anchor:end;" transform="rotate(-0.000000, 359.226562, 370.869500)" x="359.2265625" y="370.8695">0.15</text>
     </g>
    </g>
    <g id="ytick_13">
     <g id="line2d_124">
      <path clip-path="url(#p66e53e2ff4)" d="
M366.227 315.376
L617.518 315.376" style="fill:none;stroke:#ffffff;stroke-linecap:round;"/>
     </g>
     <g id="line2d_125">
      <g>
       <use style="fill:#262626;stroke:#262626;" x="366.2265625" xlink:href="#m219da94a98" y="315.376"/>
      </g>
     </g>
     <g id="line2d_126">
      <g>
       <use style="fill:#262626;stroke:#262626;" x="617.517613636" xlink:href="#m219da94a98" y="315.376"/>
      </g>
     </g>
     <g id="text_47">
      <text style="fill:#262626;font-family:Liberation Sans;font-size:16.0px;font-style:normal;text-anchor:end;" transform="rotate(-0.000000, 359.226562, 319.513500)" x="359.2265625" y="319.5135">0.20</text>
     </g>
    </g>
    <g id="ytick_14">
     <g id="line2d_127">
      <path clip-path="url(#p66e53e2ff4)" d="
M366.227 264.02
L617.518 264.02" style="fill:none;stroke:#ffffff;stroke-linecap:round;"/>
     </g>
     <g id="line2d_128">
      <g>
       <use style="fill:#262626;stroke:#262626;" x="366.2265625" xlink:href="#m219da94a98" y="264.02"/>
      </g>
     </g>
     <g id="line2d_129">
      <g>
       <use style="fill:#262626;stroke:#262626;" x="617.517613636" xlink:href="#m219da94a98" y="264.02"/>
      </g>
     </g>
     <g id="text_48">
      <text style="fill:#262626;font-family:Liberation Sans;font-size:16.0px;font-style:normal;text-anchor:end;" transform="rotate(-0.000000, 359.226562, 268.157500)" x="359.2265625" y="268.1575">0.25</text>
     </g>
    </g>
   </g>
   <g id="line2d_130">
    <path clip-path="url(#p66e53e2ff4)" d="
M429.551 520.653
L433.663 520.442
L436.404 520.051
L437.774 519.73
L439.144 519.29
L440.515 518.698
L441.885 517.914
L443.256 516.891
L444.626 515.576
L445.997 513.911
L447.367 511.835
L448.738 509.282
L450.108 506.19
L451.478 502.5
L452.849 498.16
L454.219 493.131
L455.59 487.391
L456.96 480.94
L458.331 473.799
L461.072 457.67
L463.812 439.69
L470.665 393.34
L473.406 376.702
L476.146 361.861
L478.887 348.751
L481.628 337.126
L484.369 326.816
L487.11 317.886
L488.48 314.021
L489.851 310.616
L491.221 307.712
L492.592 305.343
L493.962 303.529
L495.333 302.274
L496.703 301.571
L498.074 301.4
L499.444 301.733
L500.814 302.541
L502.185 303.797
L503.555 305.481
L504.926 307.577
L506.296 310.082
L507.667 312.993
L509.037 316.314
L510.408 320.046
L511.778 324.186
L514.519 333.631
L517.26 344.438
L520.001 356.254
L525.483 381.281
L533.705 418.693
L540.557 449.019
L544.669 466.232
L547.41 476.727
L550.151 486.009
L551.521 490.085
L552.891 493.736
L554.262 496.94
L555.632 499.685
L557.003 501.974
L558.373 503.826
L559.744 505.273
L561.114 506.36
L562.485 507.144
L563.855 507.688
L566.596 508.323
L570.707 509.05
L573.448 509.877
L576.189 511.121
L578.93 512.703
L585.782 516.893
L588.523 518.208
L591.264 519.196
L594.005 519.874
L596.746 520.299
L600.857 520.606
L603.598 520.662
L603.598 520.662" style="fill:none;stroke:#4c72b0;stroke-linecap:round;stroke-width:2;"/>
   </g>
   <g id="line2d_131">
    <path clip-path="url(#p66e53e2ff4)" d="
M380.774 520.644
L384.887 520.518
L387.629 520.252
L390.371 519.743
L391.742 519.356
L393.113 518.852
L394.484 518.204
L395.855 517.381
L397.226 516.349
L398.597 515.069
L399.968 513.5
L401.339 511.596
L402.71 509.312
L404.082 506.599
L405.453 503.411
L406.824 499.703
L408.195 495.437
L409.566 490.579
L410.937 485.108
L412.308 479.01
L413.679 472.287
L416.421 457.036
L419.163 439.624
L421.905 420.5
L426.018 389.912
L430.132 359.244
L432.874 340.226
L435.616 323.534
L436.987 316.375
L438.358 310.154
L439.729 304.955
L441.1 300.832
L442.471 297.806
L443.842 295.863
L445.213 294.955
L446.584 295.005
L447.955 295.912
L449.326 297.564
L450.697 299.843
L452.068 302.638
L453.439 305.848
L456.182 313.212
L458.924 321.518
L461.666 330.598
L464.408 340.377
L468.521 356.008
L474.005 376.897
L476.747 386.514
L479.489 395.297
L482.232 403.309
L491.829 430.143
L494.571 438.883
L498.684 453.062
L502.797 467.363
L505.539 476.079
L506.91 480.007
L508.282 483.59
L509.653 486.803
L511.024 489.638
L512.395 492.102
L513.766 494.221
L515.137 496.032
L516.508 497.581
L519.25 500.118
L528.847 507.926
L535.703 514.111
L538.445 516.175
L541.187 517.808
L543.929 518.993
L546.671 519.78
L549.413 520.259
L552.155 520.519
L554.897 520.631
L554.897 520.631" style="fill:none;stroke:#d9544d;stroke-linecap:round;stroke-width:2;"/>
   </g>
   <g id="patch_13">
    <path d="
M366.227 264.02
L617.518 264.02" style="fill:none;"/>
   </g>
   <g id="patch_14">
    <path d="
M617.518 520.8
L617.518 264.02" style="fill:none;"/>
   </g>
   <g id="patch_15">
    <path d="
M366.227 520.8
L617.518 520.8" style="fill:none;"/>
   </g>
   <g id="patch_16">
    <path d="
M366.227 520.8
L366.227 264.02" style="fill:none;"/>
   </g>
   <g id="text_49">
    <text style="fill:#262626;font-family:Liberation Sans;font-size:18.0px;font-style:normal;" transform="translate(358.141931818 239.63175)">Smooth histogram of smoothness</text>
    <text style="fill:#262626;font-family:Liberation Sans;font-size:18.0px;font-style:normal;" transform="translate(377.484900568 259.02)">values estimated using LDLJ</text>
   </g>
   <g id="legend_3">
    <g id="line2d_132">
     <path d="
M505.918 292.1
L541.918 292.1" style="fill:none;stroke:#4c72b0;stroke-linecap:round;stroke-width:2;"/>
    </g>
    <g id="line2d_133"/>
    <g id="text_50">
     <!-- $X_{filt}^{fast}$ -->
     <g style="fill:#262626;" transform="translate(556.317613636 298.4)">
      <text>
       <tspan style="font-family:cmmi10;font-size:18.0px;font-style:regular;" x="0.0" y="-0.9979375">X</tspan>
       <tspan style="font-family:cmmi10;font-size:12.6px;font-style:regular;" x="14.90625 17.6293125 21.0647460937 23.7878085938 25.4021484375 29.155078125 30.4384921875 36.3324375" y="5.009375 -10.11875 5.009375 -10.11875 5.009375 5.009375 -10.11875 -10.11875">ffialtst</tspan>
      </text>
     </g>
    </g>
    <g id="line2d_134">
     <path d="
M505.918 326.3
L541.918 326.3" style="fill:none;stroke:#d9544d;stroke-linecap:round;stroke-width:2;"/>
    </g>
    <g id="line2d_135"/>
    <g id="text_51">
     <!-- $X_{filt}^{slow}$ -->
     <g style="fill:#262626;" transform="translate(556.317613636 332.6)">
      <text>
       <tspan style="font-family:cmmi10;font-size:18.0px;font-style:regular;" x="0.0" y="-0.55575">X</tspan>
       <tspan style="font-family:cmmi10;font-size:12.6px;font-style:regular;" x="14.90625 17.1196875 21.0647460937 23.0136328125 25.4021484375 26.7665625 29.155078125 32.8635351562" y="4.0359375 -8.2609375 4.0359375 -8.2609375 4.0359375 -8.2609375 4.0359375 -8.2609375">fsillotw</tspan>
      </text>
     </g>
    </g>
   </g>
  </g>
 </g>
 <defs>
  <clipPath id="pde51aa0b3e">
   <rect height="256.78" width="251.291051136" x="47.6265625" y="264.02"/>
  </clipPath>
  <clipPath id="p66e53e2ff4">
   <rect height="256.78" width="251.291051136" x="366.2265625" y="264.02"/>
  </clipPath>
  <clipPath id="pe922993440">
   <rect height="139.42" width="569.891051136" x="47.6265625" y="29.3"/>
  </clipPath>
 </defs>
</svg>
